<svg width="30.000000" height="30.000000" viewBox="0 0 30 30" fill="none" xmlns="http://www.w3.org/2000/svg" xmlns:xlink="http://www.w3.org/1999/xlink">
	<desc>
			Created with Pixso.
	</desc>
	<g clip-path="url(#clip2_13)">
		<path id="Shape" d="M12.9482 18.9352L15.7746 15.9874C16.6053 15.1212 16.6053 13.7166 15.7746 12.8502C14.9439 11.9838 13.597 11.9838 12.7665 12.8502L12.4982 13.1299L12.2299 12.8502C11.3992 11.9838 10.0524 11.9838 9.22171 12.8502C8.39101 13.7166 8.39101 15.1212 9.22171 15.9874L12.0077 18.8929C12.2736 19.1149 12.6658 19.1292 12.9482 18.9352ZM12.501 19.4017L12.513 19.3891L12.4834 19.3891L12.4953 19.4017L12.4981 19.3987L12.501 19.4017Z" clip-rule="evenodd" fill-rule="evenodd" fill="#4A4C5B" fill-opacity="1.000000"/>
		<path id="矢量 436" d="M14.4095 15.3719C14.3595 15.0719 14.6095 14.8219 14.9095 14.8719L17.3595 15.3219C17.772 15.3969 18.147 15.5969 18.447 15.8969L26.4095 23.8594C27.2345 24.6844 27.2345 26.0344 26.4095 26.8719C25.5845 27.6969 24.2345 27.6969 23.397 26.8719L15.4345 18.9094C15.1345 18.6094 14.9345 18.2219 14.8595 17.8219L14.4095 15.3719Z" stroke="#000000" stroke-width="1.500000"/>
		<path id="矢量 437" d="M24.7345 22.1969L21.7345 25.2094" stroke="#000000" stroke-width="1.500000"/>
		<path id="矢量 438" d="M14.8595 26.2844L5.47191 26.2844C4.09691 26.2844 2.97191 25.1594 2.97191 23.7844L2.97191 5.0094C2.97191 3.6344 4.09691 2.5094 5.47191 2.5094L19.522 2.5094C20.897 2.5094 22.022 3.6344 22.022 5.0094L22.022 13.1844" stroke="#000000" stroke-width="1.500000" stroke-linecap="round"/>
		<path id="矢量 439" d="M10.6844 8.7594L14.2969 8.7594" stroke="#000000" stroke-width="1.500000" stroke-linecap="round"/>
	</g>
	<defs>
		<clipPath id="clip2_13">
			<rect id="Write Notes" width="30.000000" height="30.000000" fill="white"/>
		</clipPath>
	</defs>
</svg>
