<?xml version="1.0" encoding="utf-8"?>
<!-- Generator: Adobe Illustrator 24.0.1, SVG Export Plug-In . SVG Version: 6.00 Build 0)  -->
<svg version="1.1" id="图层_1" xmlns="http://www.w3.org/2000/svg" xmlns:xlink="http://www.w3.org/1999/xlink" x="0px" y="0px"
	 viewBox="0 0 216.8 238.1" style="enable-background:new 0 0 216.8 238.1;" xml:space="preserve">
<style type="text/css">
	.st0{fill:#DB9FB0;}
	.st1{fill:#8F5462;}
	.st2{fill:#C38596;}
	.st3{fill:#B37388;}
	.st4{fill:#AD7083;}
	.st5{fill:#B3A1A9;}
	.st6{fill:#AC8B97;}
	.st7{fill:#A36776;}
	.st8{fill:#A36172;}
	.st9{fill:#C88A9B;}
	.st10{fill:#0E0406;}
	.st11{fill:#280F13;}
	.st12{fill:#4D2730;}
	.st13{fill:#040002;}
</style>
<g>
	<g>
		<path class="st0" d="M146.1,41.4c0.1,0.1,0.2,0.2,0.4,0.3c0.7,0.3,1.4,0.5,2.2,0.8c0,0,0,0,0,0c1.3,1,2.6,2,3.8,3c0,0,0,0,0,0
			c1.4,0.4,2.7,0.7,4.1,1.1c0,0,0,0,0,0c0.7,2.3,1.5,4.6,2.2,6.8c-1.4,0.9-3.1,1.5-4.1,2.7c-2.3,2.6-4.4,5.4-6.5,8.1
			c-0.4,0.5-0.6,1.2-0.8,1.8c-0.8,2.2-2,6.4-2.4,6.3c-5.6-1-5.3,5.4-8.8,6.6c-1.1,0.4-2.9,1.5-3.3,1.1c-1.1-1.1-2.4-2.7-2.4-4.1
			c-0.2-3,1.7-7,0.4-8.7c-3.8-4.9-0.4-7,2.2-9.8c2.5-2.6,5-5.2,7.6-7.7c0.6-0.6,1.6-0.9,2.4-1.3c0.3,0.6,0.7,1.2,0.8,1.8
			c0.1,0.5-0.2,1.1-0.3,1.7c0.5-0.3,0.9-0.7,1.5-0.9c2-0.6,4-1.2,0-1.9c-0.2,0-0.3-0.9-0.6-1c-1.1-0.3-2.7-1-3.2-0.6
			c-2.8,2.5-5,5.6-7.9,7.8c-3.6,2.8-7.6,6.4-5.2,10.5c2.1,3.7,0.4,6.3,0.8,9.4c0.2,2.3,1.6,4.8,3.2,6.4c0.6,0.6,3.6-0.4,5-1.4
			c1.5-1.1,2.4-3.1,3.7-4.6c0.3-0.3,0.9-0.5,1.4-0.5c3.1-0.2,5.2-1.1,6-4.7c0.6-2.6,2.9-4.9,4.5-7.3c0.6-0.9,1.3-1.9,1.9-2.8
			c1-1.6,2-3.3,3-4.9c0.3-0.1,0.5-0.2,0.8-0.3c4.6,2.8,1.7,7,1.9,10.6c0,0,0,0,0,0c-0.4,0.4-0.7,0.7-1.1,1.1c0,0,0,0,0,0
			c-0.5,1.4-1.1,2.9-1.6,4.3c-0.8,2.1-1,5.7-2.3,6.2c-4.2,1.4-4.8,4.3-5.1,7.8c-0.1,0.5-0.5,1.5-0.8,1.5c-6.6,0.7-8.5,2.7-8.7,9.5
			c-0.1,2.6-4.7,5.9-6.7,5.3c-4.7-1.3-9.6-2.3-14.4-3.3c-0.9-0.2-1.9,0.2-2.8,0.3c-0.3,0-0.5,0.3-0.7,0.5c0.3,0.1,0.5,0.3,0.8,0.3
			c4.2,0.4,8.8-0.1,12.5,1.5c3.7,1.5,6.9,2.5,10.7,1.5c0.8-0.2,1.7-1.1,1.9-1.9c0.3-1.1,0-2.3,0.1-3.5c0.4-6.7,2-8.2,8.5-8.3
			c0.5,0,1.1-1.6,1.5-2.5c0.8-2.1,1.2-4.5,2.3-6.5c1.1-2,3.3-3.4,4.3-5.4c1-1.9,1-4.3,1.5-6.4c0.2-0.1,0.4-0.2,0.5-0.3
			c0.4,0.5,1.2,1,1.2,1.5c0,2.6,0,5.2-0.5,7.7c-1.1,7,1.5,15.2-5.9,20.5c-0.2,0.1-0.4,0.2-0.5,0.3c-0.3,0.2-0.6,0.3-0.8,0.5
			c-0.2,0-0.3,0-0.5,0c-0.4,0.5-0.9,0.9-1.3,1.4c-0.1,0.3-0.2,0.5-0.3,0.8c-2.7,2.9-4.9,6.5-8.1,8.6c-2.8,1.9-6.6,3.3-9.9,3.3
			c-3.7,0-7.3-2-11.1-2.8c-1.5-0.3-3.2,0.5-4.7,0.8c1.5,0,3.1,0,4.6,0c0.5,0,1.2-0.2,1.5,0c1.5,1.2,3,2.4,4.5,3.7
			c-1.1,0.2-2.2,0.7-3.3,0.7c-5-0.1-10,0.1-14.9-0.6c-1.9-0.3-6.8,2.3-5.6-3.5c0-0.1-0.8-0.3-1.1-0.5c-0.8-0.4-2.4-1-2.4-1.3
			c0.2-1.2,0.8-2.4,1.5-3.4c0.7-1.1,2.4-2.2,2.2-2.9c-0.3-1.1-1.7-2.1-2.9-2.7c-1.3-0.6-2.9-0.8-4.3-1c-2.8-0.4-4.2-1.4-2.5-4.3
			c0.9-1.7,2.6-3.7-1.2-4.1c-0.3,0-0.6-2.3-0.5-3.5c0.3-3.2,8.3-4.5,2.2-9.2c-0.3-0.2-0.5-0.6-0.7-1c-0.3-0.6-0.5-1.2-0.7-1.8
			c0.1,0.9-0.2,2.2,0.3,2.6c3.2,3.1,1.6,5-1.4,6.7c0.4-4.8-0.6-6.5-3.3-6c-0.5,0-1.1,0-1.6,0c-1.2,0.8-3.2,1.5-3.4,2.5
			c-0.9,5.8,2.8,5.9,7,5.1c0.5,2.2,1.1,4.5,1.6,6.7c0.1,0.4,0.4,1,0.2,1.3c-3.2,5.7,0.8,6.3,4.9,7c1.4,0.2,2.7,1.1,4,1.6
			c-0.7,0.9-1.7,1.8-1.9,2.8c-0.4,1.7-0.2,3.6-0.2,5.4c0,0.4,0.5,0.9,0.7,1.3c-0.6,0.2-1.2,0.6-1.7,0.5c-7.3-1.5-14.6-3.1-21.8-4.6
			c-0.6-0.9-1.3-1.8-1.9-2.7c-0.2-0.2-0.4-0.4-0.5-0.6c0-2.4,0-4.7,0-7.1c-0.1-0.5-0.2-0.9-0.3-1.4c0-0.3-0.1-0.7-0.1-1
			c0.2-0.2,0.3-0.4,0.5-0.6c0.1,0,0.1,0,0.1-0.1c0.2-0.2,0.4-0.3,0.6-0.5c0.3-0.4,0.5-0.7,0.8-1.1c0.2-0.6,0.4-1.1,0.5-1.7
			c-0.3,0-0.6,0-0.9-0.1c-0.3,0-0.5-0.1-0.8-0.1c0.5-4.7,0.5-9.5,1.5-14.1c0.8-3.9,3.1-7.6,3.8-11.5c1-5.2,2.6-8.8,8.6-9.7
			c2.6-0.4,5.1-2.5,7.3-4.3c2.1-1.7,3.2-4.9,5.4-6c3-1.6,6.8-1.4,9.9-2.8c3.3-1.5,6.2-4.2,9.4-6.1c1.5-0.9,3.4-1.2,5.1-1.8
			c0.2,0,0.4,0,0.6,0c0.1,0,0.2,0,0.3,0.1c0.4,0.2,0.7,0.3,1.1,0.5c0.1,0,0.2,0,0.3,0.1c2.5,0.3,4.9,0.7,7.4,1c0.1,0,0.2,0,0.2,0
			c1.1,0.6,2.2,1.2,3.3,1.8c1.9,1.1,3.8,2.2,5.7,3.3c0.1,0.2,0.2,0.4,0.3,0.6C146,41.3,146,41.3,146.1,41.4z M115.3,53.4
			c-0.7-0.6-1.4-1.1-2.1-1.7c-2.5,2.1-4.9,4.1-7.3,6.2c-0.2,0.2,0,0.9,0,1.4c0.2-0.1,0.5-0.2,0.6-0.4c1.9-3.6,4.8-5,9-4.3
			c1,0.2,2.7-0.6,3.2-1.5c0.9-1.3,1.1-3.1,1.5-4.7c1.4,0.5,2.7,1,4.1,1.4c0.4,0.1,0.8,0.3,1.2,0.4c0.1,0,0.3-0.6,0.3-0.9
			c-0.9-7.5,2.1-10.9,9.6-10.7c0.4,0,0.8-0.2,1.2-0.4c-0.3-0.2-0.7-0.6-1-0.7c-6-1.2-9.6,1.2-11.2,7.2c-0.2,0.7-1.4,1.2-2.1,1.8
			c-1.6,1.1-3.4,2-4.8,3.3C116.4,50.8,115.9,52.2,115.3,53.4z M124,89.1c-0.2-0.8-0.1-1.7-0.5-2c-3-2.6-6.1-5.1-9.1-7.6
			c-0.7-0.6-1.6-1.3-1.6-2.1c-0.4-5.1-4.6-8.1-9-6.3c-0.4,0.2-0.7,0.5-1,0.8c0.5,0,0.9-0.1,1.4,0c1.7,0.4,4.2,0.4,5,1.5
			c1.2,1.6,1.3,4.1,1.9,6.3c0.1,0.4-0.2,1.2,0,1.4c0.3,0.3,1,0.1,1.5,0.2c1.1,0.3,2.1,0.8,3.1,1.1c-0.4,0.7-0.9,1.5-1.3,2.2
			c-0.2,0.4-0.4,0.8-0.6,1.2c0.6,0,1.2-0.1,1.8,0c2.9,0.4,6.9-1.3,7.5,3.7c0.1,0.4,0.4,0.8,0.5,1.2C123.6,90.2,123.8,89.7,124,89.1z
			"/>
		<path class="st0" d="M47.7,62.6c0-0.1,0-0.1,0-0.2c1.2-2.1,2.3-4.2,3.5-6.3c0,0,0,0,0,0c0.3-0.3,0.5-0.6,0.8-0.8c0,0,0,0,0,0
			c0.1-0.1,0.2-0.2,0.3-0.3c0,0,0,0,0,0c0.1-0.1,0.2-0.2,0.3-0.3c0,0,0,0,0,0c0.1-0.1,0.2-0.2,0.3-0.3c0.1-0.1,0.2-0.2,0.2-0.2
			c1.6-1,3.1-2,4.7-3c0,0,0,0,0,0c0.7-0.5,1.5-0.9,2.2-1.4c0,0,0,0,0,0c0.1-0.1,0.2-0.2,0.3-0.3c0,0,0,0,0,0
			c1.8-1.8,3.6-3.6,5.5-5.5c0,0,0,0,0,0c0.6-0.6,1.1-1.3,1.7-1.9c0,0,0,0,0,0c1.9-0.5,3.8-1.1,5.7-1.6c0,0,0,0,0,0
			c2.5-1.2,4.9-2.7,7.5-3.6c2.8-0.9,5.8-1.2,8.7-1.8c-0.5,0.3-1.1,0.4-1.6,0.8c-2.7,1.9-6.2,3.3-8,5.8c-1.8,2.5-2.9,4.1-6.4,4
			c-1.5,0-3.2,2.4-4.8,3.8c-1.9,1.7-3.8,3.5-5.6,5.3c-1.5,1.6-4,3.5-4,5.2c0,3.2-0.7,5-3.5,6.9c-1.9,1.3-2.5,4.5-3.7,6.9
			c-0.1,0.2,0.3,0.6,0.4,0.9c0.1-0.3,0.1-0.6,0.3-0.8c1.3-2,2.7-4,3.9-6.1c1.4-2.3,2.5-4.8,3.9-7.1c0.9-1.5,2.1-4,3.2-4
			c4.5-0.1,5.3-3.2,6.9-6.3c0.7-1.4,2.8-2.1,4.4-3c1.7-1,4.2-1.4,5.1-2.8c3.7-6.2,8-9.5,12.8-7.4c4.7,2.1,4.5-2.7,6.8-3.7
			c0.6-0.1,1.2-0.2,1.7-0.2c5.7-0.1,11.4-0.3,17.1-0.4c-3,2-6,5.4-9.2,5.7c-7.5,0.6-11.9,4.7-16.2,10c-1.3,1.6-4.3,1.7-6.4,2.9
			c-2.5,1.4-5.7,2.6-6.9,4.9c-2.9,5.7-4.5,12.1-7.4,17.8c-2.6,5.1,3.5,10.9-1.7,15.5c-0.7,0.1-1.4,0.2-2.2,0.3c0.5,1,1,2,1.6,3
			c0.2,0.2,0.3,0.4,0.5,0.5c0,0.1,0.1,0.3,0.1,0.4c0.1,0.6,0.2,1.1,0.3,1.7c0.3,0.5,0.5,0.9,0.8,1.4c0.1,0.5,0.2,0.9,0.3,1.4
			c0.3,0.5,0.5,1.1,0.8,1.6c0,0.3,0,0.5,0,0.8c0,1.3,0,2.5,0,3.8c0.1,0.7,0.2,1.5,0.3,2.2c-2.7-0.1-5.4-0.2-8.2-0.3
			c-0.1-0.6-0.2-1.3-0.3-1.9c-0.2-0.2-0.4-0.4-0.5-0.5c-0.4-0.5-0.7-0.9-1.1-1.4c-4.1-1.9-5.6-4.5-3.8-9.1c0.4-1.2-2.1-3.5-3.2-5.2
			c-1,0.9-2,1.9-3,2.8c-1.7,1.4-0.4,5.6-4.7,4.9c-1-0.2-2.2,2.1-3.6,2.9c-1.2,0.7-2.6,1.3-3.9,1.4c-0.8,0-1.6-1.1-2.4-1.6
			c-0.2-0.6-0.4-1.3-0.6-1.9c-0.1-0.8-0.2-1.6-0.3-2.4c0.3-1.6,0.6-3.1,0.8-4.7c0,0,0,0,0,0c0.2-0.5,0.4-1.1,0.5-1.6
			c0.6-1.6,1.1-3.3,1.7-4.9c0-0.7-0.2-1.4-0.1-2.1c0.9-4.4,1.8-8.8,2.8-13.2c0.2-0.4,0.4-0.7,0.6-1.1c0.1-0.1,0.1-0.2,0.2-0.3
			c0,0,0,0,0,0c1-0.8,2-1.6,3-2.5c0,0,0,0,0,0C47.4,63.5,47.5,63.1,47.7,62.6z M72,78.3c-2.5-1.9-4.1-3.9-5.2-3.7
			c-1.4,0.3-3.4,2.3-3.5,3.7c-0.1,1.2,2,3.5,3.3,3.6C67.9,82,69.4,80.1,72,78.3z"/>
		<path class="st1" d="M173.4,121.5c0-0.4,0.1-0.7,0.1-1.1c0-0.6,0-1.1,0-1.7c0-0.2-0.1-0.3-0.1-0.5c0-0.1,0-0.2,0-0.3
			c-2.8-2.2-5.6-4.4-8.4-6.6c-0.5-0.1-0.9-0.1-1.4-0.2c-1.7-0.7-3.4-1.5-5.2-2.2c0-0.1,0-0.2,0-0.3c1.5-2.8,2.9-5.6,4.4-8.4
			c0.2,0,0.4,0,0.5,0c0.1,0.1,0.2,0.2,0.3,0.3c0.1,0,0.2,0,0.3,0c1.3,0.6,2.6,1.3,3.8,1.9c0.2,0.4,0.4,0.7,0.6,1.1
			c2.9,2.9,6.5,5.4,8.7,8.7c5.5,8.2,1.8,15.3-8.6,17.6c-2.3,0.5-4.6,1.4-6.9,1.4c-4.2,0.1-5.7,2.4-6.1,6c-2.6-0.3-5.2-0.5-7.9-0.8
			c-0.3-1.6-0.6-3.2-0.9-4.8c0.1-0.1,0.1-0.3,0.2-0.4c0.7-0.3,1.5-0.7,2.2-0.9c5.8-1.2,11.8-2,17.5-3.7
			C169.1,125.9,171.1,123.3,173.4,121.5z"/>
		<path class="st2" d="M111.8,175.5c0.2-0.1,0.4-0.2,0.6-0.3c-0.5-1.3-1-2.6-1.4-3.8c-2.2-6.8-4.3-13.6-6.5-20.4
			c1.7,0.5,3.4,0.9,5.1,1.4l0,0c0.1,0.3,0.2,0.5,0.3,0.8c1.2,5.2,2.4,10.5,3.5,15.7c0.7,1.8,1.5,3.7,2.2,5.5
			c0.3,0.1,0.5,0.1,0.8,0.2c0.6,0.9,1.1,1.9,1.7,2.8c-0.1,0.2-0.3,0.3-0.4,0.5c-1.8,1.8-3.6,3.6-5.3,5.4c-1.2,1.2-2.5,2.5-3.7,3.7
			c-1.2,0.5-2.4,1.1-3.7,1.6c0,0,0,0,0,0c1.9-4,3.9-8,5.8-11.9c0.2-0.2,0.4-0.4,0.6-0.6C111.5,175.8,111.7,175.7,111.8,175.5z"/>
		<path class="st2" d="M73.1,106.8c-0.1-0.7-0.2-1.5-0.3-2.2c0-1.3,0-2.5,0-3.8c0-0.3,0-0.5,0-0.8c-0.3-0.5-0.5-1.1-0.8-1.6
			c-0.1-0.5-0.2-0.9-0.3-1.4c-0.3-0.5-0.5-0.9-0.8-1.4c-0.1-0.6-0.2-1.1-0.3-1.7c0.6,0.1,1.3,0.3,1.9,0.4c0.2,0,0.3,0,0.5,0
			c0.6,0,1.2,0,1.8,0c0,0.3,0.1,0.7,0.1,1c-0.3,0.2-0.5,0.4-0.8,0.7c0.3,0.2,0.7,0.5,1,0.7c0,2.4,0,4.7,0,7.1
			c0.2,0.2,0.4,0.4,0.5,0.6c0.6,0.9,1.3,1.8,1.9,2.7c0,1.7,0,3.5,0,5.2c0,0,0,0,0,0c-0.2,0-0.4,0-0.5,0c-0.2-1.1-0.4-2.3-0.7-3.4
			c-0.6,0.4-1.5,0.8-1.6,1.3c-0.9,5.7-4.7,2.9-7.6,2.7c-0.7-0.3-1.4-0.5-2.1-0.8c0.2,0.8,0.3,1.6,0.5,2.4c0,0,0,0,0,0
			c-0.8,0.2-1.6,0.4-2.4,0.5c-1.4-0.5-2.4-4.6-4.4-0.6c-0.8,0-1.6,0-2.4,0c-0.3-0.1-0.6-0.1-0.9-0.2c-0.5-0.1-1.1-0.2-1.6-0.3
			c-0.1-0.1-0.2-0.2-0.3-0.2c-0.1,0-0.1,0-0.2,0c-1.1-1.4-2.2-2.7-3.3-4.1c0,0,0,0,0,0c-0.1-0.1-0.2-0.2-0.3-0.3c0,0,0,0,0,0
			c-2.3-0.8-4.5-1.6-6.8-2.5c0.4,0,0.7-0.1,1.1,0c5,1.1,9.9,2.3,14.9,3.2c5.8,1,3.8-2.9,3.5-5.8c-0.1-0.5,0.3-1,0.4-1.5
			c0.4,0.5,0.7,0.9,1.1,1.4c0.2,0.2,0.4,0.4,0.5,0.5c0.1,0.6,0.2,1.3,0.3,1.9c-0.3,4.2,2.6,4,5.4,3.9c1.2,0,2.4-0.1,3.6-0.2
			C73.6,109.1,73.3,107.9,73.1,106.8z"/>
		<path class="st3" d="M158.5,108.7c0,0.1,0,0.2,0,0.3c-0.3,0.6-0.4,1.5-0.9,1.8c-6.2,3.9-12.1,8.9-18.9,11.2
			c-6.7,2.3-14.3,2.5-21.4,2.4c-5.2-0.1-10.4-2-15.6-3.2c-0.6-0.4-1.2-0.8-1.8-1.2c0-0.2,0-0.3,0-0.5c0.3-1.1,0.5-2.2,0.8-3.3l0,0
			c0.5,0.5,0.9,0.9,1.4,1.4c0,0,0,0,0,0c2.8,1.2,5.5,3,8.4,3.3c6.6,0.7,13.7,2.1,20,0.7c7.8-1.7,15.1-5.9,22.4-9.5
			c1-0.5,5.6-1.4,2.4-4.9C156.3,107.8,157.4,108.2,158.5,108.7z"/>
		<path class="st2" d="M83.2,171.5c0.4-0.2,0.8-0.3,1.2-0.5c0.1-1.1,0.5-2.3,0.4-3.4c-0.4-5.8-0.9-11.6-1.4-17.3c0-0.3,0-0.7,0-1
			c0-0.4-0.1-0.9,0-1.3c0.1-0.4,0.5-1.1,0.6-1.1c1.4,0.4,2.7,0.9,4,1.3c-0.1,8.2-0.2,16.5-0.3,24.7c0,0.2-0.2,0.4-0.3,0.6
			c-3.4,3.8-6.9,7.6-10.3,11.3c-0.2,0.3-0.9,0.4-1.2,0.3c-0.2-0.1-0.5-0.9-0.3-1.2C78.1,179.8,80.6,175.6,83.2,171.5z"/>
		<path class="st4" d="M101.7,121.2c5.2,1.1,10.4,3.1,15.6,3.2c7.2,0.1,14.8-0.1,21.4-2.4c6.8-2.3,12.6-7.3,18.9-11.2
			c0.5-0.3,0.6-1.2,0.9-1.8c1.7,0.7,3.4,1.5,5.2,2.2c-5.3,2.9-10.5,5.8-15.8,8.7c0,0,0,0,0,0c-3.4,1.3-6.9,2.6-10.3,4
			c-1.9,0.8-3.7,1.8-5.5,2.8c0,0-0.1,0.1-0.1,0c-1.5-0.1-3-0.2-4.5-0.3c-0.2-0.1-0.3-0.2-0.5-0.3c-0.1-0.1-0.2-0.2-0.3-0.2
			c0,0,0,0,0,0c-2.1,0.3-4.2,0.5-6.3,0.8c-1.9-0.1-3.8-0.2-5.7-0.3c-2.9-0.3-5.8-0.5-8.7-0.8C104.5,124.1,103.1,122.7,101.7,121.2z"
			/>
		<path class="st1" d="M89.2,120.7c-0.2,5.5-0.4,11.1-0.6,16.6c-0.2,1-0.4,2-0.5,3.1c-1.8-0.1-3.6-0.2-5.4-0.4
			c-0.5-6.3-1.1-12.5-1.6-18.8c0.3,0,0.7,0,1,0c2.2-0.2,4.4-0.3,6.6-0.5C88.8,120.7,89,120.7,89.2,120.7z"/>
		<path class="st1" d="M105.9,125.6c2.9,0.3,5.8,0.5,8.7,0.8c-1.5,5.2-2.9,10.3-4.4,15.5c-0.2,0.6-0.2,1.3-0.3,2
			c-1.9-0.3-3.8-0.5-5.7-0.8c-0.1-0.2-0.2-0.4-0.3-0.6C104.6,136.8,105.2,131.2,105.9,125.6z"/>
		<path class="st2" d="M100.6,116.3c-0.3,1.1-0.5,2.2-0.8,3.3c-0.2,0-0.4,0-0.7,0c-0.1,0-0.3,0-0.4-0.1c-0.1-0.1-0.2-0.1-0.4-0.2
			c-0.1,0-0.3,0-0.4,0c-0.2-0.2-0.4-0.4-0.6-0.6c-0.3-0.1-0.7-0.2-1-0.2c-5.7-1.4-11.3-2.7-17-4.1c-0.1-0.1-0.2-0.2-0.3-0.3
			c-0.4-0.4-0.7-0.7-1.1-1.1c-0.1-0.3-0.2-0.5-0.3-0.8l0,0c0.7-0.2,1.5-0.8,2.1-0.7c5,1,9.9,2.4,14.9,3.1c1.9,0.3,4-1,6.1-1.6
			c0.6-0.2,1.1-0.5,1.6-0.7c-0.2,0.4-0.5,0.8-0.6,1.2C101.3,114.5,101,115.4,100.6,116.3z"/>
		<path class="st5" d="M39,88c-0.2,0.5-0.4,1.1-0.5,1.6c-0.9-1.1-2.3-1.9-2.8-3.2c-2.4-6-5.2-12-6.8-18.3c-0.9-3.6-1.8-5.7-5.5-6.7
			c-4.7-1.3-4.7-4.9-3.3-8.8c0.1-0.3,0.4-0.7,0.6-0.7c3.1,0.1,6.5-0.4,9.2,0.7c1.3,0.6,1.9,4.3,1.8,6.6c-0.2,7.9,1.9,15,6.6,21.4
			c0.2,0.3,0.7,0.5,1.1,0.7c0.2-0.4,0.4-0.8,0.5-1.2c1.2-4.1,2.4-8.2,3.5-12.4c-0.9,4.4-1.9,8.8-2.8,13.2c-0.1,0.7,0,1.4,0.1,2.1
			c-4.9-1.5-10.8-15.7-9.5-23.7c0-0.8,0-1.7,0-2.5c0-0.2,0-0.3,0-0.5c-0.3-0.9-0.5-1.8-0.8-2.8c-0.2-0.3-0.4-0.5-0.5-0.8
			c-0.1,0-0.2,0-0.3,0c-2.4-0.1-4.9-0.3-7.3-0.2c-0.7,0-1.6,0.9-1.9,1.6c-1.4,4,1.7,7.3,6.9,8c0.8,0.1,1.8,1.3,1.9,2.2
			c0.9,4.3,0.9,9,2.5,13C33.2,81.2,36.5,84.5,39,88z"/>
		<path class="st3" d="M171,71.9c0,0.3,0,0.5,0,0.8c0,2.7,0,5.4,0,8.2c-0.3,0.7-0.5,1.4-0.8,2.1c-1,2.1-2,4.3-3,6.4
			c0.5-7.5,0.9-15.1,1.4-22.6c0.3,0.1,0.6,0.2,0.8,0.3c0,0,0,0,0,0c0.1,0.1,0.2,0.2,0.3,0.3c0,0,0,0,0,0c0.2,0.3,0.4,0.5,0.6,0.8
			c0,0,0,0,0,0c0.3,0.6,0.5,1.3,0.8,1.9c0,0.3,0,0.5,0,0.8C171,71.2,171,71.6,171,71.9z"/>
		<path class="st4" d="M167.2,89.4c1-2.1,2-4.3,3-6.4c0.3-0.7,0.6-1.4,0.8-2.1c0,0.4,0,0.8,0,1.2c0,0.3-0.1,0.7-0.1,1
			c0,3.2,0.1,6.4,0.1,9.7c0,0.4-0.1,0.8-0.1,1.2c-0.3,1-0.5,2.1-0.8,3.1c0,0.1,0,0.1,0,0.2c-0.8,1.7-1.6,3.5-2.4,5.2
			c-1.3-0.6-2.6-1.3-3.8-1.9c1.3-1.8,2.6-3.6,3.8-5.5c1.2-2,2.3-4.2-1.5-4.6C166.5,90.1,166.8,89.7,167.2,89.4L167.2,89.4z"/>
		<path class="st6" d="M88.1,140.4c0.2-1,0.4-2,0.5-3.1c-0.3,10.6-1.4,21.3-0.6,31.9c0.6,9.1-7.7,10.9-11.1,16.6
			c-0.1,0.1-1.6-0.4-1.7-0.8c-1.1-4.3,3.9-12.5,8-13.5c-2.5,4.1-5.1,8.3-7.6,12.5c-0.2,0.3,0.1,1,0.3,1.2c0.3,0.1,1,0,1.2-0.3
			c3.5-3.7,6.9-7.5,10.3-11.3c0.1-0.2,0.3-0.4,0.3-0.6c0.1-8.2,0.2-16.5,0.3-24.7c0-1.1,0-2.2,0-3.3c0-1,0-2,0-3
			C88.1,141.4,88.1,140.9,88.1,140.4z"/>
		<path class="st4" d="M79.1,114.1c0.1,0.1,0.2,0.2,0.3,0.3c0,0.2,0,0.4,0,0.6c-0.8,0.3-2.2,0.7-2.2,0.8c0.3,1.6,0.9,3.2,1.4,4.8
			c-3.7-1.8-7.5-3.7-11.2-5.5c-0.5-0.3-1.1-0.5-1.6-0.7c-0.2-0.8-0.3-1.6-0.5-2.4c0.7,0.3,1.4,0.5,2.1,0.8c1.2,1.1,2.2,2.8,3.6,3.2
			c1.5,0.4,3.3-0.3,4.9-0.6c0.1,0,0.1-0.9,0-1.3c-0.2-1-0.5-2-0.8-2.9c0.7,0.4,1.4,0.7,2.1,1.1c0.2,0,0.4,0,0.5,0
			c0.1,0.3,0.2,0.5,0.3,0.8C78.4,113.4,78.7,113.8,79.1,114.1z"/>
		<path class="st4" d="M82.1,121.2c-0.3,0-0.7,0-1,0c-0.1-0.2-0.2-0.4-0.4-0.6c-0.4-1.5-0.9-3.1-1.3-4.6c0.6,0.6,1.1,1.6,1.8,1.8
			c3,0.7,6,1.2,9.1,1.8c-0.2,0.3-0.4,0.5-0.6,0.8c-0.1,0-0.1,0-0.2,0.1c-0.1,0.1-0.2,0.2-0.3,0.3c0,0,0,0,0,0c-0.2,0-0.4,0-0.5,0
			C86.5,120.9,84.3,121,82.1,121.2z"/>
		<path class="st7" d="M154.8,138.1c-1.9,3.1-4.4,4.4-7.8,2.5c-0.5-0.3-0.4-1.8-0.5-2.8c0.2-0.1,0.3-0.2,0.5-0.3
			C149.6,137.7,152.2,137.9,154.8,138.1z"/>
		<path class="st7" d="M103.9,142.5c0.1,0.2,0.2,0.4,0.3,0.6c1.9,0.9,3.8,1.8,5.7,2.7c0,2.2,0,4.4,0,6.5c-0.1,0-0.2,0-0.2,0
			c0,0,0,0,0,0c-1.2-1.4-2.3-2.9-3.5-4.3c-0.6,0.6-1.1,1.3-1.7,1.9C104.3,147.4,104.1,144.9,103.9,142.5z"/>
		<path class="st0" d="M97.9,32.4c0.1,0,0.2,0,0.3,0c0.2,0.3,0.4,0.5,0.6,0.8c-2.3,3.7-5.4,3.2-8.8,1.9c1.1-0.8,2.2-1.6,3.3-2.5
			c0,0,0,0,0,0C94.8,32.6,96.3,32.5,97.9,32.4z"/>
		<path class="st6" d="M173.4,121.5c-2.3,1.8-4.3,4.4-6.9,5.2c-5.7,1.7-11.7,2.5-17.5,3.7c-0.8,0.2-1.5,0.6-2.2,0.9
			c1.9-0.6,3.8-1.7,5.6-1.7C160.6,129.7,167.4,126.7,173.4,121.5z"/>
		<path class="st3" d="M88.1,144.9c0,1.1,0,2.2,0,3.3c-1.3-0.5-2.7-0.9-4-1.3c-0.1,0-0.5,0.7-0.6,1.1c-0.1,0.4,0,0.9,0,1.3
			c-0.2-2-0.3-4-0.5-6.1c0,0,0.1,0,0.1,0l0.1,0C84.8,143.8,86.5,144.4,88.1,144.9z"/>
		<path class="st5" d="M98.7,33.2c-0.2-0.3-0.4-0.5-0.6-0.8c5.5,0,10.9-0.2,16.4,0c4.3,0.2,8.6,0.8,12.8,1.3c-0.2,0-0.4,0-0.6,0
			c-2.8-0.3-5.6-0.6-8.4-0.8c-5.7,0.1-11.4,0.2-17.1,0.4c-0.6,0-1.2,0.1-1.7,0.2C99.3,33.4,99,33.3,98.7,33.2z"/>
		<path class="st8" d="M154.8,138.1c-2.6-0.2-5.2-0.4-7.8-0.6c0.2-0.4,0.4-0.7,0.5-1.1c2.6,0.3,5.2,0.5,7.9,0.8
			C155.2,137.6,155,137.8,154.8,138.1z"/>
		<path class="st4" d="M104.4,149.9c0.6-0.6,1.1-1.3,1.7-1.9c1.2,1.4,2.3,2.9,3.5,4.3c-1.7-0.5-3.4-0.9-5.1-1.4
			C104.5,150.6,104.5,150.2,104.4,149.9z"/>
		<path class="st6" d="M169.4,67c-0.3-0.1-0.6-0.2-0.8-0.3c-1.3-2.5-2.5-4.9-3.8-7.4c-2.1-1.5-4.2-2.9-6.3-4.4
			c-0.3,0.1-0.5,0.2-0.8,0.3c0.4-0.5,0.7-1.1,1.1-1.6c0.4-0.1,0.7-0.2,1.1-0.3c2.5,3.3,5.1,6.5,7.6,9.8
			C168.2,64.3,168.7,65.7,169.4,67z"/>
		<path class="st8" d="M79.4,116c0.4,1.5,0.9,3.1,1.3,4.6c-0.7,0-1.4,0-2.2,0c-0.5-1.6-1-3.2-1.4-4.8c0-0.1,1.4-0.5,2.2-0.8
			C79.4,115.3,79.4,115.7,79.4,116z"/>
		<path class="st5" d="M93.3,32.7c-1.1,0.8-2.2,1.6-3.3,2.5c-0.3,0-0.5,0-0.8,0c-2.9,0.6-5.9,0.9-8.7,1.8c-2.6,0.9-5,2.4-7.5,3.6
			c5.5-2.1,11-4.1,16.5-6.2C90.8,33.9,92,33.2,93.3,32.7z"/>
		<path class="st8" d="M109.9,145.7c-1.9-0.9-3.8-1.8-5.7-2.7c1.9,0.3,3.8,0.5,5.7,0.8C109.9,144.5,109.9,145.1,109.9,145.7z"/>
		<path class="st7" d="M83.2,143.3L83.2,143.3c-0.1,0-0.2,0-0.2,0c-0.1-1.1-0.2-2.2-0.3-3.3c1.8,0.1,3.6,0.2,5.4,0.4
			c0,0.5,0,1.1,0,1.6C86.5,142.4,84.8,142.8,83.2,143.3z"/>
		<path class="st6" d="M147.8,119.9c5.3-2.9,10.5-5.8,15.8-8.7c0.5,0.1,0.9,0.1,1.4,0.2c-4.2,2.3-8.4,4.8-12.7,7
			C150.9,119.1,149.3,119.4,147.8,119.9z"/>
		<path class="st6" d="M83.4,150.3c0.5,5.8,1,11.5,1.4,17.3c0.1,1.1-0.3,2.2-0.4,3.4c-0.3-6.5-0.7-12.9-1-19.4
			C83.3,151.2,83.4,150.8,83.4,150.3z"/>
		<path class="st6" d="M132,126.7c1.8-0.9,3.6-2,5.5-2.8c3.4-1.4,6.9-2.7,10.3-4C142.6,122.1,137.3,124.4,132,126.7z"/>
		<path class="st5" d="M110.7,176.6c-1.9,4-3.9,8-5.8,11.9c0.7-2.8,1.1-5.7,2.2-8.3C107.8,178.8,109.5,177.8,110.7,176.6z"/>
		<path class="st6" d="M43.1,106.8c2.3,0.8,4.5,1.6,6.8,2.5c-3.6-1.5-7.3-3.1-10.9-4.6c0-0.1,0-0.2,0-0.3
			C40.4,105.1,41.7,106,43.1,106.8z"/>
		<path class="st6" d="M56.5,114.4c0.8,0,1.6,0,2.4,0c1.5,0.2,3,0.4,4.4,0.6c0.8-0.2,1.6-0.4,2.4-0.5c-3.3,0-6.6,0-9.9,0
			C56.1,114.4,56.3,114.4,56.5,114.4z"/>
		<path class="st6" d="M171.1,82.1c0-0.4,0-0.8,0-1.2c0-2.7,0-5.4,0-8.2C171,75.9,171,79,171.1,82.1z"/>
		<path class="st5" d="M145.6,40.6c-1.9-1.1-3.8-2.2-5.7-3.3c-1.1-0.6-2.2-1.2-3.3-1.8c2.4,0.7,4.9,1.1,7.1,2.1
			C144.6,38,145,39.6,145.6,40.6z"/>
		<path class="st5" d="M159.8,53.4c-0.4,0.1-0.7,0.2-1.1,0.3c0-0.1,0-0.2,0-0.3c-0.7-2.3-1.5-4.6-2.2-6.8
			C157.6,48.8,158.7,51.1,159.8,53.4z"/>
		<path class="st5" d="M39,104.3c0,0.1,0,0.2,0,0.3c-0.4-2.6-0.7-5.3-1.1-7.9c0.2,0.6,0.4,1.3,0.6,1.9
			C38.6,100.5,38.8,102.4,39,104.3z"/>
		<path class="st5" d="M65.7,44.1c-1.8,1.8-3.6,3.6-5.5,5.5C62.1,47.7,63.9,45.9,65.7,44.1z"/>
		<path class="st5" d="M112.3,183.2c1.8-1.8,3.6-3.6,5.3-5.4C115.9,179.7,114.1,181.4,112.3,183.2z"/>
		<path class="st5" d="M51.3,56.1c-1.2,2.1-2.3,4.2-3.5,6.3C48.9,60.3,50.1,58.2,51.3,56.1z"/>
		<path class="st5" d="M136.4,35.4c-2.5-0.3-4.9-0.7-7.4-1C131.5,34.7,133.9,35.1,136.4,35.4z"/>
		<path class="st6" d="M167.7,102.4c0.8-1.7,1.6-3.5,2.4-5.2c-0.6,2.1-1.2,4.2-1.9,6.3C168.1,103.1,167.9,102.8,167.7,102.4z"/>
		<path class="st6" d="M50.2,109.5c1.1,1.4,2.2,2.7,3.3,4.1C52.4,112.2,51.3,110.9,50.2,109.5z"/>
		<path class="st6" d="M147.5,136.5c-0.2,0.4-0.4,0.7-0.5,1.1c-0.2,0.1-0.3,0.2-0.5,0.3c0-2,0.1-4.1,0.1-6.1
			C146.9,133.3,147.2,134.9,147.5,136.5z"/>
		<path class="st6" d="M171.1,92.8c0-3.2-0.1-6.4-0.1-9.7C171,86.3,171,89.5,171.1,92.8z"/>
		<path class="st5" d="M73.1,40.6c-1.9,0.5-3.8,1.1-5.7,1.6C69.3,41.7,71.2,41.1,73.1,40.6z"/>
		<path class="st6" d="M89.7,120.4c0.2-0.3,0.4-0.5,0.6-0.8c0.4,0.1,0.9,0.2,1.3,0.3c0.2,0.1,0.4,0.2,0.6,0.3c1.4,0,2.7,0,4.1,0
			c0,0,0.1,0.1,0.1,0.1C94.1,120.2,91.9,120.3,89.7,120.4z"/>
		<path class="st5" d="M57.8,51.2c-1.6,1-3.1,2-4.7,3C54.7,53.2,56.3,52.2,57.8,51.2z"/>
		<path class="st6" d="M120.3,126.6c2.1-0.3,4.2-0.5,6.3-0.8C124.4,126.1,122.4,126.4,120.3,126.6z"/>
		<path class="st6" d="M115.7,174.4c-0.7-1.8-1.5-3.7-2.2-5.5C114.2,170.7,114.9,172.5,115.7,174.4z"/>
		<path class="st5" d="M118.1,177.4c-0.6-0.9-1.1-1.9-1.7-2.8c0.8,0.5,1.6,0.9,2.3,1.5C118.8,176.1,118.3,176.9,118.1,177.4z"/>
		<path class="st5" d="M152.5,45.5c-1.3-1-2.6-2-3.8-3C149.9,43.5,151.2,44.5,152.5,45.5z"/>
		<path class="st5" d="M105,188.5c1.2-0.5,2.4-1.1,3.7-1.6C107.4,187.5,106.2,188,105,188.5z"/>
		<path class="st6" d="M111,171.3c0.5,1.3,1,2.6,1.4,3.8C112,173.9,111.5,172.6,111,171.3z"/>
		<path class="st6" d="M127.3,126.4c1.5,0.1,3,0.2,4.5,0.3C130.3,126.6,128.8,126.5,127.3,126.4z"/>
		<path class="st5" d="M47.2,64c-1,0.8-2,1.6-3,2.5C45.2,65.6,46.2,64.8,47.2,64z"/>
		<path class="st5" d="M97.9,32.4c-1.5,0.1-3.1,0.2-4.6,0.3C94.8,32.6,96.3,32.5,97.9,32.4z"/>
		<path class="st5" d="M156.6,46.6c-1.4-0.4-2.7-0.7-4.1-1.1C153.8,45.9,155.2,46.2,156.6,46.6z"/>
		<path class="st5" d="M38.4,89.6c-0.3,1.6-0.6,3.1-0.8,4.7C37.9,92.7,38.2,91.2,38.4,89.6z"/>
		<path class="st5" d="M67.4,42.2c-0.6,0.6-1.1,1.3-1.7,1.9C66.3,43.5,66.8,42.8,67.4,42.2z"/>
		<path class="st5" d="M60,49.8c-0.7,0.5-1.5,0.9-2.2,1.4C58.5,50.7,59.3,50.3,60,49.8z"/>
		<path class="st6" d="M170.2,97.1c0.3-1,0.5-2.1,0.8-3.1C170.7,95,170.5,96,170.2,97.1z"/>
		<path class="st6" d="M97.4,118.8c0.2,0.2,0.4,0.4,0.6,0.6c-0.5,0.3-1.1,0.5-1.6,0.8c0,0-0.1-0.1-0.1-0.1
			C96.6,119.7,97,119.2,97.4,118.8z"/>
		<path class="st6" d="M171,70c-0.3-0.6-0.5-1.3-0.8-1.9C170.5,68.7,170.7,69.4,171,70z"/>
		<path class="st5" d="M148.6,42.5c-0.7-0.3-1.4-0.5-2.2-0.8C147.2,42,147.9,42.2,148.6,42.5z"/>
		<path class="st5" d="M47.7,62.6c-0.2,0.5-0.4,0.9-0.5,1.4C47.4,63.5,47.5,63.1,47.7,62.6z"/>
		<path class="st6" d="M171,71.9c0-0.4,0-0.7,0-1.1C171,71.2,171,71.6,171,71.9z"/>
		<path class="st5" d="M52.1,55.3c-0.3,0.3-0.5,0.6-0.8,0.8C51.5,55.8,51.8,55.6,52.1,55.3z"/>
		<path class="st6" d="M173.5,118.8c0,0.6,0,1.1,0,1.7C173.5,119.9,173.5,119.3,173.5,118.8z"/>
		<path class="st5" d="M128.8,34.3c-0.4-0.2-0.7-0.3-1.1-0.5C128,34,128.4,34.2,128.8,34.3z"/>
		<path class="st4" d="M56.5,114.4c-0.2,0-0.4,0-0.6,0c-0.1-0.1-0.2-0.2-0.3-0.2C55.9,114.3,56.2,114.3,56.5,114.4z"/>
		<path class="st6" d="M170.2,68.1c-0.2-0.3-0.4-0.5-0.6-0.8C169.8,67.6,170,67.8,170.2,68.1z"/>
		<path class="st5" d="M111.8,175.5c-0.2,0.2-0.3,0.3-0.5,0.5C111.5,175.8,111.7,175.7,111.8,175.5z"/>
		<path class="st4" d="M109.6,152.3c0.1,0,0.2,0,0.2,0c0,0.3,0,0.5,0.1,0.8C109.8,152.8,109.7,152.5,109.6,152.3z"/>
		<path class="st6" d="M99.2,119.6c0.2,0,0.4,0,0.7,0c0,0.2,0,0.3,0,0.5C99.6,119.9,99.4,119.8,99.2,119.6z"/>
		<path class="st6" d="M169.6,67.3c-0.1-0.1-0.2-0.2-0.3-0.3C169.5,67.1,169.5,67.2,169.6,67.3z"/>
		<path class="st6" d="M126.5,125.9c0.1,0.1,0.2,0.2,0.3,0.2C126.7,126,126.6,126,126.5,125.9z"/>
		<path class="st6" d="M89.2,120.7c0.1-0.1,0.2-0.2,0.3-0.3C89.4,120.5,89.3,120.6,89.2,120.7z"/>
		<path class="st5" d="M44.2,66.5c-0.1,0.1-0.1,0.2-0.2,0.3C44,66.6,44.1,66.5,44.2,66.5z"/>
		<path class="st6" d="M98.4,119.3c0.1,0.1,0.2,0.1,0.4,0.2C98.6,119.5,98.5,119.4,98.4,119.3z"/>
		<path class="st5" d="M52.4,55c-0.1,0.1-0.2,0.2-0.3,0.3C52.2,55.2,52.3,55.1,52.4,55z"/>
		<path class="st5" d="M52.6,54.7c-0.1,0.1-0.2,0.2-0.3,0.3C52.4,54.9,52.5,54.8,52.6,54.7z"/>
		<path class="st5" d="M52.9,54.4c-0.1,0.1-0.2,0.2-0.3,0.3C52.7,54.6,52.8,54.5,52.9,54.4z"/>
		<path class="st5" d="M60.3,49.6c-0.1,0.1-0.2,0.2-0.3,0.3C60.1,49.8,60.2,49.7,60.3,49.6z"/>
		<path class="st6" d="M173.4,118c0,0.1,0,0.2,0,0.3C173.4,118.2,173.4,118.1,173.4,118z"/>
		<path class="st6" d="M53.7,113.6c0.1,0.1,0.2,0.2,0.3,0.2C53.9,113.8,53.8,113.7,53.7,113.6z"/>
		<path class="st5" d="M146.1,41.4c-0.1-0.1-0.1-0.1-0.2-0.2C146,41.2,146,41.3,146.1,41.4z"/>
		<path class="st6" d="M49.9,109.2c0.1,0.1,0.2,0.2,0.3,0.3C50.1,109.4,50,109.3,49.9,109.2z"/>
		<path class="st9" d="M100.6,116.3c0.3-0.9,0.7-1.8,1.1-2.8c0.2-0.4,0.4-0.8,0.6-1.2c-0.5,0.2-1,0.5-1.6,0.7
			c-2,0.6-4.1,1.9-6.1,1.6c-5-0.7-9.9-2.1-14.9-3.1c-0.6-0.1-1.4,0.4-2.1,0.7c0-1.7,0-3.5,0-5.2c7.3,1.5,14.6,3.1,21.8,4.6
			c0.5,0.1,1.1-0.3,1.7-0.5c-0.2-0.4-0.7-0.9-0.7-1.3c0-1.8-0.2-3.6,0.2-5.4c0.2-1,1.2-1.9,1.9-2.8c-1.3-0.6-2.6-1.4-4-1.6
			c-4.1-0.7-8-1.4-4.9-7c0.2-0.3-0.1-0.9-0.2-1.3C93,89.5,92.5,87.2,92,85c0.4-0.5,0.9-1.1,1.3-1.6c3-1.7,4.7-3.6,1.4-6.7
			c-0.5-0.5-0.2-1.7-0.3-2.6c0.2,0.6,0.4,1.2,0.7,1.8c0.2,0.4,0.4,0.8,0.7,1c6.1,4.7-1.9,6.1-2.2,9.2c-0.1,1.2,0.2,3.5,0.5,3.5
			c3.9,0.4,2.2,2.4,1.2,4.1c-1.6,2.9-0.3,4,2.5,4.3c1.5,0.2,3,0.4,4.3,1c1.2,0.6,2.6,1.6,2.9,2.7c0.2,0.7-1.5,1.9-2.2,2.9
			c-0.7,1.1-1.3,2.2-1.5,3.4c-0.1,0.3,1.5,0.9,2.4,1.3c0.4,0.2,1.2,0.4,1.1,0.5c-1.2,5.9,3.7,3.3,5.6,3.5c4.9,0.7,9.9,0.5,14.9,0.6
			c1.1,0,2.2-0.4,3.3-0.7c-1.5-1.2-2.9-2.5-4.5-3.7c-0.3-0.2-1,0-1.5,0c-1.5,0-3.1,0-4.6,0c1.6-0.3,3.3-1.1,4.7-0.8
			c3.7,0.8,7.4,2.8,11.1,2.8c3.4,0,7.2-1.3,9.9-3.3c3.2-2.2,5.4-5.7,8.1-8.6c0.1,2.1,0.2,4.2,0.3,6.3c0,0.2,0,0.4,0,0.5
			c-0.5,0.8-0.9,1.6-1.4,2.5c-0.2,0.2-0.4,0.4-0.5,0.5c-1.1,0.8-2.2,1.6-3.3,2.5c-0.7,0.2-1.4,0.4-2.2,0.6c-1.5-0.3-2.9-0.8-4.3-0.7
			c-2.2,0.1-4.4,0.7-6.6,1.1c0,0,0,0.2-0.1,0.3c1.6-0.1,3.2-0.1,4.9-0.2c0.4,0,0.8-0.1,1.1,0.1c0.6,0.4,1.2,0.9,1.7,1.4
			c0,0-0.3,0.6-0.6,0.7c-7.7,4.2-16.1,3.3-24.4,3c-4.8-0.2-9.7-0.6-14.5-0.9c0,0,0,0,0,0C101.5,117.2,101.1,116.8,100.6,116.3
			L100.6,116.3z"/>
		<path class="st9" d="M118.4,33c2.8,0.3,5.6,0.6,8.4,0.8c-1.7,0.6-3.6,0.9-5.1,1.8c-3.2,1.9-6,4.6-9.4,6.1c-3.1,1.4-7,1.2-9.9,2.8
			c-2.2,1.2-3.4,4.3-5.4,6c-2.1,1.8-4.7,3.9-7.3,4.3c-6,0.9-7.6,4.5-8.6,9.7c-0.8,3.9-3,7.6-3.8,11.5c-0.9,4.6-1,9.4-1.5,14.1
			c-1.7-0.2-3.4-0.4-5.2-0.6c5.2-4.6-0.9-10.4,1.7-15.5c2.9-5.7,4.5-12.1,7.4-17.8c1.2-2.2,4.4-3.5,6.9-4.9c2-1.2,5.1-1.3,6.4-2.9
			c4.3-5.3,8.7-9.4,16.2-10C112.4,38.4,115.3,35,118.4,33z"/>
		<path class="st9" d="M158.7,53.4c0,0.1,0,0.2,0,0.3c-0.4,0.5-0.7,1.1-1.1,1.6c-1,1.6-2,3.3-3,4.9c-0.6,1-1.3,1.9-1.9,2.8
			c-1.6,2.4-3.8,4.6-4.5,7.3c-0.9,3.6-2.9,4.5-6,4.7c-0.5,0-1.1,0.2-1.4,0.5c-1.3,1.5-2.1,3.5-3.7,4.6c-1.4,1-4.4,2-5,1.4
			c-1.6-1.7-3-4.1-3.2-6.4c-0.3-3.1,1.4-5.7-0.8-9.4c-2.3-4,1.6-7.7,5.2-10.5c2.9-2.2,5.1-5.3,7.9-7.8c0.5-0.5,2.1,0.3,3.2,0.6
			c0.3,0.1,0.4,0.9,0.6,1c4,0.7,2,1.2,0,1.9c-0.5,0.2-1,0.6-1.5,0.9c0.1-0.6,0.3-1.1,0.3-1.7c-0.1-0.6-0.5-1.2-0.8-1.8
			c-0.8,0.4-1.8,0.7-2.4,1.3c-2.6,2.5-5.1,5.1-7.6,7.7c-2.7,2.8-6.1,5-2.2,9.8c1.4,1.7-0.6,5.8-0.4,8.7c0.1,1.5,1.3,3.1,2.4,4.1
			c0.4,0.4,2.1-0.7,3.3-1.1c3.5-1.3,3.2-7.7,8.8-6.6c0.4,0.1,1.5-4.1,2.4-6.3c0.2-0.6,0.4-1.3,0.8-1.8c2.1-2.7,4.2-5.6,6.5-8.1
			C155.7,54.9,157.3,54.3,158.7,53.4z"/>
		<path class="st9" d="M155.5,97c7.4-5.2,4.8-13.4,5.9-20.5c0.4-2.5,0.4-5.1,0.5-7.7c0-0.5-0.8-1-1.2-1.5c1-0.4,2-1.3,2.9-1.2
			c0.8,0.1,1.9,1.4,1.9,2.2c0.2,2.3,0.1,4.7-0.2,7c-0.8,5.5-1.8,11-2.7,16.5c-0.5,1-1.1,2-1.6,3c-0.5,0.9-1.1,1.8-1.7,2.7
			c-0.3,0-0.5,0-0.8,0C157.5,97.4,156.5,97.2,155.5,97z"/>
		<path class="st9" d="M160.1,67.6c-0.5,2.2-0.5,4.5-1.5,6.4c-1,2-3.2,3.4-4.3,5.4c-1.1,2-1.5,4.3-2.3,6.5c-0.3,0.9-0.9,2.5-1.5,2.5
			c-6.5,0.2-8.1,1.7-8.5,8.3c-0.1,1.2,0.2,2.4-0.1,3.5c-0.2,0.8-1.2,1.7-1.9,1.9c-3.8,1.1-7,0-10.7-1.5c-3.7-1.5-8.3-1.1-12.5-1.5
			c-0.3,0-0.5-0.2-0.8-0.3c0.2-0.2,0.5-0.4,0.7-0.5c0.9-0.2,1.9-0.5,2.8-0.3c4.8,1,9.7,1.9,14.4,3.3c2,0.6,6.6-2.7,6.7-5.3
			c0.2-6.8,2.1-8.7,8.7-9.5c0.3,0,0.7-1,0.8-1.5c0.3-3.5,0.9-6.4,5.1-7.8c1.3-0.4,1.5-4,2.3-6.2c0.5-1.5,1.1-2.9,1.6-4.3
			C159.5,67,159.8,67.3,160.1,67.6z"/>
		<path class="st2" d="M160.1,67.6c-0.3-0.3-0.5-0.5-0.8-0.8c0,0,0,0,0,0c0.4-0.4,0.7-0.7,1.1-1.1c0,0,0,0,0,0
			c1.5-2.1,2.9-4.2,4.4-6.3c1.3,2.5,2.5,4.9,3.8,7.4c-0.5,7.5-0.9,15.1-1.4,22.6c0,0,0,0,0,0c-0.4,0.4-0.7,0.7-1.1,1.1
			c-1.2,0.5-2.4,0.9-3.5,1.4c0.9-5.5,1.9-11,2.7-16.5c0.3-2.3,0.4-4.7,0.2-7c-0.1-0.8-1.2-2-1.9-2.2c-0.9-0.1-1.9,0.7-2.9,1.2
			C160.5,67.4,160.3,67.5,160.1,67.6z"/>
		<path class="st9" d="M115.3,53.4c0.7-1.2,1.1-2.6,2.1-3.5c1.4-1.3,3.2-2.2,4.8-3.3c0.8-0.5,1.9-1,2.1-1.8c1.6-6,5.2-8.4,11.2-7.2
			c0.4,0.1,0.7,0.4,1,0.7c-0.4,0.1-0.8,0.4-1.2,0.4c-7.5-0.2-10.6,3.1-9.6,10.7c0,0.3-0.2,0.9-0.3,0.9c-0.4,0-0.8-0.2-1.2-0.4
			c-1.4-0.5-2.7-1-4.1-1.4c-0.5,1.6-0.7,3.4-1.5,4.7c-0.6,0.9-2.2,1.6-3.2,1.5c-4.1-0.7-7,0.7-9,4.3c-0.1,0.2-0.4,0.3-0.6,0.4
			c0-0.5-0.2-1.2,0-1.4c2.4-2.1,4.9-4.1,7.3-6.2C113.8,52.3,114.5,52.9,115.3,53.4z"/>
		<path class="st9" d="M124,89.1c-0.2,0.5-0.3,1.1-0.5,1.7c-0.2-0.4-0.5-0.8-0.5-1.2c-0.6-5-4.6-3.3-7.5-3.7c-0.6-0.1-1.2,0-1.8,0
			c0.2-0.4,0.4-0.8,0.6-1.2c0.4-0.7,0.9-1.5,1.3-2.2c-1-0.4-2.1-0.8-3.1-1.1c-0.5-0.2-1.1,0-1.5-0.2c-0.2-0.2,0.1-0.9,0-1.4
			c-0.5-2.2-0.6-4.7-1.9-6.3c-0.8-1.1-3.3-1.1-5-1.5c-0.4-0.1-0.9,0-1.4,0c0.3-0.3,0.6-0.7,1-0.8c4.4-1.8,8.6,1.3,9,6.3
			c0.1,0.7,1,1.5,1.6,2.1c3,2.6,6.1,5,9.1,7.6C123.9,87.5,123.8,88.4,124,89.1z"/>
		<path class="st4" d="M155.5,97c1,0.2,2,0.4,3,0.6c-0.8,1.4-1.5,2.8-2.3,4.2c-0.9,1.6-1.8,3.2-2.6,4.7c-0.5-0.1-0.9-0.2-1.4-0.3
			c-0.1-2.1-0.2-4.2-0.3-6.3c0.1-0.3,0.2-0.5,0.3-0.8c0.4-0.5,0.9-0.9,1.3-1.4c0.2,0,0.3,0,0.5,0c0.3-0.2,0.6-0.3,0.8-0.5
			C155.1,97.2,155.3,97.1,155.5,97z"/>
		<path class="st9" d="M164.7,59.4c-1.5,2.1-2.9,4.2-4.4,6.3c-0.2-3.6,2.6-7.8-1.9-10.6C160.5,56.5,162.6,57.9,164.7,59.4z"/>
		<path class="st10" d="M73.1,94.4c-0.2,0-0.3,0-0.5,0c-0.7-0.3-1.4-0.6-2.1-0.9c-0.2-0.2-0.3-0.4-0.5-0.5c-0.1-0.9-0.2-1.9-0.3-2.8
			c2.4,0.7,4.8,1.3,7.2,2c-0.3,0.4-0.5,0.7-0.8,1.1c-0.2,0.2-0.4,0.3-0.6,0.5c0,0.1-0.1,0.1-0.1,0.1C74.6,94,73.8,94.2,73.1,94.4z"
			/>
		<path class="st6" d="M93.3,83.4c-0.4,0.5-0.9,1.1-1.3,1.6c-4.2,0.8-7.9,0.8-7-5.1c0.2-1,2.2-1.7,3.4-2.5c-0.8,0.7-1.6,1.4-2.5,2.2
			c-0.1,0.2-0.1,0.4-0.2,0.5c0,0.2-0.1,0.3-0.1,0.5c0,0.3,0,0.5,0,0.8c0.3,0.7,0.6,1.4,0.8,2.1c0.7,0.4,1.3,0.8,2,1.2
			c1.5-0.7,3-1.5,4.4-2.2c-0.9-1.7-1.9-3.5-2.8-5.2C92.7,76.8,93.6,78.6,93.3,83.4z"/>
		<path class="st11" d="M85.9,79.5c0.8-0.7,1.6-1.4,2.5-2.2c0.5,0,1.1,0,1.6,0c0.9,1.7,1.9,3.5,2.8,5.2c-1.5,0.7-3,1.5-4.4,2.2
			c1.1-0.8,2.5-1.4,3.1-2.5c0.4-0.7-0.2-2.9-0.6-2.9C89.3,79.1,87.6,79.4,85.9,79.5z"/>
		<path class="st12" d="M76.9,92.1c-2.4-0.7-4.8-1.3-7.2-2c0.1,0.9,0.2,1.9,0.3,2.8c-0.5-1-1-2-1.6-3c0.7-0.1,1.4-0.2,2.2-0.3
			c1.7,0.2,3.4,0.4,5.2,0.6c0.3,0,0.5,0.1,0.8,0.1c0.3,0,0.6,0,0.9,0.1C77.3,91,77.1,91.5,76.9,92.1z"/>
		<path class="st12" d="M73.1,94.4c0.8-0.2,1.6-0.4,2.3-0.6c-0.2,0.2-0.3,0.4-0.5,0.6C74.3,94.4,73.7,94.4,73.1,94.4z"/>
		<path class="st9" d="M75.3,96.7c-0.3-0.2-0.7-0.5-1-0.7c0.3-0.2,0.5-0.4,0.8-0.7C75.1,95.8,75.2,96.3,75.3,96.7z"/>
		<path class="st9" d="M153.6,97.8c-0.4,0.5-0.9,0.9-1.3,1.4C152.7,98.7,153.1,98.3,153.6,97.8z"/>
		<path class="st9" d="M160.4,65.7c-0.4,0.4-0.7,0.7-1.1,1.1C159.6,66.4,160,66,160.4,65.7z"/>
		<path class="st9" d="M77.5,90.4c-0.3,0-0.6,0-0.9-0.1C76.9,90.3,77.2,90.4,77.5,90.4z"/>
		<path class="st3" d="M154.9,97.3c-0.3,0.2-0.6,0.3-0.8,0.5C154.4,97.6,154.6,97.4,154.9,97.3z"/>
		<path class="st9" d="M75.8,104.3c-0.2-0.2-0.4-0.4-0.5-0.6C75.5,104,75.6,104.1,75.8,104.3z"/>
		<path class="st12" d="M75.5,93.7c0.2-0.2,0.4-0.3,0.6-0.5C76,93.4,75.7,93.5,75.5,93.7z"/>
		<path class="st9" d="M39,104.3c-0.2-1.9-0.4-3.8-0.6-5.7c0.8,0.6,1.6,1.7,2.4,1.6c1.3-0.1,2.8-0.7,3.9-1.4c1.3-0.8,2.6-3,3.6-2.9
			c4.3,0.7,3-3.4,4.7-4.9c1.1-0.9,2-1.9,3-2.8c1.2,1.8,3.7,4.1,3.2,5.2c-1.8,4.6-0.3,7.2,3.8,9.1c-0.1,0.5-0.5,1-0.4,1.5
			c0.3,2.9,2.2,6.8-3.5,5.8c-5-0.9-9.9-2.1-14.9-3.2c-0.4-0.1-0.7,0-1.1,0C41.7,106,40.4,105.1,39,104.3z M51.2,97.3
			c-0.6-0.4-1.2-0.8-1.8-1.2c-1.1,0.9-2.5,1.6-3,2.8c-0.3,0.7,0.9,2.5,1.8,2.9c3.5,1.5,7.1,2.7,10.7,3.9c1,0.3,2.2-0.2,3.3-0.4
			c-0.6-0.8-1.1-1.8-1.9-2.4c-2.7-2.1-5.4-4.1-2.9-8.2c0.5-0.8-0.9-2.7-1.4-4.1c-0.8,0.8-1.7,1.4-2.3,2.3
			C52.6,94.2,51.9,95.8,51.2,97.3z"/>
		<path class="st2" d="M39,88c-2.5-3.5-5.8-6.7-7.4-10.6c-1.6-4-1.6-8.6-2.5-13c-0.2-0.9-1.2-2.1-1.9-2.2c-5.3-0.7-8.3-4-6.9-8
			c0.2-0.7,1.2-1.5,1.9-1.6c2.4-0.1,4.9,0.1,7.3,0.2c0.1,0,0.2,0,0.3,0c0.2,0.3,0.4,0.5,0.5,0.8c0.3,0.9,0.5,1.8,0.8,2.8
			c0,0.2,0,0.3,0,0.5c0,0.8,0,1.7,0,2.5c-1.3,7.9,4.7,22.2,9.5,23.7C40.1,84.7,39.5,86.3,39,88z"/>
		<path class="st9" d="M89.2,35.1c0.3,0,0.5,0,0.8,0c3.3,1.3,6.5,1.8,8.8-1.9c0.3,0.1,0.5,0.2,0.8,0.3c-2.4,0.9-2.1,5.8-6.8,3.7
			c-4.8-2.1-9.1,1.2-12.8,7.4c-0.9,1.4-3.4,1.8-5.1,2.8c-1.5,0.9-3.6,1.6-4.4,3c-1.6,3-2.5,6.2-6.9,6.3c-1.1,0-2.3,2.5-3.2,4
			c-1.4,2.3-2.6,4.8-3.9,7.1c-1.2,2.1-2.6,4.1-3.9,6.1c-0.2,0.2-0.2,0.6-0.3,0.8c-0.1-0.3-0.5-0.7-0.4-0.9c1.1-2.4,1.8-5.6,3.7-6.9
			c2.8-1.9,3.5-3.7,3.5-6.9c0-1.8,2.5-3.6,4-5.2c1.8-1.9,3.7-3.6,5.6-5.3c1.5-1.4,3.2-3.8,4.8-3.8c3.5,0.1,4.6-1.5,6.4-4
			c1.8-2.5,5.2-3.9,8-5.8C88.1,35.6,88.7,35.4,89.2,35.1z"/>
		<path class="st9" d="M73.1,106.8c0.3,1.2,0.5,2.3,0.8,3.5c-1.2,0.1-2.4,0.2-3.6,0.2c-2.8,0-5.7,0.2-5.4-3.9
			C67.6,106.6,70.4,106.7,73.1,106.8z"/>
		<path class="st11" d="M72,78.3c-2.6,1.8-4.1,3.7-5.4,3.6c-1.3-0.1-3.4-2.4-3.3-3.6c0.1-1.4,2.1-3.4,3.5-3.7
			C67.9,74.4,69.4,76.4,72,78.3z M61.7,76.4c0.5,0.9,1,1.8,1.5,2.7c1.1,0.6,2.2,1.8,3.3,1.7c1.2-0.1,2.2-1.3,3.3-2.1
			c-1.3-1.2-2.4-2.9-3.9-3.5C64.7,74.8,63,75.9,61.7,76.4z M66.9,81.5c0.1,0,0.2,0.1,0.2,0.1c0.1,0,0.1-0.1,0.1-0.2
			c-0.1,0-0.2-0.1-0.2-0.1C67,81.3,67,81.4,66.9,81.5z"/>
		<path class="st9" d="M72.8,100.8c0,1.3,0,2.5,0,3.8C72.8,103.3,72.8,102.1,72.8,100.8z"/>
		<path class="st12" d="M70.5,93.5c0.7,0.3,1.4,0.6,2.1,0.9c-0.6-0.1-1.3-0.3-1.9-0.4C70.6,93.8,70.6,93.7,70.5,93.5z"/>
		<path class="st9" d="M72,98.3c0.3,0.5,0.5,1.1,0.8,1.6C72.6,99.4,72.3,98.9,72,98.3z"/>
		<path class="st9" d="M70.9,95.6c0.3,0.5,0.5,0.9,0.8,1.4C71.5,96.5,71.2,96.1,70.9,95.6z"/>
		<path class="st9" d="M64.6,104.6c-0.2-0.2-0.4-0.4-0.5-0.5C64.3,104.2,64.5,104.4,64.6,104.6z"/>
		<path class="st3" d="M162.5,91.8c1.2-0.5,2.4-0.9,3.5-1.4c3.8,0.4,2.7,2.6,1.5,4.6c-1.1,1.9-2.5,3.7-3.8,5.5c-0.1,0-0.2,0-0.3,0
			c-0.1-0.1-0.2-0.2-0.3-0.3c-0.2,0-0.4,0-0.5,0c-0.5-0.4-0.9-0.7-1.4-1.1c1.3-1.3,2.6-2.6,3.7-4c0.5-0.7,0.4-1.8,0.6-2.7
			c-0.9,0.1-2.6-0.1-2.7,0.2c-0.8,2.1-1.3,4.3-1.8,6.5c-0.2,0-0.4,0-0.6,0c-0.5-0.5-0.9-1.1-1.4-1.6c0.6-0.9,1.1-1.8,1.7-2.7
			C161.5,93.8,162,92.8,162.5,91.8z"/>
		<path class="st8" d="M161.5,99.2c0.5,0.4,0.9,0.7,1.4,1.1c-1.5,2.8-2.9,5.6-4.4,8.4c-1.1-0.5-2.2-0.9-3.3-1.4
			c-0.2-0.1-0.4-0.2-0.5-0.3c2-2.6,4-5.3,6-7.9c0.2,0,0.4,0,0.6,0C161.3,99.2,161.4,99.2,161.5,99.2z"/>
		<path class="st8" d="M163.4,100.3c0.1,0.1,0.2,0.2,0.3,0.3C163.5,100.4,163.4,100.4,163.4,100.3z"/>
		<path class="st3" d="M77.2,112.2c-0.7-0.4-1.4-0.7-2.1-1.1c0.3,1,0.6,2,0.8,2.9c0.1,0.5,0.1,1.3,0,1.3c-1.7,0.3-3.5,1-4.9,0.6
			c-1.4-0.4-2.4-2.1-3.6-3.2c2.9,0.2,6.7,3,7.6-2.7c0.1-0.5,1-0.9,1.6-1.3C76.7,109.9,77,111.1,77.2,112.2z"/>
		<path class="st4" d="M63.3,115c-1.5-0.2-3-0.4-4.4-0.6C60.9,110.4,61.9,114.4,63.3,115z"/>
		<path class="st2" d="M154.6,107c0.2,0.1,0.4,0.2,0.5,0.3c3.2,3.5-1.5,4.4-2.4,4.9c-7.3,3.6-14.6,7.7-22.4,9.5
			c-6.3,1.4-13.3,0-20-0.7c-2.9-0.3-5.6-2.2-8.4-3.3c4.8,0.3,9.7,0.7,14.5,0.9c8.3,0.3,16.7,1.2,24.4-3c0.3-0.1,0.6-0.7,0.6-0.7
			c-0.5-0.5-1.1-1-1.7-1.4c-0.3-0.2-0.7-0.1-1.1-0.1c-1.6,0.1-3.2,0.1-4.9,0.2c0-0.1,0-0.3,0.1-0.3c2.2-0.4,4.4-1,6.6-1.1
			c1.4-0.1,2.9,0.4,4.3,0.7c-0.5,0.4-1.1,0.8-1.6,1.2c1.2,0,2.8,0.5,3.4,0c2.5-2.2,4.6-4.7,6.9-7.1C153.9,106.9,154.3,107,154.6,107
			z"/>
		<path class="st2" d="M100.6,116.3c0.5,0.5,0.9,0.9,1.4,1.4C101.5,117.2,101.1,116.8,100.6,116.3z"/>
		<path class="st8" d="M82.1,121.2c2.2-0.2,4.4-0.3,6.6-0.5C86.5,120.9,84.3,121,82.1,121.2z"/>
		<path class="st3" d="M97.4,118.8c-0.4,0.4-0.8,0.9-1.1,1.3c-1.4,0-2.7,0-4.1,0c-0.2-0.1-0.4-0.2-0.6-0.3c-0.4-0.1-0.9-0.2-1.3-0.3
			c-3-0.6-6.1-1-9.1-1.8c-0.7-0.2-1.2-1.2-1.8-1.8c0-0.4,0-0.7,0-1.1c0-0.2,0-0.4,0-0.6c5.7,1.4,11.3,2.8,17,4.1
			C96.7,118.6,97,118.7,97.4,118.8z"/>
		<path class="st3" d="M79.1,114.1c-0.4-0.4-0.7-0.7-1.1-1.1C78.4,113.4,78.7,113.8,79.1,114.1z"/>
		<path class="st6" d="M31.1,56.4c-0.3-0.9-0.5-1.8-0.8-2.8C30.5,54.6,30.8,55.5,31.1,56.4z"/>
		<path class="st6" d="M31.1,59.4c0-0.8,0-1.7,0-2.5C31.1,57.7,31.1,58.6,31.1,59.4z"/>
		<path class="st6" d="M29.7,52.8c-0.1,0-0.2,0-0.3,0C29.5,52.8,29.6,52.8,29.7,52.8z"/>
		<path class="st3" d="M166.1,90.4c0.4-0.4,0.7-0.7,1.1-1.1C166.8,89.7,166.5,90.1,166.1,90.4z"/>
		<path class="st4" d="M83.2,143.3c1.6-0.4,3.3-0.9,4.9-1.3c0,1,0,2,0,3C86.5,144.4,84.8,143.8,83.2,143.3z"/>
		<path class="st4" d="M91.6,119.9c0.2,0.1,0.4,0.2,0.6,0.3C92,120,91.8,120,91.6,119.9z"/>
		<path class="st3" d="M153.6,106.8c-2.3,2.4-4.5,5-6.9,7.1c-0.6,0.6-2.2,0-3.4,0c0.5-0.4,1.1-0.8,1.6-1.2c0.7-0.2,1.4-0.4,2.2-0.6
			c1.1-0.8,2.2-1.6,3.3-2.5c0.2-0.2,0.4-0.4,0.5-0.5c0.5-0.8,0.9-1.6,1.4-2.5c0-0.2,0-0.4,0-0.5c0.5,0.1,0.9,0.2,1.4,0.3
			C153.5,106.6,153.6,106.7,153.6,106.8z"/>
		<path class="st2" d="M150.3,109.8c-1.1,0.8-2.2,1.6-3.3,2.5C148.1,111.4,149.2,110.6,150.3,109.8z"/>
		<path class="st2" d="M152.2,106.8c-0.5,0.8-0.9,1.6-1.4,2.5C151.3,108.4,151.7,107.6,152.2,106.8z"/>
		<path class="st7" d="M153.6,106.8c0-0.1,0-0.2,0-0.3c0.9-1.6,1.8-3.2,2.6-4.7c0.8-1.4,1.5-2.8,2.3-4.2c0.3,0,0.5,0,0.8,0
			c0.5,0.5,0.9,1.1,1.4,1.6c-2,2.6-4,5.3-6,7.9C154.3,107,153.9,106.9,153.6,106.8z"/>
		<path class="st13" d="M85.9,79.5c1.7-0.1,3.4-0.4,5-0.2c0.4,0.1,1,2.3,0.6,2.9c-0.6,1.1-2,1.7-3.1,2.5c-0.7-0.4-1.3-0.8-2-1.2
			c-0.3-0.7-0.6-1.4-0.8-2.1c0-0.3,0-0.5,0-0.8c0-0.2,0.1-0.3,0.1-0.5C85.7,79.9,85.8,79.7,85.9,79.5z"/>
		<path class="st11" d="M85.5,81.4c0.3,0.7,0.6,1.4,0.8,2.1C86.1,82.8,85.8,82.1,85.5,81.4z"/>
		<path class="st11" d="M85.7,80.1c0,0.2-0.1,0.3-0.1,0.5C85.6,80.4,85.6,80.3,85.7,80.1z"/>
		<path class="st0" d="M51.2,97.3c0.8-1.5,1.5-3.1,2.4-4.5c0.6-0.9,1.5-1.5,2.3-2.3c0.5,1.4,1.9,3.3,1.4,4.1
			c-2.5,4.2,0.2,6.1,2.9,8.2c0.8,0.6,1.3,1.6,1.9,2.4c-1.1,0.1-2.3,0.7-3.3,0.4c-3.6-1.1-7.2-2.3-10.7-3.9c-0.9-0.4-2.1-2.3-1.8-2.9
			c0.5-1.1,2-1.9,3-2.8C50,96.4,50.6,96.9,51.2,97.3z"/>
		<path class="st13" d="M61.7,76.4c1.4-0.5,3-1.6,4.1-1.2c1.5,0.6,2.6,2.3,3.9,3.5c-1.1,0.7-2.2,2-3.3,2.1c-1,0.1-2.2-1.1-3.3-1.7
			C62.6,78.2,62.1,77.3,61.7,76.4z"/>
		<path class="st13" d="M66.9,81.5c0-0.1,0.1-0.2,0.1-0.2c0.1,0,0.1,0.1,0.2,0.1c0,0.1,0,0.2-0.1,0.2C67.1,81.6,67,81.6,66.9,81.5z"
			/>
		<path class="st2" d="M161.5,99.2c-0.1,0-0.2,0-0.3,0c0.6-2.2,1-4.4,1.8-6.5c0.1-0.4,1.8-0.2,2.7-0.2c-0.2,0.9-0.1,2-0.6,2.7
			C164.1,96.6,162.7,97.8,161.5,99.2z"/>
	</g>
</g>
</svg>
