<?xml version="1.0" encoding="utf-8"?>
<!-- Generator: Adobe Illustrator 24.0.1, SVG Export Plug-In . SVG Version: 6.00 Build 0)  -->
<svg version="1.1" id="图层_1" xmlns="http://www.w3.org/2000/svg" xmlns:xlink="http://www.w3.org/1999/xlink" x="0px" y="0px"
	 viewBox="0 0 213 238.1" style="enable-background:new 0 0 213 238.1;" xml:space="preserve">
<style type="text/css">
	.st0{fill:#DC9FB0;}
	.st1{fill:#C8899A;}
	.st2{fill:#91515F;}
	.st3{fill:#B06F84;}
	.st4{fill:#BE7A8E;}
	.st5{fill:#BE798D;}
	.st6{fill:#BD798D;}
	.st7{fill:#90515D;}
	.st8{fill:#90515E;}
	.st9{fill:#BD7D91;}
	.st10{fill:#AE6F83;}
	.st11{fill:#B6778A;}
	.st12{fill:#AF6F83;}
	.st13{fill:#D496A7;}
	.st14{fill:#9C5C6B;}
	.st15{fill:#9D5E6C;}
	.st16{fill:#B5758A;}
	.st17{fill:#A66776;}
	.st18{fill:#B26F81;}
	.st19{fill:#AF6E83;}
	.st20{fill:#AB909A;}
	.st21{fill:#A86878;}
	.st22{fill:#985A69;}
	.st23{fill:#B36F81;}
	.st24{fill:#A56473;}
	.st25{fill:#A9909A;}
	.st26{fill:#BBA6AF;}
	.st27{fill:#A16075;}
	.st28{fill:#9F8590;}
	.st29{fill:#A2717F;}
	.st30{fill:#AD8B97;}
	.st31{fill:#A4838F;}
	.st32{fill:#88888C;}
	.st33{fill:#9F8D95;}
	.st34{fill:#977C88;}
	.st35{fill:#96858E;}
	.st36{fill:#BDA5AF;}
	.st37{fill:#B0929D;}
	.st38{fill:#BDA6AF;}
	.st39{fill:#AB9AA1;}
	.st40{fill:#C1A6AF;}
	.st41{fill:#C0A5AF;}
	.st42{fill:#9E5D6F;}
	.st43{fill:#8A7B81;}
	.st44{fill:#C2A8B2;}
	.st45{fill:#977884;}
	.st46{fill:#9F7D89;}
	.st47{fill:#BEA5AF;}
	.st48{fill:#B6A2AB;}
	.st49{fill:#987A87;}
	.st50{fill:#BBA3AC;}
	.st51{fill:#877D83;}
	.st52{fill:#A17C8B;}
	.st53{fill:#A98A95;}
	.st54{fill:#8B747B;}
	.st55{fill:#C0A8B1;}
	.st56{fill:#9D868F;}
	.st57{fill:#A98F99;}
	.st58{fill:#A38590;}
	.st59{fill:#AA919A;}
	.st60{fill:#D79AAA;}
	.st61{fill:#CD90A1;}
	.st62{fill:#CC8F9F;}
	.st63{fill:#D394A5;}
	.st64{fill:#CC8E9F;}
	.st65{fill:#CD8FA0;}
	.st66{fill:#CD90A0;}
	.st67{fill:#D597A8;}
	.st68{fill:#C58798;}
	.st69{fill:#CA8A9D;}
	.st70{fill:#CE8FA1;}
	.st71{fill:#CE8EA0;}
	.st72{fill:#D598A8;}
	.st73{fill:#160609;}
	.st74{fill:#060203;}
	.st75{fill:#BB7B8F;}
	.st76{fill:#C48497;}
	.st77{fill:#B16F80;}
	.st78{fill:#A66475;}
	.st79{fill:#CB8C9E;}
	.st80{fill:#B8788C;}
	.st81{fill:#B6768A;}
	.st82{fill:#C08093;}
	.st83{fill:#BD7D90;}
	.st84{fill:#C48498;}
	.st85{fill:#C58598;}
	.st86{fill:#CC8DA0;}
	.st87{fill:#CA8C9D;}
	.st88{fill:#D396A6;}
	.st89{fill:#C8899C;}
	.st90{fill:#180508;}
	.st91{fill:#DA9DAE;}
	.st92{fill:#C28297;}
	.st93{fill:#020102;}
	.st94{fill:#C18095;}
	.st95{fill:#B47587;}
	.st96{fill:#C38396;}
	.st97{fill:#BF8196;}
	.st98{fill:#020001;}
</style>
<g>
	<g>
		<path class="st0" d="M147,59.1c0.3,0.4,0.6,0.9,0.9,1.3c2.2,1.5,4.4,2.9,6.6,4.4c0,0,0,0,0,0c1.2,0.2,2.4,0.4,3.5,0.6
			c0.5,0.7,0.9,1.4,1.4,2.1c0.3,1.5,0.5,3,0.8,4.5c-3.7,0.7-4.7,3.6-5.6,6.7c-0.2,0.8-0.9,1.7-1.7,2c-3.2,1.3-4.7,3.6-4.6,7
			c0.1,2.8-1.2,4-4.1,4c-1.2,0-2.5,1.6-3.6,2.6c-0.8,0.7-1.3,1.7-2,2.5c-0.3,0.4-1,0.6-1.2,1.1c-0.9,2.7-2.6,1.6-3.9,0.6
			c-3.4-2.7-1.3-6-1.1-9.2c0.1-1.5-0.7-3.1-1.2-4.6c-0.2-0.6-0.9-1.3-0.8-1.6c1-2.2,1.8-4.6,3.3-6.3c2-2.3,4.6-4,6.8-6
			c1.3-1.1,2.4-2.4,3.5-3.6c0.3,1.2,0.6,2.3,0.9,3.5c0,0,0.1,0.1,0.1,0.1c0-0.3,0-0.6,0.1-0.9c1.8,0.1,3.5,0.2,5.2,0.3
			c-1.5-1.2-3.5-2.7-5.5-4.1c-0.5-0.3-1.4-0.3-1.9,0c-0.6,0.3-1.1,1-1.6,1.6c-1.1,1.4-2,3.1-3.4,4.3c-2.2,2.1-4.9,3.8-7.1,5.8
			c-2.6,2.4-2.4,6.5,0,9c0.5,0.5,0.3,1.7,0.3,2.6c-0.1,2.8-0.7,5.6-0.4,8.4c0.3,2.7,4.9,4.6,6.5,3.2c1.2-1,2.6-1.9,3.7-3
			c0.5-0.5,0.6-1.4,1-2.1c0.5-0.7,1-1.9,1.6-1.9c3.5-0.4,6-1.4,5.8-5.5c-0.1-2.8,0.8-4.8,3.6-6.1c1.3-0.6,2-2.7,2.9-4.2
			c0.5-0.8,0.7-1.7,1.1-2.5c0.6,0.6,1.3,1.1,1.6,1.9c0.3,0.9,0.2,2,0.4,3c0.2,1.5,0.8,2.9,0.7,4.4c-0.1,2.3-0.7,4.6-1.1,6.9
			c-0.7,1.6-1,4.2-2.1,4.7c-3,1.3-5.2,4-4.9,7.3c0,0.6-1.1,1.4-1.8,1.8c-1.8,0.8-4.5,0.8-5.5,2.2c-1.4,1.9-1.9,4.7-2.2,7.2
			c-0.3,2.4,0.5,5.1-3.5,4.4c-0.2,0-0.5,0.3-0.7,0.4c-1.1,0-2.5,0.4-3.3-0.1c-2.2-1.3-4.2-1.9-6.8-0.8c-0.9,0.4-2.6,0.1-3.5-0.5
			c-2.3-1.4-4.6-1.6-7.1-0.5c1.8,0.2,3.5,0.3,5.2,0.6c2,0.4,3.9,1,5.9,1.4c1.8,0.4,3.6,0.7,5.4,1.1c1.1,0.3,2.1,1.1,3.1,1.1
			c1.8,0,3.6-0.4,5.5-0.7c0.4-0.1,1-0.5,1-0.8c0.1-1.8-0.1-3.7,0.1-5.5c0.7-5.5,1.8-8.7,8.4-7.5c0.4,0.1,1.2-0.8,1.3-1.3
			c0.2-1.9,0.2-3.8,0.3-5.7c1.5-0.4,3.1-0.8,4.6-1.2c0,1.4,0.2,2.8,0,4.2c-0.9,6.7-4.1,12.3-8.3,17.4c-0.6,0.7-1.3,1.4-2.1,1.9
			c-1.9,1.1-4.3,1.8-5.9,3.3c-3.9,3.8-10.1,4.7-14.7,1.7c-0.3-0.2-0.7-0.1-1.1-0.1c-2.7,0.2-5.4,0.4-8.1,0.5c-0.6,0-1.2,0-1.8,0
			c0.1,0.5,0.2,1,0.3,1.5c-1.5,0-3,0.1-4.5,0c-2.3-0.3-4.5-0.8-6.8-1.2c-0.2,0-0.4,0-0.5,0c-3.2-1.4-2.4-3.1-0.4-4.9
			c0.4-0.3,0.7-0.7,1.1-1c1.8-1.5,1.1-2.9-0.5-3.6c-1.9-0.9-4.2-1-6.2-1.9c-1.1-0.5-2.6-1.8-2.6-2.7c0-1.5,1.1-3,1.6-4.2
			c-1.2-0.9-3.4-2.2-3.3-2.6c0.8-2.2,1.9-4.4,3.5-6c1.5-1.4,2-2.1,0.6-3.7c-1.1-1.2-1.9-2.6-3.3-4.5c0.5,1.5,0.6,2.5,1.1,3
			c2.6,2.4,1.8,4.1-0.9,5.5c0,0-0.1,0-0.1,0.1c-2.4,2.5-4.4,5.7-0.6,8.6c0.4,0.3,0.3,1.6,0,2.2c-1.7,2.6-0.5,5.3,2.5,5.9
			c2.4,0.5,4.8,1.2,7.3,1.9c-1.4,1.9-2.3,3.1-3.2,4.3c-0.2,0.8-0.2,1.7-0.6,2.3c-0.4,0.8-1.3,2-1.8,1.9c-2.6-0.4-5.2-1.3-7.8-1.8
			c-2.7-0.6-5.4-1.4-8.2-1.6c-4.1-0.3-6.6-2.2-6.4-5.5c0.1-2.3,0.2-4.5,0.3-6.8c0.5-0.5,0.9-1.1,1.4-1.6c0.7-1,2.6-2.2-0.4-2.7
			c-0.2,0-0.6-0.4-0.5-0.6c0.3-4.3,0.2-8.8,1-13c0.9-4.6,3-9,4.2-13.6c1-3.8,2.4-7.1,6.9-7.7c4.5-0.5,8.1-1.6,9.6-6.9
			c0.9-3.3,4.5-4.8,8.4-4.7c4.5,0.1,8-2.5,11.4-5.2c1.9-1.5,4.4-2.3,6.6-3.4c0.8-0.4,1.5-0.9,2.3-1.3c0.7,0.2,1.4,0.5,2.2,0.7
			c2.9,0.6,5.8,1.1,8.7,1.7c0,0,0,0,0,0c1.1,0.5,2.2,0.8,3.2,1.4C143.7,57.1,145.3,58.1,147,59.1z M107.2,78.1
			c0.5-0.8,0.9-1.4,1.3-1.9c2.8-3.6,6.6-3.2,10.4-2.5c0.4,0.1,0.8,0,1.1-0.2c0.1-0.1-0.1-0.6-0.1-0.9c0.4-1.8,0.8-3.5,1.2-5.2
			c1.4,0.4,2.8,0.8,4.2,1.2c0.5,0.1,0.9,0.4,1.3,0.6c0-0.5,0-0.9,0.1-1.4c0.9-2.9,1.5-6,3-8.5c0.9-1.4,3.5-1.8,5.9-3c-1,0-1.5,0-2,0
			c-4.6,0.4-6.9,3.4-8.1,7.6c-0.2,0.7-1.4,1.8-1.8,1.7c-2.7-0.7-4.9,0.4-5.1,3.2c-0.2,2.6-1.3,3.4-3.7,3c-0.3-0.1-0.6,0-1,0
			C110.8,71.8,106.7,75.4,107.2,78.1z M104.2,90.5c0.3,0.1,0.4,0.2,0.5,0.2c6.2-0.1,8.1,1.9,7.7,8.3c0,0.3,0.7,0.9,1.2,1.1
			c1.1,0.5,2.3,0.9,3.5,1.3c-0.5,0.7-0.9,1.5-1.4,2.2c-0.2,0.3-0.5,0.6-0.9,1c3.9,0.7,9.6-2.3,9.9,5.2c0.3-0.5,0.5-0.9,0.5-1.3
			c0.2-3.3-1.6-4.5-5-5.8c-2.4-0.9-4.3-3.5-6.1-5.7c-0.8-0.9-0.6-2.6-0.9-3.9C112.3,89.9,106.9,88.2,104.2,90.5z M86.4,99.4
			c0,3.5,1.9,5.2,4.4,4.8c1.5-0.3,3.6-2.3,3.9-3.9c0.5-2.5-1.2-4.3-4-4.3C88.1,95.9,86.6,97.2,86.4,99.4z"/>
		<path class="st0" d="M49.1,81.4c0-0.1,0-0.1,0-0.2c0.3-0.3,0.5-0.7,0.8-1c2.4-2.9,4.7-6,7.4-8.7c3.6-3.6,7.6-7,11.4-10.4
			c0,0,0,0,0,0c2.4-0.8,4.9-1.5,7.2-2.5c4.6-1.9,8.6-5.5,14.1-5.2c0.6,0.1,1.4,0.4,1.9,0.2c2.4-0.8,4.7-1.7,7-2.6
			c0.1,0.1,0.2,0.1,0.3,0.2c0.4,0.3,0.7,0.5,1.1,0.8c-1,1-2.1,2-3.1,2.9c-0.3,0.2-0.9,0.4-1.1,0.3c-5-3-14.1,0.6-15.9,6.3
			c-0.4,1.2-2.3,2.8-3.3,2.7c-3.5-0.3-5.8,0.9-7.2,4.3c-0.9,2-0.8,5-4.2,5c-3.8,0-6,1.9-5.4,5.6c0.7,4-1.3,5.6-4.3,7.1
			c-2.1,1.1-3.4,5.1-2.1,6.8c0-3.6,1.8-5.7,4.9-7.1c2.5-1.1,3.9-3,3.1-6c-0.8-2.7,0.4-4.6,3.1-4.6c4.4,0,5.5-3,7-6.2
			c0.7-1.3,2.8-3,4.1-2.8c3.7,0.5,5.2-1.6,6.1-4.4c1.6-5,9.4-8,13.9-5.4c0.4,0.2,1.3,0.1,1.7-0.3c1.4-1.3,2.6-2.7,3.9-4
			c2.9-0.4,5.8-0.7,8.7-1.1c2,0.2,4,0.4,6,0.5c1.3,0.1,2.6,0,3.8,0c-3.2,4.1-7.8,5.7-12.6,6.8c-2.1,0.5-4.5,0.7-6.2,1.9
			c-2.1,1.5-3.7,3.8-5.5,5.8c-2.2,2.3-3.9,5-8,4.3c-1.7-0.3-4.6,1.3-5.6,2.9c-1.9,3-2.9,6.6-4.3,10c-1.1,2.8-2,5.8-3.3,8.4
			c-1.5,3-2.3,5.9-0.6,9.1c1.1,2.2-0.3,6.8-2.2,7c-4.8,0.5-1,2.4-0.8,3.7c1.1,2.6,2.2,5.3,3.3,7.9c0,1.2,0,2.4,0,3.5
			c-0.5,0-1.1,0.2-1.6,0.1c-0.8-0.2-1.8-1.1-2.4-0.9c-2,0.6-3.8,0.8-5.2-1.1c-0.2-0.2-0.8-0.2-1.1-0.3c-1.4-1-2.7-2-4.1-3
			c0.3-2.1,0.5-4.2,0.8-6.3l0,0c-1.1-1.5-2.2-3.1-3.3-4.6c-1.1,1.1-2.3,2.1-3.3,3.3c-0.4,0.5-0.9,1.2-0.9,1.8
			c0.1,2.4-1.4,2.4-3.1,2.2c-0.8,0.2-1.6,0.4-2.5,0.4c-1.1,0.1-2.3,0.2-3.3-0.1c-1.8-0.6-3.4-1.5-5.1-2.2c0.5-2,0.9-4,1.4-6
			c0.2-1.6,0.4-3.3,0.6-4.9c0.4-1.5,0.7-3.1,1.1-4.6c0.9-3.5,1.8-6.9,2.7-10.4c0.3-0.4,0.5-0.9,0.8-1.3C46.7,84,47.9,82.7,49.1,81.4
			z M72.1,97.9c0-0.6,0-1.1,0-1.7c-1.3-1-2.9-3-4-2.8c-1.4,0.3-3.3,2.3-3.5,3.7c-0.1,1.1,2,3.4,3.2,3.5
			C69.2,100.7,70.7,98.9,72.1,97.9z"/>
		<path class="st1" d="M70.9,111.7c-0.2-1.3-4-3.2,0.8-3.7c1.9-0.2,3.3-4.8,2.2-7c-1.7-3.2-0.9-6.1,0.6-9.1c1.4-2.7,2.2-5.6,3.3-8.4
			c1.4-3.4,2.4-7,4.3-10c1-1.6,3.9-3.2,5.6-2.9c4.2,0.7,5.9-1.9,8-4.3c1.8-2,3.3-4.3,5.5-5.8c1.7-1.2,4.1-1.4,6.2-1.9
			c4.9-1.1,9.4-2.8,12.6-6.8c0.5,0,0.9,0,1.4,0c2.2,0.2,4.4,0.4,6.5,0.6c-0.8,0.4-1.5,0.9-2.3,1.3c-2.2,1.1-4.7,1.9-6.6,3.4
			c-3.4,2.7-6.9,5.3-11.4,5.2c-3.9-0.1-7.4,1.4-8.4,4.7c-1.5,5.3-5.2,6.4-9.6,6.9c-4.6,0.6-5.9,3.9-6.9,7.7c-1.2,4.6-3.3,9-4.2,13.6
			c-0.9,4.2-0.8,8.7-1,13c0,0.2,0.3,0.5,0.5,0.6c3,0.5,1,1.7,0.4,2.7c0,0-0.1-0.1-0.1-0.1c0.3-0.6,0.5-1.2,0.9-2
			c-3.2-0.3-6.1-0.6-9.4-1c0.5,1.2,0.9,2.1,1.3,2.9C70.9,111.5,70.9,111.6,70.9,111.7z"/>
		<path class="st2" d="M170.4,147c2.6-2.9,5.3-5.7,4.2-10.1c-0.2-0.9-0.8-1.9-1.5-2.4c-2.3-1.6-4.7-2.9-7.1-4.4
			c-0.4-0.1-0.7-0.1-1.1-0.2c-0.6-0.4-1.3-0.7-1.9-1.1c-1.8-1-1.2-2.1-0.4-3.4c0.9-1.3,1.2-3.4,2.4-4c1.1-0.5,3,0.5,4.5,0.9
			c3.1,3.2,6.7,6,9.3,9.6c3.6,4.9,2.2,11.9-2.7,15.5c-3.6,2.6-7.4,4.9-11.2,7c-2.1,1.2-4,2.1-3.2,5c-3.2,0-6.4,0-9.6,0
			c0.4-1,0.6-2.4,1.3-2.8c3.1-1.5,6.4-2.7,9.6-4.1c1.1-0.5,2.1-1.2,3.1-1.9C167.5,149.4,169,148.2,170.4,147z"/>
		<path class="st3" d="M163.1,128.9c0.6,0.4,1.3,0.7,1.9,1.1c-1.5,1.1-3.1,2.2-4.6,3.3c-3.4,1.8-6.9,3.5-10.3,5.3
			c-0.3,0.1-0.5,0.1-0.8,0.2c-3.3,1.4-6.6,2.8-9.9,4.1c-0.1,0-0.3,0-0.4,0c-1.9,0.9-3.9,1.9-5.8,2.8c-1.6-0.2-3.3-0.4-4.9-0.7
			c-0.9-0.2-1.8-0.5-2.6-0.8c-3.2,0.2-6.5,0.4-9.7,0.5c-0.2,0-0.3,0.1-0.5,0.2c-1.2-0.1-2.5-0.4-3.7-0.4c-1.5,0-3,0.3-4.4,0.4
			c-1.5-1.6-2.9-3.3-4.4-4.9c1-0.1,2.1-0.3,3.4-0.4c-1.7-0.9-3.1-1.6-4.5-2.4c-0.3-0.2-0.3-0.8-0.4-1.3c0.4,0.1,0.7,0.3,1.1,0.4
			c1.1,0.4,2.2,0.8,3.3,1.2c0.5,0.2,0.9,0.4,1.4,0.5c0.8,0.3,1.7,0.7,2.1,0.8c0.4,0.8,0.6,1.6,1,1.6c2.4,0.5,4.7,1.2,7.1,1.3
			c3.6,0.2,7.2,0.2,10.7,0c6.2-0.2,12.3-0.7,17.6-4.5c4.1-2.9,8.3-5.5,12.3-8.4c0.4-0.3,0.5-1.2,0.7-1.8c0.1,0,0.2,0,0.3,0
			c0.2,0,0.4,0,0.5,0C160.7,127.8,161.9,128.3,163.1,128.9z"/>
		<path class="st4" d="M40.9,101.6c-0.2,1.6-0.4,3.3-0.6,4.9c-0.5,0.2-0.9,0.4-1.4,0.6c-3.3-3.4-6.5-6.7-9.8-10.1
			c-0.1-0.4-0.1-0.8-0.2-1.2c-1.3-3.2-2.5-6.4-4-9.5c-0.4-0.8-1.6-1.7-2.5-1.8c-2.9-0.3-6.2,0.4-7.9-2.9c-0.6-1.2-0.5-2.8-0.5-4.2
			c0-0.4,1.2-1.2,1.5-1c2.5,1.2,4.4,0.2,6.2-1.5c0.6,0.3,1.5,0.5,1.7,1c1.2,3.2,2,6.7,3.6,9.7c1.9,3.8,4.5,7.2,6.8,10.8
			c1.7,1.4,3.4,2.7,5.1,4.1C39.6,100.9,40.3,101.2,40.9,101.6z"/>
		<path class="st5" d="M111.3,171.9c0.7,3.9,1.5,7.7,2.2,11.6c0.4,1.4,0.9,2.8,1.3,4.2c0.2,0.7,0.4,1.4,0.6,2.1
			c0.6,1.5,1.3,3,1.9,4.5c0.5,0.2,0.9,0.5,1.4,0.7c0.2,1,0.4,2.1,0.5,3.1c-4.6,2.2-9.2,4.4-13.9,6.5c-0.6,0.3-1.5-0.1-2.2-0.2
			c0.2-0.8,0.3-1.7,0.7-2.4c0.4-0.7,1.1-1.3,1.7-1.9c1.5-1.2,3-2.3,4.5-3.5c1.1-0.5,2.2-0.9,3.3-1.4c2.9-2.2-0.6-3.4-0.8-5.2
			c-0.7-1.6-1.5-3.2-2.2-4.8c-1.4-4.8-2.7-9.5-4.1-14.2c-0.1-0.5-0.2-1.1-0.2-1.6c0.4,0.4,0.8,0.9,1.3,1.1
			C108.5,170.9,109.9,171.4,111.3,171.9z"/>
		<path class="st6" d="M84.9,170.8c-0.1-2.4-0.2-4.7-0.3-7.1c1.6,0.8,3.2,1.6,4.9,2.4c0,0.5,0,1.1,0,1.6c-0.3,7.6-0.8,15.2-0.7,22.7
			c0,1.9,0.4,3.3-1.5,4.3c-4.5,1.5-9.1,3.1-13.6,4.5c-0.3,0.1-1.2-0.2-1.2-0.3c0-0.6,0.2-1.2,0.3-1.8c3.4-2.2,6.8-4.5,10.2-6.7
			c0.5-0.4,1.2-0.5,1.8-0.8c0.3,0,0.7,0.1,1,0.1c0.2-0.3,0.6-0.6,0.6-0.9c-0.1-2.7-0.3-5.4-0.5-8.1
			C85.6,177.5,85.2,174.2,84.9,170.8z"/>
		<path class="st7" d="M107.2,144.9c1.5-0.2,3-0.4,4.4-0.4c1.2,0,2.5,0.3,3.7,0.4c0.1,0.1,0.2,0.2,0.2,0.3
			c-1.4,5.5-2.7,10.9-4.1,16.4c-1.9-0.7-3.8-1.4-6-2.2c0-0.4,0-1.4,0-2.5C106.1,152.9,106.6,148.9,107.2,144.9z"/>
		<path class="st8" d="M90.5,139.8c-0.2,5.8-0.3,11.6-0.5,17.4c-0.1,0-0.2,0-0.2,0c-0.7-0.6-1.3-1.5-2.1-1.9c-2.2-0.9-4.3-1.5-4-4.7
			c0.2-2.8-0.4-5.6-0.7-8.4c0-0.6,0-1.3,0-1.9C85.4,140.1,88,139.9,90.5,139.8z"/>
		<path class="st9" d="M105.8,137.6c-1.1-0.4-2.2-0.8-3.3-1.2c-0.4-0.1-0.7-0.3-1.1-0.4c0.1,0.4,0.1,1.1,0.4,1.3
			c1.3,0.8,2.7,1.5,4.5,2.4c-1.4,0.2-2.4,0.3-3.4,0.4c-0.9-0.5-1.8-1.1-2.8-1.6c-1.4-0.1-2.8-0.1-4.2-0.4c-3.4-0.7-6.8-1.6-10.2-2.5
			c-1.6-0.4-3.1-0.9-4.7-1.4c-0.5-0.5-0.9-1.1-1.4-1.6c0-0.2,0-0.4,0-0.5c1.1,0.5,2.1,1.1,3.3,1.3c4.6,1,9.3,1.6,13.7,2.9
			c3,0.9,4.1,0.2,4.3-2.6c0.5-0.6,0.9-1.3,1.4-1.9c0-0.1,0-0.2,0-0.3c0.4,0.1,0.9,0.2,1.2,0.3c-0.5,0.8-0.8,1.5-1.2,2.2
			c0,0.6-0.2,1.5,0.1,1.7C103.4,136.3,104.6,136.9,105.8,137.6z"/>
		<path class="st10" d="M172.4,92.9c0,3-0.1,6-0.1,9c0.1,3.2,0.2,6.3,0.2,9.5c-1,3.5-2,6.9-2.9,10.4c-1.4-0.8-2.7-1.6-4.1-2.4
			c0.7-0.5,1.8-0.8,2.2-1.5c0.9-1.7,1.6-3.5,2.1-5.3c0.4-1.4,2-3.8-1.7-2.8c-0.1,0-0.2-0.3-0.4-0.5c5.3-3,3.3-8.5,4.6-12.9
			C172.6,95.3,172.4,94,172.4,92.9z"/>
		<path class="st11" d="M172.4,92.9c0,1.1,0.2,2.4-0.1,3.4c-1.3,4.4,0.7,9.9-4.6,12.9c-0.4,0.1-0.7,0.2-1.1,0.3c0.7-0.7,2-1.3,2.1-2
			c0.6-4,0.9-7.9,1.2-11.9c0.1-1-0.3-2-0.3-3c-0.1-2.6-0.1-5.2-0.2-7.8c0.4,0.4,0.9,0.7,1.3,1.1C171.3,88.2,171.8,90.5,172.4,92.9z"
			/>
		<path class="st12" d="M79.6,132.4c0.5,0.5,0.9,1.1,1.4,1.6c0,0.1,0,0.2,0,0.3c-0.1,0-0.2,0-0.3,0c-0.5-0.1-1.3-0.4-1.6-0.2
			c-0.5,0.3-1,1.2-0.9,1.6c0.4,1.3,1.1,2.5,1.6,3.7c-1.1-0.3-2.3-0.5-3.2-1.1c-2.9-1.6-5.6-3.3-8.5-5c-0.3-0.2-0.9,0-1.4,0
			c-0.1-0.1-0.2-0.2-0.3-0.2c-0.4-1.2-0.7-2.4-1.2-4c1.1,0.8,1.9,1.4,2.8,2.1c1.9,2.2,3.6,4.7,7.1,3.3c0.7-0.3,1.4-0.4,2.1-0.5
			c-0.3-0.7-0.7-1.3-0.9-2c-0.2-0.7,0-1.5,0-2.2c0.5,0.3,1.1,0.4,1.5,0.8C78.6,131.2,79.1,131.8,79.6,132.4z"/>
		<path class="st13" d="M39,112.5c1.7,0.8,3.4,1.7,5.1,2.2c1,0.3,2.2,0.2,3.3,0.1c0.8,0,1.6-0.3,2.5-0.4c-1.3,1.5-2.5,2.9-3.8,4.4
			c0,0.3,0,0.5,0,0.8c-2.1-0.7-4.2-1.5-6.3-2.2c-0.2-0.6-0.4-1.3-0.5-1.9c-0.1-0.8-0.2-1.6-0.3-2.4C39,112.9,39,112.7,39,112.5z"/>
		<path class="st14" d="M165.5,119.3c1.4,0.8,2.7,1.6,4.1,2.4c0,0.2,0,0.4,0,0.5c-1.5-0.4-3.4-1.4-4.5-0.9c-1.2,0.5-1.5,2.7-2.4,4
			c-0.9,1.3-1.5,2.5,0.4,3.4c-1.2-0.5-2.4-1.1-3.5-1.6c-2.4-1.9,0-3.1,0.8-4.3c1-1.5,2.5-2.6,3.9-3.9
			C164.6,119.1,165.1,119.2,165.5,119.3z"/>
		<path class="st15" d="M152.1,159.4c3.2,0,6.4,0,9.6,0c-0.1,1.1-0.2,2.2-0.3,3.3c-2.5,0.4-5,0.9-7,1.2c-0.7-1.3-1.2-2.5-1.8-3.6
			C152.5,159.9,152.3,159.7,152.1,159.4z"/>
		<path class="st16" d="M81,134.3c0-0.1,0-0.2,0-0.3c1.6,0.5,3.1,1,4.7,1.4c3.4,0.9,6.8,1.7,10.2,2.5c1.4,0.3,2.8,0.3,4.2,0.4
			c-0.9,0.2-1.8,0.4-2.7,0.6c-1.9-0.1-3.8-0.2-5.8-0.3c-2-0.5-4.1-0.8-6.1-1.4C83.8,136.7,81,137.7,81,134.3z"/>
		<path class="st17" d="M152.7,160.2c0.6,1.2,1.2,2.3,1.8,3.6c1.9-0.3,4.4-0.8,7-1.2c-1.3,1.5-2.4,3.4-4,4.3c-2.4,1.4-4.2-0.2-4-2.9
			C153.5,162.8,153,161.5,152.7,160.2z"/>
		<path class="st18" d="M89.4,166.2c-1.6-0.8-3.2-1.6-4.9-2.4c-0.1-1.2-0.2-2.4-0.3-3.5c0.3,0.2,0.6,0.4,1,0.5
			c1.4,0.3,2.8,0.6,4.1,0.8C89.4,163.1,89.4,164.6,89.4,166.2z"/>
		<path class="st14" d="M105.5,156.8c0,1.1,0,2.2,0,2.5c2.1,0.8,4.1,1.5,6,2.2c-0.1,1-0.2,2-0.3,3c-1.9-0.4-3.7-0.9-5.7-1.3
			c-0.1-0.6-0.2-1.3-0.3-2C105.3,159.8,105.4,158.3,105.5,156.8z"/>
		<path class="st19" d="M81,134.3c0,3.4,2.8,2.4,4.6,3c2,0.6,4,0.9,6.1,1.4c-0.5,0.3-0.9,0.5-1.4,0.8c-0.5,0-1.1-0.1-1.6,0
			c-1.9,0.2-3.8,0.5-5.7,0.8c0,0.6,0,1.3,0,1.9c0,0.4,0,0.7,0,1.1c-0.3-1.3-0.5-2.6-0.8-3.9c-0.5-1.7-0.9-3.4-1.4-5.1
			C80.8,134.3,80.9,134.3,81,134.3z"/>
		<path class="st20" d="M21.8,74.9c-1.8,1.6-3.7,2.7-6.2,1.5c-0.3-0.1-1.5,0.7-1.5,1c0,1.4-0.1,3,0.5,4.2c1.7,3.3,4.9,2.6,7.9,2.9
			c0.9,0.1,2.1,0.9,2.5,1.8c1.5,3.1,2.7,6.3,4,9.5c0.1,0.4,0.1,0.8,0.2,1.2c-1.2-2.4-2.8-4.7-3.4-7.3c-1-4-3.3-5.1-7.1-5.1
			c-3.7,0.1-6.4-4.2-5-7.7c0.2-0.5,1.1-0.9,1.8-1.1c2.1-0.5,4.3-0.9,6.4-1.3C21.8,74.7,21.8,74.8,21.8,74.9z"/>
		<path class="st21" d="M105.3,161.2c0.1,0.7,0.2,1.4,0.3,2c1.9,0.4,3.8,0.9,5.7,1.3c0,1.6,0,3.3,0,4.9c-0.9-0.7-1.7-1.5-2.7-2.1
			c-0.9-0.5-2-0.6-3-0.9C105.4,164.7,105.3,163,105.3,161.2z"/>
		<path class="st22" d="M82.9,143.3c0-0.4,0-0.7,0-1.1c0.3,2.8,0.9,5.6,0.7,8.4c-0.3,3.3,1.8,3.9,4,4.7c0.8,0.3,1.4,1.2,2.1,1.9
			c-0.1,0.9-0.2,1.8-0.3,2.7c-0.5-0.5-1-1.3-1.6-1.6c-1.5-0.8-3.8-0.5-4.1-3C83.5,151.3,83.2,147.3,82.9,143.3z"/>
		<path class="st23" d="M105.5,166.5c1,0.3,2.1,0.4,3,0.9c1,0.5,1.8,1.4,2.7,2.1c0,0.8,0,1.6,0.1,2.5c-1.4-0.5-2.8-1-4.1-1.6
			c-0.5-0.2-0.9-0.7-1.3-1.1C105.7,168.3,105.6,167.4,105.5,166.5z"/>
		<path class="st24" d="M83.8,155.3c0.2,2.5,2.6,2.2,4.1,3c0.6,0.4,1.1,1.1,1.6,1.6c0,0.5,0,1.1,0,1.6c-1.4-0.3-2.8-0.5-4.1-0.8
			c-0.4-0.1-0.7-0.3-1-0.5C84.1,158.6,84,156.9,83.8,155.3z"/>
		<path class="st25" d="M21.8,74.9c0-0.1,0-0.2,0-0.3c0.9,0.5,2.4,0.8,2.7,1.6c1,2.5,1.2,5.3,2.4,7.7c2.1,4.3,4.6,8.4,7,12.5
			c-2.3-3.6-4.9-7-6.8-10.8c-1.6-3-2.3-6.5-3.6-9.7C23.3,75.4,22.4,75.2,21.8,74.9z"/>
		<path class="st26" d="M68.7,61c-3.8,3.5-7.8,6.8-11.4,10.4c-2.7,2.7-5,5.8-7.4,8.7c-0.3,0.3-0.5,0.7-0.8,1c1.6-5,5-8.4,9.4-11.2
			c3.2-2.1,5.9-5.2,8.8-7.8C67.8,61.8,68.3,61.4,68.7,61z"/>
		<path class="st27" d="M80.7,134.3c0.5,1.7,0.9,3.4,1.4,5.1c-0.7,0-1.5,0-2.2,0c-0.6-1.2-1.3-2.4-1.6-3.7c-0.1-0.4,0.4-1.3,0.9-1.6
			C79.5,133.9,80.2,134.2,80.7,134.3z"/>
		<path class="st26" d="M90,53.4c-5.4-0.3-9.5,3.2-14.1,5.2c-2.3,1-4.8,1.6-7.2,2.5c5.9-2.7,11.7-5.5,17.6-7.9
			c1.3-0.5,3,0.2,4.6,0.3C90.6,53.4,90.3,53.4,90,53.4z"/>
		<path class="st28" d="M87.3,194.9c1.9-1,1.5-2.4,1.5-4.3c-0.1-7.6,0.4-15.2,0.7-22.7c0.1,0,0.2,0,0.2,0
			c-0.2,6.9-0.5,13.8-0.7,20.7c0,0.9-0.1,2,0.3,2.8C90.8,193.8,89.1,194.3,87.3,194.9z"/>
		<path class="st29" d="M66.5,133.2c0.1,0.1,0.2,0.2,0.3,0.2c-0.7,0.4-1.5,1.2-2.1,1.1c-3.1-0.5-6.2-1.2-9.3-1.8
			c-0.2-0.2-0.3-0.4-0.5-0.6c0.8,0.2,1.6,0.4,2.5,0.6c2.8,0.4,5.5,0.8,8.3,1.1C65.9,133.9,66.2,133.4,66.5,133.2
			C66.5,133.2,66.5,133.2,66.5,133.2z"/>
		<path class="st30" d="M54.8,132.1c0.2,0.2,0.3,0.4,0.5,0.6c-1.2-1.2-2.4-2.4-3.6-3.6c-0.5-0.5-1.1-1.1-1.7-1.4
			c-2.6-1-5.3-1.8-8-2.7c0-0.1,0-0.2,0-0.3c1.1,0.5,2.5,0.7,3.3,1.4c2.1,1.9,6.2-0.3,7.3,3.5C53.4,130.5,54.1,131.3,54.8,132.1z"/>
		<path class="st31" d="M84.8,189.7c-0.6,0.3-1.3,0.4-1.8,0.8c-3.4,2.2-6.8,4.5-10.2,6.7C74,193.8,80.3,189.9,84.8,189.7z"/>
		<path class="st32" d="M84.9,170.8c0.3,3.3,0.7,6.7,1,10c0.2,2.7,0.4,5.4,0.5,8.1c0,0.3-0.4,0.6-0.6,0.9
			C85.5,183.5,85.2,177.2,84.9,170.8z"/>
		<path class="st33" d="M106.1,170.8c1.4,4.7,2.7,9.5,4.1,14.2C108.8,180.3,107.5,175.6,106.1,170.8z"/>
		<path class="st34" d="M150,138.5c3.4-1.8,6.9-3.5,10.3-5.3c0.1,0,0.2,0,0.4,0C157.1,135,153.6,136.7,150,138.5z"/>
		<path class="st35" d="M139.3,142.8c3.3-1.4,6.6-2.8,9.9-4.1C146.2,140.7,143.7,143.9,139.3,142.8z"/>
		<path class="st36" d="M100.4,52c-0.4-0.3-0.7-0.5-1.1-0.8c1.9-0.2,3.8-0.5,5.7-0.5c1.7,0,3.5,0.2,5.2,0.2c0,0.1,0,0.2,0,0.2
			c-2.9,0.4-5.8,0.7-8.7,1.1C101.1,52.2,100.7,52.1,100.4,52z"/>
		<path class="st37" d="M161.2,72.2c2.3,2.4,4.6,4.8,6.9,7.3c0,0-0.1,0.1-0.1,0.1c-0.1,0-0.2,0-0.2,0c-0.5-0.5-1.1-1.1-1.6-1.6
			c-0.5-0.4-1.1-0.7-1.6-1.1c-1.2-1.5-2.4-2.9-3.6-4.4C161,72.4,161.1,72.3,161.2,72.2z"/>
		<path class="st38" d="M110.2,51.2c0-0.1,0-0.2,0-0.2c2.5,0,5-0.1,7.5,0c1.2,0.1,2.5,0.5,3.7,0.8c-0.5,0-0.9,0-1.4,0
			c-1.3,0-2.6,0-3.8,0C114.2,51.6,112.2,51.4,110.2,51.2z"/>
		<path class="st39" d="M42,124.8c0,0.1,0,0.2,0,0.3c-3.1-1.5-2.2-4.6-2.7-7.1c-0.2-0.8,0-1.6,0-2.4c0.2,0.6,0.4,1.3,0.5,1.9
			c0.1,1,0.2,2,0.3,3c0.1,0.2,0.2,0.4,0.3,0.5c0.5,1.2,1.1,2.4,1.6,3.5C42,124.6,42,124.7,42,124.8z"/>
		<path class="st40" d="M147,59.1c-1.6-1-3.2-2-4.9-3c-1-0.6-2.2-0.9-3.2-1.4c1.8,0.4,3.7,0.4,5.3,1.2C145.3,56.5,146,58,147,59.1z"
			/>
		<path class="st41" d="M44.7,86.6C43.8,90,42.9,93.5,42,97c0-0.1,0-0.2,0-0.4C42.9,93.3,43.8,89.9,44.7,86.6z"/>
		<path class="st42" d="M82.9,140.3c1.9-0.3,3.8-0.6,5.7-0.8c0.5-0.1,1.1,0,1.6,0c0.1,0,0.2,0,0.3,0c0,0.1-0.1,0.2-0.1,0.3
			C88,139.9,85.4,140.1,82.9,140.3z"/>
		<path class="st34" d="M115.6,145.2c-0.1-0.1-0.2-0.2-0.2-0.3c0.2-0.1,0.3-0.2,0.5-0.2c3.2-0.2,6.5-0.4,9.7-0.5
			C122.4,146.5,119,145.7,115.6,145.2z"/>
		<path class="st36" d="M90,53.4c0.3,0,0.6,0,0.9,0c1.8-0.8,3.5-1.8,5.4-2.5C97,50.6,98.1,51,99,51c-2.3,0.9-4.7,1.8-7,2.6
			C91.4,53.8,90.6,53.5,90,53.4z"/>
		<path class="st43" d="M89.7,167.8c-0.1,0-0.2,0-0.2,0c0-0.5,0-1.1,0-1.6c0-1.5,0-3.1,0-4.6c0-0.5,0-1.1,0-1.6
			c0.1-0.9,0.2-1.8,0.3-2.7c0.1,0,0.2,0,0.2,0C89.9,160.7,89.8,164.3,89.7,167.8z"/>
		<path class="st40" d="M138.8,54.7c-2.9-0.6-5.8-1.1-8.7-1.7C133,53.6,135.9,54.2,138.8,54.7z"/>
		<path class="st44" d="M154.4,64.8c-2.2-1.5-4.4-2.9-6.6-4.4C150,61.9,152.2,63.3,154.4,64.8z"/>
		<path class="st45" d="M160.7,133.2c-0.1,0-0.2,0-0.4,0c1.5-1.1,3.1-2.2,4.6-3.3c0.4,0.1,0.7,0.1,1.1,0.2
			C164.3,131.2,162.5,132.2,160.7,133.2z"/>
		<path class="st46" d="M112.4,189.9c0.3,1.7,3.7,2.9,0.8,5.2c0-0.1,0-0.2,0-0.3c-0.1-1-0.2-2-0.3-3
			C112.8,191.1,112.5,190.5,112.4,189.9z"/>
		<path class="st47" d="M161.2,72.2c-0.1,0.1-0.2,0.2-0.3,0.2c-0.3-0.2-0.5-0.4-0.8-0.5c-0.3-1.5-0.5-3-0.8-4.5
			C159.9,69.1,160.6,70.6,161.2,72.2z"/>
		<path class="st48" d="M42,96.6c0,0.1,0,0.2,0,0.4c-0.4,1.5-0.7,3.1-1.1,4.6c-0.6-0.4-1.3-0.7-1.9-1.1c0.8-0.7,1.7-1.3,2.3-2
			C41.7,98,41.8,97.3,42,96.6z"/>
		<path class="st49" d="M133.1,145.6c1.9-0.9,3.9-1.9,5.8-2.8C137,143.7,135.1,144.7,133.1,145.6z"/>
		<path class="st50" d="M39,112.5c0,0.2,0,0.4,0,0.6c0.1-1.7,0.2-3.5,0.4-5.7c0.3,0.2-0.1-0.1-0.4-0.3c0.5-0.2,0.9-0.4,1.4-0.6
			C39.9,108.5,39.5,110.5,39,112.5z"/>
		<path class="st51" d="M172.6,111.4c-0.1-3.2-0.2-6.3-0.2-9.5C172.4,105.1,172.5,108.2,172.6,111.4z"/>
		<path class="st52" d="M90.6,139.5c-0.1,0-0.2,0-0.3,0c0.5-0.3,0.9-0.5,1.4-0.8c1.9,0.1,3.8,0.2,5.8,0.3c-1.5,0.1-3.1,0.1-4.6,0.2
			C92,139.2,91.3,139.4,90.6,139.5z"/>
		<path class="st37" d="M170.7,85.8c-0.4-0.4-0.9-0.7-1.3-1.1c-0.5-1.7-0.9-3.4-1.4-5.2c0,0,0.1-0.1,0.1-0.1
			C168.9,81.6,169.8,83.7,170.7,85.8z"/>
		<path class="st53" d="M109.9,196.4c-1.5,1.2-3,2.3-4.5,3.5c1.4-1.2,2.7-2.4,4.1-3.6C109.7,196.4,109.8,196.4,109.9,196.4z"/>
		<path class="st54" d="M170.4,147c-1.5,1.2-2.9,2.4-4.4,3.6C167.5,149.4,169,148.2,170.4,147z"/>
		<path class="st55" d="M49.1,81.4c-1.2,1.3-2.4,2.6-3.6,3.9C46.7,84,47.9,82.7,49.1,81.4z"/>
		<path class="st56" d="M117.3,194.2c-0.6-1.5-1.3-3-1.9-4.5C116,191.2,116.6,192.7,117.3,194.2z"/>
		<path class="st57" d="M119.2,198.1c-0.2-1-0.4-2.1-0.5-3.1C119.6,195.9,121.6,196.6,119.2,198.1z"/>
		<path class="st58" d="M114.8,187.7c-0.4-1.4-0.9-2.8-1.3-4.2C113.9,184.9,114.4,186.3,114.8,187.7z"/>
		<path class="st59" d="M109.9,196.4c-0.1,0-0.2,0-0.4,0c1.2-0.5,2.4-1.1,3.6-1.6c0,0.1,0,0.2,0,0.3
			C112.1,195.5,111,196,109.9,196.4z"/>
		<path class="st44" d="M157.9,65.4c-1.2-0.2-2.4-0.4-3.5-0.6C155.5,65,156.7,65.2,157.9,65.4z"/>
		<path class="st60" d="M105.3,128.3c2.3,0.4,4.5,0.9,6.8,1.2c1.5,0.2,3,0,4.5,0c-0.1-0.5-0.2-1-0.3-1.5c0.6,0,1.2,0,1.8,0
			c2.7-0.2,5.4-0.4,8.1-0.5c0.4,0,0.8-0.1,1.1,0.1c4.6,3,10.8,2.2,14.7-1.7c1.5-1.5,3.9-2.1,5.9-3.3c0.8-0.5,1.5-1.2,2.1-1.9
			c4.2-5.1,7.4-10.7,8.3-17.4c0.2-1.4,0-2.8,0-4.2c-1.5,0.4-3.1,0.8-4.6,1.2c0.7-0.6,1.3-1.4,2.1-1.9c1.3-0.9,2.6-1.7,3.9-2.5
			c0.2-1.5,0.4-3.1,0.5-4.6c0-0.4,0-0.7,0-1.1c0.3,0,1,0,1,0c0.2,1.2,0.6,2.5,0.5,3.7c-0.2,3-0.4,5.9-1.1,8.8
			c-0.8,3.6-1.9,7.2-3,10.7c-0.3,1-1.4,1.8-2.1,2.7c-1.1,1.5-2.2,2.9-3.3,4.4c-1.1,1.3-2.1,2.7-3.3,3.8c-1.3,1.2-2.8,2.1-4.3,3.1
			c-0.6,0.4-1.4,0.7-2.1,1c-1.2,0.6-2.4,1.3-3.7,1.9c-2.3,0-4.5,0-6.8,0c-1.3-0.5-2.7-1-4-1.4c-1.7-0.5-3.4-0.8-5.2-1.1
			c0,0.3-0.1,0.6-0.1,0.9c1.2,0,2.4,0,3.6,0c0.8,0.8,1.6,1.6,2.5,2.5h0c-0.2,0.5-0.3,1.4-0.6,1.4c-1.4,0.3-2.8,0.5-4.1,0.4
			c-5-0.3-9.9-0.7-14.9-1c-1.5-0.1-3.7,0.5-2.6-2.4c0.1-0.2-0.4-0.5-0.7-0.8C105.6,128.5,105.5,128.4,105.3,128.3z"/>
		<path class="st61" d="M160.1,71.9c0.3,0.2,0.5,0.4,0.8,0.5c1.2,1.5,2.4,2.9,3.6,4.4c-0.5,2.3-0.9,4.5-1.4,6.8
			c-0.3,0.2-0.5,0.4-0.8,0.5c-0.1,0-0.2,0-0.3,0c0.2-2.3,0.6-4.6,0.5-6.9c-0.1-1.1-1-2.7-1.8-2.9c-1-0.3-2.4,0.7-3.6,1.1
			c-0.4,0.8-0.6,1.7-1.1,2.5c-0.9,1.5-1.5,3.6-2.9,4.2c-2.8,1.3-3.7,3.3-3.6,6.1c0.2,4.1-2.4,5.2-5.8,5.5c-0.6,0.1-1.2,1.2-1.6,1.9
			c-0.4,0.6-0.5,1.6-1,2.1c-1.1,1.1-2.5,2-3.7,3c-1.7,1.4-6.2-0.5-6.5-3.2c-0.3-2.7,0.3-5.6,0.4-8.4c0-0.9,0.2-2.1-0.3-2.6
			c-2.4-2.5-2.6-6.6,0-9c2.2-2.1,4.8-3.8,7.1-5.8c1.3-1.2,2.2-2.9,3.4-4.3c0.5-0.6,1-1.3,1.6-1.6c0.5-0.3,1.5-0.3,1.9,0
			c2,1.4,4,3,5.5,4.1c-1.7-0.1-3.4-0.2-5.2-0.3c0,0.3,0,0.6-0.1,0.9c0,0-0.1,0-0.1-0.1c-0.3-1.2-0.6-2.3-0.9-3.5
			c-1.2,1.2-2.3,2.5-3.5,3.6c-2.3,2-4.9,3.7-6.8,6c-1.5,1.8-2.4,4.1-3.3,6.3c-0.2,0.4,0.6,1.1,0.8,1.6c0.5,1.5,1.3,3.1,1.2,4.6
			c-0.2,3.2-2.3,6.5,1.1,9.2c1.3,1,2.9,2.1,3.9-0.6c0.2-0.4,0.8-0.7,1.2-1.1c0.7-0.8,1.2-1.8,2-2.5c1.1-1,2.4-2.6,3.6-2.6
			c2.9-0.1,4.2-1.3,4.1-4c-0.1-3.4,1.3-5.7,4.6-7c0.7-0.3,1.4-1.2,1.7-2C155.3,75.5,156.4,72.6,160.1,71.9z"/>
		<path class="st62" d="M159.5,95.9c-1.3,0.8-2.6,1.6-3.9,2.5c-0.8,0.5-1.4,1.3-2.1,1.9c-0.1,1.9-0.1,3.8-0.3,5.7
			c-0.1,0.5-0.9,1.3-1.3,1.3c-6.6-1.3-7.8,2-8.4,7.5c-0.2,1.8,0,3.7-0.1,5.5c0,0.3-0.6,0.8-1,0.8c-1.8,0.3-3.6,0.7-5.5,0.7
			c-1,0-2-0.8-3.1-1.1c-1.8-0.4-3.6-0.7-5.4-1.1c-2-0.4-3.9-1-5.9-1.4c-1.6-0.3-3.3-0.4-5.2-0.6c2.5-1.2,4.7-0.9,7.1,0.5
			c1,0.6,2.6,0.9,3.5,0.5c2.5-1.1,4.5-0.6,6.8,0.8c0.8,0.5,2.2,0.1,3.3,0.1c0.2,0,0.5-0.4,0.7-0.4c4,0.7,3.2-2.1,3.5-4.4
			c0.3-2.5,0.8-5.3,2.2-7.2c1-1.3,3.7-1.4,5.5-2.2c0.8-0.3,1.9-1.2,1.8-1.8c-0.3-3.3,1.9-6,4.9-7.3c1.2-0.5,1.5-3.1,2.1-4.7
			c0.5-1.8,1.1-3.6,1.6-5.4c0.4,0.1,0.7,0.2,1.1,0.3c-0.5,1.3-0.9,2.5-1.4,3.8c0,0.4,0,0.7,0,1.1C159.9,92.8,159.7,94.3,159.5,95.9z
			"/>
		<path class="st63" d="M102.3,131.3c0,0.1,0,0.2,0,0.3c-1.4,0.2-2.8,0.8-4.1,0.5c-4.7-0.9-9.4-1.8-14-3.1c-1.8-0.5-4.7,0-5.1-3.1
			c-0.4-0.6-0.8-1.2-1.3-1.7c-1.5-1.8-2.1-9.1-0.9-11.1c-0.1,2.3-0.2,4.5-0.3,6.8c-0.2,3.3,2.3,5.2,6.4,5.5c2.8,0.2,5.5,1,8.2,1.6
			c2.6,0.6,5.2,1.4,7.8,1.8c0.5,0.1,1.4-1.1,1.8-1.9c0.4-0.7,0.4-1.6,0.6-2.3c-0.1,0.4-0.2,0.7-0.3,1.1c0.6,1.5,1.3,3,2,4.8
			C103.3,130.3,102.8,130.8,102.3,131.3z"/>
		<path class="st64" d="M101.2,125.6c0.1-0.4,0.2-0.7,0.3-1.1c0.9-1.2,1.8-2.4,3.2-4.3c-2.5-0.7-4.9-1.4-7.3-1.9
			c-3-0.6-4.2-3.2-2.5-5.9c0.3-0.5,0.4-1.9,0-2.2c-3.8-2.9-1.8-6.1,0.6-8.6c0,0,0.1,0,0.1-0.1c2.7-1.4,3.5-3.1,0.9-5.5
			c-0.5-0.5-0.6-1.5-1.1-3c1.4,1.9,2.3,3.3,3.3,4.5c1.4,1.6,0.9,2.3-0.6,3.7c-1.6,1.6-2.7,3.9-3.5,6c-0.1,0.4,2.1,1.7,3.3,2.6
			c-0.5,1.1-1.6,2.6-1.6,4.2c0,0.9,1.5,2.2,2.6,2.7c1.9,0.9,4.2,1,6.2,1.9c1.6,0.7,2.3,2.1,0.5,3.6c-0.4,0.3-0.7,0.7-1.1,1
			c-2,1.8-2.8,3.5,0.4,4.9c-0.8-0.8-1.6-1.6-2.5-2.3C102,125.8,101.5,125.7,101.2,125.6z"/>
		<path class="st65" d="M107.2,78.1c-0.5-2.6,3.5-6.3,6.8-6.4c0.3,0,0.6-0.1,1,0c2.4,0.5,3.5-0.3,3.7-3c0.2-2.8,2.4-3.9,5.1-3.2
			c0.4,0.1,1.6-1,1.8-1.7c1.2-4.1,3.4-7.1,8.1-7.6c0.5,0,1,0,2,0c-2.4,1.1-5,1.5-5.9,3c-1.6,2.5-2.1,5.6-3,8.5
			c-0.1,0.4-0.1,0.9-0.1,1.4c-0.4-0.2-0.9-0.4-1.3-0.6c-1.4-0.4-2.8-0.8-4.2-1.2c-0.4,1.7-0.8,3.5-1.2,5.2c-0.1,0.3,0.2,0.9,0.1,0.9
			c-0.3,0.2-0.8,0.3-1.1,0.2c-3.8-0.7-7.6-1.2-10.4,2.5C108.1,76.7,107.8,77.3,107.2,78.1z"/>
		<path class="st66" d="M104.2,90.5c2.7-2.3,8-0.6,9,2.7c0.4,1.3,0.2,3,0.9,3.9c1.8,2.1,3.7,4.7,6.1,5.7c3.4,1.3,5.2,2.4,5,5.8
			c0,0.4-0.2,0.8-0.5,1.3c-0.3-7.5-6-4.5-9.9-5.2c0.4-0.4,0.7-0.7,0.9-1c0.5-0.7,0.9-1.5,1.4-2.2c-1.2-0.4-2.4-0.8-3.5-1.3
			c-0.5-0.2-1.2-0.7-1.2-1.1c0.4-6.3-1.5-8.3-7.7-8.3C104.6,90.7,104.5,90.6,104.2,90.5z"/>
		<path class="st67" d="M160.4,86.1c-0.5,1.8-1.1,3.6-1.6,5.4c0.4-2.3,0.9-4.6,1.1-6.9c0.1-1.4-0.5-2.9-0.7-4.4
			c-0.2-1-0.1-2.1-0.4-3c-0.3-0.7-1-1.2-1.6-1.9c1.2-0.4,2.6-1.4,3.6-1.1c0.8,0.2,1.7,1.9,1.8,2.9c0.1,2.3-0.3,4.6-0.5,6.9
			C161.5,84.8,160.9,85.4,160.4,86.1L160.4,86.1z"/>
		<path class="st68" d="M76.9,113.1c-1.2,1.9-0.6,9.3,0.9,11.1c0.5,0.6,0.9,1.1,1.3,1.7c0,0.3,0,0.5,0,0.8c-0.5-0.6-0.9-1.3-1.5-1.9
			c-0.5-0.5-1.3-0.9-1.9-1.3c-0.3,0.7-0.6,1.4-0.9,2.1c-0.2-2-0.4-4-0.5-6c-1.1-2.6-2.2-5.3-3.3-7.9c0-0.1,0-0.2,0-0.4
			c2.6,2.6,4.5,2.6,7.3,0c0,0,0.1,0.1,0.1,0.1C77.9,112,77.4,112.5,76.9,113.1z"/>
		<path class="st69" d="M101.2,125.6c0.4,0.1,0.8,0.2,1.1,0.4c0.9,0.7,1.7,1.5,2.5,2.3c0.2,0,0.4,0,0.5,0c0.2,0.1,0.4,0.2,0.5,0.3
			c-0.5,1-0.9,2-1.4,3c-0.5,0.7-1.1,1.5-1.6,2.2c0.7,0.2,1.3,0.5,2,0.6c2.7,0.5,5.3,1,8,1.5c-2.5,0-5,0.2-7.4-0.1
			c-1.1-0.2-2.1-1.3-3.2-2c0.4-0.7,0.7-1.3,1.2-2.2c-0.3-0.1-0.8-0.2-1.2-0.3c0.5-0.5,1-1,1-0.9
			C102.4,128.5,101.8,127.1,101.2,125.6z"/>
		<path class="st64" d="M86.4,99.4c0.2-2.2,1.7-3.5,4.3-3.5c2.8,0,4.5,1.8,4,4.3c-0.3,1.6-2.4,3.6-3.9,3.9
			C88.3,104.6,86.4,102.8,86.4,99.4z M89.8,104.4c0.6,0,1.2,0,1.7,0c1-1.4,2.5-2.8,2.7-4.3c0.4-2.3-1.3-3.9-3.7-3.8
			c-2.3,0-4.1,1.4-3.7,3.7C87.2,101.6,88.8,102.9,89.8,104.4z"/>
		<path class="st70" d="M100.4,52c0.4,0.1,0.7,0.2,1.1,0.3c-1.3,1.4-2.5,2.8-3.9,4c-0.4,0.3-1.3,0.5-1.7,0.3
			C91.5,53.9,83.6,57,82,62c-0.9,2.9-2.4,4.9-6.1,4.4c-1.3-0.2-3.4,1.5-4.1,2.8c-1.6,3.1-2.6,6.1-7,6.2c-2.7,0-3.9,1.9-3.1,4.6
			c0.8,3-0.6,4.8-3.1,6c-3,1.4-4.9,3.5-4.9,7.1c-1.3-1.8,0-5.8,2.1-6.8c3-1.5,5-3,4.3-7.1c-0.7-3.7,1.6-5.5,5.4-5.6
			c3.4,0,3.4-3,4.2-5c1.5-3.3,3.7-4.5,7.2-4.3c1.1,0.1,2.9-1.5,3.3-2.7c1.8-5.7,10.9-9.3,15.9-6.3c0.2,0.1,0.8-0.1,1.1-0.3
			C98.3,54,99.3,53,100.4,52z"/>
		<path class="st71" d="M40.4,121c-0.1-0.2-0.2-0.4-0.3-0.5c1.4,0.2,2.8,0.6,4.1,0.5c0.6,0,1.2-0.9,1.9-1.3c0-0.3,0-0.5,0-0.8
			c0.4,0.3,0.7,0.5,1.1,0.8c0,0.1,0,0.2,0,0.3c0.9,1,1.6,2.4,2.7,2.9c3.3,1.5,6.8,2.8,10.3,3.8c1.1,0.3,2.6-0.9,3.9-1.5
			c-0.5-1-1.1-2-1.6-3c-0.3-0.2-0.5-0.4-0.8-0.5c-1.3-1.7-2.5-3.5-3.8-5.2c0-0.1,0-0.2,0-0.3c0.4-1.5,0.7-3.1,1.1-4.6
			c0-0.1,0-0.2,0-0.3c0.5,0.2,1.1,0.4,1.6,0.5c0,0,0,0,0,0c-0.2,0.8-0.5,1.6-0.6,2.4c-0.1,1.3-0.2,2.6-0.2,3.9c1.4,1,2.7,2,4.1,3
			c0.7,1,1.5,2,2.2,3c-0.4-0.3-0.9-0.5-1.3-0.8c-0.1,0.3-0.3,0.5-0.3,0.8c0,0.7,0,1.4,0,2.1c-0.3,0.4-0.7,1-0.9,1
			c-3.1-0.3-6.4-0.3-9.4-1.3c-2.6-0.8-4.8-2.8-7.1-4.2c-0.7,0.2-1.4,0.5-2.1,0.4C43.3,121.8,41.9,121.3,40.4,121z"/>
		<path class="st71" d="M74.2,119.6c0.2,2,0.4,4,0.5,6c0.5,0.9,0.9,1.8,1.4,2.7c-1.4,0.3-2.8,1-4.3,0.9c-1.8,0-3.5-0.6-5.3-0.9
			c-0.1-1-0.2-2-0.3-3c0.6,0.2,1.3,0.5,1.9,0.7c4.1,1.1,6,0.2,6-2.8C74.2,122,74.2,120.8,74.2,119.6z"/>
		<path class="st61" d="M60.5,111.7c-0.5-0.2-1.1-0.4-1.6-0.5c-1.1-1-2.5-3.5-3.5-0.3c-1.1,3.4-2.7,5.5-6.6,5
			c-0.5,1.3-1.1,2.5-1.6,3.8c-0.4-0.3-0.7-0.5-1.1-0.8c1.3-1.5,2.5-2.9,3.8-4.4c1.7,0.2,3.2,0.2,3.1-2.2c0-0.6,0.4-1.3,0.9-1.8
			c1-1.2,2.2-2.2,3.3-3.3C58.3,108.6,59.4,110.2,60.5,111.7z"/>
		<path class="st72" d="M74.2,123.1c0,3.1-1.9,4-6,2.8c-0.6-0.2-1.3-0.4-1.9-0.7c-0.1-0.5-0.2-0.9-0.3-1.4c-0.7-1-1.5-2-2.2-3
			c0.4,0.1,1,0,1.1,0.3c1.4,1.9,3.2,1.7,5.2,1.1c0.7-0.2,1.6,0.7,2.4,0.9C73.1,123.4,73.7,123.2,74.2,123.1z"/>
		<path class="st73" d="M72.1,97.9c-1.4,1-2.9,2.9-4.3,2.8c-1.2-0.1-3.4-2.4-3.2-3.5c0.2-1.4,2-3.4,3.5-3.7c1.1-0.2,2.6,1.8,4,2.8
			C72.1,96.8,72.1,97.3,72.1,97.9z M70.8,96.9c-0.9-1-1.7-2-2.6-2.8c-0.3-0.2-1.1-0.3-1.2-0.2c-0.8,1.3-2.1,2.8-1.9,4
			c0.2,1.1,2.5,2.7,3.2,2.5c1.3-0.4,2.1-2.2,3.1-3.5c-0.1-0.1-0.3-0.2-0.4-0.3C70.9,96.7,70.8,96.9,70.8,96.9z"/>
		<path class="st61" d="M59.7,118c0.1-1.3,0.1-2.6,0.2-3.9c0.1-0.8,0.4-1.6,0.6-2.4C60.3,113.8,60,115.9,59.7,118z"/>
		<path class="st74" d="M78.2,111.4c-2.7,2.6-4.7,2.6-7.3,0c-0.4-0.8-0.7-1.7-1.3-2.9c3.3,0.3,6.2,0.6,9.4,1
			C78.7,110.2,78.5,110.8,78.2,111.4z"/>
		<path class="st75" d="M158.7,127.2c-0.2,0.6-0.2,1.5-0.7,1.8c-4.1,2.8-8.3,5.5-12.3,8.4c-5.3,3.8-11.4,4.2-17.6,4.5
			c-3.6,0.1-7.2,0.2-10.7,0c-2.4-0.1-4.8-0.8-7.1-1.3c-0.4-0.1-0.6-0.9-1-1.6c-0.4-0.2-1.2-0.5-2.1-0.8c1.4-0.4,2.7-0.7,4.1-1.1
			c0.4,0,0.9,0.1,1.5,0.1c-0.3,0.6-0.5,1-0.7,1.4c1.7,0.3,3.3,0.8,5,0.9c4.1,0.2,8.3,0.2,12.4,0.3c5.9,0.2,11.2-1.8,16.2-4.8
			c0.4-0.2,0.4-1.1,0.5-1.7c4.6-0.8,8.8-4.4,7.9-6c-2.4,1.5-4.9,3.1-7.3,4.6c0-0.1,0-0.2,0-0.3c3.9-1.3,7-4.7,6.6-7.1
			C155.1,125.4,156.9,126.3,158.7,127.2z"/>
		<path class="st76" d="M111.3,137c-1.4,0.4-2.7,0.7-4.1,1.1c-0.5-0.2-0.9-0.4-1.4-0.5c-1.2-0.7-2.4-1.2-3.5-2.1
			c-0.3-0.2-0.1-1.1-0.1-1.7c1.1,0.7,2.1,1.9,3.2,2c2.4,0.3,5,0.1,7.4,0.1c0.2,0,0.4,0,0.5,0c3.1,0.5,6.3,1.4,9.4,1.3
			c5.3-0.1,10.5-0.6,15.8-1.4c1.5-0.2,2.9-1.7,4.3-2.6c0.5,0.1,1.1,0.2,1.6,0.3c-0.5,0.6-1.1,1.3-1.6,1.9c-3.6,1.1-7.3,2.2-10.9,3.3
			c-1,0-2.1,0-3.1,0c-4.6-0.3-9.1-0.5-13.7-0.8C113.9,137.7,112.6,137.3,111.3,137z"/>
		<path class="st77" d="M158.7,127.2c-1.8-0.9-3.6-1.8-5.4-2.7c-1-3.5-0.4-6.5,3-8.4c0.1,0,0.2,0,0.3,0c2,0.5,4,1.1,6,1.6
			c0.2,0.1,0.4,0.2,0.5,0.3c0,0.1,0,0.2,0,0.3c-1.4-0.5-2.7-1.1-3.8,0.7c-1.1,1.7-2.6,3.2-3.7,4.9c-0.2,0.3-0.1,1.3,0.2,1.5
			c1,0.7,2.1,1.3,3.2,1.9C158.9,127.2,158.8,127.2,158.7,127.2z"/>
		<path class="st78" d="M159,127.2c-1.1-0.6-2.2-1.2-3.2-1.9c-0.3-0.2-0.4-1.2-0.2-1.5c1.2-1.7,2.7-3.1,3.7-4.9
			c1.1-1.8,2.4-1.2,3.8-0.7c0.4,0.3,0.7,0.5,1.1,0.8c-1.3,1.3-2.9,2.4-3.9,3.9c-0.7,1.2-3.2,2.4-0.8,4.3
			C159.4,127.2,159.2,127.2,159,127.2z"/>
		<path class="st76" d="M76.1,128.3c-0.5-0.9-0.9-1.8-1.4-2.7c0.3-0.7,0.6-1.4,0.9-2.1c0.6,0.4,1.3,0.8,1.9,1.3
			c0.6,0.5,1,1.3,1.5,1.9c0,1.5,0,3,0,4.4c1.1-0.2,2-0.5,2.7-0.4c4.8,1,9.6,2.3,14.4,3.2c1.5,0.3,3.2-0.2,4.8-0.4
			c-0.2,2.8-1.3,3.5-4.3,2.6c-4.5-1.4-9.1-1.9-13.7-2.9c-1.1-0.2-2.2-0.9-3.3-1.3c-0.3-0.9-0.5-1.9-0.8-2.8c-0.3-1-0.7-2-1.2-3.4
			c-0.7,1.5-1.1,2.4-1.5,3.2C76.1,128.7,76.1,128.5,76.1,128.3z"/>
		<path class="st79" d="M100.9,133.5c-1.6,0.2-3.2,0.7-4.8,0.4c-4.8-0.9-9.6-2.2-14.4-3.2c-0.7-0.2-1.5,0.2-2.7,0.4
			c0-1.4,0-2.9,0-4.4c0-0.3,0-0.5,0-0.8c0.4,3.1,3.3,2.6,5.1,3.1c4.6,1.3,9.3,2.3,14,3.1c1.3,0.2,2.7-0.3,4.1-0.5
			C101.8,132.2,101.4,132.8,100.9,133.5z"/>
		<path class="st80" d="M76.1,128.9c0.4-0.8,0.8-1.7,1.5-3.2c0.5,1.5,0.9,2.4,1.2,3.4c0.3,0.9,0.6,1.9,0.8,2.8c0,0.2,0,0.4,0,0.5
			c-0.5-0.6-1-1.2-1.7-1.8c-0.4-0.4-1-0.5-1.5-0.8c0,0.7-0.1,1.5,0,2.2c0.1,0.7,0.6,1.3,0.9,2c-0.7,0.2-1.4,0.3-2.1,0.5
			c-3.5,1.4-5.2-1.1-7.1-3.3c0.2,0,0.4,0,0.5,0c2,0.3,4,0.8,6.1,0.9c0.3,0,0.7-1.6,1-2.5C75.9,129.4,76,129.1,76.1,128.9z"/>
		<path class="st81" d="M164.2,119c-0.4-0.3-0.7-0.5-1.1-0.8c0-0.1,0-0.2,0-0.3c4.5,0.6,2.5-4,4.4-5.5c-0.9-0.7-1.9-1.3-2.6-1.9
			c0.3-0.2,1-0.6,1.8-1c0.4-0.1,0.7-0.2,1.1-0.3c0.1,0.2,0.3,0.5,0.4,0.5c3.8-1,2.2,1.4,1.7,2.8c-0.5,1.8-1.2,3.6-2.1,5.3
			c-0.4,0.7-1.4,1-2.2,1.5C165.1,119.2,164.6,119.1,164.2,119z"/>
		<path class="st82" d="M166.6,109.5c-0.8,0.4-1.5,0.9-1.8,1c0.7,0.5,1.7,1.2,2.6,1.9c-1.8,1.6,0.2,6.1-4.4,5.5
			c-0.2-0.1-0.4-0.2-0.5-0.3c0.4-0.6,0.7-1.3,1.1-1.9c-0.1,0.5-0.3,1-0.4,1.4c1.1-1,1.8-2.1,2.4-3.3c0.3-0.6,0.4-1.4,0.7-2
			c-0.6-0.1-1.4-0.5-1.6-0.3c-0.5,0.5-0.7,1.3-1.1,1.9c-0.2-0.7-0.5-1.3-0.7-2c-0.4,1.5-0.8,3-1.2,4.5c0.4-1.7,0.7-3.5,1.1-5.2
			c0.4-0.2,0.7-0.4,1.1-0.5c0.8-0.5,1.9-0.9,2.2-1.6c0.7-1.8,1.2-3.7,1.3-5.6c0.3-3.9,0.7-7.9,0.5-11.7c-0.2-2.6,2.9-7.3-3.5-7.1
			c0,0-0.1-0.2-0.2-0.5c3.9,0.7,2.4-2.7,3.5-4.3c0.1,0,0.2,0,0.2,0c0.5,1.7,0.9,3.4,1.4,5.2c0.1,2.6,0.1,5.2,0.2,7.8
			c0,1,0.4,2,0.3,3c-0.3,4-0.6,8-1.2,11.9C168.6,108.3,167.4,108.8,166.6,109.5z"/>
		<path class="st83" d="M68.7,131.3c-0.2,0-0.4,0-0.5,0c-0.9-0.6-1.7-1.3-2.8-2.1c0.5,1.6,0.8,2.8,1.2,4c0,0,0,0,0,0
			c-1.3-0.6-2.7-1.1-4-1.7c-0.4-0.2-0.9-0.3-1.4-0.5c-0.4,2.7-2.3,1.9-3.9,1.7c-0.8-0.2-1.6-0.4-2.5-0.6c-0.7-0.8-1.5-1.6-2.2-2.4
			c2.4,0.3,4.8,0.5,7.3,0.7c0.8,0.1,1.7-0.2,2.5,0c0.5,0.1,1,0.5,1.6,0.8c0.1-0.6,0.3-1.2,0.4-1.8c0.1-0.7,0-1.4,0-2.2
			c0-0.2,0-0.4,0-0.5c0.2-0.3,0.3-0.7,0.7-1.3c0.6,1.4,1,2.6,1.5,3.8c0.4,0.4,0.7,0.7,1.1,1.1C68,130.6,68.4,130.9,68.7,131.3z"/>
		<path class="st61" d="M46.1,119.6c-0.6,0.5-1.2,1.3-1.9,1.3c-1.4,0-2.8-0.3-4.1-0.5c-0.1-1-0.2-2-0.3-3
			C41.9,118.1,44,118.9,46.1,119.6z"/>
		<path class="st12" d="M57.3,132.7c1.6,0.2,3.5,1.1,3.9-1.7c0.5,0.2,0.9,0.3,1.4,0.5c1.3,0.6,2.7,1.1,4,1.7c-0.3,0.2-0.7,0.6-1,0.6
			C62.8,133.5,60,133.1,57.3,132.7z"/>
		<path class="st84" d="M64.4,127.2c0,0.7,0,1.5,0,2.2c-0.1,0.6-0.2,1.2-0.4,1.8c-0.5-0.3-1-0.7-1.6-0.8c-0.8-0.1-1.7,0.1-2.5,0
			c-2.4-0.2-4.9-0.5-7.3-0.7c-1.1-3.8-5.2-1.6-7.3-3.5c-0.9-0.8-2.2-1-3.3-1.4c0-0.1,0-0.2,0-0.3c5,1.2,9.9,2.6,14.9,3.5
			C59.4,128.5,62.2,130.1,64.4,127.2z"/>
		<path class="st85" d="M167.7,79.5c-1,1.6,0.4,5-3.5,4.3c0.1,0.3,0.2,0.5,0.2,0.5c6.3-0.2,3.3,4.5,3.5,7.1
			c0.2,3.9-0.1,7.8-0.5,11.7c-0.2,1.9-0.7,3.8-1.3,5.6c-0.3,0.7-1.4,1-2.2,1.6c0.6-1.3,1.7-2.6,1.9-4c0.6-5.8,1.1-11.6,1.3-17.4
			c0-1.3-1.2-2.6-1.8-3.8c-0.4-0.1-0.7-0.2-1.1-0.3c-0.7,0.4-1.5,0.7-2.2,1.1c-0.2,0.2-0.4,0.4-0.5,0.5c-0.4-0.1-0.7-0.2-1.1-0.3
			c0,0,0,0,0,0c0.6-0.6,1.3-1.3,1.9-1.9c0.3-0.2,0.5-0.4,0.8-0.5c3.4-0.6,3-3.3,3-5.7C166.6,78.5,167.2,79,167.7,79.5z"/>
		<path class="st86" d="M166.1,77.9c0,2.4,0.4,5.1-3,5.7c0.5-2.3,0.9-4.5,1.4-6.8C165,77.2,165.5,77.5,166.1,77.9z"/>
		<path class="st87" d="M64.4,127.2c-2.2,2.9-5,1.3-7.5,0.8c-5-1-9.9-2.3-14.9-3.5c-0.5-1.2-1.1-2.4-1.6-3.5c1.5,0.4,3,0.9,4.5,1.1
			c0.7,0.1,1.4-0.3,2.1-0.4c2.2,1.4,4.5,3.3,7.1,4.2c3,1,6.2,1,9.4,1.3c0.3,0,0.6-0.7,0.9-1c0,0.2,0,0.4,0,0.5
			C64.4,126.9,64.4,127,64.4,127.2z"/>
		<path class="st63" d="M104.5,131.6c0.5-1,0.9-2,1.4-3c0.2,0.3,0.8,0.7,0.7,0.8c-1.1,3,1,2.3,2.6,2.4c5,0.4,9.9,0.8,14.9,1
			c1.4,0.1,2.8-0.1,4.1-0.4c0.3-0.1,0.4-0.9,0.6-1.4c1.9,0.5,3.8,1.1,5.7,1.6c0.4,0.2,0.7,0.3,1.1,0.5c-0.1,0.4-0.2,0.7-0.3,1.1
			c-3.7,0.2-7.4,0.8-11,0.7c-5.5-0.2-11-0.9-16.5-1.6C106.6,133.2,105.5,132.2,104.5,131.6z"/>
		<path class="st88" d="M161.5,86.4c0.2-0.2,0.4-0.4,0.5-0.5c0.6,0.5,1.8,0.9,1.8,1.4c0.1,1.9-0.1,3.9-0.2,5.8
			c-0.2,2.8-0.5,5.5-0.7,8.3c-0.5,5.4-0.1,11.1-5.7,14.5c-0.2,0.1-0.4,0.2-0.5,0.3c-0.1,0-0.2,0-0.3,0c-0.3,0-0.6,0-0.8,0
			c0.7-0.9,1.8-1.7,2.1-2.7c1.2-3.5,2.3-7.1,3-10.7c0.6-2.9,0.9-5.9,1.1-8.8c0.1-1.2-0.3-2.5-0.5-3.7c0-0.1-0.7,0-1,0
			C160.5,88.9,161,87.6,161.5,86.4z"/>
		<path class="st88" d="M132,130.2c2.3,0,4.5,0,6.8,0c2.2-0.9,4.5-1.8,6.7-2.8c0.7-0.3,1.1-1.1,1.8-1.4c2.4-1,4.5-2.2,4.9-5.1
			c1.1,3-0.4,5.2-2.7,6.7c-2.2,1.4-4.7,2.3-7.1,3.4c-1.4,0-2.7,0-4.1,0C136.2,130.8,134.1,130.5,132,130.2z"/>
		<path class="st89" d="M142.4,131c2.4-1.1,4.9-2,7.1-3.4c2.3-1.5,3.8-3.7,2.7-6.7c0-0.2,0-0.4,0-0.5c1.1-1.5,2.2-2.9,3.3-4.4
			c0.3,0,0.6,0,0.8,0c-3.4,2-4,4.9-3,8.4c0.5,2.4-2.7,5.8-6.6,7.1C145.3,131.4,143.8,131.2,142.4,131z"/>
		<path class="st69" d="M132,130.2c2.1,0.3,4.2,0.5,6.3,0.8c-0.9,0.4-1.7,0.7-2.8,1.2c0.5,0.3,1,0.5,1.4,0.7
			c-0.8-0.1-1.6-0.2-2.5-0.3c-1.9-0.5-3.8-1.1-5.7-1.6h0c-0.8-0.8-1.6-1.6-2.5-2.5c-1.2,0-2.4,0-3.6,0c0-0.3,0.1-0.6,0.1-0.9
			c1.7,0.4,3.5,0.7,5.2,1.1C129.3,129.2,130.7,129.7,132,130.2z"/>
		<path class="st88" d="M152.2,120.4c0,0.2,0,0.4,0,0.5c-0.5,2.8-2.5,4.1-4.9,5.1c-0.7,0.3-1.1,1.1-1.8,1.4c-2.2,1-4.4,1.8-6.7,2.8
			c1.2-0.6,2.4-1.3,3.7-1.9c0.7-0.4,1.5-0.6,2.1-1c1.5-1,3-1.9,4.3-3.1C150.1,123.1,151.1,121.7,152.2,120.4z"/>
		<path class="st88" d="M159.5,95.9c0.2-1.5,0.4-3.1,0.5-4.6C159.9,92.8,159.7,94.3,159.5,95.9z"/>
		<path class="st63" d="M126.3,128.6c0.8,0.8,1.6,1.6,2.5,2.5C127.9,130.2,127.1,129.4,126.3,128.6z"/>
		<path class="st62" d="M162.3,84.2c-0.6,0.6-1.3,1.3-1.9,1.9c0.5-0.6,1.1-1.3,1.6-1.9C162.1,84.2,162.2,84.2,162.3,84.2z"/>
		<path class="st64" d="M134.5,132.7c0.8,0.1,1.6,0.2,2.5,0.3c1.1-0.3,2.2-0.5,3.3-0.8c-0.4,0.6-0.7,1.7-1.2,1.8
			c-3.8,0.9-7.6,2-11.4,2.3c-3.4,0.3-6.9-0.3-10.4-0.4c-1.2,0-2.4,0.1-3.7,0.1c-0.2,0-0.4,0-0.5,0c-2.7-0.5-5.4-1-8-1.5
			c-0.7-0.1-1.4-0.4-2-0.6c0.5-0.7,1.1-1.5,1.6-2.2c1.1,0.6,2.1,1.7,3.3,1.8c5.5,0.7,11,1.3,16.5,1.6c3.7,0.2,7.3-0.4,11-0.7
			c0.1-0.4,0.2-0.7,0.3-1.1C135.2,133,134.8,132.8,134.5,132.7z"/>
		<path class="st90" d="M89.8,104.4c-1-1.5-2.6-2.8-2.9-4.5c-0.4-2.3,1.4-3.7,3.7-3.7c2.4,0,4.1,1.5,3.7,3.8
			c-0.2,1.5-1.8,2.9-2.7,4.3C90.9,104.4,90.4,104.4,89.8,104.4z M89.8,104.7c1.6-2.2,3-3.3,3.2-4.6c0.1-0.8-1.7-2.9-2.1-2.8
			c-1.4,0.4-3.2,1.4-3.6,2.6C87,100.8,88.5,102.3,89.8,104.7z"/>
		<path class="st91" d="M48.8,115.8c3.9,0.5,5.5-1.5,6.6-5c1-3.1,2.4-0.7,3.5,0.3c0,0.1,0,0.2,0,0.3c-0.4,1.5-0.7,3.1-1.1,4.6
			c0,0.1,0,0.2,0,0.3c-0.7,3.2,2,3.8,3.8,5.2c0.3,0.2,0.5,0.4,0.8,0.5c-0.8,0.4-1.9,1.3-2.5,1.1c-2.6-0.9-5-2.2-7.6-3.2
			c-0.4-0.2-1-0.1-1.4-0.3c-1-0.4-2.1-0.7-2.8-1.4C47.9,117.9,48.6,116.6,48.8,115.8z"/>
		<path class="st63" d="M48.8,115.8c-0.3,0.8-1,2.1-0.7,2.4c0.7,0.7,1.8,1,2.8,1.4c0.4,0.2,1,0.1,1.4,0.3c2.5,1.1,5,2.3,7.6,3.2
			c0.6,0.2,1.7-0.7,2.5-1.1c0.5,1,1.1,2,1.6,3c-2.7-0.2-5.6,0.2-8.1-0.7c-3.1-1-5.9-3-8.8-4.5c0-0.1,0-0.2,0-0.3
			C47.7,118.3,48.3,117,48.8,115.8z"/>
		<path class="st61" d="M47.2,119.9c2.9,1.5,5.7,3.5,8.8,4.5c2.5,0.8,5.4,0.5,8.1,0.7c-1.3,0.5-2.8,1.7-3.9,1.5
			c-3.5-0.9-7-2.3-10.3-3.8C48.8,122.2,48.1,120.8,47.2,119.9z"/>
		<path class="st92" d="M64.4,126.7c0-0.2,0-0.4,0-0.5c0-0.7,0-1.4,0-2.1c0-0.3,0.2-0.5,0.3-0.8c0.4,0.3,0.9,0.5,1.3,0.8
			c0.1,0.5,0.2,0.9,0.3,1.4c0.1,1,0.2,2,0.3,3c0,0.3,0,0.5,0,0.8c-0.5-1.2-0.9-2.3-1.5-3.8C64.7,126,64.5,126.3,64.4,126.7z"/>
		<path class="st61" d="M61.6,121.5c-1.8-1.3-4.5-2-3.8-5.2C59.1,118,60.4,119.8,61.6,121.5z"/>
		<path class="st61" d="M57.8,116c0.4-1.5,0.7-3.1,1.1-4.6C58.5,113,58.2,114.5,57.8,116z"/>
		<path class="st68" d="M66.5,129.1c0-0.3,0-0.5,0-0.8c1.8,0.3,3.5,0.9,5.3,0.9c1.4,0,2.8-0.6,4.3-0.9c0,0.2,0,0.4,0,0.5
			c-0.1,0.3-0.2,0.5-0.3,0.8c-0.4,0.4-0.7,1-1,1c-2.4-0.1-4.8-0.3-7.1-0.5C67.3,129.9,66.9,129.5,66.5,129.1z"/>
		<path class="st93" d="M70.8,96.9c0,0,0.1-0.2,0.2-0.4c0.1,0.1,0.3,0.2,0.4,0.3c-1,1.2-1.8,3-3.1,3.5c-0.8,0.3-3.1-1.4-3.2-2.5
			c-0.2-1.2,1.1-2.7,1.9-4c0.1-0.1,0.9,0,1.2,0.2C69.1,94.9,69.9,95.9,70.8,96.9z"/>
		<path class="st94" d="M111.3,137c1.3,0.3,2.6,0.7,3.9,0.8c4.5,0.3,9.1,0.6,13.7,0.8c1,0.1,2.1,0,3.1,0c3.6-1.1,7.3-2.2,10.9-3.3
			c0.5-0.6,1.1-1.3,1.6-1.9c0-0.1,0-0.2,0-0.3c0.5,0,1.1,0,1.6,0c-0.2,0.6-0.2,1.5-0.5,1.7c-5,3-10.3,5-16.2,4.8
			c-4.1-0.1-8.3-0.1-12.4-0.3c-1.6-0.1-3.3-0.6-5-0.9c0.2-0.4,0.4-0.8,0.7-1.4C112.1,137.1,111.7,137.1,111.3,137z"/>
		<path class="st95" d="M146.2,133.2c-0.5,0-1.1,0-1.6,0c-0.2-0.3-0.5-0.5-0.8-0.9c1.1-0.2,2.1-0.3,3-0.5c2.4-1.6,4.9-3.1,7.3-4.6
			C155,128.8,150.8,132.4,146.2,133.2z"/>
		<path class="st96" d="M146.7,131.8c-0.9,0.1-1.9,0.3-3,0.5c0.4,0.4,0.6,0.6,0.8,0.9c0,0.1,0,0.2,0,0.3c-0.5-0.1-1.1-0.2-1.6-0.3
			c-0.9-0.4-1.8-0.7-2.7-1.1c-1.1,0.3-2.2,0.5-3.3,0.8c-0.4-0.2-0.9-0.4-1.4-0.7c1.1-0.5,1.9-0.8,2.8-1.2c1.4,0,2.7,0,4.1,0
			c1.5,0.2,2.9,0.4,4.4,0.5C146.7,131.7,146.7,131.8,146.7,131.8z"/>
		<path class="st69" d="M140.2,132.1c0.9,0.4,1.8,0.7,2.7,1.1c-1.4,0.9-2.8,2.4-4.3,2.6c-5.2,0.7-10.5,1.3-15.8,1.4
			c-3.1,0.1-6.3-0.8-9.4-1.3c1.2,0,2.5-0.1,3.7-0.1c3.5,0.1,7,0.7,10.4,0.4c3.9-0.3,7.7-1.4,11.4-2.3
			C139.5,133.8,139.8,132.7,140.2,132.1z"/>
		<path class="st96" d="M142.9,135.4c-3.6,1.1-7.3,2.2-10.9,3.3C135.6,137.6,139.3,136.5,142.9,135.4z"/>
		<path class="st81" d="M156.5,116.1c0.2-0.1,0.4-0.2,0.5-0.3c0.6,0,1.3,0,1.9,0c0.9,0.1,1.8,0.2,2.7,0.3c0.4-1.5,0.8-3,1.2-4.5
			c0.2,0.7,0.5,1.4,0.7,2c0,0.7,0,1.5,0,2.2c-0.4,0.6-0.7,1.3-1.1,1.9C160.5,117.1,158.5,116.6,156.5,116.1z"/>
		<path class="st92" d="M67.6,130.2c2.4,0.2,4.8,0.4,7.1,0.5c0.3,0,0.7-0.7,1-1c-0.3,0.9-0.7,2.5-1,2.5c-2-0.1-4.1-0.5-6.1-0.9
			C68.4,130.9,68,130.6,67.6,130.2z"/>
		<path class="st89" d="M165.3,85c0.6,1.3,1.8,2.6,1.8,3.8c-0.2,5.8-0.7,11.6-1.3,17.4c-0.1,1.4-1.2,2.7-1.9,4
			c-0.4,0.2-0.7,0.4-1.1,0.5c0,0,0,0,0,0c0.5-1,1.2-1.9,1.3-2.9c0.6-4.6,1.1-9.2,1.3-13.8C165.7,91.1,165.4,88.1,165.3,85z"/>
		<path class="st97" d="M163.6,115.8c0-0.7,0-1.5,0-2.2c0.3-0.7,0.5-1.5,1.1-1.9c0.2-0.2,1,0.2,1.6,0.3c-0.2,0.7-0.3,1.4-0.7,2
			c-0.6,1.2-1.3,2.3-2.4,3.3C163.4,116.7,163.5,116.3,163.6,115.8z"/>
		<path class="st89" d="M161.7,116c-0.9-0.1-1.8-0.2-2.7-0.3c0.8-0.5,1.9-0.8,2.3-1.5c0.5-0.9,0.5-2.1,0.7-3.1
			c0.3-0.1,0.5-0.2,0.8-0.3l0,0C162.5,112.6,162.1,114.3,161.7,116z"/>
		<path class="st66" d="M162,111.1c-0.2,1.1-0.2,2.3-0.7,3.1c-0.4,0.7-1.5,1-2.3,1.5c-0.6,0-1.3,0-1.9,0c5.6-3.4,5.3-9.1,5.7-14.5
			c0.2-2.8,0.5-5.5,0.7-8.3c0.2-1.9,0.3-3.9,0.2-5.8c0-0.5-1.2-0.9-1.8-1.4c0.7-0.4,1.5-0.7,2.2-1.1c0.3,1.1,0.9,2.3,0.8,3.4
			C164.3,95.8,165.1,103.7,162,111.1z"/>
		<path class="st62" d="M162,111.1c3.1-7.4,2.3-15.3,2.9-23c0.1-1.1-0.5-2.2-0.8-3.4c0.4,0.1,0.7,0.2,1.1,0.3
			c0.1,3.1,0.4,6.2,0.2,9.2c-0.3,4.6-0.8,9.2-1.3,13.8c-0.1,1-0.9,1.9-1.3,2.9C162.5,111,162.3,111.1,162,111.1z"/>
		<path class="st98" d="M89.8,104.7c-1.3-2.3-2.9-3.9-2.5-4.8c0.4-1.2,2.2-2.2,3.6-2.6c0.5-0.1,2.3,2,2.1,2.8
			C92.8,101.4,91.4,102.5,89.8,104.7z"/>
	</g>
</g>
</svg>
