<?xml version="1.0" encoding="utf-8"?>
<!-- Generator: Adobe Illustrator 24.0.1, SVG Export Plug-In . SVG Version: 6.00 Build 0)  -->
<svg version="1.1" id="图层_1" xmlns="http://www.w3.org/2000/svg" xmlns:xlink="http://www.w3.org/1999/xlink" x="0px" y="0px"
	 viewBox="0 0 216.8 238.1" style="enable-background:new 0 0 216.8 238.1;" xml:space="preserve">
<style type="text/css">
	.st0{fill:#DB9FB0;}
	.st1{fill:#C88A9B;}
	.st2{fill:#8F5462;}
	.st3{fill:#B7788B;}
	.st4{fill:#AE7084;}
	.st5{fill:#A76576;}
	.st6{fill:#95626E;}
	.st7{fill:#977F8A;}
	.st8{fill:#BCA8B1;}
	.st9{fill:#CD8FA0;}
	.st10{fill:#0F0406;}
	.st11{fill:#280F13;}
	.st12{fill:#4D2730;}
	.st13{fill:#040002;}
</style>
<g>
	<g>
		<path class="st0" d="M148.4,60.7c0,0.1,0,0.2,0,0.2c0.1,0.1,0.1,0.2,0.2,0.3c0.2,0.2,0.4,0.4,0.7,0.6c0.4,1.1,1.4,0.7,2.2,0.8
			c0,0,0,0,0,0c1.1,1.3,2.3,2.4,3.8,3c0,0,0,0,0,0c1,1.9,2.7,0.8,4.2,1.1c0.1,0.1,0.1,0.2,0.2,0.2c0.6,2.2,1.3,4.4,1.9,6.6
			c-1.9,0.1-3.7,0.4-4.2,2.6c-0.8,3.7-3.1,6.2-6.3,8.1c-0.5,0.3-0.8,1.3-0.9,2c-0.5,3.6-0.6,7.4-6,6.9c-1.9-0.2-1.7,1.7-2.3,3
			c-1,2.1-2.9,4.4-5.1,4.2c-4.2-0.3-3.8-3.8-3.4-6.9c0.2-2.3,2.4-4.7,0.1-6.9c-3.6-3.4-0.8-5.9,1.2-8c3-3.1,7.4-4.9,9-9.3
			c0.3-0.7,1.2-1.6,2.4-0.9c1.1,0.7,0.9,1.6,0.5,2.6c-0.1,0.2-0.1,0.5-0.1,0.7c0.3-0.1,0.7,0,0.8-0.2c0.7-0.9,1.6-1.1,2.7-1
			c0.2,0,0.3-0.2,0.5-0.3c-0.1-0.1-0.3-0.3-0.4-0.2c-1.9,0.2-2.5-1-3.3-2.5c-0.5-1-2-0.9-2.6-0.1c-3,4.4-7.3,7.2-11,10.7
			c-2.8,2.6-4.8,6.5-0.4,10.1c0.3,0.3,0.3,1.2,0.1,1.8c-0.3,1.6-0.9,3.2-1.2,4.8c-0.5,2.9,0.5,5.2,3,6.8c2.3,1.4,4.2,1.2,5.4-1.4
			c0.1-0.2,0.5-0.3,0.8-0.4c1.7-0.4,3-1.2,2.6-3.3c-0.2-1.1,0.3-1.6,1.5-1.6c3.1-0.1,5.5-0.9,5.9-4.7c0.2-2.3-0.4-5,2.7-6.2
			c2.1-0.8,3.8-1.9,3.9-4.6c0.1-2.4,1.5-4.1,4-4c1.3,0.1,2.8,1,2.4,2.7c-0.7,2.5,0,4.9-0.2,7.3c-0.2,0.1-0.4,0.2-0.5,0.3
			c-0.4,0.4-0.7,0.7-1.1,1.1c-0.2,0.5-0.4,1.1-0.5,1.6c-1,0.6-0.8,1.7-1.1,2.6c-0.8,2.1,1,5.6-2.1,6.4c-4.5,1.1-4.9,4.3-5.2,7.8
			c-0.1,0.6,0.1,1.3-0.8,1.5c-7,0.8-8.3,2.1-8.8,9.3c-0.3,4.2-4.2,6.4-7.9,4.3c-1.9-1.1-3.8-1.8-5.7-0.7c-1.8,1.1-3.2,0.8-4.6-0.5
			c-0.5-0.4-1.2-0.9-1.8-0.9c-1.5,0-3,0.3-4.5,0.5c0,0-0.1,0.2-0.1,0.3c1.1,0,2.2-0.1,3.3,0c0.5,0,0.9,0.3,1.4,0.4
			c2,0.3,3.2,3.3,5.8,1.8c2.4-1.4,4.4-0.7,6.3,1.2c0.9,1,2.1,1.3,3.3,0.5c1.1-0.7,2.3-1.1,3.6-0.6c2.3,0.8,2.6-0.4,2.4-2.3
			c-0.1-1-0.1-2.1,0-3.1c0.3-6.5,2.1-8.6,7.9-8.2c2.9,0.2,2.3-1.4,2.1-2.9c-0.3-3.1-0.6-6.1,3.8-6.6c1.1-0.1,2.2-0.9,2.3-2.5
			c0.2-2.7,0.7-5.3,1.1-8c0,0,0,0,0,0c0.6,0.2,1.9-0.5,1.7,0c-0.8,1.8,0.1,3.4,0.1,5c-0.2,4.9-0.9,9.7-1.5,14.5
			c-0.3,2.6-0.2,5.5-2.8,7.3c-0.6,0.4-1.9,0.1-1.8,1.5c-0.2,0.2-0.4,0.3-0.6,0.5c-1.7,0.9-3,2-3,4.1c-1.5,0.8-0.4,3.1-2.2,3.7
			c-3.8,1.4-6,5.8-10.6,5.6c-0.8,0-1.6,1-2.4,1.5c-0.5,0.1-0.9,0.2-1.4,0.3c-0.5-0.3-0.9-0.5-1.4-0.8c-1.4-0.2-2.7-0.4-4.1-0.6
			c-0.9-0.5-1.8-1.1-2.7-1.6c-0.3-0.2-0.5-0.4-0.8-0.6c-0.1-0.3-0.1-0.7-0.5-0.3c-0.2,0-0.4,0-0.5,0c-2.3,0.2-4.6,0.4-6.9,0.6
			c-0.2,0-0.4,0.2-0.5,0.2c0.2,0.1,0.4,0.3,0.7,0.3c2.3-0.1,4.5-0.2,6.8-0.3c1,0.8,2,1.6,3,2.5c0.2,1.4-0.7,1.5-1.7,1.6
			c-3.5,0.5-7,0.1-10.5-0.5c-3.6-0.7-8.7,3-10.6-3.3c0-0.1-0.3-0.2-0.5-0.2c-0.2-0.1-0.4-0.2-0.6-0.3c-0.2-0.1-0.4-0.2-0.5-0.3
			c-0.5,0-1.1,0-1.6,0c-1-1.8-0.7-3.2,0.9-4.5c1-0.9,2.9-1.6,2.5-3.1c-0.5-1.5-2.1-2.4-3.9-2.8c-7.5-1.6-7.9-2.2-5.1-6.9
			c1-1.6,0.3-1.5-1-1.8c-2.4-0.5-2.5-1.8-1.8-4.1c1-3,8.2-4.6,2.3-9.2c-0.3-0.2-0.4-0.6-0.6-0.9c-0.5-0.5,0.3-2-0.7-1.6
			c-0.8,0.3-0.2,1.9,0.3,2.4c3.3,3.1,1.5,5-1.5,6.7c0.4-4.7-0.6-6.5-3.2-6c-0.5,0-1.1,0-1.6,0c-1.7-0.8-2.3,0.9-3.1,1.7
			c-0.9,1.1-1.1,2.6-0.3,3.9c1.8,2.9,4.4,2.6,7.2,1.9c-0.9,1.9-1.4,3.8,0.2,5.6c0.7,0.8,1.7,1.3,1.4,2.6c-1.5,5.3-0.9,6.2,4.7,6.9
			c1.4,0.2,3.3,0.7,4.1,1.7c0.8,1.1-1.3,1.7-1.9,2.7c-0.9,1.8-2,3.5,0,5.3c0.3,0.1,0.5,0.2,0.8,0.3c-0.3,2.6-2.4,2-3.7,1.7
			c-6.6-1.3-13.2-2.8-19.7-4.2c-3.6-3.9-2.5-8.8-2.8-13.4c0.1-0.1,0.1-0.3,0.2-0.4c0.1,0,0.1,0,0.1-0.1c0.2-0.2,0.4-0.3,0.6-0.5
			c0.2-0.2,0.3-0.3,0.5-0.5c0.6,0.3,0.5-0.2,0.5-0.5c0-0.6,1.3-1.1,0.3-1.8c-0.2-0.6-0.5-0.6-0.9-0.1c-0.3,0-0.5-0.1-0.8-0.1
			c0-0.6,0-1.1,0-1.7c0.3-4.7-0.2-9.6,2.1-13.8c1.8-3.2,2.9-6.5,3.3-10.1c0.6-5.3,2.5-9.1,8.6-9.7c2.9-0.3,6.4-0.6,7.2-4.5
			c0.8-4.2,3.8-6.5,7.4-6.6c6.2-0.2,10.7-2.9,14.8-7c0.6-0.1,1.3-0.3,1.4-1.1c0.4-0.1,0.7-0.2,1.1-0.3c1.7-0.6,3.8,0.2,5.2-1.6
			c0.2,0,0.4,0,0.6,0c0.1,0,0.2,0,0.3,0.1c0.4,0.2,0.8,0.3,1.1,0.5c0.1,0,0.2,0,0.2,0c2.3,1.3,4.9,0.6,7.4,1c0.1,0,0.1,0,0.2,0
			c0.9,1.4,2.4,1.8,3.9,1.8C145.7,57.5,147.3,58.6,148.4,60.7z M138.3,58.9c0.2-0.1,0.5-0.3,0.9-0.5c-0.3-0.2-0.7-0.6-1-0.6
			c-6-1.2-9.6,1.2-11.2,7.2c-0.2,0.8,0,2.4-1.9,1.8c-3.1-1-4.8,0.5-5.1,3.4c-0.2,2.2-1,3-3.3,2.8c-3.8-0.4-6.4,1.7-8.2,4.9
			c-0.2,0.4,0,1-0.1,1.5c0.2-0.1,0.4-0.1,0.5-0.3c2-4,5.1-5.2,9.4-4.4c0.7,0.1,3.6,2.2,2.9-1.4c-0.4-1.9-0.1-3.7,1.5-4.7
			c1.5-1,2.9,0.3,4,1.4c0.3,0.3,0.8,0.4,1.2,0.4c0.1,0,0.3-0.6,0.3-0.9C127.5,62.1,131.3,57.9,138.3,58.9z M126.4,110.2
			c0.3-2.1,0.1-3.3-0.8-4c-2.4-1.9-5.9-2.6-7.2-6c-0.1-0.4-1-0.6-1.6-0.7c-1.1-0.2-1.5-0.8-1.5-1.9c-0.2-5.2-4.5-8.3-8.9-6.6
			c-0.4,0.2-0.7,0.5-1.1,0.8c0.4,0,0.9,0.1,1.3,0c2-0.5,3.8-0.2,5.2,1.4c1.6,1.8,2.6,3.9,1.8,6.4c-0.2,0.5-0.2,1.1,0.1,1.5
			c0.2,0.2,0.9,0.2,1.4,0.1c1.3-0.2,2.4,0.1,3.1,1.1c0.5,0.8-0.1,1.4-0.8,1.9c-0.5,0.4-1.5,0.7-1.1,1.5c0.4,0.6,1.3,0.2,2,0
			c2.7-1.1,6.6,1,7.2,3.8c0.1,0.4,0.3,0.8,0.5,1.3C126.3,110.4,126.5,109.9,126.4,110.2z"/>
		<path class="st0" d="M50.4,82.7c0-0.1,0-0.1,0-0.2c1.1-1.3,2.1-2.6,2.1-4.4c0,0,0,0,0,0c1-0.2,1.5-0.9,1.4-1.9c0,0,0,0,0,0
			c0.6,0.1,0.9-0.2,0.8-0.8c0,0,0,0,0,0c0.1-0.1,0.2-0.2,0.3-0.3c0,0,0,0,0,0c0.1-0.1,0.2-0.2,0.3-0.3c0,0,0,0,0,0
			c0.1-0.1,0.2-0.2,0.3-0.3c0.1-0.1,0.2-0.1,0.2-0.2c1.7-0.8,3.5-1.5,4.7-3c0,0,0,0,0,0c1.1,0.1,1.9-0.1,2.2-1.4c0,0,0,0,0,0
			c0.1-0.1,0.2-0.2,0.3-0.3c0,0,0,0,0,0c1.8-1.8,3.6-3.6,5.5-5.5c0,0,0,0,0,0c1-0.3,1.3-1.1,1.7-1.9c0,0,0,0,0,0
			c2.1,0,4.3,0.4,5.7-1.6c0,0,0,0,0,0c2.5-1.2,4.9-2.5,7.4-3.7c2.7-1.2,5.3-3.5,8.7-1.8c-0.2,0.2-0.3,0.5-0.5,0.5
			c-4.6,0.7-8,2.9-9.8,7.4c-0.7,1.8-1.9,3-4.4,2.5c-3.1-0.5-5,1.3-6.1,4.2c-0.9,2.6-1.6,5.2-5.5,5.2c-2.7,0-5,1.7-4.2,5.1
			c0.7,3.2-0.1,5.4-3.4,6.7c-3,1.2-3.9,3.9-3.6,7c0,0.3,0.3,0.6,0.4,0.9c0.1-0.3,0.2-0.6,0.3-0.8c0.5-2.6,1-5,4-6.1
			c3.3-1.2,4.8-3.5,3.9-7.1c-0.7-2.7,0.9-4.2,3.2-4.1c4.5,0.1,5.8-2.9,6.8-6.2c0.7-2.4,2.4-3.2,4.4-2.8c3.5,0.7,4.9-1.4,6-3.9
			c2-4.9,7.5-8.5,12.1-6.4c4.7,2.1,4.5-2.8,6.8-3.7c2.9,0,5.7-2,8.7-1.1c2.3,0.7,4.6,1.6,6.9,0.4c1.1-0.6,2.1-0.5,3.2,0.1
			c-1.6,3.1-9.5,6.8-13,6.6c-5.6-0.4-7.8,4.5-11,7.8c-2.1,2.1-3.5,5-7.5,4.2c-4.4-0.9-6.4,2.1-7.6,5.9c-1.7,5.5-3.8,10.9-6.5,16
			c-1.3,2.5-2.2,5.2-0.7,7.8c1.5,2.5,1,4.4-0.4,6.5c-0.4,0.6-0.7,1.2-1,1.8c-0.7,0.1-1.5,0.2-2.2,0.3c0.2,0.6,0.5,1.2,0.7,1.7l0,0
			c0.1,0.1,0.1,0.2,0.2,0.3c0.1,0.1,0.2,0.3,0.2,0.4c0.2,0.2,0.3,0.4,0.5,0.6c0.2,0.2,0.3,0.4,0.5,0.5c0,0.1,0.1,0.3,0.1,0.4
			c0.1,0.6,0.2,1.1,0.2,1.7c0,0.6,0.1,1.2,0.8,1.4c0.1,0.5,0.2,0.9,0.3,1.4c0.2,0.2,0.4,0.4,0.5,0.5c0.1,0.9,0.2,1.8,0.3,2.7
			c0,0.9,0,1.8,0,2.7c0.1,0.8,0.2,1.6,0.3,2.4c-2.8,1.3-5.5,0.5-8.2-0.3c0.1-1.6-0.6-2.9-1.9-3.8c-0.4-0.3-0.7-0.5-1.1-0.8
			c-0.2,0-0.4,0-0.5,0c-3.7-1.9-3-4.7-2.1-8.1c0.6-2.1-1.6-3.8-3.2-5.3c-0.2-0.2-0.9-0.1-1.1,0.1c-1.6,1.7-3.3,3.4-3.5,5.9
			c-0.1,1.3-0.6,1.6-1.7,1.3c-2.7-0.6-4.7,0.7-5,3.1c-0.4,3.5-2.5,1.7-3.8,1.5c-0.9-0.2-1.7-1.2-2.6-1.8c-0.2-0.6-0.3-1.3-0.5-1.9
			c-0.1-0.8-0.2-1.6-0.3-2.4c0.3-1.6,0.6-3.1,0.8-4.7c0,0,0,0,0,0c0.9-0.1,0.5-0.8,0.6-1.3c1.5-1.6,1.3-3.5,0.8-5.5
			c1-5.1,3.5-9.8,3.5-15c0.1-0.2,0.2-0.3,0.4-0.5c0.1-0.1,0.1-0.1,0.2-0.2c0-0.1,0-0.2,0-0.3c0.1-0.1,0.2-0.2,0.2-0.3c0,0,0,0,0,0
			c1.4-0.4,3-0.4,3-2.5c0,0,0,0,0,0C50.8,84,50.4,83.3,50.4,82.7z M73,98.4c-0.2-2-1.1-3.8-3.5-3.8c-2.4,0-3.7,1.6-3.7,3.8
			c-0.1,2.2,1,3.8,3.4,3.9C71.6,102.3,72.7,100.7,73,98.4z"/>
		<path class="st1" d="M64.1,122c0.2,0,0.4,0,0.5,0c0.1,0.7,0.5,0.8,1.1,0.8c1.3,0.9,2,2.2,1.9,3.8c0,2.6,1,4.1,3.9,3.6
			c1.1-0.2,2.3-0.2,3.4-0.3c0.7-0.1,1.7,0.9,2.1-0.3c0.4-1.2-0.3-2.1-1.3-2.7c-0.1-0.8-0.2-1.6-0.3-2.4c0.9-0.9,0.9-1.8,0-2.7
			c-0.1-0.9-0.2-1.8-0.3-2.7c-0.2-0.2-0.4-0.4-0.5-0.5c-0.1-0.5-0.2-0.9-0.3-1.4c-0.3-0.5-0.5-0.9-0.8-1.4c-0.1-0.6-0.2-1.1-0.2-1.7
			c0.6,0.2,1.3,0.3,1.9,0.5c0.2,0,0.3,0,0.5,0c0.7-0.1,1.5-0.1,2.2-0.2c0.2,4.6-0.9,9.5,2.8,13.4c-0.2,1.2,0.3,2.1,1.4,2.4
			c6.4,1.4,12.9,2.8,19.3,4c2.1,0.4,2.5-2.1,3.9-3.1c0.3-0.2-0.6-0.8-1.2-0.8c-0.3-0.1-0.5-0.2-0.8-0.3c-0.1-1.1,0.6-0.6,1.1-0.6
			c0.5,0,1.1,0,1.6,0c0.1,0.3,0.1,0.7,0.5,0.3c0.2,0.1,0.4,0.2,0.6,0.3c-0.3,1.6-1.3,2.8-2.5,3.9c-0.6,0.6-1,1.4,0,1.8
			c1.2,0.4,2.5,0.5,3.8,0.6c5.4,0.5,10.9,0.8,16.3,1.4c5.8,0.7,11.1-0.5,16.3-2.8c0.5-0.2,0.8-0.6,0.4-1.1c-0.4-0.5-0.9-0.4-1.3,0
			c-1,1.3-2.2,0.8-3.3,0.5c-2.2-0.6-4.4-1.3-6.7-1.9c-1-0.8-2-1.6-3-2.5c0-0.3,0-0.5,0-0.8c0.2,0,0.4,0,0.5,0
			c0.2,0.1,0.4,0.2,0.5,0.3c0.3,0.2,0.5,0.4,0.8,0.6c0.4,1.5,1.7,1.3,2.7,1.6c1.4,0.2,2.7,0.4,4.1,0.6c0.5,0.3,0.9,0.5,1.4,0.8
			c0.5-0.1,0.9-0.2,1.4-0.3c1.6-0.6,3.3-1.2,4.9,0c-0.6,2.2,1,1.8,2.2,1.9c0.6,0,1.4-0.1,1.5,0.7c0,0.4-0.5,0.9-0.9,1.2
			c-1.9,1-3.7,2.1-5.7,2.8c-7.3,2.4-14.9,2.2-22.4,1.4c-1.3-0.1-3.2,0.1-4.3-1.4c-0.2-0.3-0.2-1-0.4-1c-0.4-0.1-1,0.1-1.3,0.3
			c-0.7,0.6-1.4,1.3-2.5,1.2c-1.5-0.4-3.1-0.7-4.6-1.1c-0.2-0.2-0.4-0.4-0.6-0.5c-0.4-0.3-0.7-0.6-1.1-0.8c-0.1-0.7-0.2-2-0.4-2
			c-1.4-0.2-1.1,1.2-1,1.8c0.2,1.1-0.6,1.6-0.8,2.5c-0.1,0-0.2,0-0.3,0c-0.1,0-0.3,0-0.4,0c-0.2-0.2-0.4-0.4-0.6-0.6
			c-0.2-0.2-0.3-0.4-0.5-0.5c-6.1-2.5-13.2-1.3-18.9-5.3c-0.2-0.2-0.4-0.4-0.5-0.5c-0.2-1.5,0.7-3.8-1.3-4c-1.2-0.2-1.5,2.2-1.9,3.6
			c-0.2,0.7,0,1.6-1.1,1.5c-1.9-0.2-3.9-0.5-5.8-0.8c-0.2-0.1-0.4-0.2-0.5-0.3c-0.6-0.7-1.5-1.4-1.8-2.2c-0.4-0.9-0.9-1.8-1.6-1.4
			c-0.9,0.4-0.3,1.5,0,2.3c0.2,0.5,0.3,1.1,0.2,1.6c0,0.2-1.1,0.4-1.3,0.3c-1.3-1.5-2.2-1.2-3.9-0.3c-2.4,1.3-4.7-0.1-6.8-1.5
			c-0.9-2.3-2.9-2.3-4.9-2.9c-2.8-0.9-6.8-1.1-7.7-5.2c1.1,0.7,1.9,1.5,3.5,1c1.2-0.3,2.8,0.3,4.2,0.9c4.2,1.6,8.1,4.1,12.7,4.2
			c1.1,0,3,0.8,3.4-1.2c0.3-1.2,0.9-2.6-0.6-3.5c-0.3-0.4-0.5-0.7-0.8-1.1C64.1,123,64.1,122.5,64.1,122z"/>
		<path class="st2" d="M155.4,165.2c-0.7-0.7-1.8-1.3-1.2-2.5c1.2-2.3,3.5-3.3,5.9-3.7c7-1.2,17.3-14.1,15.8-20.8
			c-0.8-3.9-5.1-4.6-7.9-6.7c-0.5-0.1-1.1-0.2-1.6-0.2c-0.2-0.2-0.4-0.4-0.5-0.6c-0.3-0.2-0.6-0.3-0.8-0.5c-0.2,0-0.4,0-0.5,0
			c-2.9-2.2,0.2-4,0.5-5.9c0.2-1.7,1.9-2.3,3.6-2.3c0.6,0.2,1.3,0.4,1.9,0.6c0.2,1.1,0.2,2.4,1.9,2.1c0,0,0,0,0,0
			c0.1,0.1,0.2,0.2,0.3,0.3c0,0,0,0,0,0c0,0.7,0.5,0.9,1.1,0.8c0,0,0,0,0,0c1,1.5,2.3,2.6,3.8,3.5c0,0,0,0,0,0
			c0.1,0.1,0.2,0.2,0.3,0.3c0,0,0,0,0,0c0.2,0.5,0.4,1.1,0.8,1.6c3.6,4.9,4,9.8,0.9,15.2c-1.8,3.2-4.9,5-6.9,7.9c0,0,0,0,0,0
			c-0.1,0.1-0.2,0.2-0.3,0.3c0,0,0,0,0,0c-0.9,0.2-1.9,0.2-2.2,1.4c-0.3,0.2-0.5,0.4-0.8,0.5c0,0,0,0,0,0c-0.9,0-1.7,0.3-1.9,1.3
			l0,0c-1.6,0.6-3.8,0.4-3.8,3c0,0.1,0,0.1,0,0.2c0.1,0.4,0.1,0.8,0.2,1.2c0.1,0.5,0.2,1.1,0.3,1.6c-0.7-0.4-1.3-0.4-2.1-0.4
			c-1.5,0.1-2.8,2.1-4.5,0.7C156,163,155.5,163.6,155.4,165.2z"/>
		<path class="st3" d="M42.5,103c0.5,1.9,0.7,3.8-0.8,5.5c-1.4-0.6-2.7-1.1-4.1-1.7c-3.3-1.6-4.8-5.2-7.7-7.2c0,0,0,0,0,0
			c-1.6-3.4-3.3-6.8-4.8-10.3c-0.7-1.6-1.4-2.3-3.1-1.7c-0.9,0.1-1.8,0.2-2.8,0.3c-0.3,0-0.5,0-0.8,0c-0.2-0.1-0.4-0.2-0.6-0.3
			c-0.4,0-0.7,0-1.1,0c-0.8-0.8-1.7-1.5-2.5-2.3c-1.4-1.3-1.4-2.9-0.8-4.4c0.6-1.5,1.9-0.9,3.1-0.8c0.9,0.1,2,0.4,2.7-0.7
			c1.4-2.2,2.9-1.7,4.1,0.2c0.8,1.2,1.3,2.5,2,3.8c-0.1,3.1,1.6,5.5,3.2,7.7c1.8,2.5,3.1,5.6,6,7.2c0.1,0.1,0.2,0.2,0.3,0.3
			c0.6,1.3,1.7,2,3,2.4c0.2,0.1,0.3,0.2,0.5,0.3C39.6,102.6,41,102.8,42.5,103z"/>
		<path class="st4" d="M164.5,130.2c0.2,0,0.4,0,0.5,0c0.3,0.2,0.6,0.3,0.8,0.5c0.2,0.2,0.4,0.4,0.5,0.6c-5.3,2.9-10.5,5.8-15.8,8.7
			c0,0,0,0,0,0c-0.2,0.1-0.4,0.2-0.6,0.3c0,0,0,0,0,0c-0.5,0.1-1.2,0-1.5,0.3c-2.2,2.1-4.7,3.1-7.8,3.3c-2.3,0.1-4.4,1.1-6,2.9
			l-0.1,0c0,0-0.1,0-0.1,0c-1.5-0.1-3-0.2-4.5-0.3c-0.2-0.1-0.3-0.2-0.5-0.3c-0.1-0.1-0.2-0.2-0.3-0.2c0,0,0,0,0,0
			c-2.4-2.1-4.2-0.1-6.3,0.8c-2,1-3.8-0.3-5.7-0.3c-2.9,0-5.7-1.7-8.7-0.8c-1.4-1.4-2.8-2.9-4.2-4.3c1.3,0,3.3,0.6,3.6-0.5
			c0.3-1-2-0.6-2.9-1.3c-0.7-0.6-3-0.3-1.5-2.3c0.4,0.3,0.7,0.6,1.1,0.8c0.2,0.2,0.4,0.4,0.6,0.5c1.5,0.4,3.1,0.7,4.6,1.1
			c1.4,0.5-0.8,2.3,0.8,2.6c2.7,0.6,5.4,1.3,8.1,1.4c4.3,0.2,8.6,0,12.9-0.1c4.4-0.1,9.1-1,13.2-2.7c4.3-1.8,8.1-4.7,11.9-7.5
			c1.5-1.1,4-2.1,3.6-4.9C161.7,129.1,163.1,129.7,164.5,130.2z"/>
		<path class="st3" d="M90.5,192.9c1.7,2.1,1.5,3.5-1.5,3.7c-4.8,0.4-9.7,0.8-14.5,1.1c-0.4,0-1-0.3-1.3-0.7
			c-0.3-0.5-0.1-1.1,0.5-1.3c2.5-2.1,5.6-3.9,8.7-3.9c4.6-0.1,6.1-1.3,5.2-6c-0.9-5-1-10.1-1.5-15.1c-0.2-2.4-0.3-4.7-0.5-7.1
			c0,0,0.1,0,0.1,0l0.1,0c1.1,2.1,3.2,1.2,4.9,1.6c-0.3,6.7-0.6,13.3-0.7,20C90,187.7,89.4,190.3,90.5,192.9z"/>
		<path class="st3" d="M111.6,186.6c0-0.1-0.1-0.1,0-0.2c-1.2-3.7-2.3-7.3-3.5-11c0,0,0,0,0,0c-0.2-1-0.3-2-0.5-3
			c0-0.2-0.1-0.3-0.1-0.5c0-0.2,0-0.4,0-0.6c1.6,0.4,3.3,0.7,4.9,1.1l0,0c0.1,0.3,0.2,0.5,0.3,0.8c0.5,5.4,2,10.6,3.5,15.8
			c0.3,2.1,0.8,4.3,2.2,6c0,0,0,0,0,0c-0.1,1.3,0.2,2.5,1.1,3.5c0,0,0,0,0,0c0.1,0.3,0.2,0.6,0.2,0.8c1,1.3,0.6,1.9-1,2
			c-4.8,0.4-9.6,0.8-14.4,1.1c-0.9,0.1-2.4,0-2.4-1.2c0-2,2-2.3,3.4-3c2.4-0.6,4.8-1.3,7.2-1.9c1.1-0.3,2.9,0.7,3.2-0.8
			c0.3-1.5-0.9-2.9-1.9-4.1c0-0.1,0-0.2,0-0.3c-0.2-0.4-0.4-0.7-0.5-1.1c0,0,0,0,0,0c-0.1-0.2-0.2-0.4-0.3-0.5c0,0,0,0,0,0
			c0-0.4,0.1-1-0.6-1.1c0,0,0,0,0,0C112.2,187.8,112.8,186.9,111.6,186.6z"/>
		<path class="st2" d="M108.6,145.7c3-1,5.8,0.8,8.7,0.8c-2.2,4.3-3,9-4.1,13.6c-0.2,0.9-0.4,1.9-0.5,2.8c-1-3.4-4.1-1-6-2.1
			C106.7,155.7,107.8,150.8,108.6,145.7z"/>
		<path class="st2" d="M91.9,140.9c-0.2,5.5-0.4,11.1-0.6,16.6c-0.1,0-0.2,0-0.2,0.1c-3.7-0.8-6.7-2.3-6.3-7c0.2-2,0-4.1-0.3-6.1
			c-0.6-3.1,1.5-3,3.4-3c1.2,0,2.5,0.6,3.5-0.6C91.6,140.9,91.7,140.9,91.9,140.9z"/>
		<path class="st3" d="M173.7,90.2c0,0.3,0,0.6,0,0.8c0,0.4,0,0.7,0,1.1c0,0.3,0,0.5,0,0.8c-0.9,2.1-0.2,4.2,0,6.3
			c0,0.2,0,0.4,0,0.6c0,0.3,0,0.5,0,0.8c-0.9,0.6-0.8,1.5-1,2.4c-0.4,2.2,0.2,4.7-1.9,6.5c-0.6,0.5-1.1,1-1.6,1.5
			c0.5-0.1,1.1-0.3,1.6-0.2c0.2,0,0.7,0.5,0.7,0.7c-0.9,3.3-1,7-4.1,9.3c-0.4-0.1-0.7-0.2-1.1-0.3c-0.5-0.4-1.1-0.7-1.6-1.1
			c0.5,0,1.4,0.2,1.5,0c0.9-2.1,1.8-4.2,2.5-6.3c0.2-0.7-0.6-0.8-1.2-0.7c-4.9,0.4-1.4,5.1-3.6,7c-0.2-0.1-0.4-0.2-0.6-0.2
			c-0.2-0.2-0.4-0.4-0.6-0.5c-0.2,0-0.4,0-0.5,0c-0.1-0.3-0.2-0.5-0.3-0.8c0.3-0.1,0.5-0.2,0.8-0.3c0.8-0.4,0.9-1.1,0.8-1.9
			c0-0.3,0-0.5,0-0.8c0.1-0.7,0.2-1.5,0.3-2.2c0.2-0.1,0.4-0.2,0.5-0.3c3.9-0.7,5.6-2.9,6.1-7c0.7-6.1,0-12.3,0.7-18.3
			c0.3,0.1,0.6,0.2,0.8,0.3c0,0,0,0,0,0c0.1,0.1,0.2,0.2,0.3,0.3c0,0,0,0,0,0c0.2,0.3,0.4,0.5,0.6,0.8c0,0,0,0,0,0
			C172.9,89,172.9,89.7,173.7,90.2z"/>
		<path class="st4" d="M167.4,120.7c3-2.4,3.1-6,4.1-9.3c0-0.2-0.4-0.6-0.7-0.7c-0.5,0-1.1,0.1-1.6,0.2c0.5-0.5,1-1,1.6-1.5
			c2.1-1.7,1.5-4.3,1.9-6.5c0.2-0.9,0.1-1.9,1-2.4c0,0.6,0,1.2,0,1.7c0,0.3-0.1,0.7-0.1,1c0,3.2,0.1,6.4,0.1,9.7
			c0,0.4,0,0.8-0.1,1.2c-1.2,0.8-0.6,2-0.8,3.1c0,0.1,0,0.1,0,0.2c-0.8,1.7-1.6,3.5-2.4,5.2c-0.6-0.2-1.3-0.4-1.9-0.6
			C168.2,121.6,167.8,121.1,167.4,120.7z"/>
		<path class="st4" d="M69.6,132.7c0.2,0.1,0.4,0.2,0.5,0.3c0.7,1.6,2,3,3.6,3.3c1.5,0.3,3.2-0.3,4.8-0.6c0.1,0,0.3-0.9,0.1-1.2
			c-0.7-0.9-2-2-0.8-3c1.1-1,1.2,1.4,2.4,1.2c0.2,0.2,0.4,0.4,0.5,0.5c0,1.1,2,1,1.4,2.4c-0.7-1-1.4-0.8-2,0
			c-1.6,2.1,0.4,3.5,1.2,5.1c-4-1.3-7.9-2.7-11.2-5.5c-0.4-0.4-1.1-0.5-1.6-0.8c-0.1-0.8-0.3-1.7-0.4-2.5
			C68.5,132.3,69.1,132.5,69.6,132.7z"/>
		<path class="st5" d="M164.1,166.7c-0.8,3.2-2.6,5.4-6.1,4.8c-3.4-0.6-1-3.6-1.7-5.3c0.5,1.7,1.6,0.9,2.6,0.6
			c1.8-0.4,3.5-1.4,5.4-0.9c0,0.2,0,0.4-0.1,0.5c0,0-0.1,0-0.1,0.1C164.1,166.6,164.1,166.6,164.1,166.7z"/>
		<path class="st6" d="M91.4,140.9c-1,1.2-2.2,0.6-3.5,0.6c-1.9,0-4-0.2-3.4,3c0.4,2,0.5,4.1,0.3,6.1c-0.4,4.7,2.6,6.1,6.3,7
			c-0.1,1-0.2,2-0.3,3c-1.8-0.1-3.4-2.7-5.4-0.3c-0.5-6.3-1.1-12.5-1.6-18.8C86.3,141.2,88.8,141,91.4,140.9z"/>
		<path class="st3" d="M69.6,132.7c-0.5-0.2-1-0.4-1.5-0.6c0.1,0.8,0.3,1.7,0.4,2.5c0,0,0,0,0,0c-0.8,0.2-1.6,0.4-2.4,0.6
			c-1.4-0.5-2.4-4.6-4.4-0.6c-0.8,0-1.6,0-2.4,0c-0.2-0.6-0.4-0.7-0.9-0.2c-0.5-0.1-1.1-0.2-1.6-0.4c-0.1-0.1-0.2-0.2-0.3-0.2
			c-0.1,0-0.2,0-0.2-0.1c-0.6-0.8-1.3-1.6-1.9-2.4c2.1,1.4,4.5,2.8,6.8,1.5c1.7-0.9,2.7-1.2,3.9,0.3c0.1,0.2,1.2-0.1,1.3-0.3
			c0.1-0.5,0-1.1-0.2-1.6c-0.2-0.8-0.9-1.8,0-2.3c0.7-0.3,1.2,0.6,1.6,1.4C68.1,131.3,68.9,131.9,69.6,132.7z"/>
		<path class="st4" d="M91.4,140.9c-2.5,0.2-5.1,0.3-7.6,0.5c-0.1-0.2-0.2-0.4-0.3-0.6c-1.1-1.3-1.1-3-1.3-4.6
			c0.9,0.4,0.7,1.8,2.4,1.8c2.9,0,5.8,0.6,8.5,1.8c-0.2,0.3-0.4,0.5-0.5,0.8c-0.1,0-0.2,0.1-0.2,0.1c-0.1,0.1-0.2,0.2-0.3,0.3
			c0,0,0,0,0,0C91.7,140.9,91.6,140.9,91.4,140.9z"/>
		<path class="st6" d="M106.7,160.8c1.8,1.1,4.9-1.3,6,2.1c0,1,0,2-0.1,3c-1.8-1.4-5.6,0.7-6-3.3C106.6,162,106.7,161.4,106.7,160.8
			z"/>
		<path class="st5" d="M106.6,162.6c0.4,4,4.2,1.9,6,3.3c0,2.2,0,4.4,0,6.5c-0.1,0-0.2,0-0.2,0c0,0,0,0,0,0c0-0.3,0-0.6,0-0.9
			c0-2.4-1.7-3.2-3.7-3.3c-0.9-0.1-1.8,0.6-1.5,1.9C106.8,167.6,106.2,165.1,106.6,162.6z"/>
		<path class="st6" d="M164.2,165.9c-1.9-0.4-3.6,0.6-5.4,0.9c-1,0.2-2.1,1.1-2.6-0.6c-0.3-0.3-0.5-0.7-0.8-1
			c0.1-1.5,0.6-2.2,2.1-1.1c1.8,1.3,3-0.7,4.5-0.7c0.8,0,1.5,0,2.1,0.4C164.2,164.4,164.2,165.2,164.2,165.9z"/>
		<path class="st7" d="M86.2,170.5c0.5,5,0.6,10.2,1.5,15.1c0.9,4.7-0.6,6-5.2,6c-3.1,0-6.2,1.8-8.7,3.9c3.1-4.2,7.7-4.7,12.3-4.9
			c0.9,0,1.3,0,1.2-1.1C86.9,183.3,86.5,176.9,86.2,170.5z"/>
		<path class="st0" d="M100.6,52.6c0.1,0,0.2,0,0.3,0c0.2,0.3,0.4,0.5,0.6,0.8c-2.2,3.7-5.4,3.2-8.7,1.9c1.4-0.4,2.5-1.2,3.3-2.5
			c0,0,0,0,0,0C97.5,52.8,99.1,52.7,100.6,52.6z"/>
		<path class="st7" d="M25.4,83.4c-0.6-1.3-1.2-2.6-2-3.8c-1.2-1.9-2.6-2.4-4.1-0.2c-0.7,1.1-1.7,0.8-2.7,0.7
			c-1.2-0.1-2.5-0.7-3.1,0.8c-0.6,1.5-0.6,3.1,0.8,4.4c0.8,0.8,1.7,1.5,2.5,2.3c0,0.1,0,0.2,0,0.3c-3.4-1.2-4.2-3.9-4-7.1
			c0-0.4,0.4-1.1,0.5-1.1c3.2,0.4,5.9-2,8.7-2c2.2,0,3.2,3.3,3.7,5.8C25.7,83.3,25.5,83.4,25.4,83.4z"/>
		<path class="st7" d="M172.7,154.2c2-2.9,5.1-4.7,6.9-7.9c3-5.4,2.7-10.3-0.9-15.2c-0.3-0.5-0.5-1-0.8-1.6c5.6,4.4,5.6,15-0.1,20.3
			C176.2,151.4,174.4,152.8,172.7,154.2z"/>
		<path class="st7" d="M54.3,131.3c0.6,0.8,1.3,1.6,1.9,2.4c-1.5-0.5-2.7-1.2-3-2.9c-0.2-0.9-0.6-1.6-1.6-1.7
			c-11.7-1.9-10.6-4.2-10.9-12.2c0.2,0.6,0.3,1.3,0.5,1.9c0.2,1.5,0.4,2.9,0.5,4.4c0.9,4.1,4.8,4.3,7.7,5.2
			C51.4,129,53.4,129,54.3,131.3z"/>
		<path class="st4" d="M107.2,170c-0.3-1.3,0.7-1.9,1.5-1.9c1.9,0.2,3.6,0.9,3.7,3.3c0,0.3,0,0.6,0,0.9c-1.6-0.4-3.3-0.7-4.9-1.1
			c-0.1,0-0.1,0-0.2,0C107.2,170.9,107.2,170.5,107.2,170z"/>
		<path class="st8" d="M101.5,53.4c-0.2-0.3-0.4-0.5-0.6-0.8c1.3,0.6,2.5,0.5,3.8,0c2.8-1.2,5.6-0.8,8.5,0c1,0.3,2.3,0.5,3.3,0.1
			c4.7-1.5,9,1.6,13.6,1.2c-0.2,0-0.4,0-0.6,0c-0.9,0-1.8,0-2.7,0c-1.9-0.3-3.8-0.5-5.7-0.8c-1-0.6-2-0.7-3.2-0.1
			c-2.4,1.2-4.6,0.3-6.9-0.4c-3-0.9-5.8,1.1-8.7,1.1C102,53.6,101.7,53.5,101.5,53.4z"/>
		<path class="st3" d="M103.6,137.3c-1.5,2,0.8,1.8,1.5,2.3c0.9,0.7,3.1,0.3,2.9,1.3c-0.3,1.1-2.3,0.5-3.6,0.5c-1-0.6-2-1.1-2.9-1.7
			c0-0.1,0-0.1,0-0.2c0.2-0.8,0.9-1.4,0.8-2.5c-0.1-0.5-0.4-1.9,1-1.8C103.4,135.3,103.5,136.6,103.6,137.3z"/>
		<path class="st7" d="M90.8,160.5c0.1-1,0.2-2,0.3-3c0.1,0,0.2,0,0.2-0.1c-0.3,10.6-0.6,21.3-0.9,31.9c0,1.2,0,2.3,0,3.5
			c-1.1-2.5-0.5-5.2-0.4-7.7c0.1-6.7,0.5-13.4,0.7-20c0-1,0-2,0-3C90.8,161.6,90.8,161,90.8,160.5z"/>
		<path class="st5" d="M82.1,136.2c0.2,1.6,0.2,3.3,1.3,4.6c-0.7,0-1.5,0-2.2,0c-0.8-1.6-2.7-3-1.2-5.1c0.6-0.8,1.3-1,2,0
			C82.1,135.8,82.1,136,82.1,136.2z"/>
		<path class="st8" d="M96,52.8c-0.8,1.3-1.8,2.1-3.3,2.5c-0.3,0-0.5,0-0.8,0c-3.4-1.7-5.9,0.6-8.7,1.8c-2.5,1.1-5,2.4-7.4,3.7
			c5-3.3,9.8-7.3,16.5-6.2C94,54.8,94.6,53,96,52.8z"/>
		<path class="st5" d="M90.8,160.5c0,0.5,0,1.1,0,1.6c-1.6,0.6-4.1-2-4.9,1.3l-0.1,0c0,0-0.1,0-0.1,0c-0.1-1.1-0.2-2.2-0.3-3.3
			C87.4,157.8,89,160.4,90.8,160.5z"/>
		<path class="st8" d="M25.4,83.4c0.1,0,0.3,0,0.4-0.1c1.5,5.8,5.2,10.4,8.8,15c-2.9-1.6-4.2-4.7-6-7.2C27,88.9,25.3,86.4,25.4,83.4
			z"/>
		<path class="st7" d="M150.5,140c5.3-2.9,10.5-5.8,15.8-8.7c0.5,0.1,1.1,0.2,1.6,0.2c-3.1,1.7-6.3,3.3-9.4,5.1
			C156,138,153.6,139.7,150.5,140z"/>
		<path class="st8" d="M22.1,87.5c1.7-0.6,2.4,0.1,3.1,1.7c1.4,3.5,3.2,6.9,4.8,10.3c-2.7-2.6-3.5-6.3-5.3-9.5
			c-0.6-1.1-1.2-2.1-2.6-2.2C22.1,87.7,22.1,87.6,22.1,87.5z"/>
		<path class="st8" d="M161.5,73.5c-0.6-2.2-1.3-4.4-1.9-6.6c0,0,0.1,0,0.1,0c1,4.6,5.2,7.2,7,11.4c0,0-0.1,0.1-0.1,0.1
			C165.7,76,163.1,75.3,161.5,73.5z"/>
		<path class="st7" d="M134.7,146.8c1.6-1.8,3.7-2.8,6-2.9c3.1-0.2,5.6-1.2,7.8-3.3c0.3-0.3,1-0.2,1.5-0.3c-2.7,2.4-5.5,4.3-9.6,4.2
			C138.6,144.4,136.6,146,134.7,146.8z"/>
		<path class="st8" d="M42.5,103c-1.5-0.1-3-0.4-4.1-1.6c2.8,1.5,3.6,0.4,4.6-2.5c1.2-3.6,1.8-7.4,3.1-11
			C46.1,93.2,43.5,97.9,42.5,103z"/>
		<path class="st8" d="M30,99.5c2.9,2.1,4.4,5.6,7.7,7.2c1.3,0.7,2.7,1.2,4.1,1.7c-0.1,0.5,0.3,1.2-0.6,1.3c-2-1.4-4.1-2.8-6-4.3
			C33,103.9,31.3,101.8,30,99.5z"/>
		<path class="st7" d="M113.8,191.5c1.1,1.2,2.3,2.7,1.9,4.1c-0.3,1.4-2.1,0.5-3.2,0.8c-2.4,0.6-4.8,1.3-7.2,1.9
			c2-2,4.7-2.6,7.2-2.4c3.2,0.2,2.8-0.9,1.7-2.9C114,192.6,113.9,192,113.8,191.5z"/>
		<path class="st7" d="M108,175.4c1.2,3.7,2.3,7.3,3.5,11C109.5,183,108.6,179.3,108,175.4z"/>
		<path class="st7" d="M66,135.1c0.8-0.2,1.6-0.4,2.4-0.6c-1.4,2.4-3.5,1.2-5.3,1c-1.5-0.1-3-0.6-4.5-1c0.2,0,0.4,0,0.6,0
			c0.8,0,1.6,0,2.4,0C63.1,134.8,64.5,134.9,66,135.1z"/>
		<path class="st7" d="M173.8,102.3c0-0.6,0-1.2,0-1.7c0-0.3,0-0.5,0-0.8c0-0.2,0-0.4,0-0.6c-0.2-2.1-0.9-4.2,0-6.3
			C173.6,96,175.5,99.1,173.8,102.3z"/>
		<path class="st8" d="M148.4,60.7c-1-2.2-2.6-3.3-5.1-3.3c-1.4,0-3-0.4-3.9-1.8c2,1.4,4.5,1,6.7,1.8
			C147.4,57.9,148.7,58.9,148.4,60.7z"/>
		<path class="st7" d="M170.4,122.6c0.8-1.7,1.6-3.5,2.4-5.2c-0.5,1.5-0.7,3.1-1.4,4.5c-0.7,1.4-0.2,2.1,0.9,2.8
			C170.6,125,170.7,123.7,170.4,122.6z"/>
		<path class="st8" d="M68.4,64.3c-1.8,1.8-3.6,3.6-5.5,5.5C64.5,67.6,66.1,65.5,68.4,64.3z"/>
		<path class="st7" d="M172.1,87.2c-0.3-0.1-0.6-0.2-0.8-0.3c-1.2-1.7-2.3-3.4-1.9-5.7l0.1,0l0.1,0C170,83.4,170.8,85.4,172.1,87.2z
			"/>
		<path class="st8" d="M139.1,55.6c-2.5-0.4-5.1,0.2-7.4-1C134.2,54.9,136.8,54.5,139.1,55.6z"/>
		<path class="st8" d="M75.8,60.7c-1.5,2.1-3.7,1.6-5.7,1.6C72,61.8,73.9,61.3,75.8,60.7z"/>
		<path class="st7" d="M92.5,140.5c0.2-0.3,0.4-0.5,0.5-0.8c0.5,0.1,0.9,0.2,1.4,0.3c0.2,0.1,0.4,0.2,0.5,0.3c1.4,0,2.7,0,4.1,0l0,0
			C96.9,141.7,94.6,140.1,92.5,140.5z"/>
		<path class="st8" d="M60.5,71.4c-1.2,1.6-3,2.2-4.7,3C57.1,72.9,58.7,71.9,60.5,71.4z"/>
		<path class="st7" d="M118.4,195.1c-1.4-1.8-1.8-3.9-2.2-6C116.9,191,117.6,193,118.4,195.1z"/>
		<path class="st7" d="M173.8,112.9c0-3.2-0.1-6.4-0.1-9.7C174.1,106.5,174.2,109.7,173.8,112.9z"/>
		<path class="st7" d="M123,146.8c2-0.8,3.9-2.8,6.3-0.8C126.9,144.4,125.2,147,123,146.8z"/>
		<path class="st7" d="M163.7,160.7c0-2.6,2.2-2.4,3.8-3C166.3,158.9,164.5,159.1,163.7,160.7z"/>
		<path class="st7" d="M177.6,129.4c-1.5-0.9-2.9-2-3.8-3.5C175.3,126.8,176.7,127.7,177.6,129.4z"/>
		<path class="st8" d="M155.2,65.6c-1.6-0.6-2.8-1.7-3.8-3C153,63.2,154.2,64.2,155.2,65.6z"/>
		<path class="st8" d="M52.6,78.2c-0.1,1.8-1,3.1-2.1,4.4C51.2,81.1,51.9,79.6,52.6,78.2z"/>
		<path class="st8" d="M169.6,81.2L169.6,81.2c-0.1,0-0.2,0-0.2,0c-0.7-0.7-1.5-1.3-2.2-2c-0.2-0.3-0.4-0.5-0.5-0.8
			c0,0,0.1-0.1,0.1-0.1C168,78.9,169.3,79.5,169.6,81.2z"/>
		<path class="st7" d="M130.1,146.6c1.5,0.1,3,0.2,4.5,0.3C133,147.6,131.5,147.7,130.1,146.6z"/>
		<path class="st8" d="M49.9,84.2c0,2.1-1.6,2.1-3,2.5C47.9,85.8,48.9,85,49.9,84.2z"/>
		<path class="st8" d="M100.6,52.6c-1.5,0.1-3.1,0.2-4.6,0.3C97.5,51.9,99,51.6,100.6,52.6z"/>
		<path class="st8" d="M37.9,101.1c-1.3-0.4-2.4-1.1-3-2.4C35.9,99.5,36.9,100.3,37.9,101.1z"/>
		<path class="st8" d="M159.3,66.7c-1.4-0.3-3.2,0.8-4.2-1.1C156.6,66,158,66.4,159.3,66.7z"/>
		<path class="st8" d="M41.2,109.8c-0.3,1.6-0.6,3.1-0.8,4.7C39.8,112.8,40,111.2,41.2,109.8z"/>
		<path class="st7" d="M119.5,198.6c-0.9-1-1.2-2.2-1.1-3.5C118.7,196.2,119.1,197.4,119.5,198.6z"/>
		<path class="st8" d="M70.1,62.4c-0.3,0.8-0.7,1.6-1.7,1.9C68.7,63.4,69,62.6,70.1,62.4z"/>
		<path class="st8" d="M62.7,70c-0.2,1.2-1.1,1.5-2.2,1.4C61.3,70.9,62,70.4,62.7,70z"/>
		<path class="st7" d="M172.9,117.2c0.1-1.1-0.4-2.3,0.8-3.1C173.4,115.2,173.2,116.2,172.9,117.2z"/>
		<path class="st8" d="M54,76.3c0.1,1-0.3,1.7-1.4,1.9C53.1,77.5,53.5,76.9,54,76.3z"/>
		<path class="st7" d="M170.2,155.9c0.3-1.2,1.2-1.2,2.2-1.4C171.7,154.9,171,155.4,170.2,155.9z"/>
		<path class="st7" d="M100.1,138.9c0.2,0.2,0.4,0.4,0.6,0.6c-0.6,0.3-1.1,0.5-1.7,0.8c0,0,0,0,0,0
			C99.4,139.8,99.7,139.4,100.1,138.9z"/>
		<path class="st7" d="M167.5,157.7c0.3-1,1-1.3,1.9-1.3C168.8,156.9,168.1,157.3,167.5,157.7z"/>
		<path class="st7" d="M173.7,90.2c-0.8-0.4-0.8-1.2-0.8-1.9C173.2,88.9,173.4,89.5,173.7,90.2z"/>
		<path class="st7" d="M107.5,172.5c0.2,1,0.3,2,0.5,3C107.8,174.4,107.7,173.4,107.5,172.5z"/>
		<path class="st8" d="M151.4,62.7c-0.8-0.1-1.8,0.3-2.2-0.8C149.9,62.1,150.6,62.4,151.4,62.7z"/>
		<path class="st7" d="M22.1,87.5c0,0.1,0,0.2,0,0.3c-0.5,0-1,0-1.6,0c-0.2,0-0.4,0.1-0.6,0.1c-0.2-0.1-0.4-0.1-0.6-0.2
			C20.3,87.6,21.2,87.5,22.1,87.5z"/>
		<path class="st7" d="M111.6,186.6c1.2,0.3,0.7,1.2,0.8,1.9C112.1,187.9,111.8,187.2,111.6,186.6z"/>
		<path class="st8" d="M16.9,87.7c0-0.1,0-0.2,0-0.3c0.4,0,0.7,0,1.1,0c0,0.1,0,0.2,0,0.3C17.6,87.8,17.3,87.7,16.9,87.7z"/>
		<path class="st7" d="M173.7,92.1c0-0.4,0-0.7,0-1.1C173.7,91.4,173.7,91.7,173.7,92.1z"/>
		<path class="st7" d="M173.7,125.8c-0.6,0-1-0.1-1.1-0.8C173,125.3,173.4,125.6,173.7,125.8z"/>
		<path class="st8" d="M50.4,82.7c-0.1,0.5,0.3,1.2-0.5,1.4C50.1,83.7,50.3,83.2,50.4,82.7z"/>
		<path class="st8" d="M54.8,75.4c0.1,0.6-0.2,0.9-0.8,0.8C54.3,76,54.5,75.7,54.8,75.4z"/>
		<path class="st4" d="M59.2,134.6c-0.2,0-0.4,0-0.6,0c-0.1-0.1-0.2-0.2-0.3-0.2C58.7,133.9,59,134,59.2,134.6z"/>
		<path class="st7" d="M113.2,190.1c0.2,0.4,0.4,0.7,0.5,1.1C113.5,190.9,113.4,190.5,113.2,190.1z"/>
		<path class="st7" d="M112.3,188.5c0.7,0.1,0.5,0.6,0.6,1.1C112.7,189.2,112.5,188.9,112.3,188.5z"/>
		<path class="st8" d="M131.5,54.5c-0.4-0.2-0.8-0.3-1.1-0.5C130.8,54.2,131.1,54.3,131.5,54.5z"/>
		<path class="st7" d="M169.4,156.4c0.3-0.2,0.5-0.4,0.8-0.5C170,156.1,169.7,156.2,169.4,156.4z"/>
		<path class="st7" d="M172.9,88.3c-0.2-0.3-0.4-0.5-0.6-0.8C172.5,87.7,172.7,88,172.9,88.3z"/>
		<path class="st7" d="M163.9,162.1c-0.1-0.4-0.1-0.8-0.2-1.2C163.7,161.3,163.8,161.7,163.9,162.1z"/>
		<path class="st7" d="M119.7,199.4c-0.1-0.3-0.2-0.6-0.2-0.8C119.5,198.8,119.6,199.1,119.7,199.4z"/>
		<path class="st4" d="M112.4,172.4c0.1,0,0.2,0,0.2,0c0,0.3,0,0.5,0,0.8C112.6,173,112.5,172.7,112.4,172.4z"/>
		<path class="st8" d="M19.9,87.9c0.2,0,0.4-0.1,0.6-0.1C20.3,87.8,20.1,87.9,19.9,87.9z"/>
		<path class="st7" d="M18,87.8c0-0.1,0-0.2,0-0.3c0.2,0.1,0.4,0.2,0.6,0.3C18.4,87.7,18.2,87.8,18,87.8z"/>
		<path class="st7" d="M107.2,171.4c0.1,0,0.1,0,0.2,0c0,0.2,0,0.4,0,0.6C107.4,171.8,107.3,171.6,107.2,171.4z"/>
		<path class="st7" d="M150,140.3c0.2-0.1,0.4-0.2,0.6-0.3C150.4,140.1,150.2,140.2,150,140.3z"/>
		<path class="st8" d="M46.6,87.2c-0.1,0.1-0.1,0.1-0.2,0.2C46.5,87.3,46.6,87.3,46.6,87.2z"/>
		<path class="st7" d="M112.9,189.6c0.1,0.2,0.2,0.4,0.3,0.5C113.1,190,113,189.8,112.9,189.6z"/>
		<path class="st8" d="M63,69.7c-0.1,0.1-0.2,0.2-0.3,0.3C62.8,69.9,62.9,69.8,63,69.7z"/>
		<path class="st7" d="M172.4,154.5c0.1-0.1,0.2-0.2,0.3-0.3C172.6,154.3,172.5,154.4,172.4,154.5z"/>
		<path class="st7" d="M172.7,125c-0.1-0.1-0.2-0.2-0.3-0.3C172.5,124.8,172.6,124.9,172.7,125z"/>
		<path class="st7" d="M177.9,129.6c-0.1-0.1-0.2-0.2-0.3-0.3C177.7,129.4,177.8,129.5,177.9,129.6z"/>
		<path class="st8" d="M148.5,61.3c-0.1-0.1-0.1-0.2-0.2-0.3C148.4,61.1,148.5,61.2,148.5,61.3z"/>
		<path class="st6" d="M164.1,166.7c0-0.1,0-0.1-0.1-0.2c0,0,0.1,0,0.1-0.1C164.2,166.5,164.2,166.6,164.1,166.7z"/>
		<path class="st7" d="M129.2,146c0.1,0.1,0.2,0.2,0.3,0.2C129.4,146.2,129.3,146.1,129.2,146z"/>
		<path class="st7" d="M172.3,87.5c-0.1-0.1-0.2-0.2-0.3-0.3C172.2,87.3,172.3,87.4,172.3,87.5z"/>
		<path class="st8" d="M55.6,74.6c-0.1,0.1-0.2,0.2-0.3,0.3C55.4,74.8,55.5,74.7,55.6,74.6z"/>
		<path class="st7" d="M91.9,140.9c0.1-0.1,0.2-0.2,0.3-0.3C92.1,140.7,92,140.8,91.9,140.9z"/>
		<path class="st8" d="M55.4,74.9c-0.1,0.1-0.2,0.2-0.3,0.3C55.2,75.1,55.3,75,55.4,74.9z"/>
		<path class="st7" d="M101.5,139.5c0,0.1,0,0.1,0,0.2c-0.1-0.1-0.2-0.1-0.3-0.2C101.2,139.5,101.3,139.5,101.5,139.5z"/>
		<path class="st8" d="M55.1,75.2c-0.1,0.1-0.2,0.2-0.3,0.3C54.9,75.4,55,75.3,55.1,75.2z"/>
		<path class="st8" d="M46.9,86.6c-0.1,0.1-0.2,0.2-0.2,0.3C46.8,86.8,46.8,86.7,46.9,86.6z"/>
		<path class="st7" d="M56.4,133.8c0.1,0.1,0.2,0.2,0.3,0.2C56.6,133.9,56.5,133.8,56.4,133.8z"/>
		<path class="st1" d="M121.1,53.1c1.9,0.3,3.8,0.5,5.7,0.8c-0.2,1.5-2.1,0.3-2.5,1.6c-0.4,0.1-0.7,0.2-1.1,0.3
			c-0.5,0.4-0.9,0.7-1.4,1.1c-4.1,4.1-8.6,6.8-14.8,7c-3.5,0.1-6.6,2.5-7.4,6.6c-0.8,3.9-4.3,4.2-7.2,4.5c-6.1,0.6-8,4.3-8.6,9.7
			c-0.4,3.6-1.5,6.9-3.3,10.1c-2.3,4.2-1.8,9.1-2.1,13.8c0,0.6,0,1.1,0,1.7c-1.7-0.2-3.4-0.4-5.2-0.6c0.3-0.6,0.6-1.2,1-1.8
			c1.4-2.1,1.9-4.1,0.4-6.5c-1.5-2.5-0.6-5.3,0.7-7.8c2.7-5.1,4.7-10.5,6.5-16c1.2-3.8,3.2-6.7,7.6-5.9c4,0.8,5.5-2.1,7.5-4.2
			c3.2-3.3,5.3-8.1,11-7.8C111.6,60,119.5,56.2,121.1,53.1z"/>
		<path class="st9" d="M166.6,78.5c0.2,0.3,0.4,0.5,0.5,0.8c0.4,3-0.5,5.2-3.5,6.3c0.2-2.4-0.5-4.8,0.2-7.3c0.5-1.7-1.1-2.6-2.4-2.7
			c-2.6-0.2-3.9,1.6-4,4c-0.1,2.7-1.8,3.8-3.9,4.6c-3.1,1.2-2.4,4-2.7,6.2c-0.4,3.8-2.8,4.6-5.9,4.7c-1.2,0-1.7,0.5-1.5,1.6
			c0.4,2.1-0.9,2.9-2.6,3.3c-0.3,0.1-0.7,0.2-0.8,0.4c-1.2,2.6-3.1,2.9-5.4,1.4c-2.6-1.6-3.6-3.9-3-6.8c0.3-1.6,0.8-3.2,1.2-4.8
			c0.1-0.6,0.2-1.5-0.1-1.8c-4.4-3.6-2.4-7.5,0.4-10.1c3.7-3.5,8.1-6.4,11-10.7c0.6-0.8,2.1-0.9,2.6,0.1c0.7,1.5,1.4,2.6,3.3,2.5
			c0.1,0,0.3,0.2,0.4,0.2c-0.2,0.1-0.4,0.3-0.5,0.3c-1.1-0.1-2,0.2-2.7,1c-0.1,0.2-0.5,0.1-0.8,0.2c0-0.2,0-0.5,0.1-0.7
			c0.5-1,0.6-1.9-0.5-2.6c-1.1-0.7-2.1,0.2-2.4,0.9c-1.7,4.5-6,6.3-9,9.3c-2,2-4.8,4.6-1.2,8c2.3,2.1,0.1,4.6-0.1,6.9
			c-0.3,3.1-0.8,6.6,3.4,6.9c2.2,0.2,4.1-2.1,5.1-4.2c0.6-1.3,0.4-3.1,2.3-3c5.4,0.5,5.5-3.3,6-6.9c0.1-0.7,0.4-1.7,0.9-2
			c3.2-1.9,5.5-4.4,6.3-8.1c0.5-2.2,2.3-2.5,4.2-2.6C163.1,75.3,165.7,76,166.6,78.5z"/>
		<path class="st9" d="M130.4,132.4c2.2,0.7,4.4,1.3,6.7,1.9c1.1,0.3,2.4,0.8,3.3-0.5c0.4-0.5,0.9-0.5,1.3,0c0.4,0.5,0,0.9-0.4,1.1
			c-5.2,2.2-10.6,3.5-16.3,2.8c-5.4-0.7-10.9-1-16.3-1.4c-1.3-0.1-2.6-0.2-3.8-0.6c-1-0.3-0.7-1.2,0-1.8c1.2-1.1,2.2-2.2,2.5-3.9
			c0.2,0.1,0.4,0.1,0.5,0.2c1.8,6.3,6.9,2.6,10.6,3.3c3.4,0.7,6.9,1,10.5,0.5C129.7,133.9,130.6,133.8,130.4,132.4z"/>
		<path class="st9" d="M164.5,112.2c-0.2,0.1-0.4,0.2-0.5,0.3c-1.2,0.6-1.2,1.3-0.3,2.2c0,0.3,0,0.5,0,0.8c-0.9,0.4-0.7,1.2-0.8,1.9
			c-0.3,0.1-0.5,0.2-0.8,0.3c-0.3,0-0.5,0-0.8,0c-0.2-0.1-0.4-0.2-0.5-0.3c-1-0.1-2-0.2-3-0.3c-0.2-1.4,1.1-1,1.8-1.5
			c2.6-1.8,2.5-4.7,2.8-7.3c0.6-4.8,1.3-9.7,1.5-14.5c0.1-1.6-0.8-3.2-0.1-5c0.2-0.5-1.1,0.2-1.7,0c0.9-1.5,2-2.9,3.9-2.7
			c1.8,0.2,1.5,1.9,1.5,2.9c0,4.4-0.6,8.9-0.4,13.3C167.2,106,166.5,109.2,164.5,112.2z"/>
		<path class="st1" d="M164.5,112.2c2-3,2.7-6.3,2.6-9.9c-0.2-4.4,0.4-8.9,0.4-13.3c0-1,0.3-2.7-1.5-2.9c-2-0.2-3.1,1.2-3.9,2.7
			c0,0,0,0,0,0c-0.2-0.1-0.4-0.2-0.6-0.3c0.2-0.5,0.4-1.1,0.5-1.6c0.4-0.4,0.7-0.7,1.1-1.1c0.2-0.1,0.4-0.2,0.5-0.3
			c3.1-1,4-3.3,3.5-6.3c0.7,0.7,1.5,1.3,2.2,2c-0.4,2.2,0.7,4,1.9,5.7c-0.7,6.1,0,12.2-0.7,18.3
			C170.1,109.3,168.4,111.6,164.5,112.2z"/>
		<path class="st9" d="M161.4,88.5c0.2,0.1,0.4,0.2,0.6,0.3c-0.4,2.7-0.8,5.3-1.1,8c-0.1,1.6-1.2,2.4-2.3,2.5
			c-4.4,0.5-4.2,3.4-3.8,6.6c0.2,1.5,0.8,3.1-2.1,2.9c-5.8-0.4-7.6,1.7-7.9,8.2c0,1-0.1,2.1,0,3.1c0.2,1.8-0.1,3-2.4,2.3
			c-1.3-0.5-2.5-0.1-3.6,0.6c-1.2,0.8-2.4,0.5-3.3-0.5c-1.8-1.9-3.8-2.6-6.3-1.2c-2.6,1.5-3.8-1.5-5.8-1.8c-0.5-0.1-0.9-0.3-1.4-0.4
			c-1.1,0-2.2,0-3.3,0c0-0.1,0.1-0.3,0.1-0.3c1.5-0.2,3-0.5,4.5-0.5c0.6,0,1.3,0.5,1.8,0.9c1.5,1.3,2.8,1.6,4.6,0.5
			c1.9-1.2,3.8-0.4,5.7,0.7c3.7,2.1,7.6-0.1,7.9-4.3c0.5-7.2,1.7-8.5,8.8-9.3c0.9-0.1,0.7-0.8,0.8-1.5c0.3-3.5,0.7-6.7,5.2-7.8
			c3.1-0.8,1.3-4.2,2.1-6.4C160.7,90.2,160.5,89.1,161.4,88.5z"/>
		<path class="st9" d="M104.5,129.4c-0.5,0-1.2-0.5-1.1,0.6c-2-1.8-0.9-3.6,0-5.3c0.5-1,2.6-1.6,1.9-2.7c-0.8-1-2.6-1.5-4.1-1.7
			c-5.6-0.7-6.2-1.6-4.7-6.9c0.4-1.3-0.7-1.8-1.4-2.6c-1.6-1.8-1.1-3.7-0.2-5.6c0.3-0.5,0.7-1,1-1.5c3-1.7,4.8-3.5,1.5-6.7
			c-0.5-0.5-1.1-2.1-0.3-2.4c1-0.4,0.2,1.1,0.7,1.6c0.3,0.2,0.4,0.7,0.6,0.9c6,4.7-1.3,6.2-2.3,9.2c-0.7,2.3-0.6,3.6,1.8,4.1
			c1.3,0.3,2,0.2,1,1.8c-2.9,4.7-2.4,5.3,5.1,6.9c1.8,0.4,3.4,1.3,3.9,2.8c0.4,1.4-1.4,2.2-2.5,3.1
			C103.8,126.1,103.5,127.6,104.5,129.4z"/>
		<path class="st9" d="M138.3,58.9c-7-0.9-10.8,3.2-9.9,10.6c0,0.3-0.2,0.9-0.3,0.9c-0.4,0-0.9-0.1-1.2-0.4c-1.2-1.1-2.5-2.3-4-1.4
			c-1.6,1-1.8,2.9-1.5,4.7c0.7,3.7-2.2,1.6-2.9,1.4c-4.3-0.8-7.4,0.4-9.4,4.4c-0.1,0.1-0.3,0.2-0.5,0.3c0-0.5-0.2-1.1,0.1-1.5
			c1.8-3.2,4.4-5.3,8.2-4.9c2.3,0.2,3-0.6,3.3-2.8c0.3-3,2-4.4,5.1-3.4c1.9,0.6,1.7-1.1,1.9-1.8c1.6-6.1,5.2-8.4,11.2-7.2
			c0.4,0.1,0.7,0.4,1,0.6C138.8,58.6,138.5,58.8,138.3,58.9z"/>
		<path class="st9" d="M126.4,110.2c0.1-0.3-0.1,0.2-0.3,0.8c-0.2-0.4-0.4-0.8-0.5-1.3c-0.6-2.8-4.5-4.9-7.2-3.8
			c-0.7,0.3-1.6,0.7-2,0c-0.4-0.7,0.5-1.1,1.1-1.5c0.7-0.5,1.3-1.1,0.8-1.9c-0.7-1-1.8-1.4-3.1-1.1c-0.5,0.1-1.2,0.1-1.4-0.1
			c-0.2-0.4-0.2-1-0.1-1.5c0.8-2.6-0.2-4.6-1.8-6.4c-1.4-1.6-3.2-1.8-5.2-1.4c-0.4,0.1-0.9,0-1.3,0c0.4-0.3,0.7-0.6,1.1-0.8
			c4.4-1.8,8.7,1.4,8.9,6.6c0,1.1,0.4,1.7,1.5,1.9c0.6,0.1,1.4,0.3,1.6,0.7c1.3,3.4,4.7,4.1,7.2,6
			C126.5,107,126.7,108.1,126.4,110.2z"/>
		<path class="st9" d="M143.7,132.7c-1.6-1.2-3.3-0.6-4.9,0c0.8-0.5,1.6-1.5,2.4-1.5c4.7,0.1,6.9-4.2,10.6-5.6
			c1.8-0.7,0.7-2.9,2.2-3.7c0,0.1,0,0.2,0,0.3c0,0.3,0,0.5,0,0.8c0.1,0.5,0.2,0.9,0.3,1.4c0.2,0.7,0.4,1.5,0.5,2.2
			c0,0.2,0,0.4,0,0.5c-1.4,0.4-1.4,1.6-1.6,2.7l0,0c-2.1-0.2-2.7,1.6-3.8,2.7c-1.2,0.9-2.7,0.8-4.1,0.8c-0.3-0.2-0.6-0.4-0.8-0.5
			C144.3,132.7,144,132.7,143.7,132.7z"/>
		<path class="st9" d="M104.2,130.2c0.6,0,1.5,0.6,1.2,0.8c-1.4,0.9-1.8,3.5-3.9,3.1c-6.5-1.2-12.9-2.6-19.3-4
			c-1.1-0.2-1.7-1.2-1.4-2.4c6.6,1.4,13.1,2.9,19.7,4.2C101.8,132.2,103.9,132.8,104.2,130.2z"/>
		<path class="st4" d="M154.9,126.4c-0.2-0.7-0.4-1.5-0.5-2.2c0.4-0.5,0.6-1.1-0.3-1.4c0-0.3,0-0.5,0-0.8c1-1.5,2-2.9,3-4.4
			c0.2-0.2,0.4-0.3,0.6-0.5c1,0.1,2,0.2,3,0.3c0.1,0.3,0.1,0.7,0.5,0.3c0.3,0,0.5,0,0.8,0c0.1,0.3,0.2,0.5,0.3,0.8
			c-1,1-2.5,1.9-2.8,3.1c-0.5,2.2-3.4,2.7-3.2,5.1C155.8,126.6,155.4,126.5,154.9,126.4z"/>
		<path class="st10" d="M75.8,114.6c-0.2,0-0.3,0-0.5,0c-0.7-0.3-1.4-0.6-2.1-0.9c-0.2-0.2-0.3-0.4-0.5-0.5
			c-0.2-0.2-0.3-0.4-0.5-0.6c-0.1-0.1-0.2-0.3-0.2-0.4c-0.1-0.1-0.1-0.2-0.2-0.3c0,0,0,0,0,0c0.4-0.4-0.5-1.7,0.8-1.5
			c2.4,0.5,5.2-1,6.9,1.9c-0.1,0.2-0.2,0.4-0.2,0.6c-0.2,0.2-0.3,0.3-0.5,0.5c-0.2,0.2-0.4,0.3-0.6,0.5c0,0.1-0.1,0.1-0.1,0.1
			C77.3,114.2,76.6,114.4,75.8,114.6z"/>
		<path class="st7" d="M96,103.6c-0.3,0.5-0.7,1-1,1.5c-2.7,0.7-5.4,1-7.2-1.9c-0.8-1.3-0.7-2.8,0.3-3.9c0.7-0.8,1.3-2.5,3.1-1.7
			c-0.9,0.7-2.2,0.8-2.5,2.1c-0.1,0.2-0.1,0.4-0.2,0.5c0,0.2-0.1,0.4-0.1,0.5c0,0.3,0,0.5,0,0.8c-0.2,0.9,0.2,1.5,0.8,2.1
			c0.4,0.8,1.1,1.1,2,1.2c2.1,0.7,3.6-0.3,4.3-2.1c1-2.6-0.4-4.2-2.7-5.2C95.4,97.1,96.3,98.8,96,103.6z"/>
		<path class="st11" d="M88.6,99.7c0.3-1.3,1.6-1.5,2.5-2.1c0.5,0,1.1,0,1.6,0c2.3,1,3.7,2.6,2.7,5.2c-0.7,1.9-2.2,2.8-4.3,2.1
			c1-1,2.7-0.8,3.2-2.4c0.4-1.2,0.1-2.3-0.7-3.1C91.9,97.5,90.3,99.6,88.6,99.7z"/>
		<path class="st12" d="M79.6,112.2c-1.7-2.9-4.6-1.5-6.9-1.9c-1.4-0.3-0.5,1-0.8,1.5c-0.2-0.6-0.5-1.2-0.7-1.7
			c0.7-0.1,1.5-0.2,2.2-0.3c1.7,0.2,3.4,0.4,5.2,0.6c0.3,0,0.5,0.1,0.8,0.1c0.3,0,0.6,0,0.9,0.1c1,0.8-0.3,1.2-0.3,1.8
			C79.8,112.3,79.7,112.3,79.6,112.2z"/>
		<path class="st9" d="M127.4,129.1c0,0.3,0,0.5,0,0.8c-2.3,0.1-4.5,0.2-6.8,0.3c-0.2,0-0.4-0.2-0.7-0.3c0.2-0.1,0.4-0.2,0.5-0.2
			C122.8,129.5,125.1,129.3,127.4,129.1z"/>
		<path class="st9" d="M124.4,55.6c0.3-1.3,2.3-0.2,2.5-1.6c0.9,0,1.8,0,2.7,0C128.2,55.7,126.1,55,124.4,55.6z"/>
		<path class="st3" d="M157.1,117.7c-1,1.5-2,2.9-3,4.4c0-0.1,0-0.2,0-0.3C154.1,119.7,155.4,118.6,157.1,117.7z"/>
		<path class="st9" d="M132,131.6c-1-0.4-2.4-0.2-2.7-1.6C130.2,130.5,131.1,131,132,131.6z"/>
		<path class="st12" d="M75.8,114.6c0.8-0.2,1.6-0.4,2.3-0.6c-0.1,0.1-0.1,0.3-0.2,0.4C77.2,114.4,76.5,114.5,75.8,114.6z"/>
		<path class="st9" d="M121.9,56.9c0.5-0.4,0.9-0.7,1.4-1.1C123.2,56.6,122.5,56.8,121.9,56.9z"/>
		<path class="st9" d="M163.1,85.8c-0.4,0.4-0.7,0.7-1.1,1.1C162.4,86.5,162.7,86.2,163.1,85.8z"/>
		<path class="st9" d="M137.5,132.9c-0.5-0.3-0.9-0.5-1.4-0.8C136.5,132.4,137,132.7,137.5,132.9z"/>
		<path class="st1" d="M79.6,112.2c0.1,0,0.2,0.1,0.3,0.1c-0.1,0.3,0.1,0.8-0.5,0.5C79.5,112.7,79.6,112.5,79.6,112.2z"/>
		<path class="st1" d="M80.2,110.6c-0.3,0-0.6,0-0.9-0.1C79.7,109.9,80,109.9,80.2,110.6z"/>
		<path class="st12" d="M78.3,113.9c0.2-0.2,0.4-0.3,0.6-0.5C78.7,113.5,78.5,113.7,78.3,113.9z"/>
		<path class="st9" d="M106.6,129.7c-0.4,0.4-0.5,0.1-0.5-0.3C106.3,129.5,106.5,129.6,106.6,129.7z"/>
		<path class="st9" d="M128.5,129.4c-0.2-0.1-0.4-0.2-0.5-0.3C128.3,128.7,128.4,129.1,128.5,129.4z"/>
		<path class="st9" d="M41.7,123.1c-0.2-1.5-0.4-2.9-0.5-4.4c0.9,0.6,1.7,1.6,2.6,1.8c1.4,0.2,3.4,2,3.8-1.5c0.3-2.4,2.3-3.7,5-3.1
			c1.1,0.2,1.6,0,1.7-1.3c0.2-2.5,1.8-4.2,3.5-5.9c0.2-0.2,0.9-0.3,1.1-0.1c1.5,1.5,3.7,3.3,3.2,5.3c-0.9,3.3-1.6,6.1,2.1,8.1
			c0,0.5,0,0.9,0,1.4c-4.4-1.5-5.7-4.2-4-8.3c0.7-1.9,0-3.6-1.5-4.3c-1.3-0.6-2.1,1.2-2.2,2.2c-0.5,3.4-2.4,4.5-5.7,4
			c-1.3-0.2-1.6,1.2-1.8,2.3c-0.1,1-0.1,1.9,1.1,2.3c3.7,1.2,6.9,3.9,10.9,4.2c1.4,0.1,3.4,1.5,4-1.2c1.5,0.9,0.9,2.4,0.6,3.5
			c-0.4,2-2.3,1.2-3.4,1.2c-4.6-0.2-8.5-2.6-12.7-4.2c-1.3-0.5-3-1.2-4.2-0.9C43.6,124.6,42.8,123.9,41.7,123.1z"/>
		<path class="st9" d="M91.9,55.3c0.3,0,0.5,0,0.8,0c3.3,1.2,6.5,1.8,8.7-1.9c0.3,0.1,0.5,0.2,0.8,0.3c-2.4,0.9-2.1,5.8-6.8,3.7
			c-4.6-2-10.2,1.6-12.1,6.4c-1,2.5-2.5,4.5-6,3.9c-2-0.4-3.7,0.5-4.4,2.8c-1,3.3-2.3,6.3-6.8,6.2c-2.3-0.1-3.9,1.4-3.2,4.1
			c0.9,3.6-0.6,5.9-3.9,7.1c-2.9,1.1-3.5,3.5-4,6.1c-0.1,0.3-0.2,0.6-0.3,0.8c-0.1-0.3-0.4-0.6-0.4-0.9c-0.3-3.1,0.6-5.8,3.6-7
			c3.2-1.3,4.1-3.5,3.4-6.7c-0.8-3.4,1.5-5.1,4.2-5.1c3.9,0,4.6-2.6,5.5-5.2c1-2.9,3-4.7,6.1-4.2c2.5,0.4,3.7-0.7,4.4-2.5
			c1.8-4.5,5.2-6.7,9.8-7.4C91.6,55.8,91.7,55.5,91.9,55.3z"/>
		<path class="st9" d="M75.8,126.9c1,0.6,1.7,1.4,1.3,2.7c-0.4,1.2-1.4,0.2-2.1,0.3c-1.1,0.1-2.3,0.1-3.4,0.3
			c-2.9,0.5-3.9-1-3.9-3.6C70.3,127.5,73,128.2,75.8,126.9z"/>
		<path class="st11" d="M73,98.4c-0.3,2.3-1.4,4-3.8,3.9c-2.4-0.1-3.5-1.7-3.4-3.9c0.1-2.3,1.3-3.9,3.7-3.8
			C71.9,94.6,72.7,96.3,73,98.4z M66.3,98.4c-0.3,2.2,1.4,2.4,2.9,2.6c1.6,0.2,2.2-1.4,3.3-2.2c-1.2-1.4-1.6-3.7-3.9-3.6
			C66.8,95.3,66.4,96.9,66.3,98.4z M70,101.5c-0.1,0-0.2-0.1-0.2-0.1c-0.1,0-0.1,0.1-0.1,0.2c0.1,0,0.2,0.1,0.2,0.1
			C69.9,101.7,69.9,101.6,70,101.5z"/>
		<path class="st9" d="M75.6,121.8c0.9,0.9,0.9,1.8,0,2.7C75.6,123.6,75.6,122.7,75.6,121.8z"/>
		<path class="st12" d="M73.3,113.7c0.7,0.3,1.4,0.6,2.1,0.9c-0.6-0.2-1.3-0.3-1.9-0.5C73.4,114,73.3,113.8,73.3,113.7z"/>
		<path class="st9" d="M73.6,115.8c0.3,0.5,0.5,0.9,0.8,1.4C73.7,117,73.7,116.4,73.6,115.8z"/>
		<path class="st9" d="M65.7,122.9c-0.6,0-1-0.1-1.1-0.8C65,122.3,65.4,122.6,65.7,122.9z"/>
		<path class="st12" d="M72.3,112.5c0.2,0.2,0.3,0.4,0.5,0.6C72.6,112.9,72.5,112.7,72.3,112.5z"/>
		<path class="st9" d="M74.7,118.5c0.2,0.2,0.4,0.4,0.5,0.5C75.1,118.9,74.9,118.7,74.7,118.5z"/>
		<path class="st12" d="M71.9,111.8c0.1,0.1,0.1,0.2,0.2,0.3C72,112,71.9,111.9,71.9,111.8z"/>
		<path class="st3" d="M154.9,126.4c0.5,0.1,0.9,0.2,1.4,0.3c0.6,0.3,1.3,0.5,1.9,0.8c0.2,0.2,0.4,0.4,0.6,0.5c0.4,0,0.7,0,1.1,0
			c0.2,0.2,0.4,0.4,0.5,0.5c0.4,2.8-2.1,3.7-3.6,4.9c-3.7,2.8-7.6,5.8-11.9,7.5c-4.1,1.7-8.8,2.5-13.2,2.7
			c-4.3,0.1-8.6,0.3-12.9,0.1c-2.7-0.1-5.4-0.8-8.1-1.4c-1.6-0.3,0.6-2.1-0.8-2.6c1.1,0.1,1.7-0.6,2.5-1.2c0.3-0.3,0.9-0.4,1.3-0.3
			c0.2,0,0.2,0.7,0.4,1c1.1,1.5,3,1.3,4.3,1.4c7.5,0.8,15.1,1,22.4-1.4c2-0.7,3.8-1.8,5.7-2.8c0.4-0.2,0.9-0.8,0.9-1.2
			c-0.1-0.8-0.9-0.7-1.5-0.7c-1.2-0.1-2.8,0.3-2.2-1.9c0.3,0,0.5,0,0.8,0c0.3,0.2,0.6,0.4,0.8,0.5c1.4,0,2.8,0.1,4.1-0.8
			c1.6-0.4,2.7-1.5,3.8-2.7c0,0,0,0,0,0c0.9-0.7,1.5-1.5,1.6-2.7C154.9,126.8,154.9,126.6,154.9,126.4z"/>
		<path class="st0" d="M64.9,124.5c-0.6,2.7-2.6,1.3-4,1.2c-4.1-0.3-7.2-2.9-10.9-4.2c-1.2-0.4-1.2-1.3-1.1-2.3
			c0.1-1.1,0.4-2.5,1.8-2.3c3.3,0.5,5.1-0.5,5.7-4c0.2-1,1-2.8,2.2-2.2c1.5,0.7,2.3,2.4,1.5,4.3c-1.6,4.1-0.4,6.8,4,8.3
			C64.4,123.8,64.6,124.1,64.9,124.5z"/>
		<path class="st3" d="M100.1,138.9c-0.4,0.4-0.7,0.9-1.1,1.3c-1.4,0-2.7,0-4.1,0c-0.1-0.3-0.1-0.7-0.5-0.3
			c-0.5-0.1-0.9-0.2-1.4-0.3c-2.7-1.2-5.6-1.8-8.5-1.8c-1.7,0-1.5-1.3-2.4-1.8c0-0.2,0-0.4,0-0.5c0.6-1.4-1.4-1.4-1.4-2.4
			c5.7,3.9,12.8,2.7,18.9,5.3C99.8,138.6,99.9,138.8,100.1,138.9z"/>
		<path class="st3" d="M80.2,132.7c-1.1,0.2-1.3-2.2-2.4-1.2c-1.1,1,0.2,2.1,0.8,3c0.2,0.3,0,1.2-0.1,1.2c-1.6,0.3-3.3,0.9-4.8,0.6
			c-1.6-0.3-2.9-1.7-3.6-3.3c1.9,0.3,3.8,0.6,5.8,0.8c1.1,0.1,1-0.8,1.1-1.5c0.4-1.4,0.8-3.8,1.9-3.6
			C80.9,128.9,80,131.2,80.2,132.7z"/>
		<path class="st3" d="M105.3,138.7c-0.2-0.2-0.4-0.4-0.6-0.5C104.9,138.3,105.1,138.5,105.3,138.7z"/>
		<path class="st6" d="M160.4,128.6c-0.2-0.2-0.4-0.4-0.5-0.5c1.4-3.2,1.8-7.2,6.5-7.6c0.4,0.1,0.7,0.2,1.1,0.3
			c0.4,0.4,0.7,0.9,1.1,1.3c-1.7,0-3.4,0.5-3.6,2.3c-0.3,1.9-3.4,3.7-0.5,5.9C163.1,129.7,161.7,129.1,160.4,128.6z"/>
		<path class="st6" d="M165.8,130.8c-0.3-0.2-0.6-0.3-0.8-0.5C165.3,130.4,165.5,130.6,165.8,130.8z"/>
		<path class="st4" d="M85.9,163.4c0.8-3.4,3.3-0.7,4.9-1.3c0,1,0,2,0,3C89.1,164.6,87,165.6,85.9,163.4z"/>
		<path class="st5" d="M166.4,120.4c-4.7,0.4-5.1,4.4-6.5,7.6c-0.4,0-0.7,0-1.1,0c-0.2-0.2-0.4-0.4-0.6-0.5
			c-0.6-0.3-1.3-0.5-1.9-0.8c-0.2-2.4,2.7-2.9,3.2-5.1c0.3-1.2,1.8-2.1,2.8-3.1c0.2,0,0.4,0,0.5,0c0.2,0.2,0.4,0.4,0.6,0.5
			c0.2,0.1,0.4,0.2,0.6,0.2c0.3,0,0.5,0,0.8,0C165.3,119.7,165.8,120.1,166.4,120.4z"/>
		<path class="st1" d="M164.7,119.3c-0.3,0-0.5,0-0.8,0c2.2-1.8-1.3-6.5,3.6-7c0.7-0.1,1.5,0,1.2,0.7c-0.7,2.2-1.6,4.3-2.5,6.3
			C166.1,119.5,165.2,119.3,164.7,119.3z"/>
		<path class="st1" d="M163.6,114.7c-0.9-0.9-0.9-1.6,0.3-2.2C163.8,113.2,163.7,114,163.6,114.7z"/>
		<path class="st1" d="M162.8,117.4c0.1-0.7-0.1-1.5,0.8-1.9C163.7,116.3,163.7,117,162.8,117.4z"/>
		<path class="st4" d="M163.4,119c-0.2-0.2-0.4-0.4-0.6-0.5C163,118.7,163.2,118.9,163.4,119z"/>
		<path class="st4" d="M173.7,99.2c0,0.2,0,0.4,0,0.6C173.7,99.5,173.7,99.3,173.7,99.2z"/>
		<path class="st4" d="M66,135.1c-1.5-0.2-2.9-0.4-4.4-0.6C63.6,130.5,64.6,134.6,66,135.1z"/>
		<path class="st4" d="M94.4,140c0.4-0.4,0.5-0.1,0.5,0.3C94.7,140.2,94.5,140.1,94.4,140z"/>
		<path class="st3" d="M161.2,117.7c-0.4,0.4-0.5,0.1-0.5-0.3C160.8,117.5,161,117.6,161.2,117.7z"/>
		<path class="st1" d="M153.3,129.7c-1.1,1.2-2.2,2.3-3.8,2.7C150.6,131.3,151.2,129.5,153.3,129.7z"/>
		<path class="st1" d="M154.9,126.9c-0.1,1.2-0.7,2-1.6,2.7C153.5,128.6,153.5,127.3,154.9,126.9z"/>
		<path class="st3" d="M154.1,122.9c0.8,0.3,0.6,0.8,0.3,1.4C154.3,123.8,154.2,123.3,154.1,122.9z"/>
		<path class="st1" d="M145.4,133.2c-0.3-0.2-0.6-0.4-0.8-0.5C144.8,132.8,145.1,133,145.4,133.2z"/>
		<path class="st13" d="M88.6,99.7c1.7-0.1,3.2-2.2,5-0.3c0.8,0.9,1.1,1.9,0.7,3.1c-0.5,1.6-2.3,1.4-3.2,2.4c-0.8-0.1-1.6-0.4-2-1.2
			c-0.1-0.8,0-1.6-0.8-2.1c0-0.3,0-0.5,0-0.8c0-0.2,0.1-0.4,0.1-0.5C88.5,100.1,88.6,99.9,88.6,99.7z"/>
		<path class="st11" d="M88.3,101.6c0.9,0.5,0.7,1.3,0.8,2.1C88.5,103.1,88.1,102.5,88.3,101.6z"/>
		<path class="st11" d="M88.4,100.2c0,0.2-0.1,0.4-0.1,0.5C88.3,100.6,88.4,100.4,88.4,100.2z"/>
		<path class="st13" d="M66.3,98.4c0.1-1.5,0.6-3.1,2.3-3.2c2.3-0.1,2.7,2.2,3.9,3.6c-1.1,0.8-1.7,2.4-3.3,2.2
			C67.7,100.9,66,100.6,66.3,98.4z"/>
		<path class="st13" d="M70,101.5c0,0.1,0,0.2-0.1,0.2c-0.1,0-0.1,0-0.2-0.1c0-0.1,0-0.2,0.1-0.2C69.8,101.4,69.9,101.5,70,101.5z"
			/>
		<path class="st4" d="M158.2,127.5c0.2,0.2,0.4,0.4,0.6,0.5C158.6,127.8,158.4,127.7,158.2,127.5z"/>
	</g>
</g>
</svg>
