<?xml version="1.0" encoding="utf-8"?>
<!-- Generator: Adobe Illustrator 24.0.1, SVG Export Plug-In . SVG Version: 6.00 Build 0)  -->
<svg version="1.1" id="图层_1" xmlns="http://www.w3.org/2000/svg" xmlns:xlink="http://www.w3.org/1999/xlink" x="0px" y="0px"
	 viewBox="0 0 170.8 149.9" style="enable-background:new 0 0 170.8 149.9;" xml:space="preserve">
<style type="text/css">
	.st0{fill:#DC9FB0;}
	.st1{fill:#CA8B9D;}
	.st2{fill:#CE91A1;}
	.st3{fill:#BA7B8E;}
	.st4{fill:#C8899A;}
	.st5{fill:#90515E;}
	.st6{fill:#BD7A8E;}
	.st7{fill:#BD798D;}
	.st8{fill:#BC7D90;}
	.st9{fill:#AE6F83;}
	.st10{fill:#90515D;}
	.st11{fill:#AF7084;}
	.st12{fill:#B37287;}
	.st13{fill:#9F5E6F;}
	.st14{fill:#A46373;}
	.st15{fill:#A96879;}
	.st16{fill:#AB697A;}
	.st17{fill:#B47589;}
	.st18{fill:#A26176;}
	.st19{fill:#948A90;}
	.st20{fill:#8B8086;}
	.st21{fill:#CB8D9E;}
	.st22{fill:#CD8FA0;}
	.st23{fill:#040102;}
	.st24{fill:#070406;}
	.st25{fill:#0D0508;}
	.st26{fill:#B16F80;}
</style>
<g>
	<g>
		<path class="st0" d="M118.1,1.8c5.1,1.1,10.3,2,15.3,3.4c1.4,0.4,2.4,2.3,3.6,3.5c0.5,0.5,1,1.1,1.6,1.5c1.6,1.1,3.2,2.2,4.8,3.1
			c1,0.5,2.2,0.6,3.1,1.2c1,0.6,1.8,1.7,2.7,2.5c0.1,0.7,0.4,1.5,0.3,2.2c-0.1,0.9-0.2,2-0.7,2.7c-1.1,1.6-2.6,3-3.8,4.5
			c-1.1,1.3-2.2,2.7-3.2,4.1c-1.3,2.1-3.1,4.2-3.6,6.5c-0.5,2.6-1.1,3.9-4.1,4.1c-1.3,0.1-2.6,2.1-3.8,3.2c-1.5,1.4-2.7,3.2-4.5,4.3
			c-0.6,0.4-3.2-0.9-3.3-1.6c-0.4-2.8-0.2-5.7-0.2-8.5c0-1.2,0.3-2.9-0.3-3.4c-3.4-2.8-1.8-5.5,0.2-7.7c3.3-3.7,6.9-7.1,10.5-10.5
			c0.4-0.3,1.4-0.5,1.8-0.2c0.4,0.3,0.4,1.2,0.5,1.8c0.1,0.4,0,0.8,0,1.3c0.2-0.1,0.5-0.1,0.7-0.2c1.4-0.3,2.7-0.6,4.1-0.9
			c-0.9-0.5-2.8-0.8-3.6-1.9c-1.9-2.7-3.3-1.9-5,0c-2.2,2.4-4.3,4.9-6.8,6.9c-3.4,2.6-6.5,5.8-5.1,9.9c0.9,2.7,2.4,4.9,1.4,7.9
			c-0.4,1.1-0.9,2.6-0.5,3.4c1.2,2,2.8,3.9,4.5,5.5c0.4,0.4,2-0.1,2.9-0.6c1-0.5,2-1.3,2.7-2.2c0.7-0.8,1.1-1.9,1.7-2.8
			c0.4-0.6,1-1.6,1.6-1.6c3.5-0.2,5.8-1.3,5.9-5.3c0.1-1.7,0.5-4.2,1.6-4.8c3.2-1.7,4.9-4,5.7-7.4c0.2-0.7,1.9-1.1,3-1.5
			c0.2-0.1,1,0.8,1,1.2c-0.3,3.6-0.7,7.2-1.1,10.8c-0.2,1.6-0.8,3.2-0.9,4.9c-0.2,2.7-0.6,4.8-3.8,5.4c-0.9,0.2-1.5,1.6-2.2,2.4
			c-0.3,1.5-0.5,3-1,4.4c-0.2,0.6-1.1,1.5-1.6,1.5c-3.2-0.2-5.8,0.7-6.8,4c-0.6,2-1.4,4.2-1.1,6.2c0.6,4.3-2.8,3.5-4.8,4.3
			c-0.8,0.3-2-0.4-3-0.5c-2.1-0.2-4.3-0.4-6.5-0.6c-1.2-0.1-2.3-0.2-3.4-0.4c-2.1-0.4-4.2-1-6.3-1.5c1.6,1.1,3.4,1.4,5.2,1.9
			c1.2,0.4,2.7,1.7,3.4,1.4c5-2.7,9.4,3.9,14.3,0.9c0,0,0.1,0,0.1,0c0.7-0.6,1.8-1.1,2-1.9c0.3-1.3,0-2.8,0.1-4.1
			c0.6-5.1,1.7-9.2,8.5-7.6c0.4,0.1,1.4-0.6,1.4-1c0.2-2.1,0.2-4.2,0.2-6.3c0.7-0.5,1.4-1.5,2.1-1.5c2.9-0.2,4.4-1.5,4.5-4.4
			c0.1-1.2,0.5-2.4,0.8-3.6c0.5,3,0.3,6-0.1,8.9c-0.5,3.5-0.8,7.1-1.9,10.5c-0.7,2.3-2.5,4.2-3.8,6.3c-0.1,0.1-0.2,0.2-0.3,0.3
			c-0.6,0.7-1.3,1.5-1.9,2.2c-1,1.9-1.5,4.4-3,5.5c-3.1,2.3-6.9,3.6-10.3,5.6c-4.2,2.5-7.8,0.4-11.7-0.8c-2.3-0.7-4.7-0.7-7.1-1
			c0.5,1.1,1.2,1.2,1.8,1c3.2-1.2,4.7,1.3,6.5,3c0.1,0.1-0.1,0.8-0.2,0.8c-1.7,0.2-3.3,0.6-5,0.5c-5.2-0.2-10.4-0.6-15.6-1.1
			c-0.8-0.1-1.4-1.5-2-2.3c-0.4-0.5-0.6-1.1-1.1-1.5c-0.8-0.7-2.5-1.2-2.5-1.7c0-1.1,0.9-2.2,1.5-3.3c0.6-1,1.4-1.9,2.1-2.9
			c-1.3-0.9-2.6-2.3-4.1-2.6c-6.7-1.1-6.7-1-4.7-7.5c0.1-0.3,0-0.8-0.2-0.9c-4.2-2.7-4.3-4.2-0.3-7.7c2.8-2.4,2.6-3.9-1.2-6.4
			c4.7,4.2,0.3,5.4-2.3,8.1c1.7-3.5,1.6-6.1-1.5-7.1c-1.3-0.4-3.2,0.9-4.9,1.5c0.2,1.6-0.1,3.7,0.7,4.7c0.7,0.9,2.9,0.6,4.4,0.9
			c0.5-0.1,0.9-0.2,0.3,0c0.6,2.3,1.1,4.3,1.6,6.4c0.2,0.9,0.8,2.1,0.4,2.7c-1.4,2.7-0.4,5.1,2.6,5.7c1.7,0.3,3.5,0.6,5.1,1.3
			c0.5,0.2,0.8,1.8,0.6,2.6c-0.3,2.2-0.9,4.3-1.3,6.5c-0.1,0.3,0.4,0.8,0.7,1.2c-0.5,0.2-1.1,0.7-1.6,0.6c-2.5-0.5-5.1-0.9-7.5-1.6
			c-5.3-1.7-11.7-0.3-15.9-5.4c-1-4.1-1.7-8.1,0.9-11.9c0.7-1,2.7-2.1-0.4-2.7c-0.2,0-0.6-0.5-0.6-0.6c0.8-5.3,1.5-10.7,2.5-15.9
			c0.5-2.4,1.8-4.6,2.1-7c0.9-7.9,2.6-10.2,9.3-11.5c3.6-0.7,6.2-1.8,7.7-5.9c0.9-2.5,4.9-4,7.7-5.4c2.1-1,4.8-0.7,6.9-1.7
			C108.6,7.5,113.3,4.5,118.1,1.8z M97.3,27.2c2.9-5,7.2-5.1,11.8-4.1c0.1,0,0.6-0.8,0.8-1.3c0.5-1.7,0.9-3.4,1.4-5.1
			c1.4,0.4,2.8,0.9,4.2,1.3c0.4,0.1,0.8,0.3,1.2,0.5c0-0.3,0-0.7,0.1-1c0.9-3,1.6-6.2,3-8.9c0.7-1.3,3-1.8,4.7-2.6
			c-3.9-0.7-7.5,2.2-8.9,6.8c-0.2,0.8-1.3,1.5-2.1,2.1c-1.6,1.1-4.5,1.8-4.6,3c-0.4,3.1-1.8,3.5-4.4,3.3
			C101.1,20.9,97.3,24,97.3,27.2z"/>
		<path class="st0" d="M29.2,64.9c0.3-2.6,0.5-5.2,0.8-7.8c0.3-2.5,0.6-5.1,0.9-7.6c1-3.9,1.7-7.9,3.2-11.6c1.2-2.8,3.8-5,5-7.8
			c2.2-4.9,5.6-8.3,10.2-11c3-1.7,5.2-4.9,7.9-7.2c1-0.8,2.3-1.3,3.5-1.9c3-1.5,6-3.1,9.1-4.5c3.6-1.6,6.9-4.4,11.4-2.7
			c0.5,0.2,1.3-0.8,2-1c2-0.5,3.9-0.9,6-1.1c1.4-0.2,2.9,0.1,4.4,0.1c2.6,0,5.2,0,7.8,0c2.9,0,5.8,0,8.6-0.1
			c-1.5,1.5-2.8,3.6-4.6,4.4C102,6.3,97.8,6.2,94.9,8c-4.1,2.6-7.3,6.5-11.1,9.6c-1.3,1.1-3.2,2.3-4.7,2.2c-4.1-0.5-6.6,0.9-8.1,4.6
			c-2.6,6.4-5.3,12.8-7.6,19.3c-0.6,1.8-0.5,4.3,0.2,6.1c1.5,3.7,0.2,6.9-3.7,7.9c-0.2,0.1-0.3,0.7-0.5,1c1.6,3.9,3.5,7.6,4.6,11.6
			c0.4,1.3-1.2,4.5-1.8,4.5c-2.1-0.1-4.2-1.1-6.1-2c-1-0.5-1.6-2-2.6-2.5c-3.6-1.5-4.8-3.5-3.2-7.6c0.5-1.3-1.7-3.8-2.8-5.6
			c0-0.1-2,0.6-2.5,1.3c-1,1.4-1.4,3.1-2.3,4.5c-0.3,0.5-1,0.9-1.6,1.1c-1.6,0.7-4.2,1-4.6,2.2c-1.4,3.4-3.2,1.9-4.9,1
			C30.7,66.7,30,65.7,29.2,64.9z M63.2,46.4c-2.6-1.8-4.2-3.7-5.3-3.5c-1.4,0.3-3.2,2.3-3.3,3.7c-0.1,1.2,2,3.4,3.3,3.5
			C59.2,50.1,60.7,48.2,63.2,46.4z"/>
		<path class="st1" d="M29.2,64.9c0.8,0.8,1.5,1.8,2.4,2.3c1.7,0.9,3.6,2.4,4.9-1c0.5-1.2,3-1.4,4.6-2.2c0.6-0.3,1.3-0.6,1.6-1.1
			c0.8-1.5,1.3-3.2,2.3-4.5c0.5-0.7,2.5-1.4,2.5-1.3c1.1,1.8,3.3,4.3,2.8,5.6c-1.6,4.1-0.4,6,3.2,7.6c1,0.4,1.6,2,2.6,2.5
			c1.9,1,4,1.9,6.1,2c0.6,0,2.2-3.2,1.8-4.5c-1.1-4-3-7.8-4.6-11.6c0.1,0,0.2,0,0.3,0c2.5,4.7,4.9,5.3,8.3,2.1c0,0,0.1,0.1,0.1,0.1
			c-2.6,3.8-1.9,7.9-0.9,11.9c0.7,1.8,1.4,3.5,2.1,5.3c0.2,0.4,0.5,0.9,0.9,0.9c6.2,1.3,12.3,2.8,18.5,3.6c1.4,0.2,3.2-2,4.8-3.1
			c-0.5-0.6-1.2-1.1-1.6-1.7c-0.4-0.6-0.5-1.4-1.2-3.1c1.1,1.5,1.4,2.4,1.9,2.5c5.3,1,1.5,3,0.7,4.8c-0.2,0.5,0,1.8,0.2,1.8
			c1.4,0.3,2.9,0.6,4.4,0.6c2.6,0.1,5.3-0.3,7.8,0.3c8.1,1.7,16,1.7,23.8-1.7c0.3-0.1,0.5-0.6,0.8-0.9c-0.4-0.1-0.8-0.1-1.2-0.2
			c-2.4-0.2-4.7-0.4-7.1-0.6c2.4-0.8,4.6-1.2,6.8-1.3c1.2-0.1,2.4,0.3,3.6,0.5c-0.4,0.1-0.8,0.2-1.1,0.3c0.2,0.3,0.4,0.7,0.7,0.8
			c3.8,1.6,2.8,2.5-0.4,3.3c-0.9,0.2-1.6,1.1-2.5,1.3c-3.8,0.6-7.6,1.3-11.4,1.6c-3.2,0.2-6.4,0.1-9.6-0.2c-2.4-0.2-5-1.8-7.1-1.2
			c-4.3,1.3-8.6-0.6-8.8-4.9c-0.3,0.3-0.5,0.5-0.7,0.7C90.4,83.2,89.2,85,88,85c-3.7-0.3-7.4-0.9-10.9-2c-3.5-1.1-9.1,0.2-8.6-6.6
			c0.1-0.8-2-1.8-3-2.8c0.2,0.8,0.5,1.6,0.7,2.5c0.1,0.2,0,0.4,0.1,0.7c0.2,3.5-2.2,4.5-4.8,3.7c-2-0.6-3.8-2.3-5.5-3.7
			c-0.6-0.4-0.6-1.5-1-2.2c-0.3,0.9-0.5,1.8-0.8,2.7c-0.3,0.9-0.7,2.7-1,2.7c-1.7,0-3.4-0.4-5.1-0.8c-2.5-0.7-5.1-1.5-7.6-2.3
			c-3.3-1-6.5-2.2-9.8-3.2C30.3,70.7,29.8,67.8,29.2,64.9z M50.8,74.4c1.2-0.5,1.9-0.8,2.5-1.1c-0.5-0.7-0.8-1.5-1.4-1.9
			c-3.1-2.2-5.9-4.2-3.3-8.7c0.5-0.8-0.9-2.7-1.5-4.1c-0.8,0.8-1.6,1.5-2.3,2.3c-0.4,0.6-0.4,1.4-0.9,2c-0.6,0.7-1.5,1.3-2.3,1.8
			c-1.4,0.9-2.8,1.7-4.2,2.5c0.8,1,1.4,2.3,2.4,3c0.8,0.6,2.1,0.5,3,0.9C45.6,72.2,48.3,73.4,50.8,74.4z"/>
		<path class="st2" d="M142.7,48.8c0.7-0.8,1.4-2.2,2.2-2.4c3.2-0.6,3.7-2.7,3.8-5.4c0.1-1.6,0.7-3.2,0.9-4.9
			c0.5-3.6,0.8-7.2,1.1-10.8c0-0.4-0.8-1.3-1-1.2c-1.1,0.4-2.9,0.8-3,1.5c-0.8,3.4-2.5,5.7-5.7,7.4c-1.1,0.6-1.5,3.1-1.6,4.8
			c-0.2,4-2.5,5.1-5.9,5.3c-0.6,0-1.2,1-1.6,1.6c-0.6,0.9-1,2-1.7,2.8c-0.8,0.9-1.7,1.6-2.7,2.2c-0.9,0.4-2.4,1-2.9,0.6
			c-1.7-1.6-3.3-3.5-4.5-5.5c-0.5-0.8,0.1-2.3,0.5-3.4c1.1-3-0.4-5.2-1.4-7.9c-1.4-4.1,1.7-7.3,5.1-9.9c2.5-2,4.7-4.5,6.8-6.9
			c1.8-1.9,3.1-2.7,5,0c0.8,1.1,2.7,1.5,3.6,1.9c-1.3,0.3-2.7,0.6-4.1,0.9c-0.2,0.1-0.5,0.1-0.7,0.2c0-0.4,0.1-0.8,0-1.3
			c-0.1-0.6-0.1-1.5-0.5-1.8c-0.3-0.3-1.4-0.1-1.8,0.2c-3.6,3.4-7.2,6.8-10.5,10.5c-2,2.2-3.6,4.9-0.2,7.7c0.6,0.5,0.3,2.2,0.3,3.4
			c0,2.8-0.2,5.7,0.2,8.5c0.1,0.7,2.7,1.9,3.3,1.6c1.7-1.1,3-2.8,4.5-4.3c1.2-1.2,2.4-3.1,3.8-3.2c3-0.2,3.6-1.5,4.1-4.1
			c0.5-2.3,2.3-4.4,3.6-6.5c0.9-1.5,2.1-2.8,3.2-4.1c1.3-1.5,2.7-2.9,3.8-4.5c0.5-0.7,0.6-1.8,0.7-2.7c0.1-0.7-0.2-1.5-0.3-2.2
			c0.8,1.7,1.6,3.4,2.4,5c-0.2,0.3-0.5,0.5-0.7,0.8c1,0.3,1.9,0.5,2.9,0.8c0.8,1.2,1.6,2.4,2.5,3.6c1.1,3.1,0.5,5.4-2.1,6.1
			c0.9,1.1,2.8,2.3,2.8,3.6c0.2,5.3,0.1,10.7-0.6,15.9c-0.3,2.6-2.3,5-3.5,7.5c-0.4,0.7-1,1.5-1,2.2c-0.1,2.1-0.4,3.7-3,3
			c-0.9,0-1.8,0-2.7,0c-0.4,0-0.7,0-1.1,0c1.3-2.1,3.1-4,3.8-6.3c1-3.4,1.4-7,1.9-10.5c0.4-2.9,0.5-5.9,0.1-8.9
			c-0.3,1.2-0.7,2.4-0.8,3.6c-0.1,3-1.7,4.2-4.5,4.4c-0.7,0-1.4,1-2.1,1.5c0.1-0.5,0.1-0.9,0.3-1.7C143.3,48.2,143,48.5,142.7,48.8z
			"/>
		<path class="st3" d="M30.8,73.6c3.2,1.1,6.5,2.2,9.8,3.2c2.5,0.8,5,1.6,7.6,2.3c1.7,0.4,3.4,0.8,5.1,0.8c0.3,0,0.7-1.7,1-2.7
			c0.3-0.9,0.5-1.8,0.8-2.7c0.3,0.8,0.4,1.8,1,2.2c1.7,1.4,3.5,3.1,5.5,3.7c2.6,0.7,5-0.2,4.8-3.7c0-0.2,0-0.5-0.1-0.7
			c-0.2-0.8-0.5-1.7-0.7-2.5c1.1,0.9,3.1,1.9,3,2.8c-0.5,6.8,5.1,5.5,8.6,6.6c3.5,1.1,7.2,1.7,10.9,2c1.1,0.1,2.4-1.7,3.5-2.7
			c0.2-0.2,0.5-0.4,0.7-0.7c0.2,4.3,4.5,6.2,8.8,4.9c2-0.6,4.7,1,7.1,1.2c3.2,0.3,6.4,0.5,9.6,0.2c3.8-0.3,7.6-0.9,11.4-1.6
			c0.9-0.1,1.6-1.1,2.5-1.3c3.2-0.8,4.2-1.7,0.4-3.3c-0.3-0.1-0.5-0.6-0.7-0.8c0.4-0.1,0.8-0.2,1.1-0.3c4.4,1.5,10.5-2.4,10.6-6.8
			c0.9,0.4,1.8,0.7,2.7,1.1c0.1,0.1,0.2,0.2,0.3,0.3c0.5,0.3,0.9,0.5,1.4,0.8c-0.1,1,0.2,2.4-0.3,2.8c-6.4,5.5-13.3,10.4-21.8,11.4
			c-9.6,1.2-19.4,2.5-28.5-2.7c-1.5-0.8-3.1-1.3-4.7-2c-0.2-0.1-0.5-0.2-0.7-0.3c0.5,1.1,1.1,2.2,1.6,3.3c-0.3,0-0.7,0-1.2,0.1
			c-0.8-0.4-1.6-0.8-2.4-1.2c-1.3,0.1-2.6,0.3-3.9,0.1c-3.8-0.7-7.7-1.6-11.5-2.6c-1.1-0.3-2.1-1.2-3.2-1.9
			c-0.8-0.8-1.6-1.6-2.5-2.5c-0.3-0.9-0.7-1.8-1-2.7c-0.5,0.6-1,1.2-1.4,1.9c0.1,0.6,0.2,1.3,0.3,1.9c-0.3,0.5-0.5,1.3-0.8,1.3
			c-1.9-0.2-3.9-0.5-5.8-0.8c-0.8-0.7-1.6-1.5-2.5-2.2c-0.6-0.6-1.3-1.1-1.9-1.7c0.2,0.8,0.4,1.6,0.6,2.4c0.1,0.4,0,1.2-0.1,1.2
			c-0.6,0.1-1.4,0.2-1.8-0.1c-1.5-1.2-2.9-2.5-4.4,0.1c-0.1,0.2-0.9,0.1-1.4,0c-2.1-0.8-4.2-1.6-6.3-2.4c-0.6-4.3-4.7-1.6-6.6-3.3
			C34,75.3,32.4,74.5,30.8,73.6z"/>
		<path class="st4" d="M59.8,58.6c-0.1,0-0.2,0-0.3,0c0.2-0.4,0.2-1,0.5-1c3.9-1,5.1-4.2,3.7-7.9c-0.7-1.8-0.8-4.3-0.2-6.1
			c2.3-6.5,5-12.9,7.6-19.3c1.5-3.6,4-5.1,8.1-4.6c1.5,0.2,3.4-1.1,4.7-2.2c3.8-3.1,7-7.1,11.1-9.6c3-1.8,7.1-1.7,10.5-3.1
			c1.8-0.8,3.1-2.9,4.6-4.4c2.7,0.4,5.4,0.8,8.1,1.2c-4.8,2.8-9.5,5.7-14.5,8.2c-2.1,1-4.8,0.7-6.9,1.7c-2.9,1.4-6.8,3-7.7,5.4
			c-1.6,4.1-4.2,5.2-7.7,5.9c-6.7,1.4-8.3,3.7-9.3,11.5c-0.3,2.4-1.7,4.6-2.1,7c-1,5.3-1.7,10.6-2.5,15.9c0,0.2,0.4,0.6,0.6,0.6
			c3,0.5,1,1.7,0.4,2.7c0,0-0.1-0.1-0.1-0.1c1.1-1.5,0.7-2.2-1.2-2.2c-1.9,0-3.7-0.4-5.6-0.5C60.9,58,60.3,58.4,59.8,58.6z"/>
		<path class="st5" d="M159.6,71.7c4.6,3.3,9,6.8,10.7,12.5c1.6,5.4-0.5,9.9-4,13.7c-2.7,2.9-6.1,5.3-9.5,7.4c-3,1.8-5.2,3.5-4,7.3
			c-0.6,0-1.2-0.1-1.8,0c-2.3,0.3-4.5,0.6-6.8,0.9c-0.4-0.9-1.4-2.5-1.2-2.6c1.8-1.4,3.7-3.2,5.7-3.6c6.9-1.3,17.1-14.1,15.9-20.8
			c-0.3-1.5-2.2-2.9-3.6-4c-1.5-1.1-3.2-1.9-4.9-2.8c-1.5-1-4.4-2.1-4.3-3c0.1-2.1,1.3-4.5,2.8-5.9
			C155.2,69.9,157.8,71.3,159.6,71.7z"/>
		<path class="st6" d="M30.9,49.4c-0.3,2.5-0.6,5.1-0.9,7.6c-8.1-3.2-13.4-9.3-16.7-17.1c-1.6-3.8-4.3-3.6-7.3-3.2
			c-3.7,0.4-7.9-4.7-5.5-7.2c2-2.1,6.2-2.6,9.5-2.8c1-0.1,2.3,3.4,3.2,5.4c3.2,7.5,7.4,14.2,15.3,17.7C29,50.2,30.1,49.6,30.9,49.4z
			"/>
		<path class="st7" d="M101.2,119.7c2.4,9.3,4.9,18.7,7.2,28c0.1,0.5-0.5,1.9-0.8,1.9c-5.3,0.1-10.6,0-15.9-0.1
			c-0.6,0-1.2-0.7-1.8-1.1c0.5-0.6,0.8-1.6,1.4-1.8c3.7-1,7.5-1.8,11.3-2.6c0.4-0.1,0.8-0.1,1.2-0.2c-0.1-0.4-0.1-0.7-0.2-1.1
			c-2.6-8.2-5.1-16.4-7.7-24.6C97.5,118.6,99.3,119.1,101.2,119.7z"/>
		<path class="st7" d="M79.4,124.1c0.1,6.5,0.2,13,0.2,19.6c0,0.6-1.3,1.6-2,1.6c-5.1,0-10.3-0.3-15.4-0.5c-0.4,0-1-0.8-1-0.8
			c0.6-0.8,1.2-1.6,1.8-2.4c4.2-0.6,8.3-1.2,12.5-1.9c0.3-0.1,0.9-0.6,0.8-0.9c-0.2-4.3-0.5-8.6-0.8-12.9c-0.2-2-0.5-4-0.7-6
			c-0.2-2.7-0.3-5.4-0.5-8.1c1.7,1,3.4,2,5.1,3C79.4,117.7,79.4,120.9,79.4,124.1z"/>
		<path class="st8" d="M148.9,65.5c2.7,0.6,3-0.9,3-3c0-0.7,0.6-1.5,1-2.2c1.2-2.5,3.1-4.9,3.5-7.5c0.7-5.2,0.7-10.6,0.6-15.9
			c0-1.2-1.9-2.4-2.8-3.6c2.6-0.7,3.3-3,2.1-6.1c0.7,0.9,1.5,1.8,2,2.8c0.9,1.8,1.7,3.8,2.6,5.7c0.2,3.7,1,7.6,0.3,11.1
			c-0.9,4.3,1,9.8-4.3,12.6c1,0.5,1.7,0.8,2.4,1.1c-1.6,2.6-3.3,5.2-4.9,7.8C152.6,67.3,150.8,66.4,148.9,65.5z"/>
		<path class="st9" d="M97.2,94.3c-0.7-0.9-1.5-1.8-2.2-2.7c-0.1-0.3-0.2-0.6-0.3-0.8c0.6-0.1,1.2-0.3,1.7-0.2
			c3.6,0.7,7.2,1.9,10.8,2c6.7,0,13.3-0.4,20-1.1c2.7-0.3,5.4-1.3,7.9-2.5c3.6-1.8,6.8-4.1,10.4-6c2.9-1.6,4.7-4.8,3.3-6.6
			c2.2,1.1,4.4,2.2,6.6,3.3c-5.8,3.1-11.5,6.1-17.3,9.2c-2.1,1.1-4.3,2.2-6.4,3.3c-0.8,0-1.5,0-2.3,0c-1.7,0.8-3.4,2.1-5.2,2.3
			c-2.1,0.3-4.3-0.3-6.5-0.5c-0.8-0.1-1.6-0.3-2.4-0.3c-3.2,0.2-6.4,0.5-9.6,0.8c-1.9-0.3-3.8-0.7-5.7-0.9
			C99,93.6,98.1,94.1,97.2,94.3z"/>
		<path class="st10" d="M97.2,94.3c0.9-0.2,1.8-0.7,2.7-0.6c1.9,0.1,3.8,0.6,5.7,0.9c-1.5,5.7-2.9,11.5-4.4,17.2c-2-0.4-4-0.7-6-1.1
			C95.8,105.2,96.5,99.8,97.2,94.3z"/>
		<path class="st5" d="M72.9,93.8c0-0.4,0-0.7-0.1-1.1c-0.2-1.7-0.2-3.3,2.3-3.3c1.8,0,3.6-0.1,5.3-0.2c-0.2,6.1-0.4,12.2-0.5,18.2
			c-0.2,0.5-0.3,0.9-0.5,1.4c-0.5-0.5-0.9-1.2-1.4-1.6c-1.4-1.1-2.8-2-4.2-3c-0.2-2.9-0.4-5.8-0.6-8.7C73,94.9,73,94.4,72.9,93.8z"
			/>
		<path class="st11" d="M154.4,68.2c1.6-2.6,3.3-5.2,4.9-7.8c-0.7-0.3-1.4-0.7-2.4-1.1c5.3-2.9,3.4-8.3,4.3-12.6
			c0.8-3.5-0.1-7.4-0.3-11.1c0.6,2.8,1.6,5.6,1.6,8.4c-0.2,7.6-0.7,15.2-1.3,22.8c-0.1,1.4-1,2.8-1.5,4.2c-1.7-0.8-3.5-1.6-5.2-2.5
			C154.4,68.4,154.4,68.3,154.4,68.2z"/>
		<path class="st12" d="M57.3,80.2c0.8,0.7,1.6,1.5,2.5,2.2c1,0.6,2,1.7,3,1.8c1.4,0.1,2.9-0.5,4.3-0.7c-0.3-0.5-0.5-1-0.8-1.6
			c-0.1-0.6-0.2-1.3-0.3-1.9c0.8,0.3,1.6,0.5,2.5,0.8c0.8,0.8,1.6,1.6,2.5,2.5c0.9,0.9,1.6,2.2,2.7,2.6c2.8,1.1,5.8,1.8,8.7,2.6
			c-0.6,0.2-1.2,0.3-1.9,0.5c-0.1,0-0.3,0-0.4,0c-3.9-0.6-9.6,2.1-9.7-5.4c0-0.2-1-0.5-1.5-0.5c-0.3,0-0.8,0.6-0.8,0.8
			c0.2,1.7,0.5,3.4,0.8,5.1c-0.7-0.3-1.5-0.7-2.2-1c-1.2-0.7-2.3-1.3-3.5-2c0,0,0,0,0,0c-1.1-0.4-2.2-0.7-3.3-1.1
			c-1-0.7-2-1.5-3-2.2C57.1,81.8,57.2,81,57.3,80.2z"/>
		<path class="st13" d="M154.4,68.5c1.7,0.8,3.5,1.6,5.2,2.5c0,0.3,0,0.5,0,0.8c-1.7-0.4-4.3-1.8-5.1-1.1c-1.5,1.4-2.7,3.9-2.8,5.9
			c-0.1,0.9,2.8,2,4.3,3c-0.3,0-0.5,0.1-0.8,0.1c-2.2-1.1-4.4-2.2-6.6-3.3c-0.2-0.1-0.4-0.2-0.5-0.3c-0.6-0.3-1.3-0.5-1.9-0.8
			c-0.1-0.1-0.2-0.2-0.3-0.3C145.6,72.1,151.5,67.5,154.4,68.5z"/>
		<path class="st14" d="M144.1,113.4c2.3-0.3,4.5-0.6,6.8-0.9c0.6-0.1,1.2,0,1.8,0c-0.6,1.9-0.8,4.2-2,5.6c-0.9,1-3.1,1.1-4.8,1.3
			c-0.3,0-0.9-1.3-1.1-2C144.5,116.1,144.3,114.8,144.1,113.4z"/>
		<path class="st15" d="M95.2,110.7c2,0.4,4,0.7,6,1.1c0,2.6,0,5.3,0,7.9c-1.8-0.5-3.6-1.1-5.5-1.6
			C95.5,115.6,95.4,113.1,95.2,110.7z"/>
		<path class="st16" d="M73.7,104.2c1.4,1,2.9,2,4.2,3c0.6,0.4,1,1.1,1.4,1.6c0,1.9,0,3.8,0,5.7c-1.7-1-3.4-2-5.1-3
			C74.1,109.1,73.9,106.6,73.7,104.2z"/>
		<path class="st17" d="M57.3,80.2c-0.1,0.8-0.2,1.6-0.3,2.4c-2.1,0.3-4.3,1.2-6.2,0.7c-3.1-0.8-5.9-2.4-8.8-3.7
			c2.1,0.8,4.2,1.7,6.3,2.4c0.4,0.2,1.2,0.2,1.4,0c1.5-2.6,2.9-1.2,4.4-0.1c0.4,0.3,1.2,0.1,1.8,0.1c0.1,0,0.1-0.8,0.1-1.2
			c-0.1-0.8-0.4-1.6-0.6-2.4C56,79.1,56.7,79.6,57.3,80.2z"/>
		<path class="st18" d="M69,88.8c-0.3-1.7-0.6-3.4-0.8-5.1c0-0.3,0.5-0.8,0.8-0.8c0.5,0,1.5,0.3,1.5,0.5c0.1,7.5,5.8,4.8,9.7,5.4
			c0.1,0,0.3,0,0.4,0c0,0.1-0.1,0.2-0.1,0.3c-1.8,0.1-3.6,0.2-5.3,0.2c-2.4,0-2.4,1.6-2.3,3.3C72.6,90.4,72.4,88,69,88.8z"/>
		<path class="st17" d="M82.4,88.4c-2.9-0.8-5.9-1.5-8.7-2.6c-1.1-0.4-1.8-1.7-2.7-2.6c1.1,0.6,2.1,1.6,3.2,1.9
			c3.8,1,7.6,1.8,11.5,2.6c1.2,0.2,2.6-0.1,3.9-0.1C87.1,87.8,84.7,88.1,82.4,88.4z"/>
		<path class="st19" d="M74.8,119.7c0.2,2,0.6,4,0.7,6c0.3,4.3,0.6,8.6,0.8,12.9c0,0.3-0.5,0.9-0.8,0.9c-4.2,0.7-8.3,1.3-12.5,1.9
			c3.9-0.8,7.8-1.5,11.7-2.3c0.4-0.1,1.1-0.7,1.1-1.1C75.5,131.9,75.1,125.8,74.8,119.7z"/>
		<path class="st17" d="M94.7,90.8c0.1,0.3,0.2,0.6,0.3,0.8c-1-1-2.1-2-3.1-3c0.5,0,1,0,1.2-0.1c-0.5-1.1-1-2.2-1.6-3.3
			c0.2,0.1,0.5,0.2,0.7,0.3c0.8,0.8,1.6,1.7,2.5,2.4c0.6,0.5,1.4,0.7,2.1,1c-0.6,0.2-1.3,0.4-1.9,0.8C94.7,89.9,94.7,90.4,94.7,90.8
			z"/>
		<path class="st20" d="M79.4,114.5c0-1.9,0-3.8,0-5.7c0.2-0.5,0.3-0.9,0.5-1.4c-0.2,5.6-0.3,11.1-0.5,16.7
			C79.4,120.9,79.4,117.7,79.4,114.5z"/>
		<path class="st8" d="M153.9,23.5c-1-0.3-1.9-0.5-2.9-0.8c0.2-0.3,0.5-0.5,0.7-0.8C152.4,22.5,153.1,23,153.9,23.5z"/>
		<path class="st17" d="M63.3,85.9c1.2,0.7,2.3,1.3,3.5,2C65.7,87.2,64.5,86.6,63.3,85.9z"/>
		<path class="st17" d="M60,84.8c1.1,0.4,2.2,0.7,3.3,1.1C62.2,85.5,61.1,85.2,60,84.8z"/>
		<path class="st3" d="M129.2,92.2c0.8,0,1.5,0,2.3,0C130.8,92.2,130,92.2,129.2,92.2z"/>
		<path class="st12" d="M72.9,93.8c0.1,0.5,0.1,1.1,0.2,1.6C73,94.9,73,94.4,72.9,93.8z"/>
		<path class="st21" d="M143.2,73.9c-0.1,4.4-6.3,8.3-10.6,6.8c-1.2-0.2-2.4-0.6-3.6-0.5c-2.2,0.1-4.4,0.5-6.8,1.3
			c2.4,0.2,4.7,0.4,7.1,0.6c0.4,0,0.8,0.1,1.2,0.2c-0.3,0.3-0.5,0.7-0.8,0.9c-7.7,3.4-15.6,3.4-23.8,1.7c-2.5-0.5-5.2-0.1-7.8-0.3
			c-1.5-0.1-3-0.3-4.4-0.6c-0.2,0-0.4-1.3-0.2-1.8c0.8-1.8,4.7-3.8-0.7-4.8c-0.5-0.1-0.8-1-1.9-2.5c0.6,1.7,0.8,2.5,1.2,3.1
			c0.4,0.6,1,1.1,1.6,1.7c-1.6,1.1-3.4,3.3-4.8,3.1c-6.2-0.8-12.4-2.3-18.5-3.6c-0.3-0.1-0.7-0.6-0.9-0.9c-0.7-1.7-1.4-3.5-2.1-5.3
			c4.1,5.1,10.5,3.8,15.9,5.4c2.4,0.8,5,1.2,7.5,1.6c0.5,0.1,1-0.4,1.6-0.6c-0.2-0.4-0.8-0.8-0.7-1.2c0.4-2.2,1-4.3,1.3-6.5
			c0.1-0.9-0.1-2.4-0.6-2.6c-1.6-0.7-3.4-0.9-5.1-1.3c-3-0.6-4-3-2.6-5.7c0.3-0.6-0.2-1.8-0.4-2.7c-0.5-2.1-1-4.1-1.6-6.4
			c0.6-0.1,0.2,0-0.3,0c2.1-1.7,2.9-3.7,1-5.9c-2-2.3-4.1-1.6-6.1,0.3c1.6-0.5,3.5-1.9,4.9-1.5c3.1,0.9,3.2,3.5,1.5,7.1
			c2.6-2.8,7.1-3.9,2.3-8.1c3.8,2.4,3.9,4,1.2,6.4c-4,3.4-4,4.9,0.3,7.7c0.2,0.1,0.3,0.6,0.2,0.9c-2,6.5-2,6.4,4.7,7.5
			c1.5,0.2,2.7,1.7,4.1,2.6c-0.7,1-1.5,1.9-2.1,2.9c-0.6,1-1.5,2.2-1.5,3.3c0,0.6,1.7,1.1,2.5,1.7c0.5,0.4,0.7,1,1.1,1.5
			c0.7,0.8,1.3,2.2,2,2.3c5.2,0.5,10.4,0.9,15.6,1.1c1.6,0.1,3.3-0.3,5-0.5c0.1,0,0.3-0.7,0.2-0.8c-1.8-1.7-3.3-4.3-6.5-3
			c-0.5,0.2-1.2,0-1.8-1c2.4,0.3,4.9,0.3,7.1,1c3.9,1.2,7.5,3.2,11.7,0.8c3.4-2,7.2-3.3,10.3-5.6c1.5-1.1,2-3.7,3-5.5
			c0.3-0.2,0.5-0.4,0.8-0.6l0,0C143.6,69.5,143.4,71.7,143.2,73.9z M119.2,79.7c0,0.1,0,0.3,0,0.4c0.6,0.1,1.2,0.2,1.8,0.3
			c0-0.1,0-0.2,0-0.3C120.4,79.9,119.8,79.8,119.2,79.7z"/>
		<path class="st22" d="M142.7,48.8c0.3-0.3,0.6-0.6,1.1-1.2c-0.1,0.8-0.2,1.2-0.3,1.7c0,2.1,0,4.2-0.2,6.3c0,0.4-1,1.1-1.4,1
			c-6.8-1.5-7.8,2.6-8.5,7.6c-0.2,1.4,0.2,2.8-0.1,4.1c-0.2,0.8-1.3,1.3-2,1.9c0,0-0.1,0-0.1,0c-4.9,3.1-9.3-3.6-14.3-0.9
			c-0.7,0.4-2.2-1-3.4-1.4c-1.8-0.5-3.6-0.9-5.2-1.9c2.1,0.5,4.2,1.1,6.3,1.5c1.1,0.2,2.3,0.3,3.4,0.4c2.2,0.2,4.3,0.4,6.5,0.6
			c1,0.1,2.2,0.8,3,0.5c2-0.8,5.5,0,4.8-4.3c-0.3-2,0.5-4.2,1.1-6.2c1-3.3,3.6-4.2,6.8-4c0.5,0,1.4-0.8,1.6-1.5
			C142.2,51.8,142.4,50.3,142.7,48.8z"/>
		<path class="st22" d="M97.3,27.2c0-3.1,3.8-6.3,7.1-6.1c2.6,0.2,4-0.2,4.4-3.3c0.2-1.2,3.1-1.9,4.6-3c0.8-0.5,1.9-1.3,2.1-2.1
			c1.3-4.5,5-7.4,8.9-6.8c-1.6,0.9-4,1.3-4.7,2.6c-1.5,2.7-2.1,5.9-3,8.9c-0.1,0.3-0.1,0.6-0.1,1c-0.4-0.2-0.8-0.3-1.2-0.5
			c-1.4-0.5-2.8-0.9-4.2-1.3c-0.5,1.7-0.9,3.4-1.4,5.1c-0.1,0.5-0.6,1.4-0.8,1.3C104.5,22.1,100.3,22.2,97.3,27.2z"/>
		<path class="st23" d="M77.2,47.3c2-1.8,4.1-2.5,6.1-0.3c1.9,2.2,1.1,4.2-1,5.9c-1.5-0.3-3.6,0-4.4-0.9
			C77.1,50.9,77.4,48.9,77.2,47.3z"/>
		<path class="st21" d="M145.1,65.5c0.4,0,0.7,0,1.1,0c-0.8,0.6-1.6,1.3-2.5,1.9c0,0,0,0,0,0c0.4-0.5,0.7-1.1,1.1-1.6
			C144.9,65.6,145,65.5,145.1,65.5z"/>
		<path class="st2" d="M144.8,65.7c-0.4,0.5-0.7,1.1-1.1,1.6c-0.3,0.2-0.5,0.4-0.8,0.5C143.6,67.2,144.2,66.5,144.8,65.7z"/>
		<path class="st24" d="M63.2,46.4c-2.5,1.9-4,3.8-5.4,3.7c-1.2,0-3.3-2.3-3.3-3.5c0.1-1.4,1.9-3.4,3.3-3.7
			C59,42.6,60.6,44.6,63.2,46.4z"/>
		<path class="st0" d="M50.8,74.4c-2.5-1-5.2-2.2-7.9-3.2c-1-0.4-2.3-0.3-3-0.9c-1-0.7-1.6-2-2.4-3c1.4-0.8,2.8-1.6,4.2-2.5
			c0.8-0.5,1.7-1.1,2.3-1.8c0.5-0.5,0.5-1.4,0.9-2c0.7-0.9,1.5-1.6,2.3-2.3c0.5,1.4,1.9,3.3,1.5,4.1c-2.6,4.5,0.2,6.5,3.3,8.7
			c0.6,0.4,0.9,1.3,1.4,1.9C52.7,73.6,52,73.9,50.8,74.4z"/>
		<path class="st25" d="M59.8,58.6c0.5-0.2,1.1-0.6,1.6-0.6c1.9,0.1,3.7,0.5,5.6,0.5c1.9,0,2.3,0.7,1.2,2.2
			C64.8,64,62.4,63.3,59.8,58.6z"/>
		<path class="st26" d="M143.8,67.4c0.8-0.6,1.6-1.3,2.5-1.9c0.9,0,1.8,0,2.7,0c1.8,0.9,3.6,1.8,5.5,2.7c0,0.1,0,0.2,0,0.3
			c-2.9-0.9-8.8,3.6-8.5,6.5c-0.9-0.4-1.8-0.7-2.7-1.1C143.4,71.7,143.6,69.5,143.8,67.4z"/>
		<path class="st12" d="M94.7,90.8c0.1-0.4,0-0.9,0.2-1c0.6-0.3,1.2-0.5,1.9-0.8c-0.7-0.3-1.5-0.5-2.1-1c-0.9-0.7-1.7-1.6-2.5-2.4
			c1.6,0.6,3.3,1.1,4.7,2c9.1,5.2,18.9,3.9,28.5,2.7c8.6-1,15.4-5.9,21.8-11.4c0.5-0.5,0.2-1.8,0.3-2.8c0.2,0,0.4,0,0.6,0
			c0.2,0.1,0.4,0.2,0.5,0.3c1.4,1.8-0.4,5-3.3,6.6c-3.5,1.9-6.8,4.3-10.4,6c-2.4,1.2-5.2,2.3-7.9,2.5c-6.6,0.7-13.3,1.1-20,1.1
			c-3.6,0-7.2-1.3-10.8-2C95.8,90.5,95.2,90.7,94.7,90.8z"/>
		<path class="st17" d="M66.3,81.8c0.3,0.5,0.5,1,0.8,1.6c-1.4,0.3-2.9,0.9-4.3,0.7c-1.1-0.1-2-1.1-3-1.8c1.9,0.3,3.8,0.6,5.8,0.8
			C65.8,83.1,66,82.3,66.3,81.8z"/>
		<path class="st17" d="M68.5,80.7c-0.8-0.3-1.6-0.5-2.5-0.8c0.5-0.6,1-1.2,1.4-1.9C67.8,78.9,68.1,79.8,68.5,80.7z"/>
		<path class="st9" d="M148.1,76.1c-0.2,0-0.4,0-0.6,0c-0.5-0.3-0.9-0.5-1.4-0.8C146.9,75.5,147.5,75.8,148.1,76.1z"/>
		<path class="st1" d="M119.2,79.7c0.6,0.1,1.2,0.2,1.8,0.3c0,0.1,0,0.2,0,0.3c-0.6-0.1-1.2-0.2-1.8-0.3
			C119.1,79.9,119.1,79.8,119.2,79.7z"/>
	</g>
</g>
</svg>
