<?xml version="1.0" encoding="utf-8"?>
<!-- Generator: Adobe Illustrator 24.0.1, SVG Export Plug-In . SVG Version: 6.00 Build 0)  -->
<svg version="1.1" id="图层_1" xmlns="http://www.w3.org/2000/svg" xmlns:xlink="http://www.w3.org/1999/xlink" x="0px" y="0px"
	 viewBox="0 0 216.8 238.1" style="enable-background:new 0 0 216.8 238.1;" xml:space="preserve">
<style type="text/css">
	.st0{fill:#DB9FAF;}
	.st1{fill:#8F5361;}
	.st2{fill:#BA7B8E;}
	.st3{fill:#AF6F84;}
	.st4{fill:#C38396;}
	.st5{fill:#B39DA5;}
	.st6{fill:#976975;}
	.st7{fill:#97818B;}
	.st8{fill:#A36172;}
	.st9{fill:#C88A9B;}
	.st10{fill:#0F0406;}
	.st11{fill:#280F13;}
	.st12{fill:#4D2730;}
	.st13{fill:#040002;}
</style>
<g>
	<g>
		<path class="st0" d="M158.7,54.2c0.1,0.1,0.2,0.2,0.3,0.3c0.1,0.1,0.2,0.2,0.3,0.2c0,0,0,0,0,0c0,0.4-0.2,1,0.6,1.1c0,0,0,0,0,0
			c0.4,1.7,0,3.6,1.1,5.2c-3.5-0.1-4.5,2.4-5.2,5.2c-0.3,1.4-0.9,2.8-2.3,3.3c-3.4,1.3-4.7,3.8-4.5,7.2c0.1,2.6-1.1,3.7-3.6,3.6
			c-2.3,0-3.7,0.8-4.2,3.5c-0.4,1.9-2.8,3.8-4.8,4c-3.2,0.2-4.4-2.5-3.7-6.7c0.5-2.9,2.8-6.1-1.3-8.4c-0.2-0.1-0.1-0.6-0.1-0.9
			c0-2.7,1.2-4.8,3.2-6.3c3.4-2.6,6.9-4.9,8.8-8.9c0.4-0.8,1.2-1.3,2.2-0.7c0.9,0.5,0.7,1.3,0.4,2.1c-0.1,0.4,0,0.9-0.1,1.3
			c0.4-0.2,0.7-0.4,1.1-0.6c1.1-0.7,2.1-1.4,3.2-0.1c0.3,0.3,0.5,1.4,1.1,0.9c0.6-0.5,0.1-1.4-0.6-1.8c-1.6-1-3.9-1-4.9-3.2
			c-0.2-0.4-1.8-0.5-2.3,0.4c-2.8,4.3-7,7.3-10.9,10.5c-2.4,2-4.2,5.7-2,8.4c2,2.4,1.4,4.1,0.9,6.5c-0.8,3.2-1,6.3,2.3,8.6
			c2.6,1.7,4.5,1.3,6-1.4c0.1-0.2,0.6-0.2,0.9-0.3c1.6-0.5,2.7-1.2,2.4-3.1c-0.2-1.3,0.3-1.7,1.7-1.7c3.1,0,5.4-1,5.8-4.7
			c0.2-1.9-0.6-4.6,1.7-5.5c3.5-1.4,4.7-4,5.4-7.3c0.3-1.2,1.6-1.6,2.8-1.8c0.8-0.1,1.2,0.6,1.2,1.1c0,3.2,0.2,6.5-0.3,9.6
			c-0.4,2.4-1.6,4.7-1.6,7.2c0,1.7,0.1,3.9-2,4.2c-4.5,0.7-4.8,4-5,7.4c-0.1,1.4-0.5,1.5-1.8,1.3c-2.4-0.2-4.7,0.1-6,2.7
			c-1.1,2.2-1.7,4.5-1.9,7c-0.1,1.3,0.6,3.7-0.9,3.9c-2.8,0.4-5.4,0.7-8.6-0.2c-4-1.1-8.6-0.6-12.9-1.7c-0.4-0.1-1.8-0.2-1.7,0.7
			c0.1,0.7,1.2-0.1,1.8,0c0.8,0.1,1.7,0.2,2.5,0.4c2.1,0.5,3.7,3.3,6.4,1.6c2.1-1.3,3.9-0.3,5.4,1.3c1,0.9,2,1.7,3.4,0.8
			c1.2-0.9,2.5-1.2,4-0.7c2,0.7,2.3-0.2,2.2-1.9c-0.1-1.2-0.1-2.5,0-3.7c0.4-6.4,2-8.1,8.2-7.9c2,0.1,1.8-1,1.7-2.2
			c-0.3-3.3-0.8-6.6,4-7.3c1.3-0.2,2.2-1.1,2.3-2.8c0.1-2.2,0.5-4.5,0.9-6.7c0.1-0.7,0.7-1.1,1.5-1.2c0.2,0,0.5,0.3,0.5,0.3
			c-1.1,1.7-0.1,3.3,0,5c0.1,2.9,0.1,6-0.8,8.7c-1.5,4.7,1.3,11.1-5.2,14c-0.2,0.1-0.1,0.6-0.2,0.9c-0.4,0.2-0.9,0.4-1.3,0.6
			c-1.5,1-2.4,2.4-2.5,4.3c-1.1,0.8-0.4,2.7-2,3.2c-3.7,1.4-5.8,5.8-10.5,5.5c-0.4,0-0.7,0.7-1.1,1.1c-0.2,0-0.4,0-0.5,0
			c-0.6,0.3-1.3,0.5-1.9,0.8c-0.2,0-0.4,0-0.5,0c-0.7-1.4-2.2-1.1-3.2-1.2c-2.6-0.2-4.3-2.6-6.7-2.7c-2-0.1-4,0.4-6,0.7
			c-0.4,0.1-0.8,0.2-1.2,0.2c0.4,0.1,0.9,0.2,1.3,0.3c2.8,0.5,6.3-1.5,8.4,2.1c0.2,0.4,0.4,0.7,0.7,1.1c-0.4,0.2-0.8,0.6-1.2,0.7
			c-2.4,0.1-4.7,0.1-7.1,0c-4.4-0.2-8.9-0.5-13.3-0.8c-1.1-0.1-1.4-0.8-1-1.7c0.5-1.2,0-1.6-1-1.8c-0.4-0.1-0.7-0.2-1.1-0.3
			c-2.9-1.7-1-3.2,0.2-4.7c0.8-1,2.6-1.6,2.1-2.9c-0.6-1.6-2.1-2.4-3.9-2.8c-7.5-1.6-7.9-2.2-5.1-6.9c1-1.6,0.3-1.7-1-1.8
			c-2.2-0.2-2.7-1.9-2-3.5c0.7-1.6,1.5-3.3,3.4-4.2c2.3-1,2.3-2.4,0.4-4.1c-0.8-0.7-1.4-1.8-2-2.7c-0.4-0.5,0.3-1.9-0.6-1.6
			c-0.8,0.3-0.2,1.5,0.1,2.3c0.1,0.4,0.6,0.7,0.6,1c0.1,1.4,3.4,2.2,0.6,4c-0.9,0.6-1.7,1.2-2.5,1.8c0.1-0.5,0.2-1,0.2-1.5
			c0.5-2.9-1.2-5-3.5-4.6c-0.5,0-1.1,0-1.6,0c-1.8-0.8-2.3,0.9-3.1,1.7c-1,1.1-1.1,2.6-0.3,3.9c1.7,2.8,4.2,2.8,7,2
			c-0.2,1.3-1.2,2.7-0.4,3.9c1.4,2.1,2.3,3.8,1.4,6.7c-1.2,3.8,2.8,3.6,5.2,4.3c1.5,0.4,3.6,0.3,4.4,1.7c0.6,1-1.3,1.9-1.9,2.9
			c-1.1,1.8-1.5,3.7,0.2,5.5c0.3,0.3,0.4,0.7,0.6,1c-0.4,0.2-0.8,0.5-1.3,0.6c-2.9,0.8-5.4-0.9-8-1.4c-4.8-0.9-9.8-1.2-14.3-3.2
			c-3.2-3-2.4-6.9-2.5-10.6c-0.1-0.4-0.2-0.7-0.3-1.1c0-0.4-0.1-0.8-0.6-0.8c0.3-0.2,0.7-0.5,1-0.7c0.1,0,0.1,0,0.1-0.1
			c0.2-0.2,0.4-0.3,0.6-0.5c0.2-0.2,0.3-0.3,0.5-0.5c0.6,0.3,0.5-0.2,0.5-0.5c0-0.6,1.3-1.1,0.3-1.8c-0.2-0.6-0.5-0.6-0.9-0.1
			c-0.3,0-0.5-0.1-0.8-0.1c0.1-0.4,0.2-0.8,0.2-1.2c-0.6-4.4,0.4-8.7,1.3-12.9c0.5-2.6,3-4.6,3.2-7.5c0.5-8,3.1-14.1,12.6-14.4
			c1.7-0.1,3.7-1.2,4-3.5c0.4-3.3,2.6-5,5.3-6.3c3.3-1.6,7.2-0.4,10.5-2.5c2.7-1.7,5.1-3.7,7.6-5.7c1.9-1.5,4.8-0.2,6.4-2.4
			c0.2,0,0.4,0,0.6,0c0.1,0,0.2,0,0.3,0.1c0.4,0.2,0.7,0.3,1.1,0.5c0.1,0,0.2,0,0.3,0.1c2.3,1.3,4.9,0.6,7.4,1c0.1,0,0.2,0,0.2,0
			c1,1.5,2.6,1.8,4.3,1.8c2.3,0.1,3.8,1.3,4.7,3.3c0,0.1,0,0.2,0,0.3c0,0.1,0.1,0.1,0.1,0.2c0.2,0.2,0.5,0.4,0.7,0.7
			c0.4,1.1,1.4,0.7,2.2,0.8c0,0,0,0,0,0c1.1,1.2,2.3,2.3,3.8,3c0,0,0,0,0,0C155.6,54.9,157.3,54,158.7,54.2z M116.6,60.5
			c-4.2-0.1-6.8,1.7-8.6,5c-0.2,0.4,0,0.9-0.1,1.4c0.2-0.1,0.5-0.1,0.5-0.2c2.2-5,6.3-5.1,10.8-4.2c1.7,0.4,1.9-0.1,1.5-1.6
			c-0.5-1.8-0.1-3.7,1.4-4.8c1.5-1,2.9,0.2,4.1,1.3c0.3,0.3,0.9,0.3,1.3,0.5c0.1-0.3,0.3-0.7,0.3-1c-0.9-7.3,3.3-11.6,9.6-10.6
			c0.3,0,0.7-0.2,1-0.4c-0.3-0.2-0.5-0.6-0.8-0.7c-5.7-1.4-9.8,1.5-11.1,7.1c-0.2,0.8,0.1,2.6-1.9,2c-3.1-0.9-4.7,0.4-5.1,3.4
			C119.2,59.8,118.8,61.2,116.6,60.5z M126,97.1c0-2.5-0.9-4.2-3-4.7c-2.1-0.6-3.8-1.2-4.2-3.7c-0.1-0.9-1.4-1.3-2.4-1.5
			c-1.2-0.2-1.7-0.8-1.7-2.1c-0.2-5-4.5-8.1-8.8-6.4c-0.5,0.2-1.2,0.1-1.2,0.9c0.5,0,1,0.1,1.5,0c2-0.4,3.7-0.1,5.1,1.4
			c1.5,1.8,2.5,3.7,1.9,6.2c-0.1,0.5-0.3,1.2-0.1,1.6c0.3,0.6,1,0.2,1.6,0.2c1.2-0.1,2.3,0.2,3,1.2c0.5,0.8-0.2,1.4-0.8,1.9
			c-0.5,0.4-1.5,0.7-1,1.5c0.3,0.5,1.2,0.2,1.9-0.1c2.7-1.1,6.7,0.9,7.3,3.7c0.1,0.5,0.4,0.9,0.6,1.3C125.8,97.9,126,97.3,126,97.1z
			"/>
		<path class="st0" d="M49.9,70.2c0-0.1,0-0.2,0-0.2c1.1-1.3,2.1-2.6,2.1-4.4c0,0,0,0,0,0c1-0.2,1.5-0.9,1.4-1.9c0,0,0,0,0,0
			c0.6,0.1,0.9-0.2,0.8-0.8c0,0,0,0,0,0c0.1-0.1,0.2-0.2,0.3-0.3c0,0,0,0,0,0c0.1-0.1,0.2-0.2,0.3-0.3c0,0,0,0,0,0
			c0.1-0.1,0.2-0.2,0.3-0.3c0.1-0.1,0.2-0.2,0.2-0.2c1.7-0.9,3.5-1.5,4.7-3c0,0,0,0,0,0c1.1,0.1,1.9-0.2,2.2-1.4c0,0,0,0,0,0
			c0.1-0.1,0.2-0.2,0.3-0.3c0,0,0,0,0,0c1.8-1.8,3.6-3.6,5.5-5.5c0,0,0,0,0,0c1-0.3,1.3-1.1,1.7-1.9c0,0,0,0,0,0
			c2.1-0.1,4.3,0.4,5.7-1.6c0,0,0,0,0,0c2.5-1.2,4.9-2.5,7.5-3.7c2.7-1.2,5.3-3.5,8.7-1.8c-0.1,0.2-0.2,0.5-0.4,0.5
			c-4.8,0.6-8.2,3.1-10.1,7.7c-0.8,1.9-2.1,2.6-4.4,2.3c-3-0.5-4.8,1.4-6,4.2c-0.8,1.9-0.8,4.9-4,5c-4.5,0.2-6.5,2.2-5.6,6.5
			c0.5,2.6-0.4,4-2.6,5c-3.2,1.5-4.9,3.9-4.4,7.5c0,0.3,0.3,0.6,0.4,0.9c0.1-0.3,0.2-0.6,0.3-0.8c0.5-2.6,1.1-5,4-6.1
			c3.3-1.2,4.8-3.5,3.9-7.1c-0.7-2.7,0.9-4.2,3.2-4.1c4.5,0.1,5.8-2.9,6.8-6.2c0.7-2.5,2.5-3.2,4.5-2.8c3.5,0.7,5-1.5,5.8-4
			c1.9-5.4,9-8.4,14-5.6c0.4,0.2,1.2,0.2,1.4,0c1.3-1.4,2.4-2.9,3.6-4.4c3,0,5.7-2,8.7-1.1c2.3,0.7,4.6,1.6,6.9,0.4
			c1.2-0.6,2.1-0.5,3.2,0.1c-1.2,1.8-2.6,3.3-4.8,4.1c-3.4,1.2-6.5,2.5-10.4,2.7c-4.1,0.2-6.1,4.6-8.8,7.5c-2,2.2-3.5,5-7.5,4.3
			c-4.4-0.9-6.4,2.1-7.6,5.9c-1.7,5.5-3.8,10.9-6.5,16c-1.3,2.5-2.2,5.2-0.7,7.8c1.5,2.5,1,4.4-0.4,6.5c-0.4,0.6-0.7,1.2-1,1.8
			c-0.7,0.2-1.9-0.5-2.1,0.4c-0.2,0.6,0.6,1.4,1,2.2c0,0.1,0,0.1,0.1,0.2c0.2,0.2,0.3,0.4,0.5,0.6c0.2,0.2,0.3,0.4,0.5,0.5
			c0,0.1,0.1,0.3,0.1,0.4c-0.3,0.5-0.5,1-0.1,1.5c1.4,1.8,1.9,4,2.2,6.2c0,0.9,0,1.8,0,2.7c0.1,0.7,0.2,1.4,0.2,2.2
			c-2.7,1.8-5.4,0.4-8.2,0c0.1-1.6-0.6-2.9-1.9-3.8c-0.3-0.3-0.6-0.6-1-0.8c-2.9-1.4-5.1-3.1-2.8-6.7c0.7-1.1,0.2-2.3-0.3-3.4
			c-1.8-3.7-3.2-4.1-5.3-1.6c-1.1,1.4-2,2.9-2.1,4.7c0,1-0.6,1-1.4,0.9c-2.7-0.6-4.8,0.6-5.3,3.2c-0.6,3.3-2.5,1.7-3.9,1.4
			c-0.9-0.2-1.7-1.1-2.5-1.7c-0.1-0.5-0.2-0.9-0.3-1.4c-0.1-0.2-0.2-0.4-0.3-0.5c-0.1-0.8-0.2-1.6-0.3-2.4c0.3-1.6,0.6-3.1,0.8-4.7
			c0,0,0,0,0,0c0.7-0.2,1.4-0.5,1.7-1.3c1.2-1.9,1-3.7-0.3-5.5c1.1-5,3.4-9.8,3.5-15c0.1-0.2,0.2-0.4,0.3-0.5c0,0,0-0.1,0-0.1
			c0.1-0.1,0.2-0.3,0.3-0.4c0.1-0.1,0.1-0.2,0.2-0.3c0,0,0,0,0,0c1.4-0.4,3-0.4,3-2.5c0,0,0,0,0,0C50.2,71.4,49.8,70.7,49.9,70.2z
			 M72.4,85.9c-0.2-2.2-1.1-3.9-3.5-3.9c-2.4,0-3.6,1.6-3.7,3.9c0,2.2,1.1,3.8,3.5,3.8C71.1,89.8,72.1,88.2,72.4,85.9z"/>
		<path class="st1" d="M155.1,148.4c0.1-0.2,0.3-0.5,0.4-0.7c0.2-0.2,0.4-0.3,0.6-0.5c0.2-0.1,0.5-0.3,0.7-0.4c2.4-1,4.9-1.6,7-3
			c3.7-2.5,7.2-5.5,9.8-9.3c1.9-2.7,4.1-5.3,2-9c-1.7-3.4-5.3-4.6-8.1-6.6c-0.6-0.1-1.3-0.2-1.9-0.2c-0.1-0.2-0.2-0.4-0.3-0.6
			c-0.3-0.2-0.6-0.3-0.8-0.5c-0.2,0-0.4,0-0.5,0c-2.9-2,0.2-3.7,0.5-5.5c0.2-1.6,1.8-2.7,3.6-2.7c0.6,0.2,1.3,0.4,1.9,0.6
			c0.2,1.1,0.4,2.3,1.9,2.1c0,0,0,0,0,0c0.1,0.1,0.2,0.2,0.3,0.3c0.1,0,0.1,0,0.2,0.1c0.1,0.1,0.2,0.2,0.3,0.2
			c0.1,0,0.1,0.1,0.1,0.1c0.2,0.1,0.3,0.3,0.5,0.4c0,0,0,0,0,0c0.4,1.2,1.3,1.7,2.5,1.9c0,0,0,0,0,0c0.1,0.1,0.2,0.2,0.3,0.3
			c0,0,0,0,0,0c0.1,0.1,0.2,0.2,0.3,0.3l0,0c0,0.6,0.1,1,0.8,1.1c0,0,0,0,0,0c0.1,0.1,0.2,0.2,0.3,0.3c0,0,0,0,0,0
			c0.1,0.7,0.2,1.3,1.1,1.4c0,0,0,0,0,0c0.2,0.2,0.3,0.4,0.5,0.6c0,0.1,0.1,0.1,0.1,0.2c0.1,0.1,0.2,0.2,0.2,0.4
			c0,0,0.1,0.1,0.1,0.2c0,0.8,0.3,1.4,1.1,1.7c0,0,0,0,0,0c0.4,2.8,1.6,5.6,0.4,8.4c-2.2,5.3-6.6,8.6-11,12c-1.9,1.5-5.2,1.6-5.5,5
			c0.2,0.7,0.3,1.4,0.5,2.2c-2.2-0.5-3.9,2-6,1c-1.2-0.5-2.1-0.5-3,0.4c-0.1,0-0.1,0-0.2-0.1C155.4,149.7,155.2,149,155.1,148.4z"/>
		<path class="st2" d="M42,90.4c1.3,1.8,1.4,3.6,0.3,5.5c-2.4,0.1-4.2-1.6-6.3-2.5c-0.1-0.2-0.2-0.3-0.3-0.5
			c-0.4-0.2-0.8-0.4-1.2-0.6c-0.4-0.4-0.8-0.8-1.2-1.1c-0.1-0.3-0.1-0.8-0.4-1c-4.1-3.9-6.3-8.9-8.6-13.9c-0.2-0.3-0.9-0.5-1.4-0.5
			c-1.7,0-3.3,0.3-5,0.2c-3.3-0.2-5.1-1.9-5-5.3c0-1.3,0.7-2.2,2.3-1.8c1.2,0.3,2.6,0.6,3.4-0.7c1.6-2.5,3.1-1.9,4.2,0.3
			c2.5,4.8,4.2,10.1,7.9,14.3C33.9,86.2,36.9,89.7,42,90.4z"/>
		<path class="st3" d="M163.9,117.7c0.2,0,0.4,0,0.5,0c0.3,0.2,0.6,0.3,0.8,0.5c0.1,0.2,0.2,0.4,0.3,0.6c-0.5,0.4-0.9,0.8-1.4,1
			c-4.7,2.6-9.4,5.1-14.2,7.7c0,0,0,0,0,0c-0.2,0.1-0.4,0.2-0.6,0.3c0,0,0,0,0,0c-0.5,0.1-1.2,0-1.5,0.3c-2.3,1.9-4.8,3.2-7.9,3.3
			c-2.3,0.1-4.2,1.3-5.9,2.9l-0.1,0c0,0-0.1,0-0.1,0c-1.5-0.1-3-0.2-4.5-0.3c-0.2-0.1-0.3-0.2-0.5-0.3c0-1-0.6-1.2-1.3-1
			c-2.6,0.6-5.3,1.2-7.9,1.8c-0.2,0-0.4,0-0.5,0c-0.7-1.4-1.8-1.3-3-0.8c-2.8,0.5-5.3-1.5-8.1-0.8c-1.4-1.4-2.8-2.7-4.2-4.1
			c1.2-0.3,3.2,0.7,3.5-0.5c0.2-0.8-2-0.7-3.1-1.2c-0.2-0.1-0.3-0.1-0.5-0.2c-0.9-0.6-2.2-1-1-2.4c0.2,0,0.4,0,0.5,0
			c0.3,0.4,0.5,0.7,0.8,1.1c0.2,0.2,0.4,0.4,0.6,0.5c1.5,0.4,3.1,0.7,4.6,1.1c1.4,0.5-0.9,2.2,0.9,2.7c7.1,1.9,14.4,1.4,21.5,1.1
			c5.1-0.2,10.3-1.2,15-4.2c3-1.9,6.3-3.5,9.1-5.7c1.6-1.2,4.7-2.1,3.6-5.4c0.1,0,0.2,0,0.3,0C161.2,116.4,162.5,117,163.9,117.7z"
			/>
		<path class="st2" d="M119.8,183.6c0.1,0.1,0.2,0.2,0.3,0.2c0.1,0.1,0.2,0.2,0.3,0.3c0,0,0,0,0,0c0.7,1.9,0,2.9-1.9,3.4
			c-4.3,1.1-8.3,3-12.7,3.5c-0.6,0.1-1.4,0.6-1.8-0.2c-0.4-0.8,0.4-1.3,0.8-1.8c2.5-3.2,6.2-4.5,9.7-6.1c0.1,0,0.2-0.1,0.3-0.1
			c0.3,0.1,0.9,0.3,0.7-0.3c-0.5-1.3-1.3-2.4-2-3.6c-3.4-6.4-5.9-13.1-6.5-20.4c1.8,0.7,3.6,1.5,5.4,2.2c0.5,5.4,2,10.6,3.5,15.8
			c0.3,2.2,0.8,4.3,2.2,6c0,0,0,0,0,0c0.1,0.1,0.2,0.2,0.3,0.3c0.4,0.1,0.7,0.3,1.1,0.4C119.4,183.3,119.6,183.5,119.8,183.6z"/>
		<path class="st2" d="M85.6,158c-0.2-2.4-0.3-4.7-0.5-7.1c0,0,0.1,0,0.1,0l0.1,0c1.1,2.1,3.2,1.2,4.9,1.7c-0.3,9-0.6,17.9-0.9,26.8
			c0,0.6,0.1,0.8,0.7,0.9c0.7,1.2,0.4,2-1,2.3c-4.3,1-8.6,2-12.9,2.9c-1,0.2-2.3,0.8-2.8-0.3c-0.6-1.1,0.8-1.7,1.6-2.4
			c3.4-3,7.6-4.1,11.9-4.8c1.3-0.9,0.2-2.1,0.2-3.1C87.1,169.3,86.5,163.6,85.6,158z"/>
		<path class="st1" d="M108.1,132.9c2.8-0.7,5.4,1.2,8.1,0.8c0,0.2,0,0.4,0,0.6c-1.7,5.3-3.2,10.6-4.1,16c-0.2-0.5,0.4-1.5-0.5-1.6
			c-1.8-0.3-3.6-0.3-5.4-0.5C106.1,143.1,107.4,138.1,108.1,132.9z"/>
		<path class="st2" d="M172.9,76.3c0,0,0.1,0.1,0.1,0.2l0,0.1c-0.1,0.1-0.3,0.2-0.4,0.3c0.1,0.1,0.2,0.2,0.4,0.3l0.1,0.1
			c0.1,0.2,0.2,0.3,0.2,0.5c0,0.3,0,0.5,0,0.8c-0.3,0.4-0.3,0.7,0,1.1c0,0.3,0,0.5,0,0.8c-0.8,2.1-0.1,4.2,0,6.2c0,0.6,0,1.1,0,1.7
			c-1,0.3-0.7,1.2-0.8,1.9c-0.4,2.7,0.2,6-3.2,7.5c-0.2,0.1-0.3,0.5-0.5,0.8c0.3,0,0.7,0.1,1-0.1c1-0.5,1.6,0,1.3,0.9
			c-0.9,3.2-1.3,6.8-4.1,9.2c-0.4-0.1-0.7-0.2-1.1-0.3c-0.2-0.1-0.4-0.2-0.6-0.3c-0.3,0-0.5,0-0.8,0c-0.1-0.4-0.2-0.7-0.3-1.1
			c1.1,0.5,1.9,0.1,2.2-1.1c0.4-1.3,1-2.6,1.5-3.9c0.3-0.6,0.8-1.5,0.1-1.8c-0.6-0.3-1.6-0.1-2.4,0.1c-0.6,0.2-1.6,1-1.5,1.1
			c0.9,1.9,0.1,3.4-0.7,5c-0.5-0.3-1.4,0-1.6-0.8c0.2-0.2,0.4-0.4,0.6-0.5l0,0c2.1-1.1,0.6-2.9,0.8-4.4c0.1-0.1,0.2-0.2,0.3-0.3
			c0.5-0.3,0.9-0.5,1.4-0.8c0.1-0.1,0.2-0.2,0.3-0.3c2.3,0.2,3.1-1.7,3.4-3.1c2-7.5,1-15.1,1.2-22.7c0.6,0.5,1.3,0.9,1.9,1.4
			c0,0,0,0,0,0c0.1,0.1,0.2,0.2,0.3,0.3c0,0,0,0,0,0c0.2,0.3,0.4,0.5,0.6,0.8c0,0,0,0,0,0c0.1,0.1,0.2,0.2,0.3,0.3c0,0,0,0,0,0
			C172.7,76.1,172.8,76.2,172.9,76.3z"/>
		<path class="st1" d="M91.4,128.3c-0.2,5.5-0.4,11.1-0.6,16.6c-0.1,0-0.2,0-0.2,0.1c-3.7-0.9-6.7-2.3-6.3-7c0.2-2.1,0-4.2-0.3-6.2
			c-0.6-3.2,1.7-2.7,3.4-2.8c1.2-0.1,2.5,0.6,3.5-0.6C91,128.3,91.2,128.3,91.4,128.3z"/>
		<path class="st4" d="M169.6,73.3c-0.2,7.6,0.8,15.3-1.2,22.7c-0.4,1.5-1.2,3.3-3.4,3.1c0.4-0.8,0.8-1.6,1.1-2.4
			c1.6-6.3,0.8-12.7,1.5-19.1c0.4-3.6-1.7-5-4.1-3.7c-0.3,0.2-0.7,0.2-1.1,0.3c0.2-0.3,0.4-0.7,0.7-0.8c2.6-1.2,4.9-2.6,4.3-6.1
			c0.5,0.4,0.9,0.7,1.4,1.1c0,0.1,0,0.1,0,0.2C168.4,70.3,169.4,71.7,169.6,73.3z"/>
		<path class="st5" d="M42,90.4c-5.1-0.7-8.1-4.3-11.3-7.8c-3.8-4.2-5.4-9.5-7.9-14.3c-1.1-2.2-2.6-2.7-4.2-0.3
			c-0.9,1.3-2.2,1-3.4,0.7c-1.6-0.4-2.3,0.5-2.3,1.8c-0.1,3.4,1.7,5.2,5,5.3c1.7,0.1,3.3-0.2,5-0.2c0.5,0,1.3,0.2,1.4,0.5
			c2.4,5,4.6,10,8.6,13.9c0.2,0.2,0.2,0.7,0.4,1c-3.5-2.7-5.9-6.4-7.5-10.4c-1.4-3.5-3.5-4.6-7.3-4.2c-4.1,0.5-6.7-2.6-6.4-6.7
			c0.1-1.2,0.6-1.9,2-1.8c1.9,0.2,3.6,0,5.2-1.6c1.6-1.6,3.1-0.6,4.1,1c2.5,3.9,3.2,8.7,6.1,12.4c2.8,3.5,5.6,6.9,9.5,9.2
			c1.7,1,2.6,0.6,3.2-1.5c1-4.1,2.3-8.2,3.4-12.3C45.4,80.7,43.1,85.4,42,90.4z"/>
		<path class="st3" d="M166.9,108.4c2.8-2.4,3.1-6,4.1-9.2c0.3-0.9-0.3-1.4-1.3-0.9c-0.3,0.1-0.6,0.1-1,0.1c0.2-0.3,0.2-0.7,0.5-0.8
			c3.4-1.5,2.8-4.7,3.2-7.5c0.1-0.7-0.2-1.6,0.8-1.9c0,0.2,0,0.4,0,0.6c0,0.3,0,0.6,0,0.9c0,0.3-0.1,0.7-0.1,1
			c0,3.2,0.1,6.4,0.1,9.7c0,0.4-0.1,0.8-0.1,1.2c-1.2,0.8-0.6,2-0.8,3.1c0,0.1,0,0.1,0,0.2c-0.8,1.7-1.6,3.5-2.4,5.2
			c-0.6-0.2-1.3-0.4-1.9-0.6C167.6,109.1,167.3,108.8,166.9,108.4z"/>
		<path class="st3" d="M80.7,128.3c-4-1.3-8-2.7-11.2-5.5c-0.5-0.5-1-0.7-1.6-0.7c0.4-0.8-2-2.1,0.5-2.4c0.4,0.3,0.7,0.5,1.1,0.8
			c1.6,3.4,4.3,3.8,7.6,3.1c1.4-0.3,1.4-0.9,0.9-1.7c-0.6-0.9-1.8-1.6-0.8-2.6c0.9-1,1.2,0.9,2.1,0.8c0.2,0.1,0.4,0.2,0.5,0.3l0,0
			c0.1,0.2,0.2,0.4,0.3,0.5c0.5,0.6,0.9,1.3,1.4,1.9c-1.2-0.5-2.1,0.2-2.4,1.2C78.6,125.6,79.9,126.9,80.7,128.3z"/>
		<path class="st3" d="M112.1,160.7c-1.8-0.7-3.6-1.5-5.4-2.2c-0.3-2.8-1.1-5.6-0.6-8.5c0.4,4,4.2,1.9,6,3.3
			C112.1,155.8,112.1,158.3,112.1,160.7z"/>
		<path class="st6" d="M90.8,128.3c-1,1.3-2.3,0.6-3.5,0.6c-1.7,0.1-4-0.4-3.4,2.8c0.4,2,0.5,4.2,0.3,6.2c-0.4,4.7,2.6,6.1,6.3,7
			c-0.1,1-0.2,2-0.3,3c-1.8-0.1-3.5-2.7-5.4-0.3c-0.6-6.3-1.1-12.5-1.7-18.8C85.7,128.1,88.3,128.3,90.8,128.3z"/>
		<path class="st5" d="M86.8,178.1c-4.4,0.6-8.5,1.8-11.9,4.8c-0.7,0.6-2.1,1.2-1.6,2.4c0.5,1.1,1.8,0.5,2.8,0.3
			c4.3-1,8.6-1.9,12.9-2.9c1.4-0.3,1.7-1.1,1-2.3c0-0.1,0-0.2,0-0.3c1.2,1.2,1.5,2.6-0.4,3.1c-5.3,1.3-10.6,2.4-15.9,3.4
			c-1.3,0.2-1.7-0.9-1-2c3.3-5,8.4-6.4,14-6.6C86.7,178,86.8,178.1,86.8,178.1z"/>
		<path class="st2" d="M68.5,119.6c-2.5,0.3-0.2,1.6-0.5,2.4c-0.1,0.1-0.2,0.2-0.3,0.3c-0.7,0.1-1.4,0.2-2.1,0.3
			c-0.4-0.3-0.7-0.8-1.1-0.9c-0.9-0.3-1.1-2.5-2.4-1.1c-0.6,0.6-1.1,1.3-2,1.5c-0.5,0-0.9,0-1.4,0c-0.2-0.6-0.4-0.7-0.9-0.2
			c-0.8-0.2-1.6-0.4-2.4-0.6c-0.2-0.7-0.6-1.1-1.4-1c0,0,0,0,0,0c-0.1-0.5-0.2-0.9-0.3-1.4c1.8,0.4,2.9,2.1,5.2,2
			c1.9-0.2,2.6-1.5,4.1-2c0,0.1,0,0.2,0,0.3c0.4,1.2,1.3,2.1,2.5,1.5c1.2-0.7-0.1-1.5-0.4-2.3c0-0.9,0-1.8,0-2.7
			C67.3,116.1,66.7,118.8,68.5,119.6z"/>
		<path class="st6" d="M112.1,153.4c-1.8-1.4-5.6,0.7-6-3.3c0-0.6,0.1-1.2,0.1-1.7c1.8,0.1,3.6,0.2,5.4,0.5c0.9,0.1,0.4,1,0.5,1.6
			C112.1,151.4,112.1,152.4,112.1,153.4z"/>
		<path class="st6" d="M155.7,150.4c0.9-0.9,1.8-0.9,3-0.4c2.2,1,3.9-1.5,6-1c0,0.8,0,1.7,0,2.5c-1.8-0.6-6.7,1.6-7.2,3.3
			c-0.1,0-0.2,0-0.3,0c0-0.7,0-1.5-0.1-2.2c-0.1-0.2-0.2-0.4-0.3-0.6C156.5,151.4,156.1,150.9,155.7,150.4z"/>
		<path class="st3" d="M90.8,128.3c-2.5,0-5.1-0.2-7.6,0.5c-0.1-0.2-0.2-0.4-0.3-0.6c-1.2-1.3-1.1-3-1.3-4.6
			c0.9,0.3,0.3,1.7,1.4,1.9c3.2,0.5,6.3,1.1,9.5,1.7c-0.2,0.3-0.4,0.5-0.6,0.8c-0.1,0-0.2,0-0.2,0.1c-0.1,0.1-0.2,0.2-0.3,0.3
			c0,0,0,0,0,0C91.2,128.3,91,128.3,90.8,128.3z"/>
		<path class="st5" d="M114.3,182.9c-3.5,1.6-7.2,2.9-9.7,6.1c-0.4,0.6-1.2,1.1-0.8,1.8c0.4,0.8,1.2,0.3,1.8,0.2
			c4.4-0.5,8.5-2.4,12.7-3.5c1.9-0.5,2.6-1.5,1.9-3.4c1.5,1.1,1.9,2.4-0.1,3.1c-4.9,1.7-9.9,3.1-14.9,4.7c-0.8,0.2-1.5,0.1-1.9-0.6
			c-0.5-0.7-0.1-1.4,0.4-2C106.7,186.2,109.6,183.1,114.3,182.9z"/>
		<path class="st7" d="M164.2,146.8c0.3-3.3,3.6-3.5,5.5-5c4.4-3.4,8.8-6.6,11-12c1.2-2.8,0-5.6-0.4-8.4c2.7,4.4,1.2,10.7-2.8,14.8
			c-3.8,3.9-8.7,6.3-12.8,9.8C164.5,146.3,164.4,146.6,164.2,146.8z"/>
		<path class="st6" d="M175.6,125.6c2.1,3.6-0.2,6.3-2,9c-2.6,3.7-6.1,6.7-9.8,9.3c-2.1,1.4-4.7,2-7,3c3.3-2.3,7.5-3.2,10.3-6.2
			c3.7-3.9,8.4-7.3,8.6-13.5C175.7,126.6,175.6,126.1,175.6,125.6z"/>
		<path class="st0" d="M100.1,40.1c0.1,0,0.2,0,0.3,0c0.2,0.3,0.4,0.5,0.6,0.8c-2.3,3.7-5.4,3.2-8.8,1.9c1.5-0.3,2.5-1.2,3.3-2.5
			c0,0,0,0,0,0C97,40.2,98.5,40.1,100.1,40.1z"/>
		<path class="st5" d="M100.9,40.9c-0.2-0.3-0.4-0.5-0.6-0.8c1.3,0.6,2.5,0.5,3.8,0c2.8-1.2,5.6-0.8,8.5,0c1,0.3,2.3,0.5,3.3,0.1
			c4.7-1.5,9,1.6,13.6,1.1c-0.2,0-0.4,0-0.6,0c-2.8,0-5.7,0.2-8.4-0.8c-1-0.6-2-0.7-3.2-0.1c-2.3,1.2-4.6,0.3-6.9-0.4
			c-3-1-5.8,1.1-8.7,1.1C101.5,41,101.2,41,100.9,40.9z"/>
		<path class="st5" d="M164.2,146.8c0.1-0.3,0.3-0.6,0.4-0.8c0.2,2.2,1.1,4.4,0.5,6.7c-0.8,3.1-2.6,5.2-6.1,4.9
			c-1.6-0.1-2.7-1-1.8-2.8c0.1,0,0.2,0,0.3,0c0.1,0.5-0.3,1.3,0.5,1.5c3.8,0.8,6.2-1,6.7-4.7c0-0.8,0-1.7,0-2.5
			C164.6,148.3,164.4,147.6,164.2,146.8z"/>
		<path class="st2" d="M102.8,124.5c-1.2,1.4,0.1,1.8,1,2.4c0.1,0.1,0.3,0.2,0.5,0.2c1.1,0.5,3.4,0.4,3.1,1.2
			c-0.4,1.2-2.3,0.2-3.5,0.5c-1-0.6-2-1.1-2.9-1.7c-0.1-0.1-0.2-0.1-0.3-0.2c0,0,0,0,0,0c0-0.1,0-0.2,0-0.3c0.6-0.8,0.8-1.7,0.9-2.7
			c0.1-0.7,0-2.1,1.6-1.7C103,123,102.9,123.8,102.8,124.5z"/>
		<path class="st5" d="M53.7,118.8c0.1,0.5,0.2,0.9,0.3,1.4c-1.8-5.1-7.3-3.4-10.7-5.8c-3.8-2.6-2.8-6.1-3.1-9.5c0,0,0.1,0,0.1,0
			l0.1,0c0.1,0.5,0.2,0.9,0.3,1.4c0.6,2.5-0.4,5.7,2.3,7.1c2.4,1.4,4.9,3,8,2.8c0.8-0.1,1.8,0.2,1.9,1.3
			C53.2,117.9,53.4,118.3,53.7,118.8z"/>
		<path class="st7" d="M90,180c0,0.1,0,0.2,0,0.3c-0.5-0.1-0.7-0.3-0.7-0.9c0.3-8.9,0.6-17.9,0.9-26.8c0-1,0-2,0-3
			c0-0.5,0-1.1,0-1.6c0.1-1,0.2-2,0.3-3c0.1,0,0.2,0,0.2-0.1c-0.3,10.8-0.6,21.5-0.9,32.3C89.9,178.1,90,179.1,90,180z"/>
		<path class="st8" d="M81.6,123.7c0.3,1.6,0.2,3.3,1.3,4.6c-0.7,0-1.5,0-2.2,0c-0.8-1.4-2.2-2.7-1.6-4.5c0.3-1,1.2-1.7,2.4-1.2
			C81.5,122.9,81.6,123.3,81.6,123.7z"/>
		<path class="st5" d="M95.5,40.3c-0.8,1.2-1.8,2.1-3.3,2.5c-0.3,0-0.5,0-0.8,0c-3.4-1.7-5.9,0.6-8.7,1.8c-2.5,1.1-5,2.4-7.5,3.7
			c5-3.3,9.8-7.3,16.5-6.2C93.4,42.3,94,40.5,95.5,40.3z"/>
		<path class="st8" d="M90.3,147.9c0,0.5,0,1.1,0,1.6c-1.6,0.6-4.1-2.1-4.9,1.3l-0.1,0c0,0-0.1,0-0.1,0c-0.1-1.1-0.2-2.2-0.3-3.3
			C86.8,145.2,88.5,147.9,90.3,147.9z"/>
		<path class="st7" d="M150,127.5c4.7-2.6,9.5-5.1,14.2-7.7c0.5-0.3,0.9-0.7,1.4-1c0.6,0.1,1.3,0.2,1.9,0.2
			c-3.1,1.7-6.3,3.3-9.4,5.1C155.5,125.5,153,127.2,150,127.5z"/>
		<path class="st7" d="M86.8,178.1c0-0.1,0-0.2,0-0.3c-0.4-6.6-0.7-13.3-1.1-19.9c0.9,5.7,1.4,11.3,1.3,17.1
			C86.9,176.1,88,177.2,86.8,178.1z"/>
		<path class="st7" d="M134.2,134.3c1.6-1.6,3.6-2.9,5.9-2.9c3.1-0.1,5.6-1.3,7.9-3.3c0.3-0.3,1-0.2,1.5-0.3
			c-2.7,2.4-5.5,4.3-9.6,4.2C138,131.9,136.1,133.5,134.2,134.3z"/>
		<path class="st5" d="M160.9,61c-1.1-1.6-0.7-3.5-1.1-5.2c0.3,4.5,5.4,6,6.3,10c0,0-0.1,0.1-0.1,0.1C165.5,63.1,162,63.4,160.9,61z
			"/>
		<path class="st5" d="M147.8,48.2c-0.9-2-2.4-3.2-4.7-3.3c-1.6-0.1-3.2-0.4-4.3-1.8c1.9,1.3,4.3,1.1,6.4,1.7
			C146.7,45.3,148.1,46.2,147.8,48.2z"/>
		<path class="st7" d="M65.5,122.6c0.7-0.1,1.4-0.2,2.1-0.3c-0.5,1.2-1.6,1.2-2.6,1.1c-2.2-0.3-4.4-0.7-6.7-1.1
			c0.1-0.1,0.2-0.2,0.3-0.2c0.5,0,0.9,0,1.4,0C61.8,122.2,63.6,122.4,65.5,122.6z"/>
		<path class="st5" d="M36,93.4c2.1,0.9,3.8,2.5,6.3,2.5c-0.2,0.9-0.9,1.1-1.7,1.3c-0.5-1.8-2.5-1.6-3.5-2.7
			C36.7,94.2,36.4,93.8,36,93.4z"/>
		<path class="st7" d="M119.7,134.5c2.6-0.6,5.3-1.3,7.9-1.8c0.7-0.2,1.4,0.1,1.3,1c-2.7-2.2-4.8,1.3-7.3,0.9
			C121.1,134.5,120.4,134.5,119.7,134.5z"/>
		<path class="st7" d="M169.9,110.1c0.8-1.7,1.6-3.5,2.4-5.2c-0.5,1.5-0.7,3.1-1.4,4.5c-0.7,1.4-0.2,2.1,0.9,2.8
			C170.3,112.3,170.1,111.2,169.9,110.1z"/>
		<path class="st5" d="M67.9,51.7c-1.8,1.8-3.6,3.6-5.5,5.5C63.9,55.1,65.5,53,67.9,51.7z"/>
		<path class="st7" d="M169.6,73.3c-0.2-1.6-1.3-3-0.8-4.7c0.8,2.1,1.3,4.3,2.7,6.1C170.9,74.2,170.3,73.7,169.6,73.3z"/>
		<path class="st5" d="M173.2,86.6c-0.1-2.1-0.8-4.2,0-6.2c0.2,1.9,0.4,3.7,0.5,5.6C173.6,86.2,173.4,86.4,173.2,86.6z"/>
		<path class="st5" d="M138.6,43c-2.4-0.5-5,0.2-7.4-1C133.7,42.4,136.2,42,138.6,43z"/>
		<path class="st7" d="M117.8,182.5c-1.4-1.8-1.8-3.9-2.2-6C116.4,178.5,117.1,180.5,117.8,182.5z"/>
		<path class="st5" d="M75.3,48.2c-1.5,2-3.7,1.6-5.7,1.6C71.3,48.8,73.6,49.5,75.3,48.2z"/>
		<path class="st7" d="M91.9,128c0.2-0.3,0.4-0.5,0.6-0.8c0.5,0.1,0.9,0.2,1.4,0.3c0.2,0.1,0.4,0.2,0.5,0.3c1.4,0,2.7,0,4.1,0l0,0
			C96.3,129.2,94.1,127.6,91.9,128z"/>
		<path class="st5" d="M60,58.8c-1.2,1.5-3,2.2-4.7,3C56.6,60.4,58.1,59.4,60,58.8z"/>
		<path class="st7" d="M173.2,100.4c0-3.2-0.1-6.4-0.1-9.7C173.6,93.9,173.7,97.2,173.2,100.4z"/>
		<path class="st7" d="M113.2,179c0.7,1.2,1.5,2.3,2,3.6c0.2,0.6-0.4,0.3-0.7,0.3C114.1,181.5,113.7,180.3,113.2,179z"/>
		<path class="st5" d="M154.6,53.1c-1.5-0.7-2.7-1.7-3.8-3C152.5,50.7,153.7,51.7,154.6,53.1z"/>
		<path class="st5" d="M52.1,65.6C52,67.4,51,68.7,49.9,70C50.7,68.5,51.4,67.1,52.1,65.6z"/>
		<path class="st7" d="M129.5,134c1.5,0.1,3,0.2,4.5,0.3C132.5,135.1,131,135.2,129.5,134z"/>
		<path class="st5" d="M49.4,71.6c0,2-1.7,2.1-3,2.5C47.4,73.3,48.4,72.5,49.4,71.6z"/>
		<path class="st5" d="M100.1,40.1c-1.5,0.1-3.1,0.2-4.6,0.3C96.9,39.4,98.5,39.1,100.1,40.1z"/>
		<path class="st5" d="M168.8,68.4c-0.5-0.4-0.9-0.7-1.4-1.1c-0.5-0.4-0.9-0.9-1.4-1.3c0,0,0.1-0.1,0.1-0.1
			C167.3,66.4,168.6,66.8,168.8,68.4z"/>
		<path class="st7" d="M116.2,134.4c0-0.2,0-0.4,0-0.6c1.2-0.5,2.3-0.7,3,0.8C118.2,134.2,117.2,133.4,116.2,134.4z"/>
		<path class="st5" d="M158.7,54.2c-1.4-0.3-3.1,0.7-4.1-1.1C156,53.5,157.3,53.9,158.7,54.2z"/>
		<path class="st5" d="M40.6,97.2c-0.3,1.6-0.6,3.1-0.8,4.7C39.2,100.2,39.4,98.6,40.6,97.2z"/>
		<path class="st7" d="M175.7,115.2c-1.2-0.2-2.1-0.7-2.5-1.9C174,113.9,174.8,114.6,175.7,115.2z"/>
		<path class="st7" d="M173.2,86.6c0.2-0.2,0.4-0.4,0.5-0.6c0.4,1,0.4,2-0.1,3c-0.1,0-0.3-0.1-0.4-0.1c0-0.2,0-0.4,0-0.6
			C173.2,87.7,173.2,87.1,173.2,86.6z"/>
		<path class="st5" d="M69.5,49.8c-0.3,0.8-0.7,1.6-1.7,1.9C68.2,50.9,68.5,50.1,69.5,49.8z"/>
		<path class="st5" d="M62.2,57.5c-0.3,1.2-1.1,1.5-2.2,1.4C60.7,58.4,61.4,57.9,62.2,57.5z"/>
		<path class="st7" d="M172.4,104.7c0.1-1.1-0.4-2.3,0.8-3.1C172.9,102.6,172.6,103.7,172.4,104.7z"/>
		<path class="st7" d="M100.6,126.7c0,0.1,0,0.2,0,0.3c-0.7,0.3-1.4,0.5-2.2,0.8c0,0,0,0,0,0c0.2-1,1-0.8,1.7-1.1
			C100.3,126.7,100.5,126.7,100.6,126.7z"/>
		<path class="st5" d="M53.4,63.7c0.1,1-0.4,1.7-1.4,1.9C52.5,65,53,64.4,53.4,63.7z"/>
		<path class="st5" d="M155.1,148.4c0.1,0.6,0.3,1.3,0.4,1.9C154.6,149.8,154.4,149.2,155.1,148.4z"/>
		<path class="st5" d="M150.8,50.1c-0.8-0.1-1.7,0.3-2.2-0.8C149.4,49.6,150.1,49.9,150.8,50.1z"/>
		<path class="st5" d="M34.5,92.3c0.4,0.2,0.8,0.4,1.2,0.6C34.8,93.6,34.7,92.8,34.5,92.3z"/>
		<path class="st7" d="M178.4,118.5c-0.9-0.1-1-0.7-1.1-1.4C177.7,117.5,178,118,178.4,118.5z"/>
		<path class="st7" d="M180.3,121.5c-0.8-0.3-1.1-0.9-1.1-1.7C179.6,120.3,179.9,120.9,180.3,121.5z"/>
		<path class="st5" d="M54,120.2c0.8-0.1,1.2,0.3,1.4,1C54.9,120.9,54.4,120.5,54,120.2z"/>
		<path class="st5" d="M173.2,79.6c-0.4-0.4-0.4-0.7,0-1.1C173.2,78.8,173.2,79.2,173.2,79.6z"/>
		<path class="st7" d="M177,116.8c-0.7,0-0.9-0.5-0.8-1.1C176.5,116.1,176.8,116.5,177,116.8z"/>
		<path class="st5" d="M49.9,70.2c-0.1,0.5,0.3,1.2-0.5,1.4C49.5,71.2,49.7,70.7,49.9,70.2z"/>
		<path class="st3" d="M58.6,122c-0.1,0.1-0.2,0.2-0.3,0.2c-0.2-0.1-0.4-0.3-0.6-0.4C58.2,121.4,58.5,121.4,58.6,122z"/>
		<path class="st5" d="M54.3,62.9c0.1,0.6-0.2,0.9-0.8,0.8C53.7,63.5,54,63.2,54.3,62.9z"/>
		<path class="st5" d="M159.8,55.8c-0.7-0.1-0.5-0.7-0.6-1.1C159.5,55.1,159.7,55.5,159.8,55.8z"/>
		<path class="st5" d="M130.9,41.9c-0.4-0.2-0.7-0.3-1.1-0.5C130.2,41.6,130.6,41.8,130.9,41.9z"/>
		<path class="st7" d="M172.4,75.7c-0.2-0.3-0.4-0.5-0.6-0.8C172,75.2,172.2,75.5,172.4,75.7z"/>
		<path class="st5" d="M119.8,183.6c-0.2-0.1-0.4-0.2-0.6-0.4C119.4,183.3,119.6,183.5,119.8,183.6z"/>
		<path class="st7" d="M178.9,119.1c-0.2-0.2-0.3-0.4-0.5-0.6C178.6,118.7,178.7,118.9,178.9,119.1z"/>
		<path class="st5" d="M156.9,152c0.1,0.2,0.2,0.4,0.3,0.6C157.1,152.3,157,152.2,156.9,152z"/>
		<path class="st5" d="M156.1,147.2c-0.2,0.2-0.4,0.3-0.6,0.5C155.7,147.5,155.9,147.4,156.1,147.2z"/>
		<path class="st5" d="M173.2,88.9c0.1,0,0.3,0.1,0.4,0.1c-0.1,0.3-0.2,0.5-0.4,0.8C173.2,89.4,173.2,89.1,173.2,88.9z"/>
		<path class="st7" d="M172.9,76.4c0.1,0.2,0.2,0.4,0.2,0.6c-0.1,0-0.2,0-0.2,0c0,0-0.1-0.1-0.1-0.1
			C172.9,76.9,172.9,76.7,172.9,76.4L172.9,76.4z"/>
		<path class="st9" d="M40.4,104.9l-0.1,0c0,0-0.1,0-0.1,0c0-0.2,0-0.4,0-0.5C40.2,104.5,40.3,104.7,40.4,104.9z"/>
		<path class="st7" d="M149.5,127.8c0.2-0.1,0.4-0.2,0.6-0.3C149.8,127.6,149.6,127.7,149.5,127.8z"/>
		<path class="st7" d="M173.2,113.3c-0.2-0.1-0.3-0.3-0.5-0.4C172.9,113,173,113.2,173.2,113.3z"/>
		<path class="st7" d="M118.1,182.8c-0.1-0.1-0.2-0.2-0.3-0.3C117.9,182.6,118,182.7,118.1,182.8z"/>
		<path class="st5" d="M172.9,77.1c0.1,0,0.2,0,0.2,0c0,0.2,0,0.4,0,0.6C173.1,77.5,173,77.3,172.9,77.1z"/>
		<path class="st7" d="M91.4,128.3c0.1-0.1,0.2-0.2,0.3-0.3C91.6,128.1,91.5,128.2,91.4,128.3z"/>
		<path class="st5" d="M148,48.7c-0.1-0.1-0.1-0.1-0.1-0.2C147.9,48.5,147.9,48.6,148,48.7z"/>
		<path class="st7" d="M100.6,127c0.1,0.1,0.2,0.1,0.3,0.2C100.8,127.1,100.7,127,100.6,127z"/>
		<path class="st7" d="M172.2,112.5c-0.1-0.1-0.2-0.2-0.3-0.3C171.9,112.3,172,112.4,172.2,112.5z"/>
		<path class="st7" d="M172.6,112.8c-0.1-0.1-0.2-0.2-0.3-0.2C172.4,112.6,172.5,112.7,172.6,112.8z"/>
		<path class="st5" d="M46.4,74.1c-0.1,0.1-0.1,0.2-0.2,0.3C46.2,74.3,46.3,74.2,46.4,74.1z"/>
		<path class="st5" d="M54.5,62.6c-0.1,0.1-0.2,0.2-0.3,0.3C54.4,62.8,54.4,62.7,54.5,62.6z"/>
		<polygon class="st5" points="45.8,74.8 45.8,74.9 45.7,74.8 		"/>
		<path class="st5" d="M54.8,62.4c-0.1,0.1-0.2,0.2-0.3,0.3C54.6,62.6,54.7,62.5,54.8,62.4z"/>
		<path class="st7" d="M175.9,115.5c-0.1-0.1-0.2-0.2-0.3-0.3C175.8,115.3,175.8,115.4,175.9,115.5z"/>
		<path class="st7" d="M171.8,74.9c-0.1-0.1-0.2-0.2-0.3-0.3C171.6,74.7,171.7,74.8,171.8,74.9z"/>
		<path class="st5" d="M55.1,62.1c-0.1,0.1-0.2,0.2-0.3,0.3C54.9,62.3,55,62.2,55.1,62.1z"/>
		<path class="st7" d="M176.2,115.8c-0.1-0.1-0.2-0.2-0.3-0.3C176,115.6,176.1,115.7,176.2,115.8z"/>
		<path class="st5" d="M62.5,57.2c-0.1,0.1-0.2,0.2-0.3,0.3C62.3,57.4,62.4,57.3,62.5,57.2z"/>
		<path class="st7" d="M172.6,76c-0.1-0.1-0.2-0.2-0.3-0.3C172.5,75.8,172.5,75.9,172.6,76z"/>
		<path class="st5" d="M172.9,76.3c-0.1-0.1-0.2-0.2-0.2-0.3C172.7,76.1,172.8,76.2,172.9,76.3z"/>
		<path class="st7" d="M177.3,117.1c-0.1-0.1-0.2-0.2-0.3-0.3C177.1,116.9,177.2,117,177.3,117.1z"/>
		<path class="st5" d="M159.3,54.7c-0.1-0.1-0.2-0.2-0.3-0.2C159.1,54.6,159.2,54.7,159.3,54.7z"/>
		<path class="st5" d="M120.3,184.1c-0.1-0.1-0.2-0.2-0.3-0.3C120.1,183.9,120.2,184,120.3,184.1z"/>
		<path class="st7" d="M179.2,119.6c-0.1-0.1-0.2-0.2-0.2-0.4C179,119.4,179.1,119.5,179.2,119.6z"/>
		<path class="st9" d="M166.1,65.9c0.5,0.4,0.9,0.9,1.4,1.3c0.6,3.5-1.7,4.9-4.3,6.1c-0.3,0.1-0.5,0.5-0.7,0.8
			c0.4-0.1,0.7-0.1,1.1-0.3c2.4-1.3,4.5,0.1,4.1,3.7c-0.7,6.4,0.1,12.8-1.5,19.1c-0.2,0.8-0.7,1.6-1.1,2.4c-0.1,0.1-0.2,0.2-0.3,0.3
			c-0.6,0-1.2,0.1-1.4,0.8c-0.1,0.1-0.2,0.2-0.3,0.3c-0.3,1.5-0.5,2.9-0.8,4.4c0,0,0,0,0,0c-0.8,0-1.6,0-2.5,0c-0.9,0-1.8,0-2.7,0
			c0.1-0.3,0-0.8,0.2-0.9c6.4-2.9,3.7-9.3,5.2-14c0.9-2.7,0.9-5.8,0.8-8.7c0-1.7-1.1-3.3,0-5c0,0-0.3-0.3-0.5-0.3
			c-0.8,0-1.4,0.4-1.5,1.2c-0.4,2.2-0.8,4.4-0.9,6.7c0,1.7-1,2.6-2.3,2.8c-4.7,0.7-4.3,4-4,7.3c0.1,1.2,0.3,2.3-1.7,2.2
			c-6.2-0.2-7.9,1.5-8.2,7.9c-0.1,1.2-0.1,2.5,0,3.7c0.2,1.7-0.2,2.6-2.2,1.9c-1.4-0.5-2.7-0.2-4,0.7c-1.3,0.9-2.4,0.2-3.4-0.8
			c-1.6-1.5-3.3-2.6-5.4-1.3c-2.7,1.7-4.3-1.1-6.4-1.6c-0.8-0.2-1.7-0.3-2.5-0.4c-0.6-0.1-1.7,0.7-1.8,0c-0.1-0.9,1.3-0.8,1.7-0.7
			c4.3,1,9,0.6,12.9,1.7c3.2,0.9,5.9,0.6,8.6,0.2c1.6-0.2,0.8-2.6,0.9-3.9c0.2-2.5,0.8-4.7,1.9-7c1.3-2.5,3.6-2.9,6-2.7
			c1.2,0.1,1.7,0,1.8-1.3c0.2-3.4,0.5-6.7,5-7.4c2.1-0.3,2-2.6,2-4.2c0.1-2.6,1.2-4.8,1.6-7.2c0.5-3.1,0.3-6.4,0.3-9.6
			c0-0.5-0.4-1.2-1.2-1.1c-1.2,0.2-2.5,0.6-2.8,1.8c-0.7,3.3-1.9,5.9-5.4,7.3c-2.3,0.9-1.5,3.6-1.7,5.5c-0.4,3.7-2.7,4.6-5.8,4.7
			c-1.3,0-1.9,0.5-1.7,1.7c0.4,1.9-0.8,2.7-2.4,3.1c-0.3,0.1-0.8,0.1-0.9,0.3c-1.5,2.7-3.4,3.1-6,1.4c-3.3-2.2-3.1-5.4-2.3-8.6
			c0.6-2.3,1.1-4-0.9-6.5c-2.2-2.7-0.4-6.4,2-8.4c3.9-3.2,8-6.2,10.9-10.5c0.6-0.8,2.1-0.8,2.3-0.4c1,2.2,3.3,2.2,4.9,3.2
			c0.7,0.4,1.1,1.3,0.6,1.8c-0.5,0.5-0.8-0.5-1.1-0.9c-1.1-1.3-2.2-0.6-3.2,0.1c-0.4,0.2-0.7,0.4-1.1,0.6c0-0.4-0.1-0.9,0.1-1.3
			c0.3-0.8,0.5-1.6-0.4-2.1c-1-0.6-1.8,0-2.2,0.7c-2,4-5.5,6.3-8.8,8.9c-2,1.5-3.2,3.6-3.2,6.3c0,0.3,0,0.8,0.1,0.9
			c4.1,2.2,1.7,5.5,1.3,8.4c-0.7,4.2,0.5,6.9,3.7,6.7c2-0.1,4.4-2.1,4.8-4c0.6-2.8,1.9-3.5,4.2-3.5c2.5,0,3.7-1,3.6-3.6
			c-0.1-3.4,1.2-5.9,4.5-7.2c1.4-0.5,1.9-1.9,2.3-3.3c0.6-2.8,1.6-5.3,5.2-5.2C162,63.4,165.5,63.1,166.1,65.9z"/>
		<path class="st9" d="M120.6,40.6c2.7,1.1,5.6,0.8,8.4,0.8c-1.6,2.1-4.4,0.8-6.4,2.4c-2.5,1.9-4.9,3.9-7.6,5.7
			c-3.4,2.1-7.2,1-10.5,2.5c-2.7,1.3-4.9,3-5.3,6.3c-0.3,2.2-2.2,3.4-4,3.5c-9.5,0.3-12.1,6.4-12.6,14.4c-0.2,2.9-2.7,4.9-3.2,7.5
			c-0.9,4.2-1.9,8.5-1.3,12.9c0.1,0.4-0.1,0.8-0.2,1.2c-1.7-0.2-3.4-0.4-5.2-0.6c0.3-0.6,0.6-1.2,1-1.8c1.4-2.1,1.9-4.1,0.4-6.5
			c-1.5-2.5-0.6-5.3,0.7-7.8c2.7-5.1,4.7-10.5,6.5-16c1.2-3.8,3.2-6.7,7.6-5.9c4,0.8,5.5-2.1,7.5-4.3c2.7-2.9,4.8-7.3,8.8-7.5
			c3.8-0.2,7-1.5,10.4-2.7C117.9,43.9,119.3,42.4,120.6,40.6z"/>
		<path class="st9" d="M102.8,124.5c0.1-0.7,0.2-1.4,0.3-2.2c0.9-1.8,3.6-2.5,3-5.2c1,0.2,1.5,0.6,1,1.8c-0.4,0.9,0,1.6,1,1.7
			c4.4,0.3,8.9,0.6,13.3,0.8c2.4,0.1,4.7,0,7.1,0c0.4,0,0.8-0.4,1.2-0.7c-0.2-0.4-0.5-0.7-0.7-1.1c-2.1-3.6-5.5-1.6-8.4-2.1
			c-0.4-0.1-0.9-0.2-1.3-0.3c0.4-0.1,0.8-0.2,1.2-0.2c2-0.3,4-0.7,6-0.7c2.5,0.1,4.1,2.5,6.7,2.7c1,0.1,2.5-0.2,3.2,1.2
			c-0.6,1.8,0.9,1.1,1.4,1c1.6-0.4,3.2-0.6,4.9-0.2c0.5,0.2,0.9,0.4,1.4,0.5c0.1,1.1-0.6,1.5-1.5,1.9c-4.3,1.9-8.8,3-13.6,2.9
			c-4.3-0.1-8.6,0.5-12.8-1.1c-0.9-0.3-2-1.1-2.9,0.1c-0.5,0-1.1,0-1.6,0c-2.8-0.4-5.6-0.7-8.5-1.1
			C103.2,124.5,103,124.5,102.8,124.5z"/>
		<path class="st9" d="M95.4,91c0.8-0.6,1.6-1.3,2.5-1.8c2.8-1.8-0.6-2.7-0.6-4c0-0.3-0.5-0.6-0.6-1c-0.3-0.8-0.9-2.1-0.1-2.3
			c0.9-0.3,0.2,1.1,0.6,1.6c0.7,0.9,1.2,1.9,2,2.7c1.8,1.6,1.9,3-0.4,4.1c-1.9,0.8-2.7,2.6-3.4,4.2c-0.6,1.5-0.2,3.2,2,3.5
			c1.3,0.1,2,0.2,1,1.8c-2.9,4.7-2.4,5.3,5.1,6.9c1.8,0.4,3.3,1.3,3.9,2.8c0.5,1.3-1.4,1.9-2.1,2.9c-1.2,1.6-3.1,3-0.2,4.7
			c-1.7,0.4,0.3,1.4-0.3,2.1c-3.4,4.6-4.9,4.7-10.6,3.5c-4.7-1-9.3-2.6-14.2-2.4c0,0,0,0,0,0c0.1-1.8,0.6-3.6,0-5.5
			c4.6,2,9.5,2.3,14.3,3.2c2.7,0.5,5.1,2.2,8,1.4c0.4-0.1,0.8-0.4,1.3-0.6c-0.2-0.3-0.3-0.7-0.6-1c-1.7-1.8-1.3-3.6-0.2-5.5
			c0.6-1,2.5-1.9,1.9-2.9c-0.8-1.4-2.8-1.3-4.4-1.7c-2.4-0.7-6.4-0.5-5.2-4.3c0.9-3,0-4.6-1.4-6.7c-0.8-1.2,0.2-2.6,0.4-3.9
			C94.6,92.1,95,91.5,95.4,91z"/>
		<path class="st4" d="M79.9,114.7c0.6,1.8,0.1,3.6,0,5.5c-0.2-0.1-0.4-0.2-0.5-0.3c-0.2-1.2,1.1-3.1-0.8-3.3
			c-1.5-0.1-1.9,1.9-2.2,3.3c-0.1,0.6-0.1,1.5-1,1.3c-2-0.4-4.1,0.5-5.9-0.8c-0.4-0.3-0.7-0.5-1.1-0.8c-1.7-0.8-1.2-3.5-3.3-4.1
			c-0.3-1.2,0.7-2.7-0.8-3.5c-0.3-0.4-0.6-0.7-0.8-1.1c-0.3-2.7,1.3,0.4,1.6-0.5c1.3,0.9,2,2.2,1.9,3.8c-0.2,4.3,3,3.9,5.5,3.5
			c1.3-0.2,7,1.5,2.6-3.5c-0.1-0.7-0.2-1.4-0.2-2.2c0.9-0.9,0.9-1.8,0-2.7c-0.4-2.2-0.8-4.3-2.2-6.2c-0.4-0.5-0.2-1,0.1-1.5
			c0.6,0.2,1.3,0.3,1.9,0.5c0.2,0,0.3,0,0.5,0c0.4,0,0.9,0.1,1.3,0.1c0.6,0,0.6,0.4,0.6,0.8c-0.2,0.2-0.5,0.4-0.7,0.6
			c0.3,0.1,0.6,0.3,1,0.4C77.5,107.8,76.7,111.7,79.9,114.7z"/>
		<path class="st9" d="M116.6,60.5c2.2,0.7,2.7-0.7,2.9-2.7c0.4-3,2-4.3,5.1-3.4c2,0.6,1.7-1.2,1.9-2c1.3-5.6,5.4-8.5,11.1-7.1
			c0.3,0.1,0.6,0.4,0.8,0.7c-0.3,0.1-0.7,0.4-1,0.4c-6.3-1-10.5,3.3-9.6,10.6c0,0.3-0.2,0.6-0.3,1c-0.4-0.2-1-0.2-1.3-0.5
			c-1.2-1-2.5-2.3-4.1-1.3c-1.5,1-1.9,2.9-1.4,4.8c0.4,1.5,0.2,2-1.5,1.6c-4.5-0.9-8.6-0.8-10.8,4.2c-0.1,0.1-0.3,0.1-0.5,0.2
			c0-0.5-0.1-1,0.1-1.4C109.7,62.2,112.4,60.3,116.6,60.5z"/>
		<path class="st9" d="M126,97.1c-0.1,0.2-0.3,0.8-0.4,1.3c-0.2-0.4-0.5-0.9-0.6-1.3c-0.6-2.8-4.6-4.8-7.3-3.7
			c-0.7,0.3-1.5,0.6-1.9,0.1c-0.5-0.7,0.5-1.1,1-1.5c0.6-0.5,1.3-1.1,0.8-1.9c-0.6-1-1.8-1.4-3-1.2c-0.6,0.1-1.3,0.5-1.6-0.2
			c-0.2-0.4,0-1.1,0.1-1.6c0.7-2.5-0.3-4.4-1.9-6.2c-1.3-1.6-3.1-1.9-5.1-1.4c-0.5,0.1-1,0-1.5,0c0-0.8,0.7-0.7,1.2-0.9
			c4.3-1.7,8.6,1.4,8.8,6.4c0.1,1.3,0.5,1.9,1.7,2.1c1,0.2,2.2,0.6,2.4,1.5c0.4,2.5,2.1,3.1,4.2,3.7C125.2,92.9,126,94.6,126,97.1z"
			/>
		<path class="st3" d="M157.1,104.9c0.9,0,1.8,0,2.7,0c0.6,0.2,1.3,0.4,1.9,0.5c0.3,0.8,1.1,0.5,1.6,0.8c0,0.2,0,0.4,0,0.5
			c-3.3,1.6-3.7,5.8-6.8,7.6c-0.7-0.2-1.5-0.4-2.2-0.5c-0.2-0.7-0.4-1.5-0.6-2.2c-0.5-2.4,0.9-4.3,1.9-6.3
			C156.2,105.2,156.6,105.1,157.1,104.9z"/>
		<path class="st4" d="M79.9,120.1c4.9-0.3,9.5,1.3,14.2,2.4c5.6,1.2,7.2,1.1,10.6-3.5c0.6-0.8-1.4-1.7,0.3-2.1
			c0.4,0.1,0.7,0.2,1.1,0.3c0.6,2.6-2.1,3.4-3,5.2c-1.6-0.5-1.5,1-1.6,1.7c-0.1,1-0.3,1.9-0.9,2.7c-0.2,0-0.4,0-0.5,0
			c-0.6-1.6-2.2-0.8-3.3-1.4c-5.2-2.6-11.7-0.9-16.7-4.6C80.1,120.5,80,120.3,79.9,120.1z"/>
		<path class="st9" d="M153.8,111.7c0.2,0.7,0.4,1.5,0.6,2.2c0,0.2,0,0.4,0,0.5c-1.4,0.4-1.4,1.6-1.6,2.7c-0.1,0.1-0.2,0.2-0.3,0.3
			c-1.8-0.1-2.5,1.4-3.5,2.5c-1.3,1.1-2.9,0.3-4.4,0.5c-0.3-0.1-0.5-0.2-0.8-0.3c-0.2,0-0.4,0-0.5,0c-1.2-0.2-2.4-0.4-3.5-0.6
			c0.4-0.4,0.8-1.1,1.1-1.1c4.7,0.3,6.8-4.2,10.5-5.5c1.6-0.6,1-2.4,2-3.2C153.5,110.4,152.8,111.3,153.8,111.7z"/>
		<path class="st10" d="M75.2,102c-0.2,0-0.3,0-0.5,0c-0.7-0.3-1.4-0.6-2.1-0.9c-0.2-0.2-0.3-0.4-0.5-0.5c-0.2-0.2-0.3-0.4-0.5-0.6
			c-0.1,0-0.1-0.1-0.1-0.2c0.3-0.7-0.9-2,0.2-1.9c2.5,0.2,5.4-1.1,7.2,1.8c-0.1,0.2-0.2,0.4-0.2,0.6c-0.2,0.2-0.3,0.3-0.5,0.5
			c-0.2,0.2-0.4,0.3-0.6,0.5c0,0.1-0.1,0.1-0.1,0.1C76.8,101.6,76,101.8,75.2,102z"/>
		<path class="st5" d="M95.4,91c-0.4,0.5-0.9,1.1-1.3,1.6c-2.8,0.8-5.3,0.8-7-2c-0.8-1.3-0.6-2.9,0.3-3.9c0.7-0.8,1.3-2.5,3.1-1.7
			c-0.9,0.6-2.2,0.8-2.5,2.2c-0.1,0.2-0.1,0.4-0.2,0.5c0,0.2-0.1,0.3-0.1,0.5c0,0.3,0,0.5,0,0.8c-0.2,0.9,0.2,1.6,0.8,2.1
			c0.4,0.8,1.1,1.1,2,1.3c2.2,0.7,3.7-0.3,4.4-2.2c1-2.6-0.4-4.2-2.8-5.2c2.3-0.5,4,1.7,3.5,4.6C95.6,90,95.5,90.5,95.4,91z"/>
		<path class="st11" d="M88.1,87.2c0.3-1.3,1.6-1.5,2.5-2.2c0.5,0,1.1,0,1.6,0c2.4,1,3.7,2.6,2.8,5.2c-0.7,1.9-2.2,2.9-4.4,2.2
			c1.4-1.2,4.2-1.3,3.3-4.2C92.6,84.4,90.1,86.9,88.1,87.2z"/>
		<path class="st4" d="M139.6,119.6c1.2,0.2,2.4,0.4,3.5,0.6c-0.1,0.4-0.2,0.7-0.3,1.1c-1.6-0.5-3.2-0.2-4.9,0.2
			c-0.5,0.1-2,0.9-1.4-1c0.2,0,0.4,0,0.5,0c0.9,0.4,1.6,0.2,1.9-0.8C139.3,119.6,139.5,119.6,139.6,119.6z"/>
		<path class="st12" d="M79.1,99.7c-1.8-2.9-4.8-1.6-7.2-1.8c-1.1-0.1,0.1,1.3-0.2,1.9c-0.4-0.7-1.1-1.6-1-2.2
			c0.3-0.9,1.4-0.2,2.1-0.4c1.7,0.2,3.4,0.4,5.2,0.6c0.3,0,0.5,0.1,0.8,0.1c0.3,0,0.6,0,0.9,0.1c1,0.8-0.3,1.2-0.3,1.8
			C79.3,99.8,79.2,99.7,79.1,99.7z"/>
		<path class="st4" d="M153.8,111.7c-1-0.4-0.3-1.3-0.5-1.9c0-1.9,0.9-3.3,2.5-4.3C154.7,107.4,153.3,109.3,153.8,111.7z"/>
		<path class="st12" d="M75.2,102c0.8-0.2,1.6-0.4,2.3-0.6c-0.3,0.2-0.7,0.5-1,0.7C76.1,102.1,75.7,102.1,75.2,102z"/>
		<path class="st9" d="M139.1,119.6c-0.3,1-1,1.2-1.9,0.8C137.8,120.1,138.5,119.9,139.1,119.6z"/>
		<path class="st9" d="M77.4,104.1c-0.3-0.1-0.6-0.3-1-0.4c0.2-0.2,0.5-0.4,0.7-0.6C77.3,103.3,77.4,103.7,77.4,104.1z"/>
		<path class="st9" d="M79.6,98c-0.3,0-0.6-0.1-0.9-0.1C79.1,97.4,79.4,97.4,79.6,98z"/>
		<path class="st4" d="M79.1,99.7c0.1,0,0.2,0.1,0.3,0.1c-0.1,0.3,0.1,0.8-0.5,0.5C78.9,100.1,79,99.9,79.1,99.7z"/>
		<path class="st12" d="M77.7,101.3c0.2-0.2,0.4-0.3,0.6-0.5C78.1,101,77.9,101.2,77.7,101.3z"/>
		<path class="st9" d="M64.4,112c1.5,0.9,0.5,2.4,0.8,3.5c0,0.9,0,1.8,0,2.7c-0.7,0.2-1.1,1.5-2.2,0.8c0-0.1,0-0.2,0-0.3
			c-0.8-1.7-2,0.1-3.2-0.3c-2.2-0.7-4.6-0.7-6.9-1c-0.2-1.1-1.2-1.4-1.9-1.3c-3.1,0.3-5.6-1.4-8-2.8c-2.6-1.5-1.7-4.7-2.3-7.1
			c0.8,0.6,1.6,1.5,2.5,1.7c1.4,0.4,3.3,2,3.9-1.4c0.4-2.6,2.6-3.8,5.3-3.2c0.8,0.2,1.4,0.1,1.4-0.9c0.1-1.8,0.9-3.3,2.1-4.7
			c2.1-2.5,3.4-2.1,5.3,1.6c0.5,1.1,1,2.3,0.3,3.4c-2.2,3.6-0.1,5.3,2.8,6.7c0.4,0.2,0.7,0.5,1,0.8c-0.3,0.9-1.9-2.2-1.6,0.5
			c-4.4-1.5-5.7-4.2-4-8.3c0.7-1.9,0-3.6-1.5-4.3c-1.4-0.6-2.2,1.3-2.4,2.4c-0.5,3.3-2.2,4.2-5.3,3.7c-1.4-0.2-1.9,1-2,2.2
			c-0.1,1.1-0.1,2,1.2,2.5c3.7,1.2,6.8,3.8,10.8,4.1C61.8,113.3,63.8,114.7,64.4,112z"/>
		<path class="st9" d="M91.4,42.8c0.3,0,0.5,0,0.8,0c3.3,1.2,6.5,1.8,8.8-1.9c0.3,0.1,0.5,0.2,0.8,0.3c-1.2,1.5-2.3,3-3.6,4.4
			c-0.2,0.2-1,0.2-1.4,0c-4.9-2.8-12.1,0.2-14,5.6c-0.9,2.5-2.3,4.7-5.8,4c-2-0.4-3.8,0.4-4.5,2.8c-1,3.3-2.3,6.3-6.8,6.2
			c-2.3-0.1-3.9,1.4-3.2,4.1c0.9,3.6-0.6,5.9-3.9,7.1c-2.9,1.1-3.5,3.5-4,6.1c-0.1,0.3-0.2,0.6-0.3,0.8c-0.1-0.3-0.4-0.6-0.4-0.9
			c-0.5-3.6,1.2-6.1,4.4-7.5c2.2-1,3.1-2.3,2.6-5c-0.8-4.4,1.1-6.4,5.6-6.5c3.2-0.1,3.2-3,4-5c1.2-2.8,2.9-4.6,6-4.2
			c2.3,0.3,3.6-0.4,4.4-2.3c1.9-4.6,5.3-7,10.1-7.7C91.1,43.2,91.3,42.9,91.4,42.8z"/>
		<path class="st9" d="M75.3,114.1c4.4,5-1.4,3.3-2.6,3.5c-2.5,0.4-5.7,0.8-5.5-3.5C69.8,114.5,72.5,116,75.3,114.1z"/>
		<path class="st11" d="M72.4,85.9c-0.3,2.3-1.3,3.9-3.7,3.9c-2.4,0-3.5-1.6-3.5-3.8c0-2.3,1.3-3.9,3.7-3.9
			C71.3,82.1,72.2,83.7,72.4,85.9z M67.8,82.7c-1.3,0.4-1.9,1.6-2.1,3.2c-0.4,2.9,2.6,2,3.6,3.4c0.9-1,2.6-2.3,2.4-2.8
			C71,84.8,70.4,82.8,67.8,82.7z"/>
		<path class="st9" d="M75,109.2c0.9,0.9,0.9,1.8,0,2.7C75,111.1,75,110.1,75,109.2z"/>
		<path class="st12" d="M72.7,101.1c0.7,0.3,1.4,0.6,2.1,0.9c-0.6-0.2-1.3-0.3-1.9-0.5C72.8,101.4,72.8,101.3,72.7,101.1z"/>
		<path class="st12" d="M71.7,100c0.2,0.2,0.3,0.4,0.5,0.6C72.1,100.4,71.9,100.2,71.7,100z"/>
		<path class="st6" d="M166.9,108.4c0.4,0.4,0.7,0.7,1.1,1.1c-1.9,0-3.4,1.1-3.6,2.7c-0.2,1.8-3.3,3.5-0.5,5.5
			c-1.4-0.6-2.7-1.3-4.1-1.9c1.2-2.9,2.4-5.7,4.6-7.9c0.3,0,0.5,0,0.8,0c0.1,0.3,0.1,0.7,0.6,0.3
			C166.2,108.2,166.5,108.3,166.9,108.4z"/>
		<path class="st6" d="M165.3,118.2c-0.3-0.2-0.6-0.3-0.8-0.5C164.7,117.9,165,118.1,165.3,118.2z"/>
		<path class="st2" d="M142.9,121.2c0.1-0.4,0.2-0.7,0.3-1.1c0.2,0,0.4,0,0.5,0c0.1,0.6,0.4,0.7,0.8,0.3c1.4-0.2,3,0.5,4.4-0.5
			c1.5-0.3,2.6-1.3,3.5-2.5c0.1-0.1,0.2-0.2,0.3-0.3c0.9-0.7,1.5-1.5,1.6-2.7c0-0.2,0-0.4,0-0.5c0.7,0.2,1.5,0.4,2.2,0.5
			c1,0.5,2,0.9,3,1.4c1.1,3.3-2.1,4.2-3.6,5.4c-2.8,2.2-6.1,3.8-9.1,5.7c-4.7,2.9-9.9,3.9-15,4.2c-7.1,0.3-14.4,0.8-21.5-1.1
			c-1.7-0.5,0.5-2.2-0.9-2.7c1.2,0,2.1-0.4,2.5-1.6c0.5,0,1.1,0,1.6,0c0.8,0.4-0.6,1.6,0.7,1.9c1.4,0.3,2.7,0.7,4.1,0.8
			c9,0.5,18,1.2,26.3-3.6c0.9-0.5,2.4-0.7,2.3-1.8c-0.1-1.1-1.7-0.7-2.5-1.1C143.8,121.6,143.4,121.4,142.9,121.2z"/>
		<path class="st8" d="M159.5,115.8c-1-0.5-2-0.9-3-1.4c3.1-1.8,3.5-6,6.8-7.6c0.3,0,0.5,0,0.8,0c0.1,0.4,0.2,0.7,0.3,1.1
			c-2.2,2.3-3.5,5.1-4.6,7.9C159.7,115.8,159.6,115.8,159.5,115.8z"/>
		<path class="st4" d="M111.8,125.6c-0.4,1.2-1.3,1.6-2.5,1.6c-1.5-0.4-3.1-0.7-4.6-1.1c-0.2-0.2-0.4-0.4-0.6-0.5
			c-0.3-0.4-0.5-0.7-0.8-1.1C106.2,124.9,109,125.2,111.8,125.6z"/>
		<path class="st2" d="M104.2,125.6c0.2,0.2,0.4,0.4,0.6,0.5C104.5,125.9,104.4,125.8,104.2,125.6z"/>
		<path class="st3" d="M85.4,150.9c0.8-3.4,3.3-0.7,4.9-1.3c0,1,0,2,0,3C88.6,152.1,86.5,153,85.4,150.9z"/>
		<path class="st4" d="M164.2,106.8c-0.3,0-0.5,0-0.8,0c0-0.2,0-0.4,0-0.5c0.8-1.6,1.6-3.1,0.7-5c-0.1-0.1,0.9-0.9,1.5-1.1
			c0.8-0.2,1.8-0.4,2.4-0.1c0.7,0.3,0.1,1.2-0.1,1.8c-0.5,1.3-1,2.6-1.5,3.9C166,106.9,165.3,107.3,164.2,106.8z"/>
		<path class="st4" d="M162.3,104.9c0.3-1.5,0.5-2.9,0.8-4.4C162.9,102,164.3,103.8,162.3,104.9z"/>
		<path class="st4" d="M161.7,105.4c-0.6-0.2-1.3-0.4-1.9-0.5c0.8,0,1.6,0,2.5,0C162.1,105.1,161.9,105.2,161.7,105.4z"/>
		<path class="st4" d="M163.4,100.2c0.2-0.8,0.8-0.8,1.4-0.8C164.3,99.7,163.8,100,163.4,100.2z"/>
		<path class="st5" d="M172.9,76.5c0,0.2,0,0.4,0,0.5c-0.1-0.1-0.2-0.2-0.4-0.3C172.6,76.7,172.8,76.6,172.9,76.5z"/>
		<path class="st8" d="M165.8,108.1c-0.4,0.4-0.5,0.1-0.6-0.3C165.5,108,165.6,108,165.8,108.1z"/>
		<path class="st2" d="M80.2,120.7c5,3.7,11.4,2,16.7,4.6c1.1,0.5,2.7-0.2,3.3,1.4c-0.6,0.2-1.5,0.1-1.7,1.1c-1.4,0-2.7,0-4.1,0
			c-0.1-0.3-0.1-0.7-0.5-0.3c-0.5-0.1-0.9-0.2-1.4-0.3c-3.2-0.6-6.3-1.1-9.5-1.7c-1.1-0.2-0.5-1.6-1.4-1.9c0-0.4,0-0.7,0-1.1
			C81.1,122,80.6,121.3,80.2,120.7z"/>
		<path class="st2" d="M69.5,120.4c1.8,1.3,3.9,0.4,5.9,0.8c0.9,0.2,0.8-0.7,1-1.3c0.3-1.4,0.6-3.4,2.2-3.3c1.9,0.2,0.6,2.1,0.8,3.3
			c-0.9,0.2-1.2-1.7-2.1-0.8c-1,1.1,0.2,1.8,0.8,2.6c0.5,0.8,0.5,1.4-0.9,1.7C73.8,124.2,71.1,123.8,69.5,120.4z"/>
		<path class="st4" d="M52.9,117.4c2.3,0.3,4.7,0.3,6.9,1c1.2,0.4,2.4-1.4,3.2,0.3c-1.4,0.4-2.2,1.8-4.1,2c-2.3,0.2-3.4-1.5-5.2-2
			C53.4,118.3,53.2,117.9,52.9,117.4z"/>
		<path class="st3" d="M65.5,122.6c-1.8-0.2-3.6-0.4-5.5-0.6c0.9-0.2,1.4-0.9,2-1.5c1.3-1.4,1.5,0.9,2.4,1.1
			C64.8,121.8,65.1,122.3,65.5,122.6z"/>
		<path class="st4" d="M63,119c1.1,0.6,1.4-0.6,2.2-0.8c0.2,0.8,1.5,1.6,0.4,2.3C64.3,121.2,63.4,120.3,63,119z"/>
		<path class="st8" d="M164.8,151.5c-0.4,3.8-2.9,5.5-6.7,4.7c-0.8-0.2-0.4-1-0.5-1.5C158.1,153.1,162.9,150.9,164.8,151.5z"/>
		<path class="st3" d="M93.8,127.5c0.4-0.4,0.5-0.1,0.5,0.3C94.2,127.7,94,127.6,93.8,127.5z"/>
		<path class="st4" d="M144.3,121.8c0.9,0.4,2.4-0.1,2.5,1.1c0.1,1.1-1.4,1.3-2.3,1.8c-8.3,4.8-17.3,4-26.3,3.6
			c-1.4-0.1-2.7-0.5-4.1-0.8c-1.2-0.3,0.1-1.5-0.7-1.9c0.9-1.2,2-0.4,2.9-0.1c4.2,1.6,8.5,1,12.8,1.1c4.8,0.1,9.2-1,13.6-2.9
			C143.7,123.3,144.4,122.9,144.3,121.8z"/>
		<path class="st0" d="M64.4,112c-0.6,2.7-2.6,1.3-4,1.2c-4-0.3-7.2-2.9-10.8-4.1c-1.3-0.5-1.4-1.4-1.2-2.5c0.2-1.2,0.6-2.4,2-2.2
			c3.1,0.5,4.8-0.4,5.3-3.7c0.1-1,1-3,2.4-2.4c1.5,0.6,2.3,2.4,1.5,4.3c-1.6,4.1-0.3,6.9,4,8.3C63.8,111.2,64.1,111.6,64.4,112z"/>
		<path class="st4" d="M152.5,117.4c-1,1.1-2,2.1-3.5,2.5C149.9,118.8,150.6,117.3,152.5,117.4z"/>
		<path class="st4" d="M154.4,114.4c-0.1,1.2-0.7,2-1.6,2.7C153,116,153,114.8,154.4,114.4z"/>
		<path class="st4" d="M144.5,120.4c-0.4,0.4-0.7,0.3-0.8-0.3C144,120.2,144.3,120.3,144.5,120.4z"/>
		<path class="st13" d="M88.1,87.2c2-0.3,4.5-2.8,5.7,1c0.9,2.9-1.9,3-3.3,4.2c-0.8-0.1-1.6-0.4-2-1.3c-0.1-0.8,0.1-1.7-0.8-2.1
			c0-0.3,0-0.5,0-0.8c0-0.2,0.1-0.3,0.1-0.5C87.9,87.5,88,87.3,88.1,87.2z"/>
		<path class="st11" d="M87.7,89.1c0.9,0.4,0.8,1.3,0.8,2.1C87.9,90.6,87.5,89.9,87.7,89.1z"/>
		<path class="st11" d="M87.8,87.7c0,0.2-0.1,0.3-0.1,0.5C87.8,88.1,87.8,87.9,87.8,87.7z"/>
		<path class="st13" d="M67.8,82.7c2.6,0.1,3.2,2.2,3.9,3.8c0.2,0.5-1.6,1.8-2.4,2.8c-1-1.4-3.9-0.5-3.6-3.4
			C65.9,84.3,66.4,83.1,67.8,82.7z"/>
	</g>
</g>
</svg>
