<svg width="30.000000" height="30.000000" viewBox="0 0 30 30" fill="none" xmlns="http://www.w3.org/2000/svg" xmlns:xlink="http://www.w3.org/1999/xlink">
	<desc>
			Created with Pixso.
	</desc>
	<g clip-path="url(#clip2_41)">
		<path id="矢量 50" d="M6.81876 18.75L1.25 23.125L1.25 3.75C1.25 3.41847 1.3817 3.10054 1.61612 2.86612C1.85054 2.6317 2.16847 2.5 2.5 2.5L21.25 2.5C21.5815 2.5 21.8995 2.6317 22.1339 2.86612C22.3683 3.10054 22.5 3.41847 22.5 3.75L22.5 18.75L6.81876 18.75ZM5.95375 16.25L20 16.25L20 5L3.75 5L3.75 17.9812L5.95375 16.25ZM10 21.25L22.7962 21.25L25 22.9812L25 10L26.25 10C26.5815 10 26.8995 10.1317 27.1339 10.3661C27.3682 10.6005 27.5 10.9185 27.5 11.25L27.5 28.125L21.9312 23.75L11.25 23.75C10.9185 23.75 10.6005 23.6183 10.3661 23.3839C10.1317 23.1495 10 22.8315 10 22.5L10 21.25Z" fill-rule="nonzero" fill="#444444"/>
		<path id="Shape" d="M12.9482 13.9352L15.7746 10.9874C16.6053 10.1212 16.6053 8.71658 15.7746 7.85017C14.9439 6.98378 13.597 6.98378 12.7665 7.85017L12.4982 8.12993L12.2299 7.85017C11.3992 6.98378 10.0524 6.98378 9.22171 7.85017C8.39101 8.71658 8.39101 10.1212 9.22171 10.9874L12.0077 13.8929C12.2736 14.1149 12.6658 14.1292 12.9482 13.9352ZM12.501 14.4017L12.513 14.3891L12.4835 14.3891L12.4953 14.4017L12.4982 14.3987L12.501 14.4017Z" clip-rule="evenodd" fill-rule="evenodd" fill="#4A4C5B" fill-opacity="1.000000"/>
	</g>
	<defs>
		<clipPath id="clip2_41">
			<rect id="question-answer-line" width="30.000000" height="30.000000" fill="white"/>
		</clipPath>
	</defs>
</svg>
