<?xml version="1.0" encoding="utf-8"?>
<!-- Generator: Adobe Illustrator 24.0.1, SVG Export Plug-In . SVG Version: 6.00 Build 0)  -->
<svg version="1.1" id="图层_1" xmlns="http://www.w3.org/2000/svg" xmlns:xlink="http://www.w3.org/1999/xlink" x="0px" y="0px"
	 viewBox="0 0 153 87" style="enable-background:new 0 0 153 87;" xml:space="preserve">
<g>
	<g>
		<path d="M89.7,53c-1.3,0-2.5,0-3.8,0c-0.9,0-1.5,0.4-1.8,1.3c-2.2,5.7-4.5,11.4-6.8,17.2c-0.2,0.5-0.3,1.2-0.9,1.2
			s-0.7-0.7-0.9-1.2c-2.3-5.7-4.5-11.4-6.8-17.2c-0.4-1-0.9-1.3-1.9-1.3c-2.5,0.1-5,0-7.5,0c-0.7,0-1.5-0.1-1.5-1
			c0-0.8,0.7-1.1,1.5-1.1c2.5,0,5.1-0.1,7.6,0c1.1,0,1.5-0.4,1.6-1.5c0.9-5.6,1.8-11.2,2.8-16.8c0.2-1-0.1-1.6-1-1.8
			c-1.1-0.3-1.6-1-1.9-2.1c-0.3-1.2-0.8-2.4-1.1-3.6c-0.4-1.1-0.2-1.8,1.1-2.1c5.4-1.5,10.8-1.4,16.2,0.1c1,0.3,1.1,0.9,0.9,1.7
			c-0.4,1.6-1,3.2-1.5,4.8c-0.3,0.8-0.9,1.1-1.6,1.3c-0.9,0.3-1.2,0.7-1,1.7c1,5.7,1.9,11.4,2.8,17.1c0.1,0.9,0.5,1.3,1.5,1.3
			c2.3-0.1,4.6,0,6.9,0c0.4,0,0.7,0,1.1,0c0.6,0.1,1.3,0.3,1.2,1c0,0.8-0.7,1-1.4,1C92.3,53,91,53,89.7,53L89.7,53z M76.4,68.9
			c0.8-2.1,1.5-3.8,2.1-5.6c0.2-0.6,0.2-1.4,0-2c-0.2-1-0.8-1.8-2-2c-1.2-0.1-1.8,0.6-2.2,1.6c-0.4,1-0.3,2.1,0.1,3.1
			C75,65.5,75.6,67,76.4,68.9z M76.3,27.7c-1.9,0.3-3.9,0.4-5.7,1.2c-0.3,0.1-0.8,0.2-0.7,0.7c0.1,0.5,0.6,0.2,0.9,0.2
			c3.7-0.8,7.3-0.8,11,0c0.3,0.1,0.8,0.4,0.9-0.1c0.1-0.4-0.4-0.6-0.7-0.7C80.3,28.1,78.3,28,76.3,27.7z M75.3,33L75.3,33
			c0,0.8,0,1.5,0,2.3c0,0.6,0.5,1,1.1,1s1.1-0.3,1.1-1c0-1.4,0-2.9,0-4.3c0-0.6-0.4-1-1-1c-0.7,0-1.1,0.3-1.2,1
			C75.2,31.6,75.3,32.3,75.3,33z"/>
		<path d="M76.2,78.3c-22.3,0-44.6,0-67,0c-0.7,0-1.4,0.1-2-0.2c-0.6-0.3-0.8-0.7-0.8-1.3c0.1-0.6,0.4-1,1-1.1c0.5-0.1,1,0,1.5,0
			c17.7,0,35.4,0,53.1,0c2,0,2,0,2.3-2.1c0.4-2.4,0.7-4.8,1.2-7.2c0.1-0.7,0-1.2-0.5-1.7c-1.1-1.1-2.1-2.3-3.1-3.4
			c-0.3-0.4-0.8-0.8-0.5-1.5c0.3-0.6,0.9-0.7,1.5-0.7c4.3-0.2,4.3-0.2,5.7,3.8c1.4,3.8,2.9,7.6,4.3,11.4c0.3,0.8,0.8,1.1,1.6,1.1
			c1.1-0.1,2.2-0.1,3.3,0c1,0.1,1.4-0.4,1.8-1.3c1.6-4.4,3.3-8.7,4.9-13.1c0.7-2,0.7-2,2.9-2c0.8,0,1.5,0,2.3,0
			c0.6,0,1.1,0.2,1.3,0.8c0.2,0.5,0,1-0.4,1.3c-0.6,0.6-1.1,1.4-1.7,1.9c-1.8,1.4-2.4,3-1.7,5.3c0.6,1.9,0.8,4,1.1,6
			c0.1,1,0.7,1.3,1.6,1.3c0.5,0,1.1,0,1.6,0c17.3,0,34.7,0,52,0c0.5,0,0.9,0,1.4,0c0.7,0,1.1,0.2,1.2,1c0.1,0.7-0.2,1.2-0.9,1.5
			c-0.6,0.2-1.3,0.1-1.9,0.1C121.1,78.3,98.6,78.3,76.2,78.3z"/>
		<path d="M30.7,60.5c2.1,0,4.2,0,6.3,0c0.5,0,1.2-0.1,1.4,0.6s-0.5,0.9-1,1.1c-1.2,0.4-1.6,1.2-1.7,2.5c-0.3,2.6-0.2,5.2,0,7.8
			c0,0.6,0.1,1.3-0.6,1.5c-0.7,0.2-0.9-0.4-1.2-0.9c-1.3-1.8-3.4-2.3-5.7-1.3c-1.3,0.6-2.4,1.5-3.8,1.9c-5.3,1.5-10.2,1.1-14.4-2.9
			c-2-1.9-3.1-4.3-3.4-7.1c-0.4-3.2-0.5-6.4,0.8-9.3c2-4.5,5.7-6.9,10.5-7.7c5.3-0.9,10.3,0,14.9,2.8c0.7,0.4,1.2,0.5,1.2-0.6
			c0-0.5,0.2-1,0.2-1.5c0.1-0.5,0.2-0.8,0.7-0.8s0.7,0.4,0.8,0.8c0,0.2,0,0.5,0,0.7c0,2.9,0,5.9,0,8.8c0,0.6,0.1,1.4-0.7,1.6
			c-0.9,0.2-0.9-0.7-1.1-1.2c-1.4-3.3-3.2-6.5-6.6-8.1c-2.4-1.1-4.9-1.5-7.2,0.3c-1.4,1.1-2.1,2.8-2.5,4.4
			c-1.5,5.2-1.2,10.5,0.4,15.6c0.8,2.7,4.6,3.6,6.7,1.7c0.6-0.5,0.8-1.1,0.8-1.9c0-1.5,0-3,0-4.5c0-1.3-0.5-2.4-1.9-2.8
			c-0.5-0.2-0.9-0.3-0.8-0.9s0.6-0.6,1.1-0.6C26.2,60.5,28.5,60.5,30.7,60.5L30.7,60.5z"/>
		<path d="M144.4,64.7c0,1.9,0,3.9,0,5.8c0,1.1,0.3,1.9,1.4,2.2c0.4,0.1,0.6,0.3,0.7,0.8c0,0.5-0.3,0.7-0.7,0.8
			c-0.4,0.1-0.8,0.2-1.2,0.2c-3,0-6.1,0-9.1,0c-0.4,0-0.7,0-1.1-0.1c-0.4-0.1-0.7-0.3-0.7-0.7c0-0.5,0.2-0.8,0.7-0.9
			c1.3-0.1,1.4-1.1,1.4-2.1c0-4.3,0-8.6,0-12.9c0-1.8-1.4-2.7-3.2-2.1c-1.4,0.5-2.6,2.1-2.6,3.7c0,3.8,0,7.5,0,11.3
			c0,1,0.2,1.9,1.4,2.2c0.4,0.1,0.6,0.5,0.6,0.8c0,0.4-0.3,0.6-0.7,0.7s-0.8,0.2-1.2,0.2c-2.9,0-5.9,0-8.8,0c-0.4,0-0.9-0.1-1.3-0.2
			s-0.6-0.4-0.6-0.8s0.2-0.7,0.6-0.8c1.2-0.2,1.4-1.1,1.4-2c0-4.9,0-9.9,0-14.8c0-0.9-0.3-1.6-1.3-1.8c-0.5-0.1-0.7-0.3-0.7-0.8
			s0.4-0.7,0.8-0.8c0.8-0.2,1.5-0.1,2.3-0.1c2,0,4,0,6,0c0.8,0,1.3,0.2,1.3,1.1c0,1.2,0.6,1.1,1.4,0.6c3.8-2.3,7.5-1.9,11.1,0.4
			c1.5,1,2.1,2.4,2.2,4.2C144.4,60.7,144.4,62.7,144.4,64.7z"/>
		<path d="M113.4,64.4c0,1.5,0,3.1,0,4.6c0,0.9,0.4,1.1,1.1,0.5c0.8-0.6,1.4-1.4,1.9-2.3c0.3-0.5,0.5-0.9,1.1-0.7
			c0.6,0.2,0.5,0.8,0.4,1.3c-0.9,3.9-4.4,6.6-8.3,6.4c-1-0.1-2-0.4-2.5-1.4c-0.4-0.9-0.8-0.7-1.4-0.2c-2.9,2.3-7.2,2.2-9.6-0.2
			c-2.3-2.3-1.8-6.2,1.1-8.2c1.9-1.3,4-2.2,6.1-2.9c1.6-0.5,2.2-1.4,2-3c-0.1-0.4,0-0.8,0-1.2c0-0.5,0.2-1.2-0.6-1.1
			c-0.7,0-1.2,0.4-1.1,1.2c0.1,1.4-0.4,2.5-1.4,3.4c-1.3,1.3-2.9,1.5-4.5,1.2s-2.3-1.9-1.7-3.4c0.9-2.3,3-3.1,5.1-3.6
			c3.2-0.8,6.3-0.5,9.2,1c2,1,3.2,2.6,3.1,5C113.3,62,113.3,63.2,113.4,64.4L113.4,64.4z M105.3,66.9c0-0.6,0-1.3,0-1.9
			c0-0.5-0.1-0.8-0.7-0.5c-1.4,0.8-2.7,1.9-3.5,3.3c-0.5,0.8-0.4,1.7,0.2,2.4c0.6,0.6,1.3,0.6,2.1,0.3
			C105.1,70,105.3,69.6,105.3,66.9z"/>
		<path d="M49.1,74.3c-5.3-0.1-9.5-4.8-9.1-10.5c0.4-5.8,5.2-9.7,11-9.2c5.3,0.5,9.2,5.4,8.7,11C59.2,70.9,54.6,74.7,49.1,74.3z
			 M53,64.6c0-0.6,0-1.3,0-1.9c-0.1-1.4-0.3-2.9-0.9-4.2c-0.4-0.9-1-1.7-2.2-1.7s-1.8,0.8-2.3,1.7c-0.2,0.3-0.3,0.7-0.4,1
			c-0.7,3.2-0.7,6.4-0.1,9.7c0.1,0.8,0.3,1.5,0.8,2.2c1.1,1.6,3.2,1.5,4-0.2C52.9,69.1,53,66.9,53,64.6z"/>
		<path d="M62.7,21.4c-4.4-0.8-8.4-1.7-12.4-2.4c-2.4-0.4-2.5-0.4-2.5-2.8c0-0.8,0-1.5,0-2.3c0-1.6,0.4-1.8,1.8-1.2
			c4.7,2,9.4,4,14.1,6c1.1,0.5,2.2,0.9,3.2,1.4c0.6,0.3,0.9,0.7,0.9,1.3c0,0.7-0.3,1.1-0.9,1.4c-5.8,2.5-11.7,4.9-17.5,7.4
			c-1.2,0.5-1.7,0.2-1.7-1.1c0-1,0.1-2.1,0-3.1c-0.1-1.2,0.5-1.7,1.6-1.9c3.9-0.7,7.7-1.5,11.6-2.2C61.4,21.7,61.9,21.6,62.7,21.4z"
			/>
		<path d="M90.5,21.6c2.3,0.5,4.6,0.9,7,1.4c2,0.4,3.9,0.8,5.9,1.1c1.1,0.2,1.7,0.7,1.6,1.9c-0.1,1,0,2.1,0,3.1
			c0,1.3-0.5,1.6-1.7,1.1c-4.2-1.7-8.3-3.5-12.5-5.3c-1.6-0.7-3.1-1.4-4.7-2c-0.7-0.3-1.1-0.6-1.1-1.5c0-0.8,0.4-1.1,1.1-1.4
			c5.7-2.4,11.5-4.9,17.2-7.3c1.4-0.6,1.8-0.4,1.8,1.2c0,1.1,0,2.3,0,3.4c0,0.9-0.3,1.3-1.2,1.4c-4.4,0.8-8.7,1.7-13.1,2.5
			C90.6,21.4,90.6,21.5,90.5,21.6z"/>
		<path d="M82.6,20.5c-1.5-0.2-3.1-0.5-4.7-0.7c-2.2-0.2-4.4,0.1-6.6,0.5c-0.4,0.1-0.8,0.1-1.2,0.2c-0.5,0.1-0.8,0-1.1-0.3
			c-0.3-0.4-0.1-0.8,0.1-1.1c2.1-3.2,4.1-6.4,6.2-9.6c0.6-0.9,1.3-0.9,1.9,0c2.1,3.1,4.1,6.3,6.2,9.4c0.2,0.4,0.5,0.8,0.2,1.2
			C83.4,20.4,83.1,20.6,82.6,20.5z"/>
	</g>
</g>
</svg>
