<?xml version="1.0" encoding="utf-8"?>
<!-- Generator: Adobe Illustrator 24.0.1, SVG Export Plug-In . SVG Version: 6.00 Build 0)  -->
<svg version="1.1" id="图层_1" xmlns="http://www.w3.org/2000/svg" xmlns:xlink="http://www.w3.org/1999/xlink" x="0px" y="0px"
	 viewBox="0 0 104.7 173.2" style="enable-background:new 0 0 104.7 173.2;" xml:space="preserve">
<style type="text/css">
	.st0{fill:#953118;}
	.st1{fill:#0D0301;}
</style>
<g>
	<g>
		<path class="st0" d="M0.3,14.2c1.4-0.5,2.9-1,4.3-1.5c5.6-1.8,11.3-2.1,17.1-1.1c4,0.7,7.9,1.3,11.6,3.2c3.5,1.8,6.9,3.9,9.6,6.9
			c4.3,4.8,6.2,10.6,7.3,16.8c0.7,4,0.4,8.1,0.1,12.1c0,0.3,0,0.5,0,0.9c1.4-0.3,2.6-1,3.7-1.6c5.1-2.8,10.4-3.1,16-2
			c4.7,0.9,8.7,3.3,12.1,6.3c2.9,2.6,5.1,5.9,7,9.3c1.3,2.3,2.3,4.7,3.2,7.1c1.4,3.9,3,7.9,2.7,12.1c-0.2,3.8-1.3,7.4-3.3,10.7
			c-1.7,2.7-3.6,5.3-5.9,7.5c-1.6,1.5-3,3.1-4.8,4.5c-1.4,1.1-3,2.1-4.4,3.3c-2.5,1.9-5.3,3.5-8,5.2c-1.9,1.1-3.9,2.3-5.8,3.4
			c-2.1,1.2-4.2,2.3-6.5,3.2c-1.4,0.5-2.7,1.3-4.1,1.9c-0.7,0.3-0.9,0.8-0.5,1.3c1.2,1.5,1.1,3.5,2.2,5c1.7,2.3,2.9,4.8,5.1,6.9
			c3.2,3,6.9,4.9,10.9,6.2c2.5,0.8,5,1.7,7.6,1.8c1.6,0.1,3.2-0.1,4.8,0c1.1,0.1,1.8,0.7,2.7,1.1c0.6,0.3,0.6,2.1-0.2,2.8
			c-0.9,0.9-0.6,1.6-0.1,2.4c1.1,2,0.8,2.5-1.2,3.3c-3,1.3-5.6-1.2-6-3.8c-0.2-1.2-0.7-2.2-0.6-3.4c0-0.5-0.3-0.9-0.9-0.8
			c-1.6,0.3-3.2-0.1-4.7-0.3c-1.8-0.3-3.7-0.5-5.5-1.2c-1.1-0.4-2.3-0.6-3.5-1c-3-0.9-5.6-2.7-8-4.5c-2.7-2-4.7-4.8-6.5-7.7
			c-0.9-1.5-2.1-2.8-2.7-4.5c-0.2-0.5-0.6-0.5-1.1-0.3c-2.6,0.6-5,1.6-7.6,2.3c-3,0.8-6.1,1.6-9.2,2.2c-5.3,1-10.6,1.8-15.9,2.1
			c-3.2,0.2-6.5,0.6-9.7,0.2c-0.5-0.1-1-0.1-1.4,0.2C0.3,93.1,0.3,53.6,0.3,14.2z M28.8,62.3c0-2.4-2.3-4.4-5-4.4
			c-2,0-4.3,2.6-4.2,4.7c0,2.5,2.2,4.6,4.7,4.7C26.4,67.3,28.8,64.7,28.8,62.3z M43.8,73.8c0,2.2,1.5,3.9,3.5,3.9
			c2.3,0,4.6-2.6,4.6-5.2c0-1.8-1.8-3.8-3.4-3.8C46,68.8,43.8,71.1,43.8,73.8z M31.8,83.1c1.4-0.3,2.9-0.9,4.2-2.2
			c0.5-0.4,0.5-0.9-0.1-1.2c-2.8-1.4-5.5-2.7-8.3-4c-0.5-0.2-1-0.1-1.2,0.5C25.5,79.4,28.2,83.1,31.8,83.1z"/>
		<path class="st1" d="M28.8,62.3c0,2.4-2.4,5-4.5,5c-2.5,0-4.6-2.1-4.7-4.7c0-2.2,2.2-4.7,4.2-4.7C26.5,57.9,28.8,60,28.8,62.3z"/>
		<path class="st1" d="M43.8,73.8c0-2.7,2.2-5,4.7-5.1c1.7,0,3.4,1.9,3.4,3.8c0,2.6-2.4,5.2-4.6,5.2C45.3,77.7,43.8,76,43.8,73.8z"
			/>
		<path class="st1" d="M31.8,83.1c-3.5,0-6.3-3.7-5.3-6.9c0.2-0.7,0.7-0.8,1.2-0.5c2.8,1.3,5.5,2.7,8.3,4c0.6,0.3,0.5,0.8,0.1,1.2
			C34.7,82.2,33.2,82.8,31.8,83.1z"/>
	</g>
</g>
</svg>
