<?xml version="1.0" encoding="utf-8"?>
<!-- Generator: Adobe Illustrator 24.0.1, SVG Export Plug-In . SVG Version: 6.00 Build 0)  -->
<svg version="1.1" id="图层_1" xmlns="http://www.w3.org/2000/svg" xmlns:xlink="http://www.w3.org/1999/xlink" x="0px" y="0px"
	 viewBox="0 0 104.7 173.2" style="enable-background:new 0 0 104.7 173.2;" xml:space="preserve">
<style type="text/css">
	.st0{fill:#953118;}
	.st1{fill:#0D0301;}
</style>
<g>
	<g>
		<path class="st0" d="M0.3,16.9c4.4-2.3,9-4,14.1-4.4c3.7-0.3,7.2-0.2,10.8,0.7c1.8,0.4,3.8,0.4,5.6,1.1c5.4,1.9,10.5,4.3,14.5,8.7
			c3,3.3,4.9,7.1,6.1,11.2c1.4,4.9,2.2,10,1.5,15.3c-0.2,1.1,0,2.2,0,3.5c1.8-0.9,3.4-1.8,5.2-2.6c4.6-1.9,9.3-2.2,14.1-1.3
			c3.2,0.6,6.1,2,8.8,3.7c1.8,1.1,3.4,2.5,4.9,4c1.8,1.8,3.2,3.9,4.6,6c1.4,2.2,2.7,4.4,3.6,6.9c0.8,2.1,1.6,4.2,2.2,6.3
			c0.9,3.2,1.7,6.5,1.1,10c-0.7,4.5-2.5,8.3-5.2,12c-2.1,2.9-4.7,5.4-7.3,7.9c-2.2,2.2-5,3.9-7.7,5.6c-2.3,1.5-4.5,2.9-6.8,4.3
			c-2.1,1.2-4.2,2.3-6.3,3.6c-2.6,1.6-5.7,2.4-8.4,4.2c0.5,1.2,1.4,2,2.3,2.9c2.6,2.4,5.6,4.3,8.9,5.4c3.6,1.1,7.3,1.5,11.1,1.1
			c2.3-0.2,4.7-0.3,7-0.9c1.6-0.4,3.1-1.3,4.7-1.7c1-0.3,2-0.2,2.9,0.1c1.2,0.4,1.2,1.6,0.9,2.5c-0.4,1.2,0,1.9,0.9,2.5
			c1.6,1.2,1.4,2.1,0,3.4c-2.5,2.3-6,0.8-7.2-1.6c-0.5-1-1.4-1.8-1.8-2.9c-0.2-0.4-0.6-0.5-1-0.3c-2.8,1.3-5.9,1.7-9,2.1
			c-3.6,0.5-7.1,0.3-10.8-0.3c-4.2-0.8-7.6-2.8-11-5c-1.8-1.2-3.9-2.1-5.2-4.1c-0.2-0.3-0.5-0.2-0.7-0.2c-4.1,1.3-8.2,2.5-12.3,3.6
			c-5.7,1.4-11.6,2.2-17.4,3c-3.8,0.5-7.7,0.4-11.6,0.7c-2,0.1-4.1-0.3-6.2-0.2C0.3,94.7,0.3,55.8,0.3,16.9z M22.1,63.9
			c0,2.6,2.2,4.8,4.7,4.8c2.1,0,4.4-2.6,4.4-4.9c0-2.4-2.4-4.6-5-4.5C24.3,59.3,22.1,61.8,22.1,63.9z M49.2,79.1
			c3.3,0,5.8-3.5,5.1-6c-0.5-1.6-1.9-2.9-3.2-2.9c-3.1-0.1-5.8,4-4.4,6.8C47.3,78.3,48.3,79.1,49.2,79.1z M28.9,78.8
			c0,1.1,0.1,2.1,0.7,3c2.4,3.5,5.4,3.3,8.6,0.8c1-0.8,0.9-1.1-0.2-1.7c-2.3-1.3-4.7-2.1-6.9-3.4C29.3,76.5,28.9,76.9,28.9,78.8z"/>
		<path class="st1" d="M22.1,63.9c0-2.1,2.2-4.6,4.2-4.7c2.6-0.1,5,2.1,5,4.5c0,2.3-2.4,4.9-4.4,4.9C24.2,68.7,22.1,66.5,22.1,63.9z
			"/>
		<path class="st1" d="M49.2,79.1c-0.8,0-1.9-0.8-2.5-2.1c-1.4-2.8,1.3-6.9,4.4-6.8c1.3,0,2.7,1.3,3.2,2.9
			C55,75.6,52.4,79.1,49.2,79.1z"/>
		<path class="st1" d="M28.9,78.8c0-1.9,0.5-2.3,2.1-1.4c2.2,1.3,4.7,2.2,6.9,3.4c1.1,0.6,1.2,0.9,0.2,1.7c-3.2,2.5-6.2,2.7-8.6-0.8
			C28.9,80.9,28.9,79.9,28.9,78.8z"/>
	</g>
</g>
</svg>
