<?xml version="1.0" encoding="utf-8"?>
<!-- Generator: Adobe Illustrator 24.0.1, SVG Export Plug-In . SVG Version: 6.00 Build 0)  -->
<svg version="1.1" id="图层_1" xmlns="http://www.w3.org/2000/svg" xmlns:xlink="http://www.w3.org/1999/xlink" x="0px" y="0px"
	 viewBox="0 0 104.7 173.2" style="enable-background:new 0 0 104.7 173.2;" xml:space="preserve">
<style type="text/css">
	.st0{fill:#953118;}
	.st1{fill:#080201;}
</style>
<g>
	<g>
		<path class="st0" d="M0.3,14.5c4.4-2.3,9-4,14.1-4.4c3.6-0.3,7.2-0.2,10.8,0.7c1.8,0.4,3.8,0.4,5.6,1c5.4,1.9,10.5,4.3,14.5,8.7
			c3,3.3,4.9,7.1,6.1,11.2c1.4,4.9,2.2,10,1.5,15.3c-0.2,1.1,0,2.2,0,3.5c1.7-0.8,3.3-1.7,4.9-2.4c4.7-2,9.5-2.3,14.5-1.4
			c4.8,0.9,8.7,3.3,12.3,6.4c1.8,1.6,3.4,3.5,4.7,5.7c1.5,2.4,3.1,4.7,4.1,7.2c1.9,4.9,4.1,9.7,4.1,15.1c0,4-1.1,7.8-3.3,11.2
			c-0.7,1.1-1.4,2.1-2.1,3.1c-1.9,3.1-4.7,5.4-7.2,7.9c-2.2,2.2-5,3.9-7.7,5.6c-2.3,1.5-4.5,2.9-6.8,4.3c-2.1,1.2-4.2,2.3-6.3,3.5
			c-3,1.7-6.1,2.9-9.2,4.4c-0.8,0.4-1,0.8-0.6,1.6c1.8,3.8,4.1,7.1,7.6,9.7c3.4,2.6,7.1,4.2,11.2,5c2.3,0.5,4.6,0.8,6.9,1.1
			c1.6,0.2,3.1-0.5,4.7-0.5c1.1,0,2.1-0.1,3.2,0.4c1.4,0.7,2,1.9,1.1,3.1c-0.7,1-0.4,1.8,0.2,2.5c1.2,1.7,0.9,2.3-0.8,3.3
			c-2.9,1.7-6-0.6-6.6-3.3c-0.2-1.1-0.9-2-0.9-3.1c0-0.5-0.5-0.8-1-0.7c-3,0.5-6.1,0.2-9.1-0.1c-3.6-0.4-7.1-1.5-10.5-3
			c-3.9-1.7-6.6-4.6-9.3-7.5c-1.3-1.4-2.8-2.7-3.7-4.5c-0.3-0.6-0.7-0.7-1.3-0.6c-2.5,0.5-4.8,1.6-7.3,2.2c-3.1,0.8-6.2,1.6-9.4,2.2
			c-4,0.7-8,1.3-12.1,1.8c-2.6,0.3-5.2,0.1-7.8,0.4c-3,0.3-6-0.3-9-0.1C0.3,92.3,0.3,53.4,0.3,14.5z M22.5,61.5
			c0,2.5,1.8,4.3,4.3,4.3c2.3,0,4.1-2.2,4.1-4.7c0-2.2-2-3.9-4.4-3.9C24.2,57.3,22.5,59.2,22.5,61.5z M49.9,76.4
			c0.7,0.1,1.3-0.2,1.9-0.7c1-0.9,1.7-1.9,2.1-3.2c0.7-2.2-0.9-4.4-3.2-4.4c-2,0-3.2,1.1-3.8,2.8C45.8,73.9,47.3,76.3,49.9,76.4z
			 M34.3,81.4c0.3,0.1,0.9-0.2,1.4-0.5c0.8-0.4,2-0.7,2-1.6c0-1-1.2-1-1.9-1.4c-1.6-0.8-3.1-1.6-4.7-2.3c-1.1-0.5-1.8-0.1-1.7,0.9
			C29.5,79.4,31.2,81.1,34.3,81.4z"/>
		<path class="st1" d="M22.5,61.5c0-2.4,1.7-4.2,4-4.3c2.4-0.1,4.3,1.6,4.4,3.9c0,2.5-1.8,4.7-4.1,4.7
			C24.3,65.8,22.5,64.1,22.5,61.5z"/>
		<path class="st1" d="M49.9,76.4c-2.6-0.1-4.1-2.5-3-5.5c0.6-1.7,1.8-2.8,3.8-2.8c2.3,0,3.9,2.2,3.2,4.4c-0.4,1.3-1.1,2.4-2.1,3.2
			C51.2,76.2,50.6,76.5,49.9,76.4z"/>
		<path class="st1" d="M34.3,81.4c-3.1-0.3-4.9-2.1-5-4.9c0-1,0.7-1.3,1.7-0.9c1.6,0.7,3.2,1.5,4.7,2.3c0.7,0.4,2,0.4,1.9,1.4
			c0,0.9-1.2,1.2-2,1.6C35.2,81.2,34.6,81.5,34.3,81.4z"/>
	</g>
</g>
</svg>
