<?xml version="1.0" encoding="utf-8"?>
<!-- Generator: Adobe Illustrator 24.0.1, SVG Export Plug-In . SVG Version: 6.00 Build 0)  -->
<svg version="1.1" id="图层_1" xmlns="http://www.w3.org/2000/svg" xmlns:xlink="http://www.w3.org/1999/xlink" x="0px" y="0px"
	 viewBox="0 0 104.7 173.2" style="enable-background:new 0 0 104.7 173.2;" xml:space="preserve">
<style type="text/css">
	.st0{fill:#953118;}
	.st1{fill:#080201;}
</style>
<g>
	<g>
		<path class="st0" d="M0.3,14.2c3-1.4,6.1-2.7,9.4-3.3C14.1,10,18.5,10,23,10.7c4,0.7,8,1.4,11.7,3.3c3.5,1.8,6.9,3.9,9.6,7
			c4.3,4.8,6.2,10.6,7.3,16.8c0.7,4,0.4,8,0.1,12c0,0.3-0.1,0.6,0.1,1c1.1-0.5,2.3-0.9,3.4-1.6c3-1.9,6.3-2.4,9.6-2.7
			c5.1-0.4,9.8,1,14.2,3.6c3.2,1.9,6,4.4,8.2,7.4c3.1,4.2,5.6,8.8,7.2,13.9c0.8,2.7,1.7,5.3,2,8.1c0.5,3.8-0.4,7.3-1.8,10.6
			c-1.5,3.6-4,6.6-6.6,9.5c-1.3,1.5-2.7,2.9-4.2,4.2c-2.4,2.1-5,3.9-7.7,5.6c-2.2,1.4-4.4,2.8-6.6,4.1c-2.2,1.3-4.4,2.5-6.7,3.7
			c-2.3,1.3-4.8,2.2-7.1,3.4c-0.7,0.4-0.5,0.8,0.1,1c2.8,1.2,5.4,2.9,8.6,3.5c4.1,0.7,8.1,0.5,12.1-0.5c2.3-0.6,4.6-1.4,6.9-2.1
			c1.5-0.5,2.5-1.8,3.9-2.5c1-0.5,2-1,3.2-1.1c1.5-0.1,2.6,0.7,2.4,2.2c-0.2,1.3,0.4,1.9,1.4,2.4c1.7,0.9,1.7,1.8,0.6,3.4
			c-2,2.8-5.6,2-7.3,0c-0.7-0.8-1.5-1.6-2.3-2.4c-0.3-0.4-0.7-0.6-1.2-0.3c-2.5,1.8-5.3,2.8-8.1,3.8c-3.4,1.3-6.9,1.9-10.7,2
			c-6.3,0.2-11.7-2.3-17-5c-2-1-3.4-0.1-4.8,0.4c-3.3,1-6.7,2-10.1,2.8c-4.6,1.1-9.3,1.8-13.9,2.4c-4.6,0.6-9.3,0.7-13.9,1
			c-1.7,0.1-3.5-0.1-5.3-0.2C0.3,92.4,0.3,53.3,0.3,14.2z M21.4,61.7c0,2.6,1.7,4.3,4.2,4.3c2.3,0,4.2-2.1,4.1-4.7
			c0-2.2-1.8-3.9-4.2-3.9C23.2,57.5,21.4,59.3,21.4,61.7z M49.1,76.5c0.1,0,0.6,0,0.9-0.2c1.5-1.1,2.6-2.5,2.8-4.4
			c0.2-1.5-1.5-3.4-2.7-3.4c-2.2,0-3.9,1.3-4.4,3.5C45.1,74.2,46.7,76.4,49.1,76.5z M33.1,81.7c1.2,0,2.3-0.7,3.3-1.5
			c0.6-0.5,0.3-1-0.2-1.2c-2.2-1.1-4.4-2.2-6.6-3.1c-0.8-0.3-1.4,0-1.4,0.9C28.3,79.5,30.1,81.4,33.1,81.7z"/>
		<path class="st1" d="M21.4,61.7c0-2.4,1.8-4.3,4.2-4.2c2.3,0,4.2,1.7,4.2,3.9c0,2.5-1.9,4.7-4.1,4.7
			C23.1,66.1,21.4,64.3,21.4,61.7z"/>
		<path class="st1" d="M49.1,76.5c-2.5,0-4-2.3-3.4-4.6c0.6-2.2,2.2-3.5,4.4-3.5c1.2,0,2.9,2,2.7,3.4c-0.2,1.9-1.3,3.4-2.8,4.4
			C49.7,76.5,49.2,76.4,49.1,76.5z"/>
		<path class="st1" d="M33.1,81.7c-3.1-0.3-4.8-2.2-4.9-5c0-0.9,0.7-1.2,1.4-0.9c2.2,1,4.4,2.1,6.6,3.1c0.5,0.2,0.8,0.7,0.2,1.2
			C35.4,80.9,34.3,81.6,33.1,81.7z"/>
	</g>
</g>
</svg>
