<svg width="30.000000" height="30.000000" viewBox="0 0 30 30" fill="none" xmlns="http://www.w3.org/2000/svg" xmlns:xlink="http://www.w3.org/1999/xlink">
	<desc>
			Created with Pixso.
	</desc>
	<path id="Shape" d="M17.8296 20.2519C17.8296 20.2519 18.6183 18.6004 20.2974 16.9237C21.8278 15.5822 22.8 13.6837 22.8 11.5569C22.8 7.49399 19.3079 4.19998 15 4.19998C10.6922 4.19998 7.20002 7.49399 7.20002 11.5569C7.20002 13.6837 8.17225 15.5822 9.70267 16.9237C11.3818 18.6004 12.1474 20.2519 12.1474 20.2519L12.1638 20.9209L17.8362 20.9209L17.8296 20.2519ZM15.0014 25.2C16.5865 25.2 17.8717 24.0841 17.8717 22.7076L17.8717 22.0845L12.1316 22.0845L12.1316 22.7076C12.1316 24.0841 13.4164 25.2 15.0014 25.2Z" clip-rule="evenodd" fill-rule="evenodd" fill="#4A4C5B" fill-opacity="1.000000"/>
	<path id="Shape" d="M17.6932 11.8571L16.1053 13.3534C15.9743 13.4771 15.8005 13.53 15.6288 13.5218C15.6292 13.5257 15.6313 13.5292 15.6313 13.5331L15.6313 18.9784C15.6313 19.1931 15.4473 19.3673 15.2205 19.3673L14.8098 19.3673C14.5831 19.3673 14.3991 19.1931 14.3991 18.9784L14.3991 13.5331C14.3991 13.5269 14.4028 13.5214 14.4028 13.5156C14.222 13.5339 14.0351 13.4856 13.8963 13.3534L12.3228 11.8571C12.0788 11.6253 12.0788 11.2496 12.3228 11.0178L12.361 10.9812C12.6049 10.7494 13.0001 10.7494 13.244 10.9812L14.8176 12.4775C15.0078 12.6584 15.0447 12.9248 14.9384 13.1441L15.0542 13.1441C14.947 12.9248 14.9844 12.6584 15.1762 12.4775L16.7637 10.9812C17.0097 10.7494 17.4086 10.7494 17.6546 10.9812L17.6932 11.0178C17.9392 11.2496 17.9392 11.6253 17.6932 11.8571L17.6932 11.8571Z" fill-rule="evenodd" fill="#F3F4F5"/>
	<defs/>
</svg>
