<svg width="30.000000" height="30.000000" viewBox="0 0 30 30" fill="none" xmlns="http://www.w3.org/2000/svg" xmlns:xlink="http://www.w3.org/1999/xlink">
	<desc>
			Created with Pixso.
	</desc>
	<g clip-path="url(#clip2_58)">
		<path id="矢量 29" d="M14 2C19.085 2 23.2825 5.795 23.9175 10.7063L26.73 15.13C26.915 15.4212 26.8775 15.855 26.4487 16.04L24 17.0875L24 20.75C24 22.1312 22.8813 23.25 21.5 23.25L19.0013 23.25L19 27L7.75 27L7.75 22.3825C7.75 20.9075 7.205 19.5113 6.19501 18.2513C4.82124 16.5387 4 14.365 4 12C4 6.4775 8.47749 2 14 2ZM14 4.5C9.8575 4.5 6.5 7.8575 6.5 12C6.5 13.7312 7.08501 15.3662 8.145 16.6875C9.5125 18.3925 10.25 20.3337 10.25 22.3825L10.25 24.5L16.5 24.5L16.5025 20.75L21.5 20.75L21.5 15.44L23.4375 14.61L21.5088 11.5788L21.4375 11.0263C20.9575 7.31375 17.78 4.5 14 4.5ZM13.3375 9.20375L14 9.86625L14.6625 9.20375C15.5175 8.34875 16.9025 8.34875 17.7563 9.20375C18.6113 10.0575 18.6113 11.4425 17.7563 12.2962L14 16.0537L10.2437 12.2962C9.38875 11.4425 9.38875 10.0575 10.2437 9.20375C11.0975 8.34875 12.4825 8.34875 13.3375 9.20375Z" fill-rule="nonzero" fill="#444444"/>
	</g>
	<defs>
		<clipPath id="clip2_58">
			<rect id="mental-health-line" width="30.000000" height="30.000000" fill="white"/>
		</clipPath>
	</defs>
</svg>
